<svg width="245" height="238" viewBox="0 0 245 238" fill="none" xmlns="http://www.w3.org/2000/svg">
<path d="M139.312 237.76C87.776 237.76 45.998 235.158 45.998 231.947C45.998 228.736 87.776 226.134 139.312 226.134C190.847 226.134 232.625 228.736 232.625 231.947C232.625 235.158 190.847 237.76 139.312 237.76Z" fill="#59A9A2"/>
<path opacity="0.8" d="M139.312 237.76C87.776 237.76 45.998 235.158 45.998 231.947C45.998 228.736 87.776 226.134 139.312 226.134C190.847 226.134 232.625 228.736 232.625 231.947C232.625 235.158 190.847 237.76 139.312 237.76Z" fill="white"/>
<path d="M69.1905 10.8926H163.017C169.495 10.8926 174.746 16.1439 174.746 22.6217V220.706C174.746 227.184 169.495 232.435 163.017 232.435H69.1905C62.7127 232.435 57.4614 227.184 57.4614 220.706V22.6217C57.4614 16.1439 62.7127 10.8926 69.1905 10.8926Z" fill="#263238"/>
<path d="M62.6769 35.2197H169.537V208.108H62.6769V35.2197Z" fill="white" stroke="#263238" stroke-width="1.33739" stroke-miterlimit="10"/>
<path d="M99.7257 105.227C90.6803 96.1814 90.6803 81.5158 99.7257 72.4703C108.771 63.4249 123.437 63.4249 132.482 72.4703C141.528 81.5158 141.528 96.1814 132.482 105.227C123.437 114.272 108.771 114.272 99.7257 105.227Z" fill="#59A9A2"/>
<path d="M85.6946 197.236H146.507C146.644 197.237 146.78 197.21 146.906 197.159C147.033 197.107 147.148 197.03 147.245 196.934C147.342 196.837 147.419 196.723 147.472 196.596C147.524 196.47 147.551 196.335 147.551 196.198C147.552 196.06 147.526 195.924 147.474 195.797C147.421 195.67 147.345 195.555 147.247 195.457C147.15 195.36 147.035 195.283 146.908 195.231C146.781 195.179 146.645 195.153 146.507 195.153H85.6946C85.5577 195.153 85.4222 195.18 85.2958 195.233C85.1695 195.285 85.0547 195.363 84.9582 195.46C84.8617 195.557 84.7854 195.672 84.7336 195.798C84.6817 195.925 84.6555 196.061 84.6563 196.198C84.6563 196.473 84.7657 196.737 84.9604 196.932C85.1551 197.127 85.4192 197.236 85.6946 197.236Z" fill="#59A9A2"/>
<path d="M83.7145 125.032H148.493C149.83 125.032 150.914 126.116 150.914 127.453V135.089C150.914 136.426 149.83 137.51 148.493 137.51H83.7145C82.3776 137.51 81.2938 136.426 81.2938 135.089V127.453C81.2938 126.116 82.3776 125.032 83.7145 125.032Z" fill="#59A9A2"/>
<path d="M83.7145 148.37H148.493C149.83 148.37 150.914 149.454 150.914 150.791V158.427C150.914 159.764 149.83 160.848 148.493 160.848H83.7145C82.3776 160.848 81.2938 159.764 81.2938 158.427V150.791C81.2938 149.454 82.3776 148.37 83.7145 148.37Z" fill="#59A9A2"/>
<path d="M104.571 100.403L111.386 96.4796V93.238C110.399 92.0441 109.685 90.6495 109.292 89.1512C109.057 89.2345 108.81 89.2774 108.561 89.278C107.716 89.278 107.179 86.6581 107.088 84.7867C106.104 82.7041 107.444 81.4847 107.444 81.4847C107.444 81.4847 106.889 80.9294 106.521 78.7019C106.152 76.4744 107.819 77.404 109.116 75.3636C110.414 73.3233 111.344 71.1018 115.606 71.1018C116.78 71.0632 117.939 71.3787 118.932 72.0075C119.924 72.6362 120.705 73.549 121.172 74.6272C122.232 74.631 123.289 74.7545 124.323 74.9954C125.627 75.3636 125.995 79.6315 124.884 81.3036C124.387 82.2175 124.121 83.2394 124.111 84.2797C124.407 83.9175 124.715 83.8209 124.884 84.6419C125.252 86.4951 123.767 89.0908 123.767 89.0908L123.001 88.8735C122.614 90.4747 121.869 91.9671 120.821 93.238V96.4796L127.637 100.403C128.433 100.863 129.094 101.524 129.554 102.319C130.013 103.115 130.256 104.018 130.257 104.937V107.182C126.203 110.314 121.226 112.012 116.104 112.012C110.982 112.012 106.004 110.314 101.951 107.182V104.937C101.951 104.018 102.193 103.114 102.652 102.318C103.112 101.523 103.774 100.862 104.571 100.403Z" fill="#263238"/>
<path d="M142.094 157.744C142.25 157.742 142.4 157.679 142.511 157.569C142.57 157.516 142.618 157.451 142.65 157.378C142.682 157.305 142.698 157.226 142.698 157.147C142.696 157.038 142.665 156.931 142.607 156.839L141.521 155.1L143.64 155.167C143.719 155.172 143.799 155.16 143.874 155.132C143.949 155.104 144.017 155.06 144.074 155.004C144.173 154.893 144.227 154.75 144.227 154.602C144.227 154.454 144.173 154.311 144.074 154.201C144.019 154.142 143.951 154.097 143.876 154.068C143.801 154.039 143.72 154.026 143.64 154.032L141.551 154.11L142.625 152.378C142.684 152.283 142.715 152.175 142.716 152.064C142.717 151.984 142.7 151.905 142.668 151.832C142.636 151.76 142.588 151.694 142.529 151.641C142.418 151.531 142.269 151.468 142.112 151.466C142.009 151.467 141.909 151.497 141.822 151.552C141.736 151.608 141.667 151.687 141.623 151.78L140.591 153.645L139.571 151.792C139.523 151.693 139.448 151.61 139.355 151.55C139.263 151.49 139.156 151.457 139.046 151.454C138.969 151.455 138.894 151.471 138.824 151.502C138.755 151.533 138.692 151.579 138.641 151.635C138.531 151.75 138.47 151.904 138.472 152.064C138.473 152.168 138.5 152.269 138.551 152.36L139.643 154.11L137.525 154.032C137.444 154.026 137.363 154.039 137.288 154.068C137.213 154.097 137.146 154.142 137.09 154.201C136.987 154.308 136.931 154.451 136.933 154.599C136.933 154.749 136.989 154.893 137.09 155.004C137.147 155.06 137.215 155.104 137.29 155.132C137.365 155.16 137.445 155.172 137.525 155.167L139.655 155.1L138.593 156.821C138.533 156.917 138.502 157.028 138.502 157.141C138.502 157.301 138.566 157.454 138.679 157.567C138.792 157.681 138.946 157.744 139.106 157.744C139.21 157.743 139.31 157.711 139.396 157.653C139.482 157.595 139.549 157.514 139.589 157.418L140.597 155.607L141.599 157.418C141.644 157.513 141.713 157.593 141.801 157.651C141.888 157.709 141.99 157.741 142.094 157.744Z" fill="#263238"/>
<path d="M132.303 157.744C132.459 157.742 132.608 157.679 132.719 157.569C132.779 157.516 132.826 157.451 132.858 157.378C132.891 157.305 132.907 157.226 132.907 157.147C132.905 157.038 132.873 156.931 132.816 156.839L131.729 155.1L133.842 155.167C133.923 155.17 134.003 155.158 134.079 155.13C134.155 155.102 134.224 155.059 134.283 155.004C134.363 154.921 134.416 154.816 134.436 154.703C134.456 154.589 134.441 154.473 134.393 154.368C134.346 154.263 134.268 154.175 134.17 154.115C134.071 154.055 133.957 154.026 133.842 154.032L131.76 154.11L132.834 152.378C132.893 152.283 132.924 152.175 132.925 152.064C132.925 151.984 132.909 151.905 132.877 151.832C132.844 151.76 132.797 151.694 132.738 151.641C132.627 151.531 132.477 151.468 132.321 151.466C132.218 151.467 132.118 151.497 132.031 151.552C131.944 151.608 131.875 151.687 131.832 151.78L130.8 153.645L129.78 151.792C129.731 151.693 129.657 151.61 129.564 151.55C129.472 151.49 129.364 151.457 129.254 151.454C129.178 151.454 129.102 151.47 129.033 151.501C128.963 151.532 128.901 151.578 128.85 151.635C128.794 151.692 128.75 151.759 128.72 151.832C128.69 151.906 128.674 151.984 128.675 152.064C128.677 152.168 128.706 152.27 128.759 152.36L129.852 154.11L127.727 154.044C127.648 154.038 127.568 154.051 127.494 154.08C127.42 154.109 127.353 154.155 127.299 154.213C127.196 154.32 127.139 154.463 127.142 154.611C127.142 154.761 127.198 154.905 127.299 155.016C127.354 155.072 127.421 155.115 127.495 155.143C127.569 155.172 127.648 155.184 127.727 155.179L129.864 155.112L128.802 156.833C128.742 156.929 128.711 157.04 128.711 157.153C128.711 157.313 128.775 157.466 128.888 157.58C129.001 157.693 129.155 157.756 129.315 157.756C129.418 157.755 129.519 157.723 129.605 157.665C129.691 157.608 129.758 157.526 129.798 157.43L130.806 155.619L131.808 157.43C131.854 157.523 131.924 157.601 132.012 157.656C132.099 157.711 132.2 157.742 132.303 157.744Z" fill="#263238"/>
<path d="M122.506 157.744C122.664 157.744 122.816 157.681 122.928 157.569C122.987 157.516 123.035 157.451 123.067 157.378C123.099 157.305 123.116 157.226 123.115 157.147C123.113 157.038 123.082 156.931 123.025 156.839L121.938 155.1L124.051 155.167C124.165 155.171 124.277 155.142 124.374 155.082C124.471 155.022 124.548 154.935 124.595 154.832C124.643 154.728 124.658 154.613 124.64 154.5C124.621 154.388 124.57 154.284 124.492 154.201C124.435 154.143 124.366 154.097 124.29 154.068C124.214 154.039 124.132 154.027 124.051 154.032L121.968 154.11L123.043 152.378C123.101 152.283 123.133 152.175 123.133 152.064C123.131 151.985 123.114 151.906 123.082 151.834C123.05 151.761 123.004 151.696 122.946 151.641C122.834 151.53 122.682 151.467 122.524 151.466C122.422 151.468 122.323 151.498 122.237 151.554C122.152 151.609 122.084 151.688 122.041 151.78L121.008 153.645L119.988 151.792C119.94 151.693 119.865 151.61 119.773 151.55C119.68 151.49 119.573 151.457 119.463 151.454C119.387 151.454 119.311 151.47 119.241 151.501C119.172 151.532 119.109 151.578 119.059 151.635C119.003 151.692 118.958 151.759 118.928 151.832C118.898 151.906 118.883 151.984 118.884 152.064C118.886 152.168 118.915 152.27 118.968 152.36L120.061 154.11L117.936 154.032C117.858 154.024 117.779 154.033 117.704 154.058C117.63 154.083 117.562 154.124 117.505 154.178C117.448 154.232 117.403 154.297 117.373 154.37C117.343 154.443 117.329 154.521 117.332 154.599C117.331 154.748 117.385 154.892 117.483 155.004C117.54 155.06 117.608 155.104 117.683 155.132C117.758 155.16 117.838 155.172 117.918 155.167L120.049 155.1L118.992 156.821C118.933 156.917 118.901 157.028 118.902 157.141C118.904 157.22 118.921 157.298 118.953 157.37C118.985 157.443 119.031 157.508 119.089 157.563C119.141 157.62 119.205 157.665 119.275 157.696C119.346 157.727 119.422 157.744 119.499 157.744C119.602 157.742 119.702 157.711 119.787 157.653C119.871 157.595 119.937 157.513 119.976 157.418L120.99 155.607L121.992 157.418C122.038 157.516 122.11 157.599 122.201 157.657C122.292 157.715 122.398 157.745 122.506 157.744Z" fill="#263238"/>
<path d="M112.714 157.744C112.873 157.744 113.024 157.681 113.137 157.569C113.25 157.458 113.316 157.306 113.318 157.147C113.32 157.038 113.29 156.931 113.233 156.839L112.147 155.1L114.26 155.167C114.34 155.17 114.421 155.158 114.496 155.13C114.572 155.102 114.641 155.059 114.7 155.004C114.799 154.893 114.853 154.75 114.853 154.602C114.853 154.454 114.799 154.311 114.7 154.201C114.642 154.144 114.573 154.1 114.497 154.071C114.421 154.042 114.341 154.029 114.26 154.032L112.171 154.11L113.239 152.378C113.298 152.283 113.329 152.175 113.33 152.064C113.328 151.985 113.31 151.906 113.278 151.834C113.246 151.761 113.2 151.696 113.143 151.641C113.03 151.53 112.879 151.467 112.72 151.466C112.617 151.467 112.517 151.497 112.43 151.552C112.344 151.608 112.275 151.687 112.231 151.78L111.205 153.645L110.185 151.792C110.136 151.693 110.062 151.61 109.969 151.55C109.877 151.49 109.77 151.457 109.66 151.454C109.583 151.454 109.508 151.47 109.438 151.501C109.368 151.532 109.306 151.578 109.255 151.635C109.199 151.692 109.155 151.759 109.125 151.832C109.095 151.906 109.08 151.984 109.08 152.064C109.082 152.168 109.111 152.27 109.165 152.36L110.257 154.11L108.132 154.032C108.054 154.024 107.975 154.033 107.901 154.058C107.827 154.083 107.759 154.124 107.701 154.178C107.644 154.232 107.599 154.297 107.569 154.37C107.54 154.443 107.526 154.521 107.529 154.599C107.527 154.748 107.581 154.892 107.68 155.004C107.737 155.06 107.805 155.104 107.88 155.132C107.954 155.16 108.034 155.172 108.114 155.167L110.245 155.1L109.189 156.821C109.129 156.917 109.098 157.028 109.098 157.141C109.098 157.22 109.114 157.299 109.146 157.372C109.179 157.445 109.226 157.51 109.285 157.563C109.338 157.62 109.401 157.665 109.472 157.696C109.543 157.727 109.619 157.744 109.696 157.744C109.799 157.742 109.898 157.711 109.983 157.653C110.068 157.595 110.134 157.513 110.173 157.418L111.187 155.607L112.189 157.418C112.235 157.518 112.309 157.602 112.403 157.66C112.496 157.718 112.604 157.747 112.714 157.744Z" fill="#263238"/>
<path d="M102.923 157.744C103.081 157.744 103.233 157.681 103.345 157.569C103.439 157.474 103.499 157.351 103.515 157.219C103.531 157.087 103.504 156.953 103.436 156.839L102.355 155.1L104.468 155.167C104.549 155.17 104.629 155.158 104.705 155.13C104.781 155.102 104.85 155.059 104.909 155.004C105.007 154.893 105.062 154.75 105.062 154.602C105.062 154.454 105.007 154.311 104.909 154.201C104.851 154.144 104.782 154.1 104.706 154.071C104.63 154.042 104.549 154.029 104.468 154.032L102.38 154.11L103.454 152.378C103.513 152.283 103.544 152.175 103.545 152.064C103.542 151.905 103.477 151.753 103.364 151.641C103.251 151.53 103.099 151.467 102.941 151.466C102.838 151.467 102.738 151.497 102.651 151.552C102.564 151.608 102.495 151.687 102.452 151.78L101.426 153.645L100.406 151.792C100.357 151.693 100.283 151.61 100.19 151.55C100.098 151.49 99.9905 151.457 99.8805 151.454C99.8032 151.454 99.7266 151.47 99.6559 151.501C99.5852 151.532 99.5218 151.578 99.47 151.635C99.3592 151.75 99.2984 151.904 99.301 152.064C99.3031 152.168 99.3322 152.27 99.3855 152.36L100.478 154.11L98.3532 154.032C98.2751 154.024 98.1962 154.033 98.1219 154.058C98.0475 154.083 97.9794 154.124 97.9222 154.178C97.865 154.232 97.82 154.297 97.7902 154.37C97.7605 154.443 97.7466 154.521 97.7496 154.599C97.7483 154.748 97.802 154.892 97.9005 155.004C97.9573 155.06 98.0255 155.104 98.1004 155.132C98.1753 155.16 98.2553 155.172 98.3351 155.167L100.466 155.1L99.4096 156.821C99.3501 156.917 99.3187 157.028 99.3191 157.141C99.3185 157.22 99.3349 157.299 99.3671 157.372C99.3994 157.445 99.4468 157.51 99.5062 157.563C99.5587 157.62 99.6222 157.665 99.6928 157.696C99.7634 157.727 99.8395 157.744 99.9167 157.744C100.019 157.742 100.119 157.711 100.204 157.653C100.289 157.595 100.355 157.513 100.394 157.418L101.408 155.607L102.41 157.418C102.455 157.516 102.527 157.599 102.618 157.657C102.709 157.715 102.815 157.745 102.923 157.744Z" fill="#263238"/>
<path d="M93.1317 157.744C93.288 157.742 93.4373 157.679 93.5482 157.569C93.6076 157.516 93.655 157.451 93.6873 157.378C93.7195 157.305 93.7359 157.226 93.7353 157.147C93.7335 157.038 93.7022 156.931 93.6448 156.839L92.5642 155.1L94.6771 155.167C94.7548 155.172 94.8329 155.162 94.9063 155.136C94.9798 155.11 95.0471 155.069 95.1039 155.016C95.1607 154.962 95.2057 154.898 95.2361 154.826C95.2666 154.754 95.2818 154.677 95.2807 154.599C95.2811 154.525 95.2669 154.452 95.2389 154.384C95.211 154.315 95.1698 154.253 95.1177 154.201C95.0621 154.142 94.9943 154.097 94.9192 154.068C94.8441 154.039 94.7635 154.026 94.6831 154.032L92.5944 154.11L93.6689 152.378C93.7274 152.283 93.7587 152.175 93.7595 152.064C93.7572 151.905 93.6921 151.753 93.5784 151.641C93.4659 151.53 93.3142 151.467 93.1558 151.466C93.053 151.467 92.9524 151.497 92.8659 151.552C92.7793 151.608 92.7103 151.687 92.6669 151.78L91.6406 153.645L90.6144 151.792C90.5665 151.694 90.4929 151.611 90.4015 151.551C90.3101 151.492 90.2043 151.458 90.0953 151.454C90.018 151.454 89.9414 151.47 89.8707 151.501C89.8 151.532 89.7366 151.578 89.6848 151.635C89.574 151.75 89.5132 151.904 89.5158 152.064C89.5161 152.168 89.5431 152.269 89.5942 152.36L90.6869 154.11L88.568 154.032C88.4876 154.026 88.407 154.039 88.3319 154.068C88.2568 154.097 88.189 154.142 88.1334 154.201C88.0305 154.308 87.9741 154.451 87.9764 154.599C87.9768 154.749 88.0328 154.893 88.1334 155.004C88.1903 155.06 88.2584 155.104 88.3333 155.132C88.4082 155.16 88.4882 155.172 88.568 155.167L90.6989 155.1L89.6425 156.821C89.583 156.917 89.5516 157.028 89.552 157.141C89.5543 157.3 89.6193 157.452 89.7331 157.563C89.8431 157.675 89.9925 157.74 90.1496 157.744C90.2523 157.742 90.3521 157.711 90.4369 157.653C90.5217 157.595 90.5876 157.513 90.6265 157.418L91.6406 155.607L92.6427 157.418C92.6862 157.512 92.7548 157.593 92.8411 157.65C92.9275 157.708 93.028 157.74 93.1317 157.744Z" fill="#263238"/>
<g style="mix-blend-mode:multiply">
<path d="M62.6769 35.4492H169.537V42.1438H62.6769V35.4492Z" fill="#59A9A2"/>
</g>
<path d="M104.486 23.1163H127.727C128.147 23.1163 128.549 22.9497 128.846 22.6531C129.142 22.3565 129.309 21.9542 129.309 21.5347C129.309 21.1152 129.142 20.713 128.846 20.4164C128.549 20.1198 128.147 19.9531 127.727 19.9531H104.486C104.067 19.9531 103.665 20.1198 103.368 20.4164C103.071 20.713 102.905 21.1152 102.905 21.5347C102.905 21.9542 103.071 22.3565 103.368 22.6531C103.665 22.9497 104.067 23.1163 104.486 23.1163Z" fill="#59A9A2" stroke="#263238" stroke-width="1.33739" stroke-linecap="round" stroke-linejoin="round"/>
<path d="M109.768 217.875C109.767 216.621 110.138 215.394 110.834 214.351C111.53 213.308 112.52 212.494 113.678 212.014C114.837 211.533 116.112 211.407 117.342 211.652C118.572 211.896 119.702 212.5 120.589 213.387C121.475 214.274 122.079 215.404 122.324 216.634C122.568 217.864 122.442 219.139 121.961 220.297C121.481 221.456 120.668 222.445 119.624 223.141C118.581 223.837 117.355 224.208 116.101 224.207C114.422 224.206 112.812 223.538 111.625 222.351C110.438 221.163 109.77 219.554 109.768 217.875Z" fill="#59A9A2"/>
<path d="M112.889 214.663H119.312V221.086H112.889V214.663Z" fill="#59A9A2" stroke="#263238" stroke-width="1.33739" stroke-linecap="round" stroke-linejoin="round"/>
<path d="M39.5931 144.989C39.5931 144.989 48.0081 123.608 40.5167 121.066C32.7174 118.416 33.0615 132.536 33.3633 139.417C33.9972 154.123 35.621 156.857 36.8344 153.265L39.5931 144.989ZM42.1224 161.668C39.8104 164.687 39.1585 161.56 43.3298 147.44C45.2856 140.8 49.5354 127.368 56.0549 132.409C62.3148 137.238 47.4165 154.744 47.4165 154.744L42.1224 161.668ZM46.5895 173.923C44.3862 175.878 44.3439 173.409 49.5776 163.214C52.0345 158.439 57.232 148.774 61.4878 153.555C65.5746 158.167 51.6482 169.377 51.6482 169.377L46.5895 173.923ZM51.4188 188.495C49.2154 190.457 49.1732 187.982 54.4069 177.792C56.8638 173.017 62.0613 163.346 66.3171 168.133C70.3797 172.757 56.4956 183.967 56.4956 183.967L51.4188 188.495ZM37.4743 158.831C40.9996 160.207 38.1986 161.705 23.4754 161.662C16.5695 161.662 2.46807 161.348 5.4743 153.676C8.35375 146.305 29.3249 155.692 29.3249 155.692L37.4743 158.831ZM41.4886 168.635C45.2192 169.28 42.7683 171.309 28.3288 174.194C21.5618 175.552 7.68368 178.058 9.10228 169.969C10.4605 162.169 32.8804 167.204 32.8804 167.204L41.4886 168.635ZM45.9798 180.605C49.1551 181.064 47.1268 182.833 34.9872 185.609C29.2947 186.913 17.6139 189.358 18.628 182.458C19.5939 175.818 38.6695 179.573 38.6695 179.573L45.9798 180.605ZM49.3905 191.694C52.4993 192.485 50.296 194.03 37.921 195.503C32.1258 196.192 20.2519 197.387 21.9844 190.632C23.6565 184.149 42.225 189.889 42.225 189.889L49.3905 191.694ZM31.1962 146.8C33.0072 150.857 29.2464 150.241 16.4609 139.085C10.4726 133.852 -1.54023 122.901 7.97343 117.45C17.1068 112.211 26.9283 137.492 26.9283 137.492L31.1962 146.8ZM48.9196 206.14C50.8332 207.257 48.9559 207.691 40.1786 205.941C36.0617 205.126 27.6889 203.315 30.5201 199.741C33.2607 196.3 44.4888 203.544 44.4888 203.544L48.9196 206.14Z" fill="#59A9A2"/>
<path opacity="0.3" d="M39.5931 144.989C39.5931 144.989 48.0081 123.608 40.5167 121.066C32.7174 118.416 33.0615 132.536 33.3633 139.417C33.9972 154.123 35.621 156.857 36.8344 153.265L39.5931 144.989ZM42.1224 161.668C39.8104 164.687 39.1585 161.56 43.3298 147.44C45.2856 140.8 49.5354 127.368 56.0549 132.409C62.3148 137.238 47.4165 154.744 47.4165 154.744L42.1224 161.668ZM46.5895 173.923C44.3862 175.878 44.3439 173.409 49.5776 163.214C52.0345 158.439 57.232 148.774 61.4878 153.555C65.5746 158.167 51.6482 169.377 51.6482 169.377L46.5895 173.923ZM51.4188 188.495C49.2154 190.457 49.1732 187.982 54.4069 177.792C56.8638 173.017 62.0613 163.346 66.3171 168.133C70.3797 172.757 56.4956 183.967 56.4956 183.967L51.4188 188.495ZM37.4743 158.831C40.9996 160.207 38.1986 161.705 23.4754 161.662C16.5695 161.662 2.46807 161.348 5.4743 153.676C8.35375 146.305 29.3249 155.692 29.3249 155.692L37.4743 158.831ZM41.4886 168.635C45.2192 169.28 42.7683 171.309 28.3288 174.194C21.5618 175.552 7.68368 178.058 9.10228 169.969C10.4605 162.169 32.8804 167.204 32.8804 167.204L41.4886 168.635ZM45.9798 180.605C49.1551 181.064 47.1268 182.833 34.9872 185.609C29.2947 186.913 17.6139 189.358 18.628 182.458C19.5939 175.818 38.6695 179.573 38.6695 179.573L45.9798 180.605ZM49.3905 191.694C52.4993 192.485 50.296 194.03 37.921 195.503C32.1258 196.192 20.2519 197.387 21.9844 190.632C23.6565 184.149 42.225 189.889 42.225 189.889L49.3905 191.694ZM31.1962 146.8C33.0072 150.857 29.2464 150.241 16.4609 139.085C10.4726 133.852 -1.54023 122.901 7.97343 117.45C17.1068 112.211 26.9283 137.492 26.9283 137.492L31.1962 146.8ZM48.9196 206.14C50.8332 207.257 48.9559 207.691 40.1786 205.941C36.0617 205.126 27.6889 203.315 30.5201 199.741C33.2607 196.3 44.4888 203.544 44.4888 203.544L48.9196 206.14Z" fill="white"/>
<path d="M35.8805 154.943L37.3473 130.538L35.8805 154.943ZM40.5226 162.996L49.7948 142.007L40.5226 162.996ZM16.5935 156.893L38.8142 160.081L16.5935 156.893ZM45.3277 174.309L57.3586 158.873L45.3277 174.309ZM43.2149 169.576L26.6384 170.409L43.2149 169.576ZM47.1387 181.414L34.4619 182.67L47.1387 181.414ZM50.1993 188.936L56.4954 179.464L50.1993 188.936ZM50.9236 192.28L36.0193 192.419L50.9236 192.28ZM53.9419 220.241C53.8421 220.234 53.7493 220.187 53.6837 220.111C53.6182 220.035 53.5852 219.937 53.5918 219.837C54.5396 205.603 49.0342 182.289 40.2027 163.153C34.5584 150.923 12.4343 126.885 12.1989 126.644C12.1278 126.573 12.0878 126.476 12.0878 126.375C12.0878 126.275 12.1278 126.178 12.1989 126.107C12.2337 126.072 12.2751 126.044 12.3207 126.025C12.3662 126.006 12.4151 125.996 12.4645 125.996C12.5139 125.996 12.5628 126.006 12.6084 126.025C12.654 126.044 12.6953 126.072 12.7301 126.107C12.9535 126.348 35.1681 150.476 40.8606 162.815C49.8552 182.416 55.2881 205.307 54.3222 219.885C54.3147 219.981 54.2715 220.071 54.2012 220.137C54.1308 220.203 54.0383 220.24 53.9419 220.241ZM35.8865 155.318C35.7867 155.312 35.6933 155.266 35.6266 155.192C35.56 155.117 35.5254 155.019 35.5303 154.919L36.9731 130.501C36.9754 130.452 36.9876 130.403 37.0089 130.358C37.0303 130.313 37.0604 130.273 37.0975 130.24C37.1346 130.206 37.1779 130.181 37.225 130.165C37.272 130.149 37.3218 130.142 37.3715 130.145C37.4713 130.151 37.5647 130.197 37.6313 130.271C37.698 130.346 37.7326 130.444 37.7277 130.544L36.2608 154.95C36.2561 155.046 36.2146 155.136 36.1449 155.203C36.0752 155.269 35.9827 155.306 35.8865 155.306V155.318ZM40.3898 163.34C40.2994 163.299 40.2285 163.225 40.1924 163.132C40.1563 163.04 40.1578 162.937 40.1966 162.845L49.4749 141.856C49.5149 141.765 49.5895 141.693 49.6823 141.657C49.7752 141.621 49.8786 141.623 49.9699 141.663C50.0611 141.703 50.1327 141.778 50.169 141.87C50.2052 141.963 50.2031 142.067 50.163 142.158L40.8908 163.147C40.8617 163.215 40.8137 163.272 40.7527 163.313C40.6916 163.353 40.6201 163.376 40.5467 163.377C40.4843 163.38 40.422 163.367 40.3656 163.34H40.3898ZM38.7841 160.443L16.5754 157.268C16.5218 157.266 16.469 157.254 16.4205 157.231C16.3721 157.208 16.329 157.175 16.2942 157.134C16.2593 157.094 16.2335 157.046 16.2184 156.994C16.2033 156.943 16.1992 156.889 16.2065 156.836C16.2138 156.783 16.2323 156.732 16.2607 156.686C16.2891 156.641 16.3268 156.602 16.3713 156.572C16.4158 156.542 16.4662 156.522 16.519 156.513C16.5719 156.503 16.6261 156.506 16.6781 156.519L38.8867 159.694C38.9859 159.701 39.0786 159.746 39.1442 159.821C39.2099 159.896 39.2432 159.993 39.2368 160.093C39.2304 160.192 39.1848 160.285 39.1101 160.35C39.0354 160.416 38.9376 160.449 38.8384 160.443H38.7841ZM45.1164 174.611C45.0376 174.549 44.9864 174.458 44.9739 174.359C44.9615 174.259 44.9889 174.159 45.05 174.079L57.087 158.614C57.1486 158.534 57.2395 158.481 57.3397 158.468C57.4399 158.455 57.5412 158.483 57.6212 158.544C57.7013 158.606 57.7536 158.697 57.7666 158.797C57.7796 158.897 57.7523 158.998 57.6907 159.079L45.6295 174.568C45.5946 174.614 45.5497 174.65 45.4984 174.675C45.4472 174.7 45.3908 174.713 45.3338 174.713C45.2436 174.709 45.158 174.672 45.0923 174.611H45.1164ZM26.3064 170.427C26.3031 170.327 26.3393 170.23 26.4071 170.157C26.4749 170.083 26.5688 170.04 26.6686 170.035L43.2149 169.196C43.3079 169.202 43.3953 169.243 43.4605 169.309C43.5257 169.376 43.5642 169.464 43.5687 169.557C43.5732 169.65 43.5433 169.742 43.4847 169.814C43.4262 169.887 43.3431 169.935 43.2511 169.95L26.6747 170.79C26.5748 170.793 26.4776 170.757 26.4042 170.689C26.3308 170.621 26.287 170.527 26.2823 170.427H26.3064ZM34.1117 182.706C34.1059 182.656 34.11 182.606 34.124 182.558C34.1379 182.51 34.1613 182.465 34.1928 182.426C34.2243 182.387 34.2633 182.355 34.3074 182.332C34.3516 182.308 34.4 182.294 34.4498 182.289L47.1266 181.04C47.1758 181.035 47.2255 181.039 47.2728 181.054C47.3202 181.068 47.3642 181.092 47.4023 181.123C47.4405 181.155 47.4721 181.193 47.4952 181.237C47.5183 181.281 47.5326 181.328 47.5371 181.378C47.5456 181.477 47.5149 181.575 47.4518 181.652C47.3886 181.729 47.2979 181.778 47.1991 181.788L34.5222 183.044H34.486C34.3886 183.051 34.2925 183.019 34.218 182.956C34.1436 182.893 34.0968 182.803 34.0876 182.706H34.1117ZM50.0181 189.249C49.9343 189.194 49.8759 189.108 49.8555 189.009C49.8351 188.911 49.8545 188.808 49.9095 188.724L56.1755 179.253C56.2328 179.171 56.3195 179.115 56.4174 179.096C56.5153 179.077 56.6168 179.096 56.7007 179.15C56.7845 179.206 56.843 179.292 56.8633 179.39C56.8837 179.489 56.8643 179.591 56.8093 179.675L50.5433 189.147C50.5075 189.199 50.4597 189.241 50.404 189.27C50.3483 189.3 50.2864 189.315 50.2234 189.316C50.1416 189.32 50.0608 189.297 49.994 189.249H50.0181ZM35.639 192.419C35.6405 192.319 35.6802 192.224 35.7499 192.153C35.8196 192.083 35.9139 192.041 36.0133 192.038L50.9176 191.899C51.0169 191.899 51.1121 191.939 51.1822 192.009C51.2524 192.079 51.2919 192.174 51.2919 192.274C51.2935 192.324 51.285 192.373 51.2669 192.42C51.2487 192.466 51.2213 192.509 51.1863 192.544C51.1513 192.58 51.1094 192.608 51.0632 192.627C51.017 192.646 50.9675 192.655 50.9176 192.654L36.0133 192.793C35.9623 192.795 35.9114 192.787 35.8636 192.77C35.8157 192.752 35.7719 192.725 35.7347 192.69C35.6976 192.655 35.6678 192.613 35.6472 192.567C35.6266 192.52 35.6156 192.47 35.6148 192.419H35.639ZM55.6382 214.706C55.608 214.639 53.0666 207.637 45.4243 205.965C45.3259 205.943 45.2401 205.883 45.1857 205.798C45.1314 205.713 45.113 205.61 45.1345 205.512C45.1589 205.415 45.2196 205.332 45.304 205.279C45.3883 205.226 45.4898 205.208 45.5873 205.228C53.6461 206.991 56.3204 214.386 56.3505 214.458C56.3816 214.554 56.3744 214.657 56.3305 214.747C56.2866 214.837 56.2093 214.907 56.1151 214.941H55.9944C55.9141 214.948 55.8337 214.929 55.7652 214.886C55.6967 214.844 55.6437 214.781 55.6141 214.706H55.6382ZM53.9419 220.241C53.8421 220.234 53.7493 220.187 53.6837 220.111C53.6182 220.035 53.5852 219.937 53.5918 219.837C54.5396 205.603 49.0342 182.289 40.2027 163.153C34.5584 150.923 12.4343 126.885 12.1989 126.644C12.1278 126.573 12.0878 126.476 12.0878 126.375C12.0878 126.275 12.1278 126.178 12.1989 126.107C12.2337 126.072 12.2751 126.044 12.3207 126.025C12.3662 126.006 12.4151 125.996 12.4645 125.996C12.5139 125.996 12.5628 126.006 12.6084 126.025C12.654 126.044 12.6953 126.072 12.7301 126.107C12.9535 126.348 35.1681 150.476 40.8606 162.815C49.8552 182.416 55.2881 205.307 54.3222 219.885C54.3147 219.981 54.2715 220.071 54.2012 220.137C54.1308 220.203 54.0383 220.24 53.9419 220.241ZM35.8865 155.318C35.7867 155.312 35.6933 155.266 35.6266 155.192C35.56 155.117 35.5254 155.019 35.5303 154.919L36.9731 130.501C36.9754 130.452 36.9876 130.403 37.0089 130.358C37.0303 130.313 37.0604 130.273 37.0975 130.24C37.1346 130.206 37.1779 130.181 37.225 130.165C37.272 130.149 37.3218 130.142 37.3715 130.145C37.4713 130.151 37.5647 130.197 37.6313 130.271C37.698 130.346 37.7326 130.444 37.7277 130.544L36.2608 154.95C36.2561 155.046 36.2146 155.136 36.1449 155.203C36.0752 155.269 35.9827 155.306 35.8865 155.306V155.318ZM40.3898 163.34C40.2994 163.299 40.2285 163.225 40.1924 163.132C40.1563 163.04 40.1578 162.937 40.1966 162.845L49.4749 141.856C49.5149 141.765 49.5895 141.693 49.6823 141.657C49.7752 141.621 49.8786 141.623 49.9699 141.663C50.0611 141.703 50.1327 141.778 50.169 141.87C50.2052 141.963 50.2031 142.067 50.163 142.158L40.8908 163.147C40.8617 163.215 40.8137 163.272 40.7527 163.313C40.6916 163.353 40.6201 163.376 40.5467 163.377C40.4843 163.38 40.422 163.367 40.3656 163.34H40.3898ZM38.7841 160.443L16.5754 157.268C16.5218 157.266 16.469 157.254 16.4205 157.231C16.3721 157.208 16.329 157.175 16.2942 157.134C16.2593 157.094 16.2335 157.046 16.2184 156.994C16.2033 156.943 16.1992 156.889 16.2065 156.836C16.2138 156.783 16.2323 156.732 16.2607 156.686C16.2891 156.641 16.3268 156.602 16.3713 156.572C16.4158 156.542 16.4662 156.522 16.519 156.513C16.5719 156.503 16.6261 156.506 16.6781 156.519L38.8867 159.694C38.9859 159.701 39.0786 159.746 39.1442 159.821C39.2099 159.896 39.2432 159.993 39.2368 160.093C39.2304 160.192 39.1848 160.285 39.1101 160.35C39.0354 160.416 38.9376 160.449 38.8384 160.443H38.7841ZM45.1164 174.611C45.0376 174.549 44.9864 174.458 44.9739 174.359C44.9615 174.259 44.9889 174.159 45.05 174.079L57.087 158.614C57.1175 158.574 57.1556 158.541 57.1989 158.516C57.2423 158.491 57.2901 158.475 57.3397 158.468C57.3893 158.462 57.4397 158.465 57.488 158.478C57.5363 158.491 57.5816 158.514 57.6212 158.544C57.6609 158.575 57.6941 158.613 57.7191 158.656C57.744 158.7 57.7602 158.747 57.7666 158.797C57.773 158.847 57.7696 158.897 57.7566 158.945C57.7436 158.994 57.7212 159.039 57.6907 159.079L45.6295 174.568C45.5946 174.614 45.5497 174.65 45.4984 174.675C45.4472 174.7 45.3908 174.713 45.3338 174.713C45.2436 174.709 45.158 174.672 45.0923 174.611H45.1164ZM26.3064 170.427C26.3031 170.327 26.3393 170.23 26.4071 170.157C26.4749 170.083 26.5688 170.04 26.6686 170.035L43.2149 169.196C43.3079 169.202 43.3953 169.243 43.4605 169.309C43.5257 169.376 43.5642 169.464 43.5687 169.557C43.5732 169.65 43.5433 169.742 43.4847 169.814C43.4262 169.887 43.3431 169.935 43.2511 169.95L26.6747 170.79C26.5748 170.793 26.4776 170.757 26.4042 170.689C26.3308 170.621 26.287 170.527 26.2823 170.427H26.3064ZM34.1117 182.706C34.1059 182.656 34.11 182.606 34.124 182.558C34.1379 182.51 34.1613 182.465 34.1928 182.426C34.2243 182.387 34.2633 182.355 34.3074 182.332C34.3516 182.308 34.4 182.294 34.4498 182.289L47.1266 181.04C47.1758 181.035 47.2255 181.039 47.2728 181.054C47.3202 181.068 47.3642 181.092 47.4023 181.123C47.4405 181.155 47.4721 181.193 47.4952 181.237C47.5183 181.281 47.5326 181.328 47.5371 181.378C47.5456 181.477 47.5149 181.575 47.4518 181.652C47.3886 181.729 47.2979 181.778 47.1991 181.788L34.5222 183.044H34.486C34.3886 183.051 34.2925 183.019 34.218 182.956C34.1436 182.893 34.0968 182.803 34.0876 182.706H34.1117ZM50.0181 189.249C49.9343 189.194 49.8759 189.108 49.8555 189.009C49.8351 188.911 49.8545 188.808 49.9095 188.724L56.1755 179.253C56.2328 179.171 56.3195 179.115 56.4174 179.096C56.5153 179.077 56.6168 179.096 56.7007 179.15C56.7845 179.206 56.843 179.292 56.8633 179.39C56.8837 179.489 56.8643 179.591 56.8093 179.675L50.5433 189.147C50.5075 189.199 50.4597 189.241 50.404 189.27C50.3483 189.3 50.2864 189.315 50.2234 189.316C50.1416 189.32 50.0608 189.297 49.994 189.249H50.0181ZM35.639 192.419C35.6405 192.319 35.6802 192.224 35.7499 192.153C35.8196 192.083 35.9139 192.041 36.0133 192.038L50.9176 191.899C51.0169 191.899 51.1121 191.939 51.1822 192.009C51.2524 192.079 51.2919 192.174 51.2919 192.274C51.2935 192.324 51.285 192.373 51.2669 192.42C51.2487 192.466 51.2213 192.509 51.1863 192.544C51.1513 192.58 51.1094 192.608 51.0632 192.627C51.017 192.646 50.9675 192.655 50.9176 192.654L36.0133 192.793C35.9623 192.795 35.9114 192.787 35.8636 192.77C35.8157 192.752 35.7719 192.725 35.7347 192.69C35.6976 192.655 35.6678 192.613 35.6472 192.567C35.6266 192.52 35.6156 192.47 35.6148 192.419H35.639ZM55.6382 214.706C55.608 214.639 53.0666 207.637 45.4243 205.965C45.3259 205.943 45.2401 205.883 45.1857 205.798C45.1314 205.713 45.113 205.61 45.1345 205.512C45.1589 205.415 45.2196 205.332 45.304 205.279C45.3883 205.226 45.4898 205.208 45.5873 205.228C53.6461 206.991 56.3204 214.386 56.3505 214.458C56.3816 214.554 56.3744 214.657 56.3305 214.747C56.2866 214.837 56.2093 214.907 56.1151 214.941H55.9944C55.9141 214.948 55.8337 214.929 55.7652 214.886C55.6967 214.844 55.6437 214.781 55.6141 214.706H55.6382Z" fill="#59A9A2"/>
<path opacity="0.2" d="M35.8805 154.943L37.3473 130.538L35.8805 154.943ZM40.5226 162.996L49.7948 142.007L40.5226 162.996ZM16.5935 156.893L38.8142 160.081L16.5935 156.893ZM45.3277 174.309L57.3586 158.873L45.3277 174.309ZM43.2149 169.576L26.6384 170.409L43.2149 169.576ZM47.1387 181.414L34.4619 182.67L47.1387 181.414ZM50.1993 188.936L56.4954 179.464L50.1993 188.936ZM50.9236 192.28L36.0193 192.419L50.9236 192.28ZM53.9419 220.241C53.8421 220.234 53.7493 220.187 53.6837 220.111C53.6182 220.035 53.5852 219.937 53.5918 219.837C54.5396 205.603 49.0342 182.289 40.2027 163.153C34.5584 150.923 12.4343 126.885 12.1989 126.644C12.1278 126.573 12.0878 126.476 12.0878 126.375C12.0878 126.275 12.1278 126.178 12.1989 126.107C12.2337 126.072 12.2751 126.044 12.3207 126.025C12.3662 126.006 12.4151 125.996 12.4645 125.996C12.5139 125.996 12.5628 126.006 12.6084 126.025C12.654 126.044 12.6953 126.072 12.7301 126.107C12.9535 126.348 35.1681 150.476 40.8606 162.815C49.8552 182.416 55.2881 205.307 54.3222 219.885C54.3147 219.981 54.2715 220.071 54.2012 220.137C54.1308 220.203 54.0383 220.24 53.9419 220.241ZM35.8865 155.318C35.7867 155.312 35.6933 155.266 35.6266 155.192C35.56 155.117 35.5254 155.019 35.5303 154.919L36.9731 130.501C36.9754 130.452 36.9876 130.403 37.0089 130.358C37.0303 130.313 37.0604 130.273 37.0975 130.24C37.1346 130.206 37.1779 130.181 37.225 130.165C37.272 130.149 37.3218 130.142 37.3715 130.145C37.4713 130.151 37.5647 130.197 37.6313 130.271C37.698 130.346 37.7326 130.444 37.7277 130.544L36.2608 154.95C36.2561 155.046 36.2146 155.136 36.1449 155.203C36.0752 155.269 35.9827 155.306 35.8865 155.306V155.318ZM40.3898 163.34C40.2994 163.299 40.2285 163.225 40.1924 163.132C40.1563 163.04 40.1578 162.937 40.1966 162.845L49.4749 141.856C49.5149 141.765 49.5895 141.693 49.6823 141.657C49.7752 141.621 49.8786 141.623 49.9699 141.663C50.0611 141.703 50.1327 141.778 50.169 141.87C50.2052 141.963 50.2031 142.067 50.163 142.158L40.8908 163.147C40.8617 163.215 40.8137 163.272 40.7527 163.313C40.6916 163.353 40.6201 163.376 40.5467 163.377C40.4843 163.38 40.422 163.367 40.3656 163.34H40.3898ZM38.7841 160.443L16.5754 157.268C16.5218 157.266 16.469 157.254 16.4205 157.231C16.3721 157.208 16.329 157.175 16.2942 157.134C16.2593 157.094 16.2335 157.046 16.2184 156.994C16.2033 156.943 16.1992 156.889 16.2065 156.836C16.2138 156.783 16.2323 156.732 16.2607 156.686C16.2891 156.641 16.3268 156.602 16.3713 156.572C16.4158 156.542 16.4662 156.522 16.519 156.513C16.5719 156.503 16.6261 156.506 16.6781 156.519L38.8867 159.694C38.9859 159.701 39.0786 159.746 39.1442 159.821C39.2099 159.896 39.2432 159.993 39.2368 160.093C39.2304 160.192 39.1848 160.285 39.1101 160.35C39.0354 160.416 38.9376 160.449 38.8384 160.443H38.7841ZM45.1164 174.611C45.0376 174.549 44.9864 174.458 44.9739 174.359C44.9615 174.259 44.9889 174.159 45.05 174.079L57.087 158.614C57.1486 158.534 57.2395 158.481 57.3397 158.468C57.4399 158.455 57.5412 158.483 57.6212 158.544C57.7013 158.606 57.7536 158.697 57.7666 158.797C57.7796 158.897 57.7523 158.998 57.6907 159.079L45.6295 174.568C45.5946 174.614 45.5497 174.65 45.4984 174.675C45.4472 174.7 45.3908 174.713 45.3338 174.713C45.2436 174.709 45.158 174.672 45.0923 174.611H45.1164ZM26.3064 170.427C26.3031 170.327 26.3393 170.23 26.4071 170.157C26.4749 170.083 26.5688 170.04 26.6686 170.035L43.2149 169.196C43.3079 169.202 43.3953 169.243 43.4605 169.309C43.5257 169.376 43.5642 169.464 43.5687 169.557C43.5732 169.65 43.5433 169.742 43.4847 169.814C43.4262 169.887 43.3431 169.935 43.2511 169.95L26.6747 170.79C26.5748 170.793 26.4776 170.757 26.4042 170.689C26.3308 170.621 26.287 170.527 26.2823 170.427H26.3064ZM34.1117 182.706C34.1059 182.656 34.11 182.606 34.124 182.558C34.1379 182.51 34.1613 182.465 34.1928 182.426C34.2243 182.387 34.2633 182.355 34.3074 182.332C34.3516 182.308 34.4 182.294 34.4498 182.289L47.1266 181.04C47.1758 181.035 47.2255 181.039 47.2728 181.054C47.3202 181.068 47.3642 181.092 47.4023 181.123C47.4405 181.155 47.4721 181.193 47.4952 181.237C47.5183 181.281 47.5326 181.328 47.5371 181.378C47.5456 181.477 47.5149 181.575 47.4518 181.652C47.3886 181.729 47.2979 181.778 47.1991 181.788L34.5222 183.044H34.486C34.3886 183.051 34.2925 183.019 34.218 182.956C34.1436 182.893 34.0968 182.803 34.0876 182.706H34.1117ZM50.0181 189.249C49.9343 189.194 49.8759 189.108 49.8555 189.009C49.8351 188.911 49.8545 188.808 49.9095 188.724L56.1755 179.253C56.2328 179.171 56.3195 179.115 56.4174 179.096C56.5153 179.077 56.6168 179.096 56.7007 179.15C56.7845 179.206 56.843 179.292 56.8633 179.39C56.8837 179.489 56.8643 179.591 56.8093 179.675L50.5433 189.147C50.5075 189.199 50.4597 189.241 50.404 189.27C50.3483 189.3 50.2864 189.315 50.2234 189.316C50.1416 189.32 50.0608 189.297 49.994 189.249H50.0181ZM35.639 192.419C35.6405 192.319 35.6802 192.224 35.7499 192.153C35.8196 192.083 35.9139 192.041 36.0133 192.038L50.9176 191.899C51.0169 191.899 51.1121 191.939 51.1822 192.009C51.2524 192.079 51.2919 192.174 51.2919 192.274C51.2935 192.324 51.285 192.373 51.2669 192.42C51.2487 192.466 51.2213 192.509 51.1863 192.544C51.1513 192.58 51.1094 192.608 51.0632 192.627C51.017 192.646 50.9675 192.655 50.9176 192.654L36.0133 192.793C35.9623 192.795 35.9114 192.787 35.8636 192.77C35.8157 192.752 35.7719 192.725 35.7347 192.69C35.6976 192.655 35.6678 192.613 35.6472 192.567C35.6266 192.52 35.6156 192.47 35.6148 192.419H35.639ZM55.6382 214.706C55.608 214.639 53.0666 207.637 45.4243 205.965C45.3259 205.943 45.2401 205.883 45.1857 205.798C45.1314 205.713 45.113 205.61 45.1345 205.512C45.1589 205.415 45.2196 205.332 45.304 205.279C45.3883 205.226 45.4898 205.208 45.5873 205.228C53.6461 206.991 56.3204 214.386 56.3505 214.458C56.3816 214.554 56.3744 214.657 56.3305 214.747C56.2866 214.837 56.2093 214.907 56.1151 214.941H55.9944C55.9141 214.948 55.8337 214.929 55.7652 214.886C55.6967 214.844 55.6437 214.781 55.6141 214.706H55.6382ZM53.9419 220.241C53.8421 220.234 53.7493 220.187 53.6837 220.111C53.6182 220.035 53.5852 219.937 53.5918 219.837C54.5396 205.603 49.0342 182.289 40.2027 163.153C34.5584 150.923 12.4343 126.885 12.1989 126.644C12.1278 126.573 12.0878 126.476 12.0878 126.375C12.0878 126.275 12.1278 126.178 12.1989 126.107C12.2337 126.072 12.2751 126.044 12.3207 126.025C12.3662 126.006 12.4151 125.996 12.4645 125.996C12.5139 125.996 12.5628 126.006 12.6084 126.025C12.654 126.044 12.6953 126.072 12.7301 126.107C12.9535 126.348 35.1681 150.476 40.8606 162.815C49.8552 182.416 55.2881 205.307 54.3222 219.885C54.3147 219.981 54.2715 220.071 54.2012 220.137C54.1308 220.203 54.0383 220.24 53.9419 220.241ZM35.8865 155.318C35.7867 155.312 35.6933 155.266 35.6266 155.192C35.56 155.117 35.5254 155.019 35.5303 154.919L36.9731 130.501C36.9754 130.452 36.9876 130.403 37.0089 130.358C37.0303 130.313 37.0604 130.273 37.0975 130.24C37.1346 130.206 37.1779 130.181 37.225 130.165C37.272 130.149 37.3218 130.142 37.3715 130.145C37.4713 130.151 37.5647 130.197 37.6313 130.271C37.698 130.346 37.7326 130.444 37.7277 130.544L36.2608 154.95C36.2561 155.046 36.2146 155.136 36.1449 155.203C36.0752 155.269 35.9827 155.306 35.8865 155.306V155.318ZM40.3898 163.34C40.2994 163.299 40.2285 163.225 40.1924 163.132C40.1563 163.04 40.1578 162.937 40.1966 162.845L49.4749 141.856C49.5149 141.765 49.5895 141.693 49.6823 141.657C49.7752 141.621 49.8786 141.623 49.9699 141.663C50.0611 141.703 50.1327 141.778 50.169 141.87C50.2052 141.963 50.2031 142.067 50.163 142.158L40.8908 163.147C40.8617 163.215 40.8137 163.272 40.7527 163.313C40.6916 163.353 40.6201 163.376 40.5467 163.377C40.4843 163.38 40.422 163.367 40.3656 163.34H40.3898ZM38.7841 160.443L16.5754 157.268C16.5218 157.266 16.469 157.254 16.4205 157.231C16.3721 157.208 16.329 157.175 16.2942 157.134C16.2593 157.094 16.2335 157.046 16.2184 156.994C16.2033 156.943 16.1992 156.889 16.2065 156.836C16.2138 156.783 16.2323 156.732 16.2607 156.686C16.2891 156.641 16.3268 156.602 16.3713 156.572C16.4158 156.542 16.4662 156.522 16.519 156.513C16.5719 156.503 16.6261 156.506 16.6781 156.519L38.8867 159.694C38.9859 159.701 39.0786 159.746 39.1442 159.821C39.2099 159.896 39.2432 159.993 39.2368 160.093C39.2304 160.192 39.1848 160.285 39.1101 160.35C39.0354 160.416 38.9376 160.449 38.8384 160.443H38.7841ZM45.1164 174.611C45.0376 174.549 44.9864 174.458 44.9739 174.359C44.9615 174.259 44.9889 174.159 45.05 174.079L57.087 158.614C57.1175 158.574 57.1556 158.541 57.1989 158.516C57.2423 158.491 57.2901 158.475 57.3397 158.468C57.3893 158.462 57.4397 158.465 57.488 158.478C57.5363 158.491 57.5816 158.514 57.6212 158.544C57.6609 158.575 57.6941 158.613 57.7191 158.656C57.744 158.7 57.7602 158.747 57.7666 158.797C57.773 158.847 57.7696 158.897 57.7566 158.945C57.7436 158.994 57.7212 159.039 57.6907 159.079L45.6295 174.568C45.5946 174.614 45.5497 174.65 45.4984 174.675C45.4472 174.7 45.3908 174.713 45.3338 174.713C45.2436 174.709 45.158 174.672 45.0923 174.611H45.1164ZM26.3064 170.427C26.3031 170.327 26.3393 170.23 26.4071 170.157C26.4749 170.083 26.5688 170.04 26.6686 170.035L43.2149 169.196C43.3079 169.202 43.3953 169.243 43.4605 169.309C43.5257 169.376 43.5642 169.464 43.5687 169.557C43.5732 169.65 43.5433 169.742 43.4847 169.814C43.4262 169.887 43.3431 169.935 43.2511 169.95L26.6747 170.79C26.5748 170.793 26.4776 170.757 26.4042 170.689C26.3308 170.621 26.287 170.527 26.2823 170.427H26.3064ZM34.1117 182.706C34.1059 182.656 34.11 182.606 34.124 182.558C34.1379 182.51 34.1613 182.465 34.1928 182.426C34.2243 182.387 34.2633 182.355 34.3074 182.332C34.3516 182.308 34.4 182.294 34.4498 182.289L47.1266 181.04C47.1758 181.035 47.2255 181.039 47.2728 181.054C47.3202 181.068 47.3642 181.092 47.4023 181.123C47.4405 181.155 47.4721 181.193 47.4952 181.237C47.5183 181.281 47.5326 181.328 47.5371 181.378C47.5456 181.477 47.5149 181.575 47.4518 181.652C47.3886 181.729 47.2979 181.778 47.1991 181.788L34.5222 183.044H34.486C34.3886 183.051 34.2925 183.019 34.218 182.956C34.1436 182.893 34.0968 182.803 34.0876 182.706H34.1117ZM50.0181 189.249C49.9343 189.194 49.8759 189.108 49.8555 189.009C49.8351 188.911 49.8545 188.808 49.9095 188.724L56.1755 179.253C56.2328 179.171 56.3195 179.115 56.4174 179.096C56.5153 179.077 56.6168 179.096 56.7007 179.15C56.7845 179.206 56.843 179.292 56.8633 179.39C56.8837 179.489 56.8643 179.591 56.8093 179.675L50.5433 189.147C50.5075 189.199 50.4597 189.241 50.404 189.27C50.3483 189.3 50.2864 189.315 50.2234 189.316C50.1416 189.32 50.0608 189.297 49.994 189.249H50.0181ZM35.639 192.419C35.6405 192.319 35.6802 192.224 35.7499 192.153C35.8196 192.083 35.9139 192.041 36.0133 192.038L50.9176 191.899C51.0169 191.899 51.1121 191.939 51.1822 192.009C51.2524 192.079 51.2919 192.174 51.2919 192.274C51.2935 192.324 51.285 192.373 51.2669 192.42C51.2487 192.466 51.2213 192.509 51.1863 192.544C51.1513 192.58 51.1094 192.608 51.0632 192.627C51.017 192.646 50.9675 192.655 50.9176 192.654L36.0133 192.793C35.9623 192.795 35.9114 192.787 35.8636 192.77C35.8157 192.752 35.7719 192.725 35.7347 192.69C35.6976 192.655 35.6678 192.613 35.6472 192.567C35.6266 192.52 35.6156 192.47 35.6148 192.419H35.639ZM55.6382 214.706C55.608 214.639 53.0666 207.637 45.4243 205.965C45.3259 205.943 45.2401 205.883 45.1857 205.798C45.1314 205.713 45.113 205.61 45.1345 205.512C45.1589 205.415 45.2196 205.332 45.304 205.279C45.3883 205.226 45.4898 205.208 45.5873 205.228C53.6461 206.991 56.3204 214.386 56.3505 214.458C56.3816 214.554 56.3744 214.657 56.3305 214.747C56.2866 214.837 56.2093 214.907 56.1151 214.941H55.9944C55.9141 214.948 55.8337 214.929 55.7652 214.886C55.6967 214.844 55.6437 214.781 55.6141 214.706H55.6382Z" fill="black"/>
<path d="M44.0842 209.599H61.1738V213.136H59.6828L56.5981 232.435H48.66L45.5753 213.136H44.0842V209.599Z" fill="#59A9A2"/>
<path opacity="0.3" d="M44.0842 209.599H61.1738V213.136H59.6828L56.5981 232.435H48.66L45.5753 213.136H44.0842V209.599Z" fill="white"/>
<path d="M197.945 102.631L217.823 96.1416L219.592 91.4693L223.631 91.3425L230.959 89.9541L230.078 91.4693L220.854 98.1639L218.578 99.2987L197.788 110.159L197.945 102.631Z" fill="white" stroke="#263238" stroke-width="1.00396" stroke-miterlimit="10"/>
<path d="M219.592 91.4698L221.488 90.335L225.273 91.7234L224.645 92.4779L219.592 91.4698Z" fill="white" stroke="#263238" stroke-width="1.00396" stroke-linejoin="round"/>
<path d="M197.945 102.631L217.823 96.1416L219.592 91.4693L223.631 91.3425L230.959 89.9541L230.078 91.4693L220.854 98.1639L218.578 99.2987L197.788 110.159L197.945 102.631Z" fill="white"/>
<mask id="mask0_737_1570" style="mask-type:luminance" maskUnits="userSpaceOnUse" x="197" y="89" width="34" height="22">
<path d="M197.945 102.631L217.824 96.1416L219.592 91.4693L223.631 91.3425L230.959 89.9541L230.078 91.4693L220.854 98.1639L218.578 99.2987L197.788 110.159L197.945 102.631Z" fill="white"/>
</mask>
<g mask="url(#mask0_737_1570)">
<path opacity="0.5" d="M197.945 102.631L217.824 96.1416L219.592 91.4693L223.631 91.3425L230.959 89.9541L230.078 91.4693L220.854 98.1639L218.578 99.2987L197.788 110.159L197.945 102.631Z" fill="#59A9A2" stroke="#263238" stroke-width="1.00396" stroke-miterlimit="10"/>
</g>
<path d="M197.945 102.631L217.823 96.1416L219.592 91.4693L223.631 91.3425L230.959 89.9541L230.078 91.4693L220.854 98.1639L218.578 99.2987L197.788 110.159L197.945 102.631Z" stroke="#263238" stroke-width="1.00396" stroke-miterlimit="10"/>
<path d="M219.592 91.4698L221.488 90.335L225.273 91.7234L224.645 92.4779L219.592 91.4698Z" fill="white"/>
<mask id="mask1_737_1570" style="mask-type:luminance" maskUnits="userSpaceOnUse" x="219" y="90" width="7" height="3">
<path d="M219.592 91.4698L221.488 90.335L225.273 91.7234L224.645 92.4779L219.592 91.4698Z" fill="white"/>
</mask>
<g mask="url(#mask1_737_1570)">
<path opacity="0.5" d="M219.592 91.4698L221.488 90.335L225.273 91.7234L224.645 92.4779L219.592 91.4698Z" fill="#59A9A2" stroke="#263238" stroke-width="1.00396" stroke-linejoin="round"/>
</g>
<path d="M219.592 91.4698L221.488 90.335L225.273 91.7234L224.645 92.4779L219.592 91.4698Z" stroke="#263238" stroke-width="1.00396" stroke-linejoin="round"/>
<path d="M193.725 60.5136C193.725 60.5136 194.033 63.23 193.267 64.9746C192.5 66.7192 188.244 72.629 188.244 72.629L196.188 78.9976C196.188 78.9976 199.484 72.3573 200.112 71.2828C200.74 70.2083 201.494 65.5843 199.448 62.2702C197.402 58.9561 194.456 58.0627 193.725 60.5136Z" fill="white"/>
<mask id="mask2_737_1570" style="mask-type:luminance" maskUnits="userSpaceOnUse" x="188" y="59" width="13" height="20">
<path d="M193.725 60.5136C193.725 60.5136 194.033 63.23 193.267 64.9746C192.5 66.7192 188.244 72.629 188.244 72.629L196.188 78.9976C196.188 78.9976 199.484 72.3573 200.112 71.2828C200.74 70.2083 201.494 65.5843 199.448 62.2702C197.402 58.9561 194.456 58.0627 193.725 60.5136Z" fill="white"/>
</mask>
<g mask="url(#mask2_737_1570)">
<g style="mix-blend-mode:multiply" opacity="0.5">
<path d="M197.806 69.2432L194.359 76.3905L196.194 79.0043L199.659 72.8168L197.806 69.2432Z" fill="#59A9A2"/>
</g>
</g>
<path d="M193.725 60.5136C193.725 60.5136 194.033 63.23 193.267 64.9746C192.5 66.7192 188.244 72.629 188.244 72.629L196.188 78.9976C196.188 78.9976 199.484 72.3573 200.112 71.2828C200.74 70.2083 201.494 65.5843 199.448 62.2702C197.402 58.9561 194.456 58.0627 193.725 60.5136Z" stroke="#263238" stroke-width="1.00396" stroke-miterlimit="10"/>
<path d="M191.263 55.539C191.752 52.5207 195.21 46.3815 200.698 46.6169C204.259 46.7739 205.925 47.4922 207.471 48.3675C208.73 49.1097 209.905 49.9883 210.972 50.9874C213.652 54.2049 214.594 55.0863 214.075 57.5492C214.117 58.5316 213.963 59.5126 213.622 60.4347C212.801 62.626 212.24 64.0566 211.527 65.101C211.745 66.1212 212.312 68.8135 212.342 69.4292C212.373 70.0449 210.531 69.6163 209.602 69.3809C207.875 73.2443 204.712 75.9246 203.728 76.2324C202.014 76.7697 199.303 73.9506 197.867 71.7654C196.43 69.5801 197.516 67.1232 197.51 66.1453C197.504 65.1674 194.281 63.0184 193.086 62.3362C191.89 61.6541 190.78 58.5513 191.263 55.539Z" fill="white"/>
<mask id="mask3_737_1570" style="mask-type:luminance" maskUnits="userSpaceOnUse" x="191" y="46" width="24" height="31">
<path d="M191.263 55.54C191.752 52.5217 195.21 46.3825 200.698 46.6179C204.259 46.7749 205.925 47.4932 207.471 48.3685C208.73 49.1107 209.905 49.9893 210.972 50.9884C213.652 54.2059 214.594 55.0872 214.075 57.5502C214.117 58.5325 213.963 59.5135 213.622 60.4357C212.801 62.6269 212.24 64.0576 211.527 65.102C211.745 66.1221 212.312 68.8145 212.342 69.4302C212.373 70.0459 210.531 69.6173 209.602 69.3819C207.875 73.2453 204.712 75.9256 203.728 76.2334C202.014 76.7707 199.303 73.9516 197.867 71.7663C196.43 69.5811 197.516 67.1242 197.51 66.1463C197.504 65.1684 194.281 63.0193 193.086 62.3372C191.89 61.6551 190.78 58.5523 191.263 55.54Z" fill="white"/>
</mask>
<g mask="url(#mask3_737_1570)">
<g style="mix-blend-mode:multiply" opacity="0.5">
<path d="M214.051 57.5501C214.093 58.5325 213.939 59.5135 213.598 60.4356C212.777 62.6269 212.216 64.0576 211.503 65.1019C211.721 66.1221 212.288 68.8144 212.318 69.4302C212.348 70.0459 210.507 69.6173 209.578 69.3819C207.851 73.2453 204.688 75.9255 203.704 76.2334C201.99 76.7707 199.279 73.9516 197.843 71.7663C197.484 71.2207 197.251 70.6021 197.16 69.9553C197.239 69.6716 197.293 69.4966 197.293 69.4966C197.293 69.4966 198.102 72.6054 199.708 72.201C201.314 71.7965 203.77 68.579 205.141 67.4683C206.511 66.3575 205.95 64.8967 206.221 63.2427C206.493 61.5886 210.55 60.1338 210.821 59.1861C211.093 58.2383 210.145 54.3145 210.145 54.3145C210.145 54.3145 208.606 52.2621 208.938 53.1072C209.172 53.84 209.258 54.6125 209.188 55.3788C209.119 56.1451 208.896 56.8896 208.533 57.5683C208.279 58.1037 207.875 58.5544 207.371 58.866C206.866 59.1776 206.283 59.337 205.69 59.3249L204.217 52.0267L207.326 49.4551L210.948 50.9642C213.652 54.2059 214.576 55.0872 214.051 57.5501Z" fill="#59A9A2"/>
</g>
</g>
<path d="M191.263 55.539C191.752 52.5207 195.21 46.3815 200.698 46.6169C204.259 46.7739 205.925 47.4922 207.471 48.3675C208.73 49.1097 209.905 49.9883 210.972 50.9874C213.652 54.2049 214.594 55.0863 214.075 57.5492C214.117 58.5316 213.963 59.5126 213.622 60.4347C212.801 62.626 212.24 64.0566 211.527 65.101C211.745 66.1212 212.312 68.8135 212.342 69.4292C212.373 70.0449 210.531 69.6163 209.602 69.3809C207.875 73.2443 204.712 75.9246 203.728 76.2324C202.014 76.7697 199.303 73.9506 197.867 71.7654C196.43 69.5801 197.516 67.1232 197.51 66.1453C197.504 65.1674 194.281 63.0184 193.086 62.3362C191.89 61.6541 190.78 58.5513 191.263 55.539Z" stroke="#263238" stroke-miterlimit="10"/>
<path d="M210.779 63.2783L210.175 65.0048C210.175 65.0048 208.877 65.4334 207.296 63.7069" stroke="#263238" stroke-miterlimit="10" stroke-linecap="round"/>
<path d="M206.318 71.3437C206.318 71.3437 204.881 71.1988 204.302 69.1826" stroke="#263238" stroke-miterlimit="10" stroke-linecap="round"/>
<path d="M211.787 61.8359C211.787 61.8359 211.358 60.5381 208.769 60.5381" stroke="#263238" stroke-miterlimit="10" stroke-linecap="round"/>
<path d="M198.512 44.2149C200.394 43.9443 202.292 43.7991 204.193 43.7803C204.193 43.7803 209.879 40.5024 215.342 43.9976C220.806 47.4928 218.18 53.6139 218.18 55.1411C218.18 56.6684 219.93 56.6744 218.838 58.6423C217.745 60.6103 214.051 59.5237 214.051 59.5237C214.012 58.7814 213.815 58.0559 213.475 57.3952C213.135 56.7344 212.658 56.1533 212.077 55.6905C210.109 54.1632 208.539 53.8312 207.887 54.2719C207.887 54.2719 208.322 57.5497 207.67 58.8597C207.67 58.8597 205.485 59.9523 204.827 59.9523C204.169 59.9523 205.255 60.8759 203.076 61.6969C202.679 61.8394 202.254 61.888 201.835 61.8388C201.416 61.7896 201.015 61.6439 200.661 61.4131C200.342 60.0851 199.641 58.087 198.337 58.5518C196.424 59.2339 194.679 63.9425 197.269 65.5482C194.154 66.1156 190.381 60.6042 190.158 55.5818C189.934 50.5593 195.277 44.7823 198.512 44.2149Z" fill="#263238"/>
<path d="M207.791 52.1165C207.791 52.1165 206.185 51.2533 204.217 53.1005C202.249 54.9477 198.422 57.4166 193.351 56.0584" stroke="white" stroke-width="0.5" stroke-linecap="round" stroke-linejoin="round"/>
<path d="M208.014 50.6376C208.014 50.6376 206.909 48.9111 205.062 48.9111C203.215 48.9111 198.899 51.5008 195.452 51.5008" stroke="white" stroke-width="0.5" stroke-linecap="round" stroke-linejoin="round"/>
<path d="M209.27 53.9644C209.27 53.9644 211.364 51.3807 213.332 53.4754C215.3 55.5701 214.051 57.5501 214.051 57.5501" stroke="white" stroke-width="0.5" stroke-linecap="round" stroke-linejoin="round"/>
<path d="M217.642 55.6905C216.442 54.6079 215.696 53.1112 215.554 51.5011C215.306 48.7907 211.606 46.4485 209.27 48.6699" stroke="white" stroke-width="0.5" stroke-linecap="round" stroke-linejoin="round"/>
<path d="M213.827 45.8325C213.827 45.8325 210.127 42.2588 207.048 46.8164" stroke="white" stroke-width="0.5" stroke-linecap="round" stroke-linejoin="round"/>
<path d="M183.711 221.54C183.711 221.54 181.435 225.077 181.688 227.353L181.936 229.629C181.936 229.629 190.285 231.917 192.053 231.917C193.822 231.917 203.185 231.03 203.185 231.03L203.589 229.424C203.618 229.305 203.604 229.181 203.551 229.071C203.499 228.961 203.41 228.872 203.299 228.82L194.951 224.927L192.319 222.047L183.711 221.54Z" fill="white" stroke="#263238" stroke-width="1.00396" stroke-miterlimit="10"/>
<path d="M190.786 230.136C188.522 230.311 184.224 228.928 181.731 228.047L181.906 229.628C181.906 229.628 190.285 231.916 192.053 231.916C193.822 231.916 203.185 231.029 203.185 231.029L203.475 229.882C201.978 229.888 193.78 229.906 190.786 230.136Z" fill="#59A9A2" stroke="#263238" stroke-width="1.00396" stroke-miterlimit="10"/>
<path d="M194.939 224.927L207.091 230.215C207.091 230.215 208.129 232.816 207.091 233.336C206.052 233.855 183.415 233.336 183.415 233.336C183.415 233.336 181.852 229.225 184.321 226.466C186.789 223.707 194.939 224.927 194.939 224.927Z" fill="white" stroke="#263238" stroke-width="1.00396" stroke-miterlimit="10"/>
<path d="M183.415 233.335C183.415 233.335 206.052 233.855 207.09 233.335C207.591 233.082 207.609 232.351 207.495 231.657H183.016C183.096 232.228 183.23 232.79 183.415 233.335Z" fill="#59A9A2" stroke="#263238" stroke-width="1.00396" stroke-miterlimit="10"/>
<path d="M200.686 133.043C200.686 133.043 203.861 147.115 205.062 155.916C206.263 164.717 206.97 182.35 206.716 184.373C206.463 186.395 193.822 220.278 193.822 220.278L192.56 223.297L183.711 221.528C183.711 221.528 187.755 208.634 189.27 201.553C190.786 194.472 194.1 182.839 194.1 180.817C194.1 178.795 186.252 140.173 185.691 137.637C185.129 135.102 182.582 131.208 182.582 131.208L199.527 130.864L200.686 133.043Z" fill="#59A9A2" stroke="#263238" stroke-width="1.00396" stroke-miterlimit="10"/>
<path d="M200.686 133.043C200.686 133.043 202.545 145.895 201.778 154.829C201.012 163.763 199.364 182.785 199.364 185.616C199.364 188.447 194.794 205.355 194.534 210.668C194.13 218.34 194.697 222.137 194.697 222.137L194.969 224.92C194.969 224.92 189.639 225.681 188.474 226.013C187.128 226.359 185.739 226.51 184.351 226.459C184.351 226.459 182.413 217.93 182.413 210.662C182.413 203.394 184.025 188.435 184.828 182.374C185.63 176.313 183.101 152.934 181.664 148.569C180.228 144.205 177.089 134.963 179.201 130.242C181.314 125.522 200.686 133.043 200.686 133.043Z" fill="#59A9A2" stroke="#263238" stroke-width="1.00396" stroke-miterlimit="10"/>
<path d="M176.853 127.876L177.046 133.623C177.046 133.623 180.487 134.305 185.123 135.108C188.95 135.772 198.561 134.933 201.796 134.619C202.091 134.593 202.364 134.451 202.555 134.225C202.746 133.999 202.84 133.707 202.817 133.412L202.503 128.22L176.853 127.876Z" fill="#263238"/>
<path d="M190.303 70.5889C190.303 70.5889 195.736 76.4625 197.782 80.1146C199.829 83.7667 200.637 89.3627 201.404 93.7694C202.171 98.1761 200.094 108.523 200.68 113.274L202.533 128.238C202.533 128.238 202.931 129.252 201.597 130.363C200.263 131.474 193.75 131.878 187.864 132.174C185.715 132.283 179.298 130.9 178.248 130.834C176.98 130.756 176.938 129.144 176.883 127.876C176.63 121.918 175.555 106.036 174.849 99.1178C173.394 85.0103 181.357 71.3917 190.303 70.5889Z" fill="white" stroke="#263238" stroke-width="1.00396" stroke-miterlimit="10"/>
<g style="mix-blend-mode:multiply">
<path d="M175.513 107.141C175.272 104.008 175.03 101.164 174.819 99.118C174.758 98.5144 174.722 97.9107 174.692 97.3071L189.126 99.7217L201.525 95.4961C201.523 98.0617 201.378 100.625 201.09 103.175L188.926 106.579L175.513 107.141Z" fill="#59A9A2"/>
</g>
<g style="mix-blend-mode:multiply">
<path d="M190.84 71.1807C191.661 72.0922 193.291 73.9454 194.842 75.9134L185.679 85.2278L182.66 84.0205L190.84 71.1807Z" fill="#59A9A2"/>
</g>
<path d="M190.303 70.5889C190.303 70.5889 195.736 76.4625 197.782 80.1146C198.389 81.2245 198.88 82.3937 199.249 83.6038L188.323 70.9812C188.968 70.7857 189.632 70.6543 190.303 70.5889Z" fill="#263238"/>
<g style="mix-blend-mode:multiply">
<path d="M200.981 91.3907L189.126 95.2903L174.728 93.6363C174.954 90.0498 175.751 86.5223 177.089 83.187L188.697 87.8412L199.074 83.1387C199.922 85.8358 200.56 88.5948 200.981 91.3907Z" fill="#59A9A2"/>
</g>
<g style="mix-blend-mode:multiply">
<path d="M180.572 121.918C186.585 122.927 192.755 122.423 198.524 120.451L201.416 119.461L202.315 126.705L199.019 127.628C192.754 129.38 186.205 129.885 179.745 129.113L177.082 128.794C176.944 128.5 176.866 128.182 176.853 127.858C176.781 126.246 176.654 123.904 176.491 121.218L180.572 121.918Z" fill="#59A9A2"/>
</g>
<g style="mix-blend-mode:multiply">
<path d="M178.96 112.054C184.973 113.068 191.145 112.561 196.913 110.581L200.595 109.319C200.504 110.635 200.522 111.955 200.649 113.267L201.078 116.75L197.408 117.777C191.144 119.53 184.597 120.037 178.139 119.268L176.328 119.05C176.177 116.636 176.002 114.064 175.815 111.523L178.96 112.054Z" fill="#59A9A2"/>
</g>
<path d="M235.595 86.5266L223.923 95.9111L223.42 95.2854L235.092 85.9009L235.595 86.5266Z" fill="#263238"/>
<path d="M184.683 77.1025C184.683 77.1025 180.403 80.0182 180.306 86.906C180.264 89.9243 180.578 92.7433 181.272 97.6873C181.966 102.631 186.276 118.731 189.633 120.687C192.989 122.643 198.199 118.948 198.199 118.948L223.395 102.221L229.486 97.301L232.505 91.6024L231.557 89.7915L224.126 95.49L228.128 91.7896L227.343 90.7935L225.895 91.8016L221.669 93.3832L220.745 99.4198L219.441 100.313L195.337 109.121C195.337 109.121 195.639 96.148 195.416 93.6669C195.192 91.1859 194.885 84.9501 192.229 80.4287" fill="white"/>
<mask id="mask4_737_1570" style="mask-type:luminance" maskUnits="userSpaceOnUse" x="180" y="77" width="53" height="45">
<path d="M184.683 77.1025C184.683 77.1025 180.403 80.0182 180.306 86.906C180.264 89.9243 180.578 92.7433 181.272 97.6873C181.966 102.631 186.276 118.731 189.633 120.687C192.989 122.643 198.199 118.948 198.199 118.948L223.395 102.221L229.486 97.301L232.505 91.6024L231.557 89.7915L224.126 95.49L228.128 91.7896L227.343 90.7935L225.895 91.8016L221.669 93.3832L220.745 99.4198L219.441 100.313L195.337 109.121C195.337 109.121 195.639 96.148 195.416 93.6669C195.192 91.1859 194.885 84.9501 192.229 80.4287" fill="white"/>
</mask>
<g mask="url(#mask4_737_1570)">
<g style="mix-blend-mode:multiply" opacity="0.5">
<path d="M195.506 99.3168C195.506 103.796 195.355 109.12 195.355 109.12L219.435 100.349L220.739 99.4556L221.663 93.419L225.888 91.8374L227.331 90.8112L228.116 91.8072L224.126 95.4896L231.557 89.791L232.456 91.5718L229.438 97.2704L223.347 102.22L221.814 103.241L188.522 113.968L195.506 99.3168Z" fill="#59A9A2"/>
</g>
</g>
<path d="M184.683 77.1025C184.683 77.1025 180.403 80.0182 180.306 86.906C180.264 89.9243 180.578 92.7433 181.272 97.6873C181.966 102.631 186.276 118.731 189.633 120.687C192.989 122.643 198.199 118.948 198.199 118.948L223.395 102.221L229.486 97.301L232.505 91.6024L231.557 89.7915L224.126 95.49L228.128 91.7896L227.343 90.7935L225.895 91.8016L221.669 93.3832L220.745 99.4198L219.441 100.313L195.337 109.121C195.337 109.121 195.639 96.148 195.416 93.6669C195.192 91.1859 194.885 84.9501 192.229 80.4287" stroke="#263238" stroke-width="1.00396" stroke-miterlimit="10"/>
<path d="M195.337 109.12L186.137 115.76L183.753 111.535C183.753 111.535 182.105 110.237 181.863 109.259C181.622 108.281 181.93 106.693 181.682 105.716C181.435 104.738 180.203 103.82 180.089 101.454C179.974 99.0874 180.089 97.1134 180.089 97.1134C180.089 97.1134 178.097 88.9218 178.314 85.3602C178.531 81.7986 181.966 75.5024 184.719 75.3636C187.471 75.2247 191.051 75.6413 193.828 79.8427C196.605 84.0442 196.037 96.3105 196.472 97.0772C196.907 97.8438 196.303 101.629 196.303 101.629C196.544 101.809 196.744 102.038 196.89 102.301C197.036 102.565 197.124 102.856 197.148 103.156C197.196 104.14 196.134 106.561 196.134 106.561L195.337 109.12Z" fill="white" stroke="#263238" stroke-width="1.00396" stroke-miterlimit="10"/>
<g style="mix-blend-mode:multiply">
<path d="M196.231 93.9258C196.212 94.9792 196.29 96.032 196.466 97.0708C196.852 97.759 196.412 100.868 196.315 101.502C191.141 103.109 185.669 103.522 180.312 102.709C180.197 102.289 180.128 101.858 180.107 101.423C179.986 99.0629 180.107 97.0829 180.107 97.0829C180.107 97.0829 179.932 96.3525 179.69 95.2418C185.238 95.5944 190.808 95.1513 196.231 93.9258Z" fill="#59A9A2"/>
</g>
<g style="mix-blend-mode:multiply">
<path d="M194.202 80.5127C195.066 82.2452 195.548 84.847 195.826 87.485C190.346 89.5764 184.438 90.2955 178.616 89.5797C178.384 88.1836 178.281 86.769 178.308 85.354C178.413 84.2356 178.677 83.1378 179.093 82.0943C184.176 82.2129 189.254 81.6814 194.202 80.5127Z" fill="#59A9A2"/>
</g>
<path d="M196.134 106.627L195.355 109.12L186.156 115.76L183.771 111.535C183.771 111.535 182.123 110.237 181.882 109.259C181.839 109.089 181.812 108.915 181.803 108.74C186.651 108.656 191.468 107.946 196.134 106.627Z" fill="#263238"/>
<path d="M189.476 225.935C189.476 225.935 189.27 220.707 188.268 213.065C187.266 205.422 189.675 194.569 190.079 192.758C190.484 190.947 189.874 186.926 190.279 185.514C190.683 184.101 192.639 178.077 191.486 171.086C190.333 164.096 189.397 145.618 189.397 145.618C189.397 145.618 192.301 143.258 193.152 140.185C194.003 137.112 193.351 136.146 193.351 136.146" stroke="#263238" stroke-width="1.00396" stroke-miterlimit="10"/>
<path d="M188.13 136.43L189.246 142.611" stroke="#263238" stroke-width="1.00396" stroke-miterlimit="10"/>
</svg>
