<svg width="245" height="174" viewBox="0 0 245 174" fill="none" xmlns="http://www.w3.org/2000/svg">
<path d="M34.6559 155.571C80.8665 179.711 155.783 179.711 201.988 155.571C248.193 131.432 248.199 92.2918 201.988 68.1524C155.777 44.013 80.861 44.013 34.6559 68.1524C-11.5492 92.2918 -11.5547 131.432 34.6559 155.571Z" fill="#FAFAFA"/>
<path d="M145.569 122.891C134.699 129.161 134.699 139.336 145.569 145.613C156.439 151.889 174.054 151.889 184.925 145.613C195.795 139.336 195.789 129.161 184.925 122.891C174.06 116.62 156.434 116.614 145.569 122.891Z" fill="#EBEBEB"/>
<path d="M31.1207 32.9376L60.2402 23.8818L37.8381 39.4012L31.1207 32.9376Z" fill="#59A9A2"/>
<path d="M60.2401 23.882L28.876 29.0551L22.1587 22.5859L60.2401 23.882Z" fill="#59A9A2"/>
<path d="M28.8761 29.055V36.8146L31.1207 32.9375L60.2402 23.8818L28.8761 29.055Z" fill="#455A64"/>
<path d="M28.8761 36.8136L33.3598 35.0929L31.1207 32.9365L28.8761 36.8136Z" fill="#59A9A2"/>
<path d="M31.1207 32.9365L33.3598 35.0929L32.6429 35.3631L31.1207 32.9365Z" fill="#455A64"/>
<path d="M24.0504 35.6458C23.9577 35.6475 23.867 35.618 23.7931 35.5621C23.7191 35.5061 23.6661 35.4269 23.6426 35.3372C23.619 35.2475 23.6263 35.1525 23.6633 35.0674C23.7002 34.9824 23.7647 34.9122 23.8463 34.8682C24.3427 34.5924 24.8446 34.3167 25.3409 34.1016C25.3901 34.075 25.4442 34.0586 25.5 34.0535C25.5557 34.0484 25.6119 34.0546 25.6651 34.0719C25.7184 34.0891 25.7675 34.117 25.8097 34.1538C25.8519 34.1906 25.8861 34.2355 25.9104 34.2859C25.9347 34.3364 25.9485 34.3912 25.9509 34.4471C25.9534 34.503 25.9445 34.5588 25.9248 34.6112C25.9051 34.6636 25.8749 34.7114 25.8362 34.7518C25.7974 34.7921 25.7509 34.8242 25.6994 34.8461C25.2196 35.0777 24.7287 35.3259 24.2489 35.5962C24.1876 35.628 24.1195 35.645 24.0504 35.6458Z" fill="#E0E0E0"/>
<path d="M18.96 80.1848C18.8755 80.1857 18.7927 80.1607 18.7229 80.1131C17.8259 79.4809 16.9762 78.7841 16.1804 78.0284C16.13 77.9957 16.0873 77.9524 16.0553 77.9015C16.0233 77.8505 16.0029 77.7933 15.9953 77.7336C15.9877 77.674 15.9932 77.6134 16.0114 77.5561C16.0297 77.4988 16.0602 77.4462 16.1008 77.4019C16.1415 77.3576 16.1913 77.3227 16.2468 77.2996C16.3023 77.2765 16.3622 77.2658 16.4223 77.2682C16.4823 77.2706 16.5412 77.2861 16.5946 77.3136C16.6481 77.3411 16.695 77.3799 16.7319 77.4273C17.4995 78.1559 18.3198 78.8269 19.1861 79.4348C19.2575 79.4859 19.3108 79.5583 19.3383 79.6417C19.3658 79.7251 19.366 79.815 19.339 79.8985C19.312 79.9821 19.2591 80.0548 19.188 80.1063C19.1169 80.1578 19.0312 80.1853 18.9435 80.1848H18.96ZM14.6362 76.1699C14.5751 76.1706 14.5147 76.1575 14.4593 76.1318C14.404 76.106 14.3551 76.0681 14.3163 76.021C13.6214 75.1728 12.9892 74.2752 12.4247 73.3351C12.3676 73.2408 12.3504 73.1277 12.3768 73.0206C12.4031 72.9136 12.471 72.8214 12.5653 72.7643C12.6596 72.7073 12.7728 72.6901 12.8798 72.7164C12.9869 72.7428 13.0791 72.8106 13.1361 72.905C13.6799 73.8115 14.2881 74.6777 14.9561 75.497C15.025 75.5814 15.0578 75.6895 15.0475 75.7979C15.0372 75.9063 14.9845 76.0063 14.9009 76.0761C14.827 76.1386 14.7329 76.1719 14.6362 76.1699ZM11.5312 71.1512C11.4511 71.1519 11.3725 71.1294 11.3049 71.0863C11.2374 71.0432 11.1838 70.9815 11.1507 70.9085C10.7 69.9101 10.3132 68.8841 9.99253 67.8366C9.969 67.7347 9.98494 67.6277 10.0371 67.5371C10.0894 67.4465 10.1739 67.379 10.2739 67.3482C10.3739 67.3175 10.4818 67.3257 10.5759 67.3713C10.67 67.4169 10.7434 67.4965 10.7812 67.594C11.0861 68.607 11.4545 69.5999 11.8842 70.5666C11.9073 70.6161 11.9204 70.6698 11.9226 70.7244C11.9248 70.7791 11.9162 70.8336 11.8972 70.8849C11.8783 70.9362 11.8493 70.9832 11.812 71.0232C11.7748 71.0633 11.7299 71.0955 11.6801 71.1181C11.6332 71.1389 11.5826 71.1502 11.5312 71.1512ZM9.73883 65.5203C9.64318 65.5194 9.55078 65.4854 9.47737 65.4241C9.40396 65.3628 9.35409 65.2779 9.33624 65.1839C9.12571 64.1123 8.97656 63.0296 8.88952 61.941C8.88074 61.8313 8.9159 61.7226 8.98727 61.6389C9.05863 61.5551 9.16035 61.5031 9.27005 61.4943C9.37976 61.4855 9.48845 61.5207 9.57223 61.5921C9.656 61.6634 9.708 61.7652 9.71677 61.8749C9.7979 62.9321 9.94154 63.9837 10.1469 65.024C10.1582 65.0772 10.1586 65.1322 10.1482 65.1857C10.1378 65.2391 10.1169 65.29 10.0865 65.3352C10.0562 65.3804 10.0172 65.4191 9.97165 65.449C9.92614 65.4789 9.87511 65.4994 9.82156 65.5093L9.73883 65.5203ZM9.2149 59.6302C9.16037 59.6303 9.10638 59.6193 9.05614 59.5982C9.00589 59.577 8.9604 59.5459 8.92235 59.5068C8.88431 59.4678 8.85448 59.4215 8.83463 59.3707C8.81478 59.3199 8.80532 59.2656 8.80679 59.2111C8.81969 58.1195 8.89334 57.0295 9.02739 55.9462C9.02802 55.888 9.04091 55.8307 9.06521 55.7778C9.08951 55.725 9.12468 55.6779 9.16842 55.6396C9.21217 55.6012 9.2635 55.5726 9.31907 55.5554C9.37464 55.5383 9.4332 55.533 9.49093 55.5401C9.54867 55.5471 9.60427 55.5662 9.65411 55.5962C9.70395 55.6261 9.74691 55.6663 9.7802 55.714C9.81348 55.7617 9.83633 55.8158 9.84726 55.8729C9.85819 55.9301 9.85695 55.9888 9.84362 56.0454C9.71611 57.0997 9.64615 58.1602 9.63405 59.2221C9.63333 59.2764 9.62192 59.3301 9.60046 59.38C9.57901 59.4299 9.54793 59.4751 9.50901 59.513C9.47009 59.5509 9.42408 59.5808 9.37362 59.6009C9.32316 59.621 9.26922 59.631 9.2149 59.6302ZM9.88774 53.7567C9.85672 53.7621 9.82501 53.7621 9.79398 53.7567C9.68741 53.7329 9.59455 53.668 9.53566 53.5761C9.47677 53.4841 9.45663 53.3726 9.47963 53.2659C9.72128 52.1976 10.0308 51.1457 10.4062 50.1168C10.4244 50.0631 10.4536 50.0137 10.4917 49.9718C10.5299 49.9298 10.5763 49.8961 10.628 49.8728C10.6797 49.8496 10.7357 49.8372 10.7924 49.8365C10.8491 49.8357 10.9054 49.8467 10.9577 49.8686C11.0109 49.8875 11.0597 49.917 11.1012 49.9553C11.1428 49.9936 11.1761 50.0399 11.1993 50.0915C11.2225 50.143 11.235 50.1986 11.2361 50.2551C11.2373 50.3116 11.2269 50.3677 11.2058 50.4201C10.844 51.415 10.5456 52.4318 10.3124 53.4644C10.2852 53.554 10.2283 53.6317 10.1512 53.6848C10.074 53.7379 9.98116 53.7632 9.88774 53.7567ZM11.8511 48.1865C11.7875 48.189 11.7245 48.1737 11.6691 48.1424C11.6198 48.1194 11.5755 48.0867 11.539 48.0463C11.5024 48.006 11.4743 47.9587 11.4563 47.9073C11.4384 47.8559 11.4308 47.8014 11.4342 47.7471C11.4376 47.6928 11.4518 47.6396 11.4761 47.5909C11.9574 46.608 12.4989 45.6558 13.0975 44.7396C13.1578 44.6542 13.2482 44.5947 13.3505 44.5732C13.4528 44.5517 13.5595 44.5698 13.649 44.6238C13.7364 44.6823 13.7978 44.7724 13.8205 44.8752C13.8431 44.9779 13.8251 45.0854 13.7703 45.1753C13.1886 46.0603 12.6636 46.9813 12.1985 47.9328C12.17 48.0033 12.1224 48.0643 12.061 48.1092C11.9996 48.154 11.9269 48.1808 11.8511 48.1865ZM15.0223 43.2229C14.93 43.2239 14.8403 43.1927 14.7686 43.1347C14.7256 43.1009 14.6897 43.0588 14.6631 43.011C14.6364 42.9632 14.6196 42.9106 14.6134 42.8562C14.6073 42.8019 14.6119 42.7468 14.6272 42.6943C14.6425 42.6417 14.668 42.5927 14.7024 42.5501C15.3916 41.6987 16.1281 40.8867 16.9084 40.118C16.986 40.0405 17.0911 39.997 17.2007 39.997C17.3103 39.997 17.4154 40.0405 17.493 40.118C17.5705 40.1955 17.614 40.3007 17.614 40.4103C17.614 40.5199 17.5705 40.625 17.493 40.7026C16.7414 41.4524 16.0308 42.2422 15.3642 43.0685C15.3215 43.1157 15.2683 43.1523 15.2089 43.1753C15.1495 43.1983 15.0856 43.207 15.0223 43.2009V43.2229ZM19.1696 38.9874C19.1094 38.9873 19.0501 38.9739 18.9957 38.9481C18.9414 38.9224 18.8934 38.8849 18.8552 38.8385C18.7854 38.7539 18.7514 38.6454 18.7607 38.5361C18.77 38.4268 18.8217 38.3255 18.9049 38.2539C19.7444 37.5557 20.6188 36.9004 21.5245 36.2905C21.6134 36.236 21.7196 36.2171 21.8219 36.2375C21.9242 36.258 22.0149 36.3163 22.076 36.4008C22.1376 36.4924 22.1605 36.6046 22.1399 36.713C22.1192 36.8215 22.0566 36.9174 21.9657 36.9799C21.082 37.5733 20.2297 38.212 19.4122 38.8936C19.343 38.9492 19.2582 38.9819 19.1696 38.9874Z" fill="#E0E0E0"/>
<path d="M22.7544 82.3409C22.6952 82.3413 22.6367 82.3281 22.5834 82.3023C22.0705 82.0706 21.5631 81.8224 21.0778 81.5577C21.0304 81.5328 20.9883 81.4987 20.954 81.4574C20.9197 81.4162 20.8939 81.3686 20.878 81.3174C20.8622 81.2662 20.8565 81.2123 20.8615 81.1589C20.8664 81.1055 20.8818 81.0537 20.9068 81.0062C20.9583 80.9114 21.0448 80.8405 21.1478 80.8086C21.2509 80.7767 21.3623 80.7862 21.4584 80.8353C21.9326 81.0889 22.4235 81.3316 22.9198 81.5577C23.005 81.5973 23.0741 81.6647 23.1158 81.7488C23.1576 81.8329 23.1695 81.9287 23.1496 82.0204C23.1297 82.1121 23.0792 82.1944 23.0064 82.2536C22.9336 82.3129 22.8427 82.3456 22.7489 82.3464L22.7544 82.3409Z" fill="#E0E0E0"/>
<path d="M211.397 62.3273L234.725 47.3926L245 50.6906L211.397 62.3273Z" fill="#59A9A2"/>
<path d="M211.397 62.3277L231.56 45.5178L227.076 40.3447L211.397 62.3277Z" fill="#59A9A2"/>
<path d="M231.56 45.5176V49.4167L211.397 62.3275L231.56 45.5176Z" fill="#455A64"/>
<path d="M236.11 43.8903C236.01 43.8907 235.913 43.8533 235.84 43.7855C235.758 43.7124 235.708 43.6104 235.701 43.5011C235.694 43.3919 235.73 43.2841 235.801 43.2009C236.519 42.3998 237.156 41.5297 237.704 40.6033C237.759 40.5083 237.85 40.4392 237.957 40.4113C238.063 40.3833 238.177 40.3989 238.272 40.4544C238.367 40.51 238.436 40.6011 238.464 40.7076C238.492 40.8142 238.476 40.9274 238.421 41.0225C237.843 41.9936 237.175 42.9077 236.424 43.7524C236.385 43.7966 236.336 43.8317 236.282 43.8555C236.228 43.8793 236.169 43.8912 236.11 43.8903ZM239.264 38.7503C239.215 38.7581 239.165 38.7581 239.115 38.7503C239.063 38.7303 239.016 38.7 238.975 38.6611C238.935 38.6222 238.903 38.5756 238.882 38.5241C238.86 38.4725 238.849 38.4171 238.849 38.3612C238.85 38.3053 238.862 38.2501 238.884 38.1988C239.274 37.1942 239.565 36.1544 239.755 35.0938C239.775 34.9856 239.837 34.8896 239.927 34.827C240.018 34.7645 240.13 34.7404 240.238 34.7602C240.346 34.7799 240.442 34.8418 240.505 34.9323C240.567 35.0228 240.591 35.1345 240.571 35.2427C240.368 36.3541 240.06 37.4436 239.65 38.4966C239.619 38.5729 239.566 38.638 239.497 38.6833C239.428 38.7286 239.347 38.752 239.264 38.7503ZM240.445 32.8326C240.391 32.8319 240.337 32.8205 240.288 32.799C240.238 32.7774 240.193 32.7463 240.156 32.7073C240.118 32.6683 240.089 32.6222 240.069 32.5718C240.05 32.5214 240.041 32.4676 240.042 32.4135C240.042 32.2701 240.042 32.1267 240.042 31.9833C240.04 31.047 239.966 30.1123 239.821 29.1872C239.806 29.0784 239.833 28.9676 239.898 28.8789C239.963 28.7902 240.06 28.7306 240.169 28.7129C240.277 28.6984 240.387 28.7265 240.476 28.7913C240.564 28.856 240.624 28.9524 240.643 29.0603C240.792 30.0276 240.868 31.0047 240.869 31.9833C240.869 32.1322 240.869 32.2811 240.869 32.43C240.865 32.5393 240.818 32.6425 240.739 32.7177C240.659 32.7929 240.554 32.8342 240.445 32.8326ZM239.612 26.8543C239.523 26.854 239.437 26.8248 239.366 26.771C239.295 26.7173 239.244 26.642 239.22 26.5565C238.904 25.5217 238.507 24.5131 238.035 23.5398C238.01 23.491 237.996 23.4379 237.993 23.3836C237.989 23.3292 237.997 23.2747 238.015 23.2233C238.033 23.1719 238.061 23.1247 238.097 23.0843C238.134 23.0439 238.178 23.0113 238.228 22.9883C238.326 22.9409 238.44 22.9346 238.543 22.9707C238.647 23.0069 238.731 23.0827 238.779 23.1813C239.272 24.1927 239.684 25.2421 240.009 26.3194C240.025 26.3711 240.031 26.4256 240.025 26.4796C240.02 26.5335 240.004 26.5859 239.979 26.6337C239.953 26.6814 239.918 26.7236 239.876 26.7577C239.834 26.7918 239.785 26.8171 239.733 26.8323C239.695 26.8476 239.653 26.8551 239.612 26.8543ZM237.053 21.3779C236.983 21.3785 236.915 21.3611 236.854 21.3272C236.793 21.2934 236.742 21.2443 236.705 21.1849C236.114 20.2773 235.464 19.4095 234.759 18.5873C234.723 18.546 234.696 18.4982 234.679 18.4464C234.662 18.3947 234.655 18.3401 234.659 18.2858C234.663 18.2315 234.678 18.1785 234.703 18.1299C234.727 18.0813 234.761 18.0381 234.803 18.0027C234.843 17.9672 234.891 17.9402 234.942 17.9232C234.993 17.9063 235.048 17.8996 235.101 17.9037C235.155 17.9078 235.208 17.9226 235.256 17.9472C235.304 17.9717 235.347 18.0056 235.382 18.0468C236.114 18.8979 236.788 19.797 237.4 20.7381C237.451 20.829 237.467 20.9353 237.445 21.037C237.422 21.1386 237.363 21.2286 237.279 21.2896C237.213 21.3382 237.135 21.3669 237.053 21.3724V21.3779ZM233.192 16.7397C233.087 16.7394 232.986 16.6978 232.911 16.6239C232.117 15.8806 231.283 15.181 230.413 14.5282C230.369 14.4956 230.333 14.4548 230.305 14.408C230.277 14.3613 230.259 14.3096 230.251 14.2558C230.244 14.202 230.247 14.1472 230.26 14.0946C230.274 14.042 230.297 13.9926 230.33 13.9491C230.363 13.9056 230.403 13.869 230.45 13.8414C230.497 13.8137 230.549 13.7955 230.602 13.7878C230.656 13.7801 230.711 13.7831 230.764 13.7966C230.816 13.8101 230.866 13.8338 230.909 13.8664C231.806 14.5364 232.664 15.2563 233.479 16.0228C233.54 16.0796 233.583 16.1537 233.601 16.2353C233.62 16.3169 233.613 16.4021 233.582 16.4797C233.551 16.5574 233.497 16.6238 233.427 16.6702C233.358 16.7166 233.276 16.7409 233.192 16.7397ZM228.356 13.0667C228.277 13.066 228.201 13.043 228.135 13.0005C227.76 12.7689 227.368 12.5372 226.971 12.3111C226.42 12.0023 225.868 11.6934 225.284 11.4012C225.23 11.3798 225.182 11.3475 225.142 11.3063C225.102 11.2652 225.07 11.2162 225.05 11.1623C225.03 11.1085 225.021 11.051 225.025 10.9936C225.028 10.9362 225.043 10.8801 225.069 10.8289C225.096 10.7777 225.132 10.7326 225.177 10.6963C225.221 10.66 225.273 10.6334 225.328 10.6183C225.384 10.6031 225.442 10.5996 225.499 10.6081C225.556 10.6166 225.61 10.6369 225.659 10.6676C226.238 10.9655 226.817 11.2743 227.379 11.5942C227.788 11.8203 228.185 12.0574 228.571 12.3001C228.66 12.357 228.724 12.4459 228.749 12.5484C228.775 12.651 228.76 12.7595 228.709 12.8516C228.673 12.9146 228.622 12.9674 228.56 13.005C228.498 13.0426 228.428 13.0639 228.356 13.0667ZM178.913 12.7854C178.84 12.7846 178.769 12.7649 178.706 12.7282C178.643 12.6914 178.591 12.6389 178.555 12.5759C178.502 12.4827 178.489 12.3728 178.517 12.2697C178.544 12.1666 178.612 12.0785 178.704 12.0244C179.663 11.4728 180.65 10.9213 181.649 10.4581C181.747 10.4103 181.86 10.4032 181.963 10.4383C182.066 10.4734 182.152 10.5479 182.2 10.6456C182.246 10.7446 182.252 10.8575 182.216 10.9605C182.18 11.0635 182.105 11.1484 182.007 11.1971C181.025 11.6769 180.055 12.1898 179.112 12.7358C179.05 12.7658 178.982 12.7791 178.913 12.7744V12.7854ZM222.978 10.265C222.921 10.2654 222.864 10.2522 222.813 10.2264C221.82 9.79075 220.794 9.38264 219.769 9.01865C219.665 8.98135 219.58 8.90433 219.533 8.80452C219.486 8.70471 219.48 8.5903 219.518 8.48645C219.555 8.38259 219.632 8.29781 219.732 8.25075C219.832 8.20369 219.946 8.19821 220.05 8.23551C221.092 8.61053 222.135 9.02416 223.149 9.47088C223.238 9.50851 223.31 9.57578 223.355 9.66113C223.399 9.74648 223.412 9.84458 223.392 9.93857C223.372 10.0326 223.319 10.1166 223.244 10.1761C223.168 10.2357 223.075 10.2672 222.978 10.265ZM184.345 10.0941C184.264 10.0946 184.184 10.0708 184.116 10.0255C184.049 9.98033 183.996 9.91585 183.965 9.84039C183.942 9.78981 183.93 9.73521 183.929 9.67982C183.928 9.62443 183.938 9.56938 183.959 9.51794C183.979 9.4665 184.01 9.41972 184.049 9.38037C184.088 9.34103 184.134 9.30992 184.186 9.28889C185.206 8.85871 186.254 8.46163 187.302 8.10315C187.354 8.08133 187.411 8.07063 187.468 8.07173C187.525 8.07282 187.581 8.08568 187.633 8.1095C187.685 8.13332 187.731 8.16759 187.769 8.21015C187.807 8.25272 187.835 8.30266 187.853 8.35684C187.873 8.41001 187.882 8.46666 187.88 8.52344C187.878 8.58022 187.864 8.63598 187.84 8.68741C187.816 8.73883 187.782 8.78489 187.739 8.82284C187.697 8.86079 187.648 8.88987 187.594 8.90835C186.563 9.26131 185.526 9.65288 184.527 10.072C184.468 10.0885 184.406 10.0923 184.345 10.0831V10.0941ZM217.287 8.18588C217.248 8.19124 217.209 8.19124 217.171 8.18588C216.129 7.88255 215.059 7.63437 213.994 7.37516C213.941 7.36357 213.891 7.34161 213.846 7.31054C213.801 7.27946 213.763 7.23987 213.734 7.19404C213.704 7.14821 213.684 7.09702 213.674 7.04341C213.665 6.98979 213.666 6.9348 213.677 6.88157C213.689 6.82834 213.711 6.7779 213.742 6.73316C213.773 6.68841 213.813 6.65023 213.858 6.62078C213.904 6.59133 213.955 6.5712 214.009 6.56154C214.063 6.55187 214.118 6.55286 214.171 6.56445C215.274 6.8016 216.344 7.08286 217.403 7.39171C217.498 7.41959 217.581 7.48101 217.635 7.5647C217.689 7.64838 217.71 7.74872 217.696 7.84729C217.682 7.94585 217.633 8.03603 217.558 8.10127C217.483 8.1665 217.386 8.20242 217.287 8.20242V8.18588ZM190.07 8.10315C189.98 8.10281 189.892 8.07298 189.821 8.01822C189.749 7.96346 189.697 7.88676 189.673 7.79982C189.658 7.74804 189.653 7.69377 189.659 7.64015C189.665 7.58653 189.682 7.53464 189.708 7.48745C189.734 7.44027 189.769 7.39874 189.812 7.36527C189.854 7.33179 189.902 7.30704 189.954 7.29244C191.019 6.99462 192.111 6.74093 193.197 6.49827C193.252 6.4807 193.31 6.47486 193.368 6.48113C193.425 6.48739 193.481 6.50564 193.531 6.53467C193.581 6.5637 193.624 6.60288 193.658 6.64968C193.692 6.69649 193.716 6.74987 193.728 6.80641C193.74 6.86294 193.74 6.92136 193.728 6.9779C193.716 7.03444 193.692 7.08784 193.658 7.13467C193.624 7.18151 193.581 7.22072 193.531 7.2498C193.481 7.27887 193.426 7.29715 193.368 7.30347C192.298 7.52959 191.228 7.79431 190.18 8.0866L190.07 8.10315ZM211.375 6.85675H211.292C210.217 6.68578 209.119 6.5479 208.038 6.44863C207.981 6.44801 207.925 6.43563 207.873 6.41226C207.821 6.38889 207.774 6.35504 207.736 6.31284C207.698 6.27063 207.669 6.22098 207.651 6.16699C207.632 6.11299 207.626 6.05583 207.631 5.99908C207.636 5.94232 207.652 5.88721 207.679 5.83718C207.707 5.78715 207.744 5.74329 207.789 5.70835C207.834 5.67341 207.886 5.64813 207.941 5.63412C207.996 5.6201 208.054 5.61764 208.11 5.62689C209.213 5.72616 210.316 5.86404 211.419 6.04052C211.526 6.05946 211.622 6.11962 211.686 6.2082C211.75 6.29678 211.777 6.40679 211.761 6.51482C211.741 6.60406 211.693 6.68438 211.623 6.74324C211.553 6.80211 211.466 6.8362 211.375 6.8402V6.85675ZM195.993 6.81814C195.895 6.8181 195.8 6.78312 195.725 6.71946C195.651 6.65581 195.601 6.56763 195.585 6.47069C195.569 6.36186 195.597 6.25114 195.662 6.16241C195.727 6.07368 195.824 6.01406 195.933 5.9964C197.036 5.83095 198.139 5.69307 199.242 5.59932C199.296 5.59461 199.351 5.60065 199.403 5.61708C199.455 5.63352 199.503 5.66003 199.545 5.69511C199.586 5.7302 199.621 5.77316 199.646 5.82154C199.671 5.86992 199.686 5.92278 199.691 5.97709C199.696 6.03141 199.69 6.08613 199.673 6.13811C199.657 6.1901 199.63 6.23834 199.595 6.28008C199.56 6.32181 199.517 6.35623 199.469 6.38137C199.421 6.40651 199.368 6.42187 199.313 6.42657C198.21 6.52033 197.135 6.64717 196.059 6.81814H195.993ZM205.341 6.26664C204.238 6.22803 203.135 6.22252 202.06 6.26664C202.006 6.26962 201.951 6.26159 201.9 6.24304C201.849 6.2245 201.802 6.19581 201.763 6.15871C201.723 6.12162 201.691 6.07687 201.669 6.02718C201.647 5.97748 201.636 5.92386 201.635 5.86955C201.633 5.81504 201.642 5.76064 201.661 5.70957C201.68 5.65849 201.709 5.61178 201.747 5.57219C201.784 5.5326 201.829 5.50094 201.879 5.47907C201.929 5.45721 201.983 5.44559 202.038 5.44489C203.141 5.40629 204.244 5.4118 205.347 5.44489C205.401 5.44632 205.455 5.45844 205.504 5.48056C205.554 5.50268 205.599 5.53436 205.636 5.5738C205.673 5.61324 205.703 5.65965 205.722 5.7104C205.742 5.76115 205.751 5.81523 205.749 5.86955C205.741 5.97301 205.695 6.06976 205.62 6.14107C205.544 6.21239 205.445 6.2532 205.341 6.25561V6.26664Z" fill="#E0E0E0"/>
<path d="M203.262 70.3918V69.5094H203.047C202.72 68.9117 202.223 68.4243 201.619 68.1086C200.386 67.4832 199.024 67.1572 197.642 67.1572C196.26 67.1572 194.898 67.4832 193.666 68.1086C193.062 68.4243 192.565 68.9117 192.238 69.5094H192.022V70.3643C192.022 71.2081 192.574 72.0574 193.677 72.7026C194.91 73.3251 196.272 73.6493 197.653 73.6493C199.035 73.6493 200.397 73.3251 201.63 72.7026C202.722 72.0794 203.268 71.2301 203.262 70.3918Z" fill="#37474F"/>
<path d="M197.642 72.7575C200.746 72.7575 203.262 71.3031 203.262 69.5091C203.262 67.7151 200.746 66.2607 197.642 66.2607C194.539 66.2607 192.022 67.7151 192.022 69.5091C192.022 71.3031 194.539 72.7575 197.642 72.7575Z" fill="#455A64"/>
<path d="M196.197 42.4639V69.1291C196.209 69.2557 196.254 69.3769 196.328 69.4805C196.401 69.5841 196.501 69.6664 196.616 69.7193C196.934 69.8797 197.284 69.9633 197.639 69.9633C197.995 69.9633 198.345 69.8797 198.662 69.7193C198.779 69.6677 198.88 69.5858 198.955 69.482C199.03 69.3783 199.075 69.2564 199.087 69.1291V42.4639H196.197Z" fill="#37474F"/>
<path d="M204.122 22.5046C202.716 21.6939 201.437 21.6278 200.477 22.1627L182.614 32.4869L191.576 50.4604L209.5 40.0921V32.2277C209.5 28.5712 207.09 24.2198 204.122 22.5046Z" fill="#455A64"/>
<path d="M191.576 42.5905V50.4605L180.827 44.2506V36.3861C180.827 32.7296 183.231 31.1578 186.199 32.873C188.101 33.976 189.772 36.1489 190.726 38.5314C191.26 39.8197 191.548 41.1964 191.576 42.5905Z" fill="#37474F"/>
<path d="M191.576 42.5903V50.4603L180.827 44.2504L190.726 38.5312C191.26 39.8195 191.548 41.1962 191.576 42.5903Z" fill="#263238"/>
<path d="M189.783 45.2867C188.796 42.4299 185.586 38.7238 182.614 37.0141C179.641 35.3045 178.042 36.2255 179.029 39.0823L180.821 44.2554L191.576 50.4653C191.576 50.4653 190.776 48.1435 189.783 45.2867Z" fill="#455A64"/>
<path d="M197.179 42.8887L196.578 42.5413C196.449 42.482 196.306 42.4579 196.165 42.4714C196.024 42.485 195.888 42.5357 195.773 42.6185C195.441 42.8359 195.164 43.1284 194.966 43.4723C194.767 43.8162 194.653 44.202 194.631 44.5984C194.616 44.7404 194.639 44.8838 194.699 45.0138C194.758 45.1438 194.851 45.2555 194.968 45.3374L195.519 45.6573L195.624 45.4863C195.738 45.4616 195.848 45.4188 195.949 45.3595C196.281 45.1433 196.558 44.8519 196.756 44.5088C196.954 44.1658 197.069 43.7808 197.091 43.3851C197.09 43.2864 197.077 43.1882 197.052 43.0928L197.179 42.8887Z" fill="#263238"/>
<path d="M196.346 42.9543C196.014 43.1705 195.738 43.462 195.539 43.805C195.341 44.1481 195.226 44.533 195.205 44.9287C195.205 45.6567 195.717 45.949 196.346 45.585C196.679 45.3692 196.955 45.0778 197.154 44.7347C197.352 44.3915 197.467 44.0064 197.488 43.6106C197.504 42.8826 196.953 42.5903 196.346 42.9543Z" fill="#37474F"/>
<path d="M196.346 44.5814C196.303 44.5814 196.26 44.5728 196.22 44.5562C196.18 44.5395 196.143 44.5152 196.112 44.4844C196.082 44.4537 196.057 44.4172 196.041 44.3771C196.024 44.3369 196.015 44.2939 196.015 44.2504V32.8729C196.015 32.7851 196.05 32.701 196.112 32.6389C196.174 32.5769 196.259 32.542 196.346 32.542C196.434 32.542 196.518 32.5769 196.58 32.6389C196.642 32.701 196.677 32.7851 196.677 32.8729V44.2504C196.677 44.3382 196.642 44.4224 196.58 44.4844C196.518 44.5465 196.434 44.5814 196.346 44.5814Z" fill="#263238"/>
<path d="M196.644 33.1699V36.137L199.826 32.8721L196.644 33.1699Z" fill="#37474F"/>
<path d="M29.3394 131.593C29.0636 131.742 24.0008 133.175 22.1257 130.699C20.2506 128.223 23.3666 124.362 21.6073 122.94C19.848 121.517 14.9175 122.94 13.7318 119.95C12.5461 116.961 16.0591 115.671 14.0847 112.654C12.8383 110.751 9.35284 109.703 9.51277 107.933C9.7444 105.347 14.5094 104.624 18.6678 107.42C22.8261 110.216 24.7674 107.922 26.0855 107.735C27.4036 107.547 30.2494 107.961 30.1611 112.593C30.0729 117.226 29.3394 131.593 29.3394 131.593Z" fill="#59A9A2"/>
<path d="M29.6758 125.023C29.61 125.023 29.5464 124.999 29.496 124.957C29.4456 124.915 29.4117 124.856 29.4 124.791C27.9496 115.967 17.7302 108.836 12.4137 107.303C12.3785 107.294 12.3456 107.277 12.317 107.255C12.2883 107.232 12.2646 107.204 12.247 107.172C12.2295 107.14 12.2186 107.105 12.2151 107.069C12.2115 107.033 12.2153 106.996 12.2262 106.961C12.2466 106.891 12.2942 106.832 12.3583 106.797C12.4224 106.762 12.4979 106.753 12.5681 106.774C18.0004 108.346 28.457 115.675 29.946 124.703C29.9572 124.775 29.9398 124.848 29.8974 124.907C29.8551 124.966 29.7914 125.005 29.7199 125.018L29.6758 125.023Z" fill="white"/>
<path d="M17.6199 117.639C17.5592 117.639 17.5001 117.62 17.4516 117.584C17.4031 117.547 17.3679 117.496 17.3516 117.437C17.3353 117.379 17.3387 117.317 17.3612 117.26C17.3838 117.204 17.4243 117.157 17.4765 117.126C17.6419 117.027 21.5797 114.727 25.4513 115.802C25.5244 115.821 25.587 115.869 25.6252 115.934C25.6635 115.999 25.6743 116.077 25.6553 116.15C25.6363 116.223 25.589 116.285 25.5238 116.324C25.4587 116.362 25.381 116.373 25.3079 116.354C21.6569 115.339 17.7964 117.595 17.7578 117.617C17.7149 117.637 17.667 117.645 17.6199 117.639Z" fill="white"/>
<path d="M173.514 84.9951C175.687 85.2929 179.387 84.0355 179.652 80.4176C179.917 76.7998 181.411 75.8181 184.152 75.228C186.893 74.6379 187.699 73.6837 188.013 71.9631C188.327 70.2424 186.243 68.1852 186.827 65.5932C187.412 63.0011 189.364 63.0066 191.283 60.0781C192.513 58.192 189.993 55.3131 185.796 56.5485C181.599 57.7839 181.935 60.4917 177.738 60.8392C173.541 61.1866 170.911 63.7346 170.828 66.9058C170.745 70.0769 173.514 84.9951 173.514 84.9951Z" fill="#59A9A2"/>
<path opacity="0.2" d="M173.514 84.9951C175.687 85.2929 179.387 84.0355 179.652 80.4176C179.917 76.7998 181.411 75.8181 184.152 75.228C186.893 74.6379 187.699 73.6837 188.013 71.9631C188.327 70.2424 186.243 68.1852 186.827 65.5932C187.412 63.0011 189.364 63.0066 191.283 60.0781C192.513 58.192 189.993 55.3131 185.796 56.5485C181.599 57.7839 181.935 60.4917 177.738 60.8392C173.541 61.1866 170.911 63.7346 170.828 66.9058C170.745 70.0769 173.514 84.9951 173.514 84.9951Z" fill="black"/>
<path d="M172.72 78.0574H172.687C172.651 78.0502 172.618 78.036 172.588 78.0158C172.557 77.9955 172.532 77.9695 172.512 77.9393C172.492 77.9091 172.478 77.8752 172.471 77.8397C172.464 77.8041 172.464 77.7675 172.472 77.7321C174.501 67.7002 185.57 58.5176 188.267 57.5801C188.34 57.5559 188.42 57.5618 188.488 57.5965C188.557 57.6311 188.609 57.6917 188.634 57.7648C188.658 57.8379 188.652 57.9177 188.617 57.9864C188.582 58.0552 188.522 58.1074 188.449 58.1316C185.813 59.0471 174.998 68.0587 173.007 77.8699C172.986 77.9284 172.947 77.9785 172.895 78.0124C172.843 78.0463 172.782 78.0621 172.72 78.0574Z" fill="white"/>
<path d="M27.0231 74.5001C27.05 74.0027 27.1939 73.5188 27.4431 73.0876C27.6922 72.6564 28.0396 72.29 28.457 72.0183L101.758 29.6958C102.202 29.4726 102.692 29.3564 103.189 29.3564C103.686 29.3564 104.176 29.4726 104.62 29.6958L106.236 30.6333C106.654 30.9041 107.002 31.2702 107.251 31.7016C107.501 32.1331 107.644 32.6175 107.67 33.1151V89.3025C107.641 89.7994 107.497 90.2829 107.248 90.7139C106.999 91.145 106.652 91.5115 106.236 91.7842L32.9352 134.101C32.4909 134.327 31.9996 134.445 31.5013 134.445C31.003 134.445 30.5117 134.327 30.0674 134.101L28.457 133.169C28.0402 132.897 27.6933 132.53 27.4442 132.099C27.1951 131.668 27.0509 131.184 27.0231 130.687V74.5001Z" fill="#59A9A2"/>
<path opacity="0.3" d="M27.0231 74.5001C27.05 74.0027 27.1939 73.5188 27.4431 73.0876C27.6922 72.6564 28.0396 72.29 28.457 72.0183L101.758 29.6958C102.202 29.4726 102.692 29.3564 103.189 29.3564C103.686 29.3564 104.176 29.4726 104.62 29.6958L106.236 30.6333C106.654 30.9041 107.002 31.2702 107.251 31.7016C107.501 32.1331 107.644 32.6175 107.67 33.1151V89.3025C107.641 89.7994 107.497 90.2829 107.248 90.7139C106.999 91.145 106.652 91.5115 106.236 91.7842L32.9352 134.101C32.4909 134.327 31.9996 134.445 31.5013 134.445C31.003 134.445 30.5117 134.327 30.0674 134.101L28.457 133.169C28.0402 132.897 27.6933 132.53 27.4442 132.099C27.1951 131.668 27.0509 131.184 27.0231 130.687V74.5001Z" fill="black"/>
<path d="M33.7404 76.7278L27.4422 73.0879C27.1847 73.5152 27.0405 74.0011 27.0231 74.4997V130.687C27.0509 131.184 27.1951 131.668 27.4442 132.099C27.6933 132.53 28.0402 132.896 28.457 133.169L30.0674 134.101C30.5117 134.327 31.003 134.444 31.5013 134.444C31.9996 134.444 32.4909 134.327 32.9352 134.101L33.7404 133.638V76.7278Z" fill="#59A9A2"/>
<path opacity="0.5" d="M33.7404 76.7278L27.4422 73.0879C27.1847 73.5152 27.0405 74.0011 27.0231 74.4997V130.687C27.0509 131.184 27.1951 131.668 27.4442 132.099C27.6933 132.53 28.0402 132.896 28.457 133.169L30.0674 134.101C30.5117 134.327 31.003 134.444 31.5013 134.444C31.9996 134.444 32.4909 134.327 32.9352 134.101L33.7404 133.638V76.7278Z" fill="black"/>
<path d="M107.67 33.1154V89.3027C107.651 89.8171 107.497 90.3174 107.223 90.7532C107.011 91.1201 106.726 91.4394 106.385 91.6907L106.33 91.7238L106.236 91.7845L32.9352 134.101C32.7949 134.201 32.6319 134.263 32.4613 134.282C32.2907 134.301 32.1179 134.277 31.9591 134.212C31.8064 134.116 31.683 133.979 31.6023 133.818C31.5216 133.657 31.4866 133.476 31.5013 133.296V77.0869C31.4888 76.8857 31.5253 76.6845 31.6077 76.5005C31.69 76.3166 31.8158 76.1553 31.9741 76.0306C32.1324 75.9059 32.3186 75.8214 32.5168 75.7845C32.7149 75.7475 32.9191 75.7592 33.1117 75.8184L63.9353 83.1479L67.9724 84.1075C68.4488 84.1968 68.9407 84.1541 69.3946 83.9839C69.8486 83.8138 70.2474 83.5228 70.5479 83.1424L75.2246 76.6291L106.705 32.801C107.234 32.062 107.67 32.1999 107.67 33.1154Z" fill="#59A9A2"/>
<path opacity="0.2" d="M107.67 33.1154V89.3027C107.651 89.8171 107.497 90.3174 107.223 90.7532C107.011 91.1201 106.726 91.4394 106.385 91.6907L106.33 91.7238L106.236 91.7845L32.9352 134.101C32.7949 134.201 32.6319 134.263 32.4613 134.282C32.2907 134.301 32.1179 134.277 31.9591 134.212C31.8064 134.116 31.683 133.979 31.6023 133.818C31.5216 133.657 31.4866 133.476 31.5013 133.296V77.0869C31.4888 76.8857 31.5253 76.6845 31.6077 76.5005C31.69 76.3166 31.8158 76.1553 31.9741 76.0306C32.1324 75.9059 32.3186 75.8214 32.5168 75.7845C32.7149 75.7475 32.9191 75.7592 33.1117 75.8184L63.9353 83.1479L67.9724 84.1075C68.4488 84.1968 68.9407 84.1541 69.3946 83.9839C69.8486 83.8138 70.2474 83.5228 70.5479 83.1424L75.2246 76.6291L106.705 32.801C107.234 32.062 107.67 32.1999 107.67 33.1154Z" fill="black"/>
<path d="M106.236 91.784L106.33 91.7233L106.385 91.6902C106.726 91.4389 107.011 91.1196 107.223 90.7527C107.494 90.3237 107.648 89.8312 107.67 89.3243L75.2246 76.6396L96.9539 97.1556L106.236 91.784Z" fill="#59A9A2"/>
<path opacity="0.6" d="M106.236 91.784L106.33 91.7233L106.385 91.6902C106.726 91.4389 107.011 91.1196 107.223 90.7527C107.494 90.3237 107.648 89.8312 107.67 89.3243L75.2246 76.6396L96.9539 97.1556L106.236 91.784Z" fill="black"/>
<path d="M31.5013 133.296C31.4803 133.48 31.5109 133.665 31.5899 133.832C31.6689 133.998 31.7929 134.14 31.9481 134.239C32.1069 134.305 32.2796 134.329 32.4503 134.309C32.6209 134.29 32.7839 134.228 32.9242 134.129L58.1721 119.509L63.9354 83.1094L31.5013 132.342V133.296Z" fill="#59A9A2"/>
<path opacity="0.6" d="M31.5013 133.296C31.4803 133.48 31.5109 133.665 31.5899 133.832C31.6689 133.998 31.7929 134.14 31.9481 134.239C32.1069 134.305 32.2796 134.329 32.4503 134.309C32.6209 134.29 32.7839 134.228 32.9242 134.129L58.1721 119.509L63.9354 83.1094L31.5013 132.342V133.296Z" fill="black"/>
<path d="M107.223 90.7528C107.011 91.1198 106.726 91.439 106.385 91.6903L106.329 91.7234L32.9351 134.101C32.7949 134.2 32.6319 134.262 32.4612 134.281C32.2906 134.301 32.1178 134.277 31.959 134.211L67.0623 78.1729C67.7678 77.0505 68.8541 76.2197 70.1221 75.8328C71.3902 75.4459 72.7552 75.5288 73.9671 76.0662L107.223 90.7528Z" fill="#59A9A2"/>
<path opacity="0.2" d="M107.223 90.7528C107.011 91.1198 106.726 91.439 106.385 91.6903L106.329 91.7234L32.9351 134.101C32.7949 134.2 32.6319 134.262 32.4612 134.281C32.2906 134.301 32.1178 134.277 31.959 134.211L67.0623 78.1729C67.7678 77.0505 68.8541 76.2197 70.1221 75.8328C71.3902 75.4459 72.7552 75.5288 73.9671 76.0662L107.223 90.7528Z" fill="black"/>
<path d="M31.5013 75.4327L65.2149 90.3234C66.4287 90.8593 67.795 90.9396 69.0633 90.5496C70.3316 90.1596 71.4167 89.3254 72.1197 88.2001L107.521 31.5439L31.5013 75.4327Z" fill="#59A9A2"/>
<path opacity="0.6" d="M31.5013 75.4327L65.2149 90.3234C66.4287 90.8593 67.795 90.9396 69.0633 90.5496C70.3316 90.1596 71.4167 89.3254 72.1197 88.2001L107.521 31.5439L31.5013 75.4327Z" fill="black"/>
<path d="M31.5013 75.4327L65.452 88.1174C66.6253 88.5554 67.9127 88.581 69.1024 88.1901C70.2922 87.7992 71.3135 87.015 71.9984 85.9665L107.521 31.5439L31.5013 75.4327Z" fill="#59A9A2"/>
<path opacity="0.2" d="M31.5013 75.4327L65.452 88.1174C66.6253 88.5554 67.9127 88.581 69.1024 88.1901C70.2922 87.7992 71.3135 87.015 71.9984 85.9665L107.521 31.5439L31.5013 75.4327Z" fill="black"/>
<path d="M39.5422 81.4211C39.5679 80.9235 39.7112 80.4391 39.9605 80.0076C40.2097 79.5762 40.5578 79.2101 40.9761 78.9393L114.277 36.6168C114.721 36.3911 115.212 36.2734 115.711 36.2734C116.209 36.2734 116.7 36.3911 117.145 36.6168L118.76 37.5489C119.177 37.8212 119.523 38.1878 119.771 38.619C120.019 39.0502 120.163 39.5338 120.189 40.0306V96.218C120.162 96.7146 120.018 97.1979 119.77 97.6289C119.522 98.06 119.176 98.4268 118.76 98.6998L45.4544 141.017C45.0103 141.24 44.5202 141.356 44.0232 141.356C43.5262 141.356 43.0361 141.24 42.5921 141.017L40.9761 140.085C40.5597 139.812 40.213 139.445 39.964 139.014C39.7149 138.583 39.5705 138.1 39.5422 137.603V81.4211Z" fill="#455A64"/>
<path d="M39.5422 81.4211C39.5679 80.9235 39.7112 80.4391 39.9605 80.0076C40.2097 79.5762 40.5578 79.2101 40.9761 78.9393L114.277 36.6168C114.721 36.3911 115.212 36.2734 115.711 36.2734C116.209 36.2734 116.7 36.3911 117.145 36.6168L118.76 37.5489C119.177 37.8212 119.523 38.1878 119.771 38.619C120.019 39.0502 120.163 39.5338 120.189 40.0306V96.218C120.162 96.7146 120.018 97.1979 119.77 97.6289C119.522 98.06 119.176 98.4268 118.76 98.6998L45.4544 141.017C45.0103 141.24 44.5202 141.356 44.0232 141.356C43.5262 141.356 43.0361 141.24 42.5921 141.017L40.9761 140.085C40.5597 139.812 40.213 139.445 39.964 139.014C39.7149 138.583 39.5705 138.1 39.5422 137.603V81.4211Z" fill="#455A64"/>
<path d="M46.2651 83.6608L39.9614 80.0264C39.7032 80.4534 39.5589 80.9395 39.5422 81.4382V137.609C39.5705 138.106 39.7149 138.589 39.964 139.02C40.213 139.452 40.5597 139.818 40.9761 140.091L42.5921 141.023C43.0361 141.246 43.5262 141.362 44.0232 141.362C44.5202 141.362 45.0103 141.246 45.4544 141.023L46.2651 140.554V83.6608Z" fill="#263238"/>
<path d="M120.194 40.0307V96.218C120.176 96.7324 120.022 97.2327 119.748 97.6685C119.536 98.0355 119.25 98.3547 118.909 98.606L118.854 98.6391L118.76 98.6998L45.4599 141.017C45.3196 141.116 45.1566 141.178 44.9859 141.197C44.8153 141.216 44.6425 141.192 44.4837 141.127C44.3286 141.027 44.2045 140.886 44.1255 140.719C44.0466 140.553 44.0159 140.367 44.037 140.184V84.0022C44.0245 83.801 44.061 83.5998 44.1434 83.4158C44.2257 83.2319 44.3514 83.0706 44.5098 82.9459C44.6681 82.8212 44.8543 82.7367 45.0524 82.6998C45.2506 82.6628 45.4547 82.6745 45.6474 82.7337L76.471 90.0632L80.508 91.0228C80.9845 91.1121 81.4763 91.0694 81.9303 90.8992C82.3843 90.7291 82.7831 90.4381 83.0835 90.0577L87.7548 83.5444L119.235 39.7163C119.742 38.9883 120.194 39.1152 120.194 40.0307Z" fill="#37474F"/>
<path d="M118.76 98.7003L118.854 98.6397L118.909 98.6066C119.25 98.3552 119.536 98.036 119.748 97.669C120.015 97.2409 120.167 96.7506 120.189 96.2461L87.7493 83.5615L109.473 104.066L118.76 98.7003Z" fill="#263238"/>
<path d="M44.0259 140.19C44.0048 140.373 44.0355 140.559 44.1145 140.725C44.1934 140.892 44.3175 141.033 44.4726 141.133C44.6315 141.198 44.8042 141.222 44.9749 141.203C45.1455 141.184 45.3085 141.122 45.4488 141.023L70.6857 126.452L76.4489 90.0527L44.0149 139.247L44.0259 140.19Z" fill="#263238"/>
<path d="M119.742 97.668C119.53 98.035 119.245 98.3542 118.904 98.6056L118.849 98.6387L45.4599 141.016C45.3196 141.115 45.1566 141.177 44.986 141.197C44.8154 141.216 44.6426 141.192 44.4838 141.127L79.5816 85.0937C80.2854 83.9693 81.3709 83.1363 82.6391 82.7473C83.9073 82.3583 85.2732 82.4395 86.4864 82.9759L119.742 97.668Z" fill="#37474F"/>
<path d="M44.026 82.3529L77.7395 97.2435C78.9527 97.7779 80.3178 97.8574 81.5848 97.4675C82.8519 97.0775 83.936 96.2443 84.6389 95.1202L120.04 38.4365L44.026 82.3529Z" fill="#263238"/>
<path d="M44.026 82.3529L77.9711 95.0375C79.1451 95.4769 80.4337 95.5033 81.6247 95.1124C82.8157 94.7214 83.8379 93.9364 84.523 92.8866L120.04 38.4365L44.026 82.3529Z" fill="#37474F"/>
<path d="M93.3085 126.021V69.834C93.3597 68.768 93.6927 67.7347 94.2736 66.8394L129.234 18.158C129.871 17.2686 130.76 16.5892 131.785 16.2061C132.81 15.8231 133.926 15.7538 134.991 16.0071L167.866 23.822C168.926 24.1039 169.948 24.5112 170.911 25.0353L172.527 25.9673C172.942 26.2406 173.288 26.6075 173.536 27.0385C173.784 27.4695 173.927 27.9526 173.955 28.4491V84.6364C173.927 85.1328 173.783 85.6156 173.535 86.0464C173.287 86.4773 172.942 86.8443 172.527 87.1182L99.2206 129.435C98.7769 129.66 98.2867 129.777 97.7895 129.777C97.2922 129.777 96.802 129.66 96.3583 129.435L94.7424 128.503C94.3256 128.231 93.9787 127.864 93.7296 127.433C93.4805 127.002 93.3363 126.518 93.3085 126.021Z" fill="#59A9A2"/>
<path opacity="0.3" d="M93.3085 126.021V69.834C93.3597 68.768 93.6927 67.7347 94.2736 66.8394L129.234 18.158C129.871 17.2686 130.76 16.5892 131.785 16.2061C132.81 15.8231 133.926 15.7538 134.991 16.0071L167.866 23.822C168.926 24.1039 169.948 24.5112 170.911 25.0353L172.527 25.9673C172.942 26.2406 173.288 26.6075 173.536 27.0385C173.784 27.4695 173.927 27.9526 173.955 28.4491V84.6364C173.927 85.1328 173.783 85.6156 173.535 86.0464C173.287 86.4773 172.942 86.8443 172.527 87.1182L99.2206 129.435C98.7769 129.66 98.2867 129.777 97.7895 129.777C97.2922 129.777 96.802 129.66 96.3583 129.435L94.7424 128.503C94.3256 128.231 93.9787 127.864 93.7296 127.433C93.4805 127.002 93.3363 126.518 93.3085 126.021Z" fill="white"/>
<path d="M100.026 42.6776V114.373C100.026 115.283 100.671 115.658 101.46 115.2L170.282 75.4921C170.7 75.2207 171.047 74.8544 171.297 74.4231C171.546 73.9918 171.69 73.5077 171.716 73.0103V1.31466C171.716 0.399162 171.076 0.0296535 170.282 0.487403L101.46 40.1958C101.042 40.4675 100.695 40.8339 100.446 41.2651C100.197 41.6963 100.053 42.1802 100.026 42.6776Z" fill="#FAFAFA"/>
<path d="M100.82 115.681C100.642 115.682 100.467 115.637 100.313 115.549C100.124 115.423 99.9729 115.248 99.8757 115.043C99.7786 114.838 99.739 114.611 99.7611 114.385V42.6893C99.7873 42.1428 99.9435 41.6105 100.217 41.1366C100.49 40.6628 100.873 40.261 101.333 39.9649L170.155 0.256474C170.335 0.110147 170.555 0.0219474 170.786 0.00358979C171.017 -0.0147678 171.248 0.0375855 171.448 0.153698C171.649 0.26981 171.809 0.444182 171.908 0.653647C172.007 0.863111 172.04 1.09775 172.003 1.3264V73.0221C171.977 73.5679 171.821 74.0996 171.547 74.5727C171.274 75.0457 170.891 75.4464 170.431 75.741L101.609 115.449C101.371 115.595 101.099 115.675 100.82 115.681ZM170.922 0.537743C170.744 0.547931 170.571 0.602946 170.42 0.69768L101.598 40.4336C101.223 40.6823 100.911 41.0144 100.686 41.4038C100.461 41.7932 100.33 42.2294 100.302 42.6783V114.374C100.268 114.503 100.279 114.64 100.33 114.763C100.382 114.886 100.473 114.989 100.588 115.055C100.704 115.122 100.838 115.15 100.97 115.133C101.103 115.117 101.226 115.057 101.322 114.964L170.144 75.2557C170.519 75.0073 170.831 74.6753 171.056 74.2858C171.281 73.8963 171.413 73.46 171.44 73.011V1.31537C171.456 1.18603 171.438 1.05485 171.389 0.934234C171.34 0.813614 171.261 0.707528 171.159 0.625985C171.089 0.57564 171.007 0.545138 170.922 0.537743Z" fill="#E0E0E0"/>
<path d="M98.5422 71.2018L93.5787 68.334C93.418 68.8185 93.3288 69.3238 93.314 69.8341V126.021C93.3418 126.519 93.486 127.002 93.7351 127.433C93.9842 127.864 94.3311 128.231 94.7479 128.503L96.3583 129.435C96.8016 129.661 97.292 129.779 97.7894 129.779C98.2869 129.779 98.7773 129.661 99.2206 129.435L99.91 129.044L98.5422 71.2018Z" fill="#59A9A2"/>
<g opacity="0.1">
<path d="M98.5422 71.2028L93.5787 68.335C93.418 68.8195 93.3288 69.3248 93.314 69.835V126.022C93.3418 126.52 93.486 127.003 93.7351 127.434C93.9842 127.865 94.3311 128.232 94.7479 128.504L96.3583 129.436C96.8016 129.662 97.292 129.78 97.7894 129.78C98.2869 129.78 98.7773 129.662 99.2206 129.436L99.91 129.045L98.5422 71.2028Z" fill="black"/>
</g>
<path d="M173.961 28.4496V84.637C173.942 85.1513 173.788 85.6517 173.514 86.0874C173.302 86.4544 173.017 86.7736 172.676 87.025L172.62 87.0581L172.527 87.1187L99.2261 129.436C99.0858 129.535 98.9228 129.597 98.7522 129.616C98.5815 129.635 98.4088 129.611 98.2499 129.546C98.0948 129.446 97.9707 129.305 97.8918 129.138C97.8128 128.972 97.7821 128.786 97.8032 128.603V72.4211C97.7907 72.2199 97.8272 72.0188 97.9096 71.8348C97.9919 71.6508 98.1177 71.4896 98.276 71.3649C98.4343 71.2401 98.6205 71.1557 98.8187 71.1187C99.0168 71.0818 99.221 71.0934 99.4136 71.1527L130.221 78.4822L134.258 79.4418C134.735 79.5321 135.228 79.4899 135.683 79.3198C136.138 79.1496 136.538 78.858 136.839 78.4766L141.516 71.9634L172.995 28.1353C173.525 27.4073 173.961 27.5341 173.961 28.4496Z" fill="#59A9A2"/>
<path opacity="0.3" d="M173.961 28.4496V84.637C173.942 85.1513 173.788 85.6517 173.514 86.0874C173.302 86.4544 173.017 86.7736 172.676 87.025L172.62 87.0581L172.527 87.1187L99.2261 129.436C99.0858 129.535 98.9228 129.597 98.7522 129.616C98.5815 129.635 98.4088 129.611 98.2499 129.546C98.0948 129.446 97.9707 129.305 97.8918 129.138C97.8128 128.972 97.7821 128.786 97.8032 128.603V72.4211C97.7907 72.2199 97.8272 72.0188 97.9096 71.8348C97.9919 71.6508 98.1177 71.4896 98.276 71.3649C98.4343 71.2401 98.6205 71.1557 98.8187 71.1187C99.0168 71.0818 99.221 71.0934 99.4136 71.1527L130.221 78.4822L134.258 79.4418C134.735 79.5321 135.228 79.4899 135.683 79.3198C136.138 79.1496 136.538 78.858 136.839 78.4766L141.516 71.9634L172.995 28.1353C173.525 27.4073 173.961 27.5341 173.961 28.4496Z" fill="white"/>
<path d="M172.527 87.1189L172.621 87.0583L172.676 87.0252C173.017 86.7738 173.302 86.4546 173.514 86.0876C173.782 85.6576 173.934 85.1655 173.955 84.6592L141.516 71.9746L163.239 92.4851L172.527 87.1189Z" fill="#59A9A2"/>
<path d="M97.7923 128.609C97.7712 128.792 97.8019 128.978 97.8809 129.144C97.9598 129.311 98.0839 129.452 98.239 129.552C98.3978 129.617 98.5706 129.641 98.7412 129.622C98.9119 129.603 99.0749 129.541 99.2152 129.442L124.452 114.871L130.215 78.4717L97.7812 127.666L97.7923 128.609Z" fill="#59A9A2"/>
<path d="M173.514 86.087C173.302 86.454 173.017 86.7732 172.676 87.0246L172.62 87.0576L99.2262 129.435C99.0859 129.534 98.9229 129.596 98.7522 129.616C98.5816 129.635 98.4088 129.611 98.25 129.546L133.348 73.5127C134.051 72.3896 135.136 71.5575 136.403 71.1686C137.67 70.7797 139.035 70.86 140.247 71.3949L173.514 86.087Z" fill="#59A9A2"/>
<path opacity="0.3" d="M173.514 86.087C173.302 86.454 173.017 86.7732 172.676 87.0246L172.62 87.0576L99.2262 129.435C99.0859 129.534 98.9229 129.596 98.7522 129.616C98.5816 129.635 98.4088 129.611 98.25 129.546L133.348 73.5127C134.051 72.3896 135.136 71.5575 136.403 71.1686C137.67 70.7797 139.035 70.86 140.247 71.3949L173.514 86.087Z" fill="white"/>
<path d="M130.331 59.1898C129.688 59.2894 129.03 59.231 128.414 59.0196C127.798 58.8082 127.243 58.4502 126.796 57.9765C125.958 57.0445 125.539 55.605 125.539 53.6692C125.54 51.4851 126.008 49.3264 126.912 47.338C127.839 45.2918 129.12 43.4249 130.695 41.8229C132.389 40.0668 134.319 38.5558 136.431 37.3337C138.501 36.1424 140.267 35.4825 141.731 35.3538C143.203 35.2214 144.312 35.6019 145.073 36.4844C145.834 37.3668 146.209 38.7179 146.209 40.5269C146.241 42.3209 145.816 44.0936 144.974 45.6779C144.231 47.1128 143.1 48.3093 141.709 49.1304C141.229 49.4716 140.64 49.6247 140.054 49.5605C139.846 49.5193 139.654 49.4188 139.501 49.2711C139.349 49.1233 139.242 48.9347 139.194 48.7278C138.735 49.5964 138.151 50.3934 137.462 51.0937C136.765 51.8131 135.97 52.4312 135.102 52.9302C133.602 53.7796 132.405 54.0332 131.522 53.7409C130.64 53.4487 130.221 52.5552 130.221 51.0661C130.233 49.1949 130.81 47.3709 131.875 45.8324C133.035 44.1267 134.576 42.7144 136.376 41.7071C137.127 41.2594 137.944 40.932 138.797 40.7365C139.431 40.5647 140.099 40.5647 140.733 40.7365V46.5438C140.733 47.0126 140.815 47.2994 140.975 47.4097C141.135 47.52 141.4 47.4648 141.775 47.2497C142.473 46.7953 142.991 46.1103 143.236 45.314C143.609 44.2382 143.787 43.1045 143.76 41.9663C143.76 40.5177 143.444 39.4643 142.812 38.8062C142.474 38.4758 142.062 38.2313 141.61 38.0931C141.158 37.9549 140.679 37.9271 140.214 38.012C138.868 38.2177 137.578 38.6983 136.425 39.4239C133.987 40.7765 131.885 42.6616 130.276 44.9389C128.789 47.0761 127.999 49.6208 128.015 52.2243C128.015 53.809 128.34 54.9653 128.991 55.6933C129.328 56.0577 129.751 56.333 130.22 56.4946C130.69 56.6563 131.192 56.6993 131.682 56.6198C133.055 56.4254 134.371 55.9423 135.543 55.2024C136.352 54.7345 137.118 54.1955 137.832 53.592C138.496 53.0434 139.101 52.426 139.635 51.75C139.69 51.6789 139.755 51.6157 139.828 51.5625C139.878 51.5349 139.927 51.5625 139.971 51.6287L140.578 52.7317C140.6 52.7754 140.617 52.8217 140.628 52.8696C140.608 52.9924 140.548 53.1051 140.457 53.1894C139.79 53.9906 139.052 54.7291 138.251 55.3955C137.407 56.1032 136.505 56.7379 135.554 57.2926C133.97 58.2931 132.188 58.9402 130.331 59.1898ZM137.501 48.8215C138.026 48.2019 138.332 47.4266 138.372 46.6155V43.2513C137.585 43.3178 136.827 43.5794 136.166 44.0124C135.114 44.6042 134.218 45.4379 133.552 46.4445C132.927 47.3681 132.591 48.4566 132.587 49.5716C132.587 50.5036 132.818 51.0606 133.287 51.2261C133.756 51.3915 134.478 51.2261 135.466 50.636C136.265 50.1736 136.964 49.5568 137.523 48.8215H137.501Z" fill="#E0E0E0"/>
<path d="M60.0914 64.7164L54.7142 61.6004H54.6756C52.8391 60.5636 50.3077 60.718 47.506 62.3339C41.8752 65.5823 37.3142 73.4853 37.3142 79.9821C37.3142 83.2304 38.4503 85.4971 40.2868 86.6001L45.289 89.4624L46.1934 87.9568C47.2192 87.7269 48.2046 87.3439 49.1164 86.8207C54.7418 83.5668 59.3082 75.6638 59.3082 69.1725C59.3052 68.2952 59.1978 67.4214 58.9884 66.5694L60.0914 64.7164Z" fill="#F28F8F"/>
<path d="M60.0914 64.7164L54.7142 61.6004H54.6756C52.8391 60.5636 50.3077 60.718 47.506 62.3339C41.8752 65.5823 37.3142 73.4853 37.3142 79.9821C37.3142 83.2304 38.4503 85.4971 40.2868 86.6001L45.289 89.4624L46.1934 87.9568C47.2192 87.7269 48.2046 87.3439 49.1164 86.8207C54.7418 83.5668 59.3082 75.6638 59.3082 69.1725C59.3052 68.2952 59.1978 67.4214 58.9884 66.5694L60.0914 64.7164Z" fill="#59A9A2"/>
<path opacity="0.4" d="M60.0914 64.7164L54.7142 61.6004H54.6756C52.8391 60.5636 50.3077 60.718 47.506 62.3339C41.8752 65.5823 37.3142 73.4853 37.3142 79.9821C37.3142 83.2304 38.4503 85.4971 40.2868 86.6001L45.289 89.4624L46.1934 87.9568C47.2192 87.7269 48.2046 87.3439 49.1164 86.8207C54.7418 83.5668 59.3082 75.6638 59.3082 69.1725C59.3052 68.2952 59.1978 67.4214 58.9884 66.5694L60.0914 64.7164Z" fill="black"/>
<path d="M52.6736 65.2951C47.0428 68.5489 42.4818 76.452 42.4818 82.9432C42.4818 89.4345 47.0428 92.0762 52.6736 88.8278C58.3045 85.5794 62.8654 77.6764 62.8654 71.1796C62.8654 64.6829 58.3045 62.0467 52.6736 65.2951Z" fill="#59A9A2"/>
<path d="M48.6918 84.4988C48.587 84.4988 48.5319 84.4381 48.5319 84.3443C48.5427 84.2405 48.5726 84.1395 48.6201 84.0465L49.133 82.8939C49.167 82.781 49.2342 82.681 49.326 82.6071C49.4024 82.5726 49.4849 82.5538 49.5687 82.5519C50.0276 82.5246 50.4805 82.4337 50.9144 82.2817C51.4913 82.0873 52.0459 81.8322 52.5689 81.5206C53.3826 81.0797 54.0962 80.4751 54.6646 79.7448C55.0909 79.1923 55.3287 78.5177 55.3429 77.82C55.3429 76.6012 54.5984 76.4247 53.1094 77.2685L51.6589 78.1454C51.4218 78.2778 51.2563 78.3274 51.157 78.2833C51.0578 78.2392 51.0081 78.1068 51.0081 77.8862V77.4284C51.0003 77.2337 51.0522 77.0413 51.157 76.8769C51.2898 76.6976 51.4614 76.5506 51.6589 76.4468L53.0983 75.614C53.6751 75.3001 54.1642 74.847 54.5212 74.2959C54.8203 73.8335 54.9846 73.2968 54.9955 72.7462C54.9955 71.566 54.1646 71.4556 52.5027 72.4153C51.4807 72.9976 50.5605 73.7428 49.7783 74.6213C49.7048 74.7042 49.6235 74.7799 49.5356 74.8474C49.5031 74.8628 49.4665 74.8668 49.4314 74.8588C49.3964 74.8508 49.3651 74.8312 49.3426 74.8033L48.8517 74.2518C48.8243 74.2264 48.8024 74.1957 48.7872 74.1616C48.7721 74.1274 48.764 74.0906 48.7635 74.0532C48.7747 73.9267 48.8292 73.8078 48.9179 73.7168C49.4065 73.1058 49.9614 72.5509 50.5724 72.0623C51.284 71.4825 52.0421 70.9623 52.8391 70.5071C53.5587 70.0592 54.3524 69.7436 55.183 69.575C55.4444 69.5113 55.7165 69.5054 55.9804 69.5578C56.2442 69.6102 56.4935 69.7196 56.7107 69.8783C56.9065 70.0672 57.0577 70.2974 57.1531 70.5522C57.2485 70.807 57.2858 71.0798 57.2622 71.3509C57.2498 71.9581 57.1147 72.5565 56.8651 73.1102C56.5986 73.7492 56.2256 74.3385 55.7621 74.8529C56.0001 74.7731 56.2545 74.7551 56.5015 74.8004C56.7484 74.8457 56.9798 74.953 57.174 75.1121C57.3439 75.3099 57.4728 75.5395 57.5533 75.7876C57.6338 76.0356 57.6642 76.2972 57.6427 76.5571C57.6006 77.7797 57.1719 78.9575 56.4184 79.9213C55.4934 81.1619 54.3121 82.1889 52.9549 82.9325C51.0136 84.0686 49.5926 84.5907 48.6918 84.4988Z" fill="white"/>
<path d="M164.342 144.375L164.447 144.281C164.524 144.215 164.607 144.149 164.679 144.077L164.927 143.834L165.175 143.597C165.32 143.461 165.458 143.317 165.589 143.167L167.552 144.634L168.859 145.61C168.383 146.126 167.996 146.717 167.712 147.358C167.712 147.358 167.321 147.993 165.991 147.673C164.348 147.292 164.089 144.877 164.342 144.375Z" fill="#FFA8A7"/>
<path d="M145.112 143.702C143.611 141.959 144.946 139.064 146.402 135.308C148.001 131.178 150.472 124.157 150.472 124.157L168.016 120.533C168.016 120.533 186.706 120.175 188.421 123.749C189.811 126.611 177.501 130.918 175.737 131.073L164.933 131.641L163.797 132.192L156.208 141.794L145.112 143.702Z" fill="#59A9A2"/>
<path d="M177.435 126.677C176.073 128.063 174.804 129.537 173.635 131.09C170.475 135.502 165.473 143.515 165.473 143.515C165.473 143.515 166.251 146.052 168.639 145.942C168.639 145.942 185.074 130.593 186.419 129.176C188.454 127.025 190.087 123.479 186.568 123.186C183.05 122.894 178.803 125.199 177.435 126.677Z" fill="#59A9A2"/>
<path d="M173.547 131.177C173.547 131.177 176.481 126.886 179.52 125.11C179.52 125.11 176.498 125.706 171.92 131.276L173.547 131.177Z" fill="#59A9A2"/>
<path opacity="0.1" d="M173.547 131.177C173.547 131.177 176.481 126.886 179.52 125.11C179.52 125.11 176.498 125.706 171.92 131.276L173.547 131.177Z" fill="black"/>
<path d="M175.544 136.604L174.391 136.825L175.461 140.779C175.461 140.779 176.498 140.68 176.856 140.702C177.378 140.578 177.881 140.383 178.351 140.123L178.075 137.707L176.806 136.384L175.544 136.604Z" fill="#FFA8A7"/>
<path d="M184.643 137.536C185.193 137.758 185.692 138.091 186.108 138.514C186.523 138.937 186.847 139.442 187.059 139.996C187.304 140.575 187.505 141.172 187.66 141.783C187.842 142.422 187.754 143.509 186.943 143.685C186.68 143.716 186.413 143.668 186.176 143.547C184.55 142.919 182.961 142.191 181.296 141.661C179.868 141.133 178.374 140.808 176.856 140.696C177.201 140.165 177.374 139.54 177.35 138.908C177.326 138.275 177.107 137.665 176.724 137.161C176.397 136.859 175.985 136.666 175.543 136.609C175.963 136.422 176.354 136.179 176.757 135.953C177.507 135.429 178.425 135.203 179.332 135.319C180.027 135.468 180.557 136.019 181.147 136.422C182.272 137.155 183.358 137.106 184.643 137.536Z" fill="#263238"/>
<path d="M147.477 139.912C148.928 139.466 151.244 139.068 158.116 138.716C164.988 138.363 174.391 136.818 174.391 136.818C175.99 138.357 175.461 140.773 175.461 140.773C175.461 140.773 163.256 144.633 159.28 145.146C152.948 145.962 150.764 145.902 147.908 145.289C144.698 144.6 142.674 141.385 147.477 139.912Z" fill="#59A9A2"/>
<path d="M172.593 107.181L177.755 119.518L174.06 121.79L166.957 109.762L172.593 107.181Z" fill="#F28F8F"/>
<path d="M161.916 95.5557C164.739 95.5888 167.844 96.6145 168.914 98.8261L173.326 107.926C173.326 107.926 170.834 111.577 166.874 111.318L161.916 95.5557Z" fill="#E0E0E0"/>
<path d="M143.143 114.731C143.176 114.252 143.865 111.908 144.604 109.382L149.965 111.235L148.525 115.774L144.008 120.059C143.03 118.466 142.719 116.552 143.143 114.731Z" fill="#FFA8A7"/>
<path d="M156.142 95.7266C152.777 96.5373 148.194 97.5907 146.865 101.242C145.536 104.893 143.634 111.34 143.634 111.34C144.373 112.619 148.426 113.678 149.832 112.939L150.494 110.733V124.146C153.125 127.008 166.102 126.274 168.038 120.522V102.251C168.038 99.328 166.416 95.8149 161.932 95.5557L156.142 95.7266Z" fill="#FAFAFA"/>
<path d="M150.478 110.744L152.165 105.433L150.478 113.121V110.744Z" fill="#E0E0E0"/>
<path d="M154.862 80.7754C154.563 80.7366 154.258 80.766 153.972 80.8615C153.685 80.957 153.424 81.1161 153.208 81.3269C152.496 82.0549 152.656 83.4006 153.208 86.489L155.414 86.7372L154.862 80.7754Z" fill="#263238"/>
<path d="M167.662 79.8812C168.135 79.8833 168.602 79.7876 169.036 79.6C169.709 79.2139 169.885 79.9805 169.516 80.6423C169.271 81.1195 168.909 81.5262 168.463 81.8235C168.017 82.1209 167.502 82.299 166.968 82.341C166.968 82.2472 166.339 80.6258 166.339 80.6258L167.662 79.8812Z" fill="#263238"/>
<path d="M155.893 86.7694C155.568 86.9625 155.099 86.3393 154.697 85.9146C154.539 85.734 154.337 85.5966 154.112 85.5154C153.886 85.4342 153.643 85.4119 153.406 85.4506C153.17 85.4892 152.947 85.5875 152.758 85.7363C152.57 85.885 152.423 86.0792 152.331 86.3007C151.663 87.707 153.18 89.5766 154.068 90.1943C154.317 90.4092 154.628 90.5398 154.956 90.5675C155.283 90.5952 155.612 90.5187 155.893 90.3487L156.125 95.7259C156.518 96.5876 157.119 97.3384 157.874 97.9111C158.628 98.4837 159.513 98.8604 160.449 99.0073C163.603 99.432 162.953 96.8289 161.916 95.5549V93.586C162.706 93.7546 163.517 93.7955 164.32 93.7074C164.728 93.5971 165.71 92.4113 166.344 91.0822C167.056 89.5931 168.242 86.9459 167.188 82.4622C166.052 77.6531 160.884 77.4986 157.813 79.4455C154.741 81.3923 155.893 86.7694 155.893 86.7694Z" fill="#FFA8A7"/>
<path d="M155.893 87.316C155.728 87.316 155.105 86.2846 154.697 85.9151C154.145 85.4022 154.862 80.7751 154.862 80.7751C154.862 80.7751 154.31 79.0158 155.414 77.8521C156.517 76.6884 158.678 76.8815 160.256 76.8263C162.188 76.8369 164.103 76.4522 165.881 75.6957C168.12 74.7251 168.286 74.5927 168.561 75.5909C168.837 76.5892 168.947 78.8228 167.613 80.3284L166.885 81.5141C166.885 81.5141 166.206 82.0656 164.127 82.3414C162.048 82.6171 158.485 81.4755 158.061 81.4148C157.454 81.3321 157.327 81.9167 157.002 83.5161C156.693 84.9224 156.445 87.3049 155.893 87.316Z" fill="#263238"/>
<path d="M154.868 81.1336L152.893 80.0747C152.958 79.9435 153.049 79.8265 153.159 79.7305C153.27 79.6346 153.399 79.5617 153.538 79.516C153.677 79.4703 153.824 79.4528 153.97 79.4644C154.116 79.4761 154.258 79.5167 154.388 79.5839C154.651 79.7319 154.847 79.975 154.936 80.2632C155.026 80.5514 155.001 80.8629 154.868 81.1336Z" fill="#263238"/>
<path d="M161.91 93.5859C161.91 93.5859 158.987 92.9958 157.967 92.4829C157.367 92.168 156.875 91.68 156.555 91.082C156.71 91.6818 156.984 92.2444 157.36 92.7365C158.105 93.6907 161.91 94.3911 161.91 94.3911V93.5859Z" fill="#F28F8F"/>
<path d="M162.004 86.6604C162 86.775 161.962 86.8857 161.895 86.9789C161.828 87.0721 161.735 87.1436 161.628 87.1845C161.521 87.2254 161.404 87.2338 161.292 87.2089C161.181 87.1839 161.078 87.1265 160.999 87.044C160.919 86.9614 160.866 86.8572 160.845 86.7445C160.824 86.6317 160.837 86.5153 160.882 86.4098C160.927 86.3043 161.001 86.2142 161.097 86.1509C161.193 86.0876 161.305 86.0538 161.419 86.0537C161.498 86.0551 161.575 86.072 161.647 86.1032C161.718 86.1345 161.783 86.1796 161.837 86.2359C161.892 86.2923 161.934 86.3587 161.963 86.4316C161.991 86.5044 162.005 86.5821 162.004 86.6604Z" fill="#263238"/>
<path d="M161.386 84.4538L160.129 85.1432C160.042 84.9708 160.024 84.7717 160.078 84.5864C160.132 84.401 160.255 84.2432 160.421 84.145C160.504 84.0997 160.596 84.0717 160.69 84.0627C160.785 84.0538 160.88 84.064 160.97 84.0929C161.06 84.1218 161.144 84.1686 161.215 84.2307C161.287 84.2927 161.345 84.3686 161.386 84.4538Z" fill="#263238"/>
<path d="M161.657 90.5752L162.997 91.0826C162.967 91.172 162.92 91.2546 162.858 91.3255C162.795 91.3963 162.72 91.454 162.635 91.4951C162.55 91.5363 162.458 91.56 162.364 91.5649C162.27 91.5698 162.175 91.5558 162.087 91.5238C161.906 91.4522 161.76 91.3133 161.68 91.1363C161.6 90.9594 161.592 90.7582 161.657 90.5752Z" fill="#F28F8F"/>
<path d="M167.227 84.9392L166.085 84.0568C166.139 83.9802 166.208 83.9153 166.288 83.8661C166.368 83.8168 166.457 83.7843 166.55 83.7704C166.643 83.7565 166.737 83.7615 166.828 83.7851C166.919 83.8087 167.004 83.8505 167.078 83.9079C167.23 84.0278 167.331 84.2018 167.359 84.3937C167.386 84.5857 167.339 84.781 167.227 84.9392Z" fill="#263238"/>
<path d="M166.874 86.4944C166.87 86.6089 166.832 86.7197 166.765 86.8129C166.698 86.9061 166.605 86.9776 166.498 87.0185C166.391 87.0594 166.274 87.0678 166.162 87.0428C166.05 87.0179 165.948 86.9605 165.869 86.8779C165.789 86.7954 165.736 86.6912 165.715 86.5785C165.694 86.4657 165.707 86.3493 165.752 86.2438C165.796 86.1382 165.871 86.0482 165.967 85.9849C166.062 85.9216 166.175 85.8878 166.289 85.8877C166.367 85.8891 166.445 85.906 166.516 85.9372C166.588 85.9685 166.653 86.0136 166.707 86.0699C166.762 86.1263 166.804 86.1927 166.833 86.2656C166.861 86.3384 166.875 86.4161 166.874 86.4944Z" fill="#263238"/>
<path d="M164.116 86.4229L163.565 89.9084L165.495 89.6822L164.116 86.4229Z" fill="#F28F8F"/>
<path d="M184.235 126.004L172.35 119.144C172.246 119.084 172.128 119.053 172.008 119.053C171.888 119.053 171.77 119.084 171.666 119.144L150.825 131.177L163.046 138.259L184.235 126.004Z" fill="#37474F"/>
<path d="M162.936 137.228L156.528 133.532L175.268 122.712L181.709 126.39L162.936 137.228Z" fill="#263238"/>
<path d="M159.787 126.948L159.908 127.014L163.047 128.828L168.633 125.602L168.749 125.536L165.49 123.655L159.787 126.948Z" fill="#263238"/>
<path d="M159.908 127.013L163.047 128.828L168.633 125.602L165.49 123.787L159.908 127.013Z" fill="#263238"/>
<path d="M150.825 131.177V131.458C150.823 131.657 150.873 131.853 150.97 132.027C151.067 132.201 151.207 132.347 151.376 132.451L162.451 138.843C162.625 138.944 162.823 138.997 163.024 138.997C163.226 138.997 163.424 138.944 163.598 138.843L183.64 127.261C183.809 127.157 183.949 127.011 184.045 126.837C184.142 126.663 184.192 126.467 184.191 126.269V125.987L163.046 138.258L150.825 131.177Z" fill="#263238"/>
<path d="M163.046 138.259V139.02C163.241 139.018 163.431 138.964 163.598 138.865L183.64 127.284C183.809 127.18 183.949 127.033 184.045 126.86C184.142 126.686 184.192 126.49 184.191 126.291V126.01L163.046 138.259Z" fill="#263238"/>
<path d="M163.372 138.407C163.561 138.48 163.765 138.509 163.967 138.493C164.169 138.477 164.365 138.415 164.541 138.314L184.494 126.793C184.668 126.693 184.816 126.557 184.93 126.393C185.043 126.229 185.119 126.041 185.151 125.844L187.357 112.823C187.362 112.748 187.362 112.672 187.357 112.597C187.356 112.235 187.211 111.888 186.954 111.632L166.218 123.605C166.09 123.679 165.98 123.78 165.896 123.901C165.813 124.022 165.756 124.16 165.732 124.305L163.372 138.407Z" fill="#263238"/>
<path d="M163.046 138.259L163.184 138.336C163.245 138.37 163.308 138.402 163.372 138.429L165.732 124.327C165.756 124.182 165.812 124.044 165.896 123.923C165.98 123.802 166.09 123.701 166.218 123.627L186.954 111.654C186.869 111.575 186.777 111.505 186.678 111.444L165.903 123.418C165.775 123.491 165.665 123.592 165.58 123.713C165.495 123.834 165.438 123.972 165.412 124.118L163.046 138.259Z" fill="#455A64"/>
<path d="M174.606 126.379C174.92 125.291 175.641 124.364 176.619 123.793C177.584 123.241 178.246 123.489 178.102 124.344C177.789 125.433 177.068 126.359 176.089 126.931C175.124 127.51 174.463 127.229 174.606 126.379Z" fill="#37474F"/>
<path d="M148.525 115.763C148.525 115.763 152.105 129.55 153.616 130.538C155.127 131.525 157.94 132.247 159.285 132.744C160.631 133.24 161.243 133.918 161.011 134.106C160.78 134.293 158.839 134.497 158.166 134.734C157.493 134.972 158.364 136.058 159.853 137.211C161.342 138.363 162.611 138.259 162.445 139.025C162.28 139.792 158.96 140.558 156.158 138.915C153.357 137.271 152.507 135.054 150.836 133.174C149.165 131.293 145.349 123.478 144.009 120.059C144.009 120.059 144.135 113.706 146.215 114.108C148.294 114.511 148.525 115.763 148.525 115.763Z" fill="#FFA8A7"/>
<path d="M165.556 143.701C165.809 144.313 166.686 146.001 168.639 145.907L173.437 141.418L165.556 143.701Z" fill="#59A9A2"/>
<path opacity="0.1" d="M165.556 143.701C165.809 144.313 166.686 146.001 168.639 145.907L173.437 141.418L165.556 143.701Z" fill="black"/>
<path d="M167.006 151.599C166.96 150.155 167.198 148.716 167.707 147.364C167.476 147.525 167.209 147.628 166.93 147.665C166.65 147.701 166.366 147.67 166.102 147.573C164.497 147.094 164.094 144.854 164.348 144.369C164.116 144.573 163.874 144.766 163.636 144.965C162.876 145.475 162.335 146.253 162.12 147.143C162.009 147.844 162.335 148.533 162.495 149.228C162.804 150.552 162.495 151.93 162.445 153.287C162.456 153.879 162.589 154.463 162.835 155.001C163.08 155.54 163.434 156.023 163.874 156.42C164.326 156.861 164.813 157.265 165.33 157.627C165.518 157.839 165.767 157.987 166.042 158.051C166.318 158.115 166.607 158.091 166.869 157.984C167.131 157.877 167.353 157.691 167.505 157.453C167.657 157.214 167.731 156.934 167.718 156.651C167.508 154.93 167.105 153.392 167.006 151.599Z" fill="#263238"/>
<path d="M168.826 145.621C168.677 145.902 168.545 146.173 168.429 146.443C168.567 146.178 168.699 145.902 168.826 145.621Z" fill="#37474F"/>
</svg>
