<svg width="333" height="249" viewBox="0 0 333 249" fill="none" xmlns="http://www.w3.org/2000/svg">
<path d="M333 218.049H0V218.215H333V218.049Z" fill="#EBEBEB"/>
<path d="M299.634 228.765H277.576V228.931H299.634V228.765Z" fill="#EBEBEB"/>
<path d="M220.592 230.576H214.805V230.743H220.592V230.576Z" fill="#EBEBEB"/>
<path d="M276.91 222.584H264.129V222.75H276.91V222.584Z" fill="#EBEBEB"/>
<path d="M63.7028 223.703H34.9382V223.87H63.7028V223.703Z" fill="#EBEBEB"/>
<path d="M73.8526 223.703H69.6368V223.87H73.8526V223.703Z" fill="#EBEBEB"/>
<path d="M149.95 226.514H87.5588V226.68H149.95V226.514Z" fill="#EBEBEB"/>
<path d="M157.842 188.345H29.2442C28.2368 188.343 27.2712 187.942 26.5595 187.229C25.8477 186.516 25.448 185.549 25.448 184.542V3.76956C25.4568 2.76791 25.8604 1.81017 26.5712 1.10437C27.282 0.398573 28.2425 0.00171587 29.2442 0H157.842C158.851 0 159.818 0.400658 160.531 1.11383C161.244 1.82701 161.645 2.79428 161.645 3.80286V184.542C161.645 185.551 161.244 186.518 160.531 187.231C159.818 187.944 158.851 188.345 157.842 188.345ZM29.2442 0.133201C28.2809 0.134965 27.3577 0.518857 26.6772 1.20062C25.9967 1.88237 25.6145 2.80629 25.6145 3.76956V184.542C25.6145 185.505 25.9967 186.429 26.6772 187.111C27.3577 187.793 28.2809 188.177 29.2442 188.178H157.842C158.806 188.177 159.73 187.793 160.411 187.111C161.093 186.43 161.477 185.506 161.479 184.542V3.76956C161.477 2.80568 161.093 1.88178 160.411 1.20021C159.73 0.518641 158.806 0.134961 157.842 0.133201H29.2442Z" fill="#EBEBEB"/>
<path d="M301.905 188.345H173.3C172.292 188.343 171.326 187.942 170.613 187.229C169.9 186.516 169.499 185.55 169.497 184.542V3.76956C169.508 2.76731 169.913 1.80957 170.625 1.10396C171.336 0.39834 172.298 0.00169716 173.3 0H301.905C302.905 0.00346619 303.864 0.401098 304.573 1.10671C305.283 1.81232 305.685 2.76906 305.694 3.76956V184.542C305.694 185.548 305.295 186.513 304.585 187.226C303.875 187.939 302.911 188.341 301.905 188.345ZM173.3 0.133201C172.336 0.134961 171.412 0.518641 170.731 1.20021C170.049 1.88178 169.665 2.80568 169.664 3.76956V184.542C169.665 185.506 170.049 186.43 170.731 187.111C171.412 187.793 172.336 188.177 173.3 188.178H301.905C302.868 188.177 303.792 187.793 304.474 187.111C305.155 186.43 305.539 185.506 305.541 184.542V3.76956C305.539 2.80568 305.155 1.88178 304.474 1.20021C303.792 0.518641 302.868 0.134961 301.905 0.133201H173.3Z" fill="#EBEBEB"/>
<path d="M135.371 16.6904H45.6545V165.914H135.371V16.6904Z" fill="#E6E6E6"/>
<path d="M144.988 13.626H39.8469C39.6102 13.626 39.3832 13.72 39.2159 13.8874C39.0485 14.0547 38.9545 14.2817 38.9545 14.5184C38.9562 14.754 39.051 14.9792 39.2182 15.1452C39.3854 15.3111 39.6114 15.4042 39.8469 15.4042H144.988C145.219 15.3973 145.438 15.3012 145.6 15.136C145.761 14.9708 145.853 14.7494 145.854 14.5184C145.854 14.2863 145.764 14.0632 145.602 13.8966C145.441 13.73 145.22 13.6329 144.988 13.626Z" fill="#E6E6E6"/>
<path d="M139.181 16.6904H47.4326V165.914H139.181V16.6904Z" fill="#F0F0F0"/>
<path d="M135.371 165.914H45.6545V168.438H137.995L135.371 165.914Z" fill="#E6E6E6"/>
<path d="M145.521 165.914H53.7727L56.3967 168.438H148.145L145.521 165.914Z" fill="#F0F0F0"/>
<path d="M133.853 160.586V22.0176L52.7673 22.0176L52.7673 160.586H133.853Z" fill="#FAFAFA"/>
<path d="M71.1688 160.586L102.451 22.0176H117.216L85.934 160.586H71.1688Z" fill="white"/>
<path d="M89.1106 160.586L120.386 22.0176H126.147L94.8648 160.586H89.1106Z" fill="white"/>
<path d="M133.853 160.586V22.0176H133.173V160.586H133.853Z" fill="#E6E6E6"/>
<g opacity="0.4">
<path d="M52.8204 12.0352H43.6495V147.493H52.8204V12.0352Z" fill="#F0F0F0"/>
<path d="M56.3969 12.0352H49.2507V147.493H56.3969V12.0352Z" fill="#E6E6E6"/>
<path d="M61.9915 12.0352H52.8207V147.493H61.9915V12.0352Z" fill="#F0F0F0"/>
<path d="M65.5678 12.0352H58.4216V147.493H65.5678V12.0352Z" fill="#E6E6E6"/>
<path d="M71.1689 12.0352H61.998V147.493H71.1689V12.0352Z" fill="#F0F0F0"/>
</g>
<g opacity="0.4">
<path d="M130.436 12.0352H125.148V147.493H130.436V12.0352Z" fill="#F0F0F0"/>
<path d="M132.494 12.0352H128.378V147.493H132.494V12.0352Z" fill="#E6E6E6"/>
<path d="M135.724 12.0352H130.436V147.493H135.724V12.0352Z" fill="#F0F0F0"/>
<path d="M137.775 12.0352H133.66V147.493H137.775V12.0352Z" fill="#E6E6E6"/>
<path d="M141.006 12.0352H135.718V147.493H141.006V12.0352Z" fill="#F0F0F0"/>
</g>
<path d="M279.427 16.6904H189.71V165.914H279.427V16.6904Z" fill="#E6E6E6"/>
<path d="M289.044 13.626H183.902C183.666 13.626 183.439 13.72 183.271 13.8874C183.104 14.0547 183.01 14.2817 183.01 14.5184C183.012 14.754 183.107 14.9792 183.274 15.1452C183.441 15.3111 183.667 15.4042 183.902 15.4042H289.044C289.279 15.4042 289.505 15.3111 289.673 15.1452C289.84 14.9792 289.935 14.754 289.936 14.5184C289.936 14.2817 289.842 14.0547 289.675 13.8874C289.508 13.72 289.281 13.626 289.044 13.626Z" fill="#E6E6E6"/>
<path d="M283.236 16.6904H191.488V165.914H283.236V16.6904Z" fill="#F0F0F0"/>
<path d="M279.427 165.914H189.71V168.438H282.051L279.427 165.914Z" fill="#E6E6E6"/>
<path d="M289.577 165.914H197.829L200.453 168.438H292.201L289.577 165.914Z" fill="#F0F0F0"/>
<path d="M277.909 160.586V22.0176L196.823 22.0176V160.586H277.909Z" fill="#FAFAFA"/>
<path d="M215.225 160.586L246.507 22.0176H261.272L229.99 160.586H215.225Z" fill="white"/>
<path d="M233.16 160.586L264.442 22.0176H270.203L238.921 160.586H233.16Z" fill="white"/>
<path d="M277.902 160.592V22.0244H277.223V160.592H277.902Z" fill="#E6E6E6"/>
<g opacity="0.4">
<path d="M196.876 12.0352H187.705V147.493H196.876V12.0352Z" fill="#F0F0F0"/>
<path d="M200.453 12.0352H193.306V147.493H200.453V12.0352Z" fill="#E6E6E6"/>
<path d="M206.047 12.0352H196.876V147.493H206.047V12.0352Z" fill="#F0F0F0"/>
<path d="M209.623 12.0352H202.477V147.493H209.623V12.0352Z" fill="#E6E6E6"/>
<path d="M215.225 12.0352H206.054V147.493H215.225V12.0352Z" fill="#F0F0F0"/>
</g>
<g opacity="0.4">
<path d="M274.492 12.0352H269.204V147.493H274.492V12.0352Z" fill="#F0F0F0"/>
<path d="M276.543 12.0352H272.427V147.493H276.543V12.0352Z" fill="#E6E6E6"/>
<path d="M279.78 12.0352H274.492V147.493H279.78V12.0352Z" fill="#F0F0F0"/>
<path d="M281.831 12.0352H277.715V147.493H281.831V12.0352Z" fill="#E6E6E6"/>
<path d="M285.061 12.0352H279.773V147.493H285.061V12.0352Z" fill="#F0F0F0"/>
</g>
<path d="M287.393 181.972H281.272V218.049H287.393V181.972Z" fill="#E6E6E6"/>
<path d="M289.024 181.972H285.421V218.049H289.024V181.972Z" fill="#F0F0F0"/>
<path d="M270.576 181.972H264.455V218.049H270.576V181.972Z" fill="#E6E6E6"/>
<path d="M271.721 181.972H268.118V218.049H271.721V181.972Z" fill="#F0F0F0"/>
<path d="M203.25 188.345H290.136V181.971H203.25V188.345Z" fill="#F0F0F0"/>
<path d="M185.92 181.972H179.8V218.049H185.92V181.972Z" fill="#E6E6E6"/>
<path d="M187.066 181.972H183.463V218.049H187.066V181.972Z" fill="#F0F0F0"/>
<path d="M178.708 188.345H200.639V181.971H178.708V188.345Z" fill="#E6E6E6"/>
<path d="M202.737 181.972H196.617V218.049H202.737V181.972Z" fill="#E6E6E6"/>
<path d="M204.369 181.972H200.766V218.049H204.369V181.972Z" fill="#F0F0F0"/>
<path d="M63.5497 218.049H84.642V185.288H63.5497V218.049Z" fill="#F0F0F0"/>
<path d="M131.095 185.288H84.642V218.049H131.095V185.288Z" fill="#F5F5F5"/>
<g style="mix-blend-mode:multiply" opacity="0.7">
<path d="M63.5561 190.256H131.315V188.524H63.5561V190.256Z" fill="#E6E6E6"/>
</g>
<path d="M62.3842 189.25H84.642V184.235H62.3842V189.25Z" fill="#F0F0F0"/>
<path d="M132.254 184.242H84.642V189.257H132.254V184.242Z" fill="#F5F5F5"/>
<path d="M162.626 207.689C163.94 200.772 159.399 194.1 152.482 192.786C145.566 191.471 138.894 196.013 137.579 202.929C136.265 209.845 140.806 216.518 147.723 217.832C154.639 219.146 161.311 214.605 162.626 207.689Z" fill="#E0E0E0"/>
<path d="M144.262 202.778C143.171 201.188 141.633 199.958 139.843 199.242C138.052 198.527 136.09 198.358 134.203 198.758C132.317 199.157 130.591 200.107 129.245 201.488C127.899 202.868 126.992 204.616 126.639 206.512C126.286 208.407 126.503 210.365 127.263 212.137C128.022 213.91 129.29 215.417 130.906 216.468C132.523 217.52 134.414 218.069 136.342 218.046C138.27 218.022 140.148 217.428 141.738 216.337C142.795 215.613 143.698 214.688 144.397 213.614C145.095 212.54 145.575 211.34 145.81 210.08C146.044 208.821 146.028 207.528 145.763 206.275C145.497 205.022 144.987 203.834 144.262 202.778Z" fill="#EBEBEB"/>
<path d="M166.5 248.125C237.817 248.125 295.631 244.75 295.631 240.586C295.631 236.422 237.817 233.047 166.5 233.047C95.1832 233.047 37.3694 236.422 37.3694 240.586C37.3694 244.75 95.1832 248.125 166.5 248.125Z" fill="#F5F5F5"/>
<path d="M154.332 42.1779C152.001 41.4653 149.111 45.6611 147.332 50.363C145.554 55.065 142.617 55.8708 139.474 57.7556C145.281 65.8808 158.821 64.1825 163.323 63.1569C167.825 62.1312 171.855 65.7143 177.602 61.4985C182.75 57.7223 182.371 46.4736 173.28 41.3454C175.291 34.439 154.552 33.7463 154.332 42.1779Z" fill="#263238"/>
<path d="M178.98 112.667H172.587C172.066 112.68 171.549 112.576 171.074 112.364C170.598 112.151 170.176 111.836 169.838 111.439C169.5 111.043 169.254 110.577 169.119 110.074C168.984 109.571 168.963 109.044 169.057 108.532L169.776 103.65C169.968 102.519 170.545 101.489 171.409 100.736C172.273 99.9817 173.372 99.5501 174.518 99.5139H180.905C181.426 99.5001 181.944 99.603 182.42 99.815C182.896 100.027 183.319 100.343 183.657 100.739C183.996 101.136 184.241 101.603 184.376 102.107C184.51 102.61 184.53 103.137 184.435 103.65L183.722 108.558C183.523 109.683 182.943 110.705 182.08 111.453C181.216 112.201 180.122 112.63 178.98 112.667Z" fill="white"/>
<path d="M178.981 112.834H172.587C172.049 112.845 171.515 112.738 171.023 112.52C170.53 112.303 170.091 111.98 169.737 111.575C169.38 111.156 169.12 110.664 168.975 110.134C168.83 109.603 168.804 109.047 168.898 108.505L169.61 103.623C169.808 102.453 170.405 101.388 171.3 100.608C172.195 99.8287 173.332 99.3832 174.519 99.3475H180.906C181.444 99.3362 181.979 99.4424 182.472 99.6586C182.966 99.8748 183.406 100.196 183.763 100.6C184.117 101.02 184.376 101.512 184.521 102.042C184.666 102.572 184.693 103.128 184.602 103.67L183.883 108.558C183.686 109.728 183.09 110.793 182.196 111.573C181.303 112.352 180.166 112.798 178.981 112.834ZM174.492 99.6805C173.385 99.7146 172.324 100.131 171.489 100.86C170.655 101.589 170.099 102.584 169.917 103.676L169.224 108.558C169.14 109.053 169.165 109.561 169.297 110.045C169.429 110.529 169.666 110.979 169.99 111.362C170.312 111.733 170.711 112.028 171.16 112.226C171.609 112.424 172.097 112.52 172.587 112.508H178.981C180.088 112.474 181.149 112.057 181.983 111.328C182.818 110.599 183.373 109.604 183.556 108.512L184.269 103.63C184.355 103.135 184.332 102.628 184.201 102.144C184.07 101.659 183.834 101.209 183.51 100.826C183.186 100.456 182.785 100.162 182.335 99.9648C181.885 99.7679 181.397 99.6731 180.906 99.6871L174.492 99.6805Z" fill="#467F86"/>
<path d="M183.409 105.841H183.376C183.354 105.836 183.334 105.827 183.316 105.815C183.298 105.802 183.283 105.786 183.271 105.767C183.259 105.749 183.251 105.728 183.248 105.706C183.244 105.685 183.244 105.663 183.249 105.641C183.802 103.057 183.722 101.872 181.784 101.252C181.763 101.245 181.744 101.234 181.727 101.22C181.71 101.205 181.697 101.187 181.687 101.168C181.677 101.148 181.671 101.126 181.669 101.104C181.668 101.082 181.671 101.06 181.678 101.039C181.685 101.018 181.696 100.999 181.71 100.982C181.725 100.965 181.742 100.952 181.762 100.942C181.782 100.932 181.803 100.926 181.825 100.924C181.848 100.923 181.87 100.925 181.891 100.932C184.242 101.692 184.075 103.39 183.576 105.714C183.566 105.751 183.544 105.783 183.514 105.806C183.484 105.828 183.447 105.841 183.409 105.841Z" fill="#467F86"/>
<path d="M195.444 38.1948L206.64 26.6064L231.934 46.1602L220.739 57.7553L195.444 38.1948Z" fill="#263238"/>
<path d="M207.285 25.9414L206.639 26.6074L231.934 46.1612L233.466 40.7199L207.285 25.9414Z" fill="#467F86"/>
<path d="M198.987 34.5656C197.349 33.4534 196.283 32.0881 196.057 30.8161C195.992 30.5119 195.99 30.1976 196.052 29.8928C196.114 29.588 196.238 29.2993 196.417 29.0445C198.248 26.5004 200.572 28.0788 203.03 29.7505L203.356 29.9702L203.177 30.23L202.85 30.0102C200.426 28.3585 198.328 26.9266 196.67 29.2243C196.518 29.446 196.413 29.6959 196.361 29.959C196.308 30.2222 196.309 30.4933 196.363 30.7561C196.576 31.9483 197.595 33.247 199.167 34.3059L198.987 34.5656Z" fill="#263238"/>
<path d="M176.283 69.6437L185.814 62.4842L190.596 58.9012L191.761 58.022L192.341 57.5891L192.62 57.376L192.76 57.2561C193.306 56.7294 193.781 56.1339 194.172 55.4846C195.076 53.9432 195.787 52.297 196.29 50.5828C196.832 48.7561 197.276 46.902 197.622 45.0284C197.988 43.1236 198.288 41.1922 198.488 39.2408C198.688 37.2894 198.901 35.3114 199.027 33.3867V33.3334C199.053 32.9507 199.223 32.5919 199.503 32.3298C199.783 32.0677 200.152 31.9219 200.536 31.9219C200.919 31.9219 201.289 32.0677 201.569 32.3298C201.849 32.5919 202.019 32.9507 202.044 33.3334C202.386 37.4363 202.368 41.5613 201.991 45.6611C201.807 47.7567 201.48 49.8372 201.012 51.8882C200.538 54.0653 199.779 56.1702 198.754 58.1486C198.174 59.2559 197.441 60.276 196.577 61.1789L196.177 61.5652L195.871 61.8315L195.284 62.3377L194.106 63.35C192.574 64.6554 191.02 65.943 189.444 67.2128L184.702 70.9691C183.09 72.1879 181.498 73.4066 179.827 74.5855C179.171 75.0144 178.376 75.1749 177.606 75.0337C176.836 74.8926 176.149 74.4605 175.689 73.8271C175.228 73.1937 175.029 72.4074 175.132 71.6311C175.236 70.8549 175.633 70.148 176.244 69.6571L176.283 69.6437Z" fill="#FFC3BD"/>
<path d="M199.08 34.9453L193.879 32.5011L199.254 29.6973C199.254 29.6973 203.409 31.8218 202.077 34.8521L199.08 34.9453Z" fill="#FFC3BD"/>
<path d="M192.787 28.9239L197.415 26.8193L199.253 29.6965L193.879 32.5003L192.787 28.9239Z" fill="#FFC3BD"/>
<path d="M182.364 72.3678C182.457 76.6901 181.851 85.6878 178.814 104.336H154.605C155.011 94.4856 155.491 88.3118 150.782 68.0921C154.016 67.4275 157.295 67.0067 160.592 66.8333C164.253 66.5699 167.928 66.5699 171.588 66.8333C173.952 67.0464 176.483 67.4327 178.415 67.7591C179.506 67.9479 180.498 68.5115 181.219 69.3527C181.94 70.1939 182.345 71.2601 182.364 72.3678Z" fill="#263238"/>
<path d="M181.818 101.232C181.773 101.225 181.732 101.201 181.705 101.165C181.678 101.129 181.665 101.084 181.671 101.039C183.876 85.914 161.838 69.4704 157.176 67.266C157.153 67.2586 157.133 67.2466 157.116 67.2307C157.098 67.2148 157.084 67.1954 157.075 67.1738C157.066 67.1523 157.061 67.129 157.062 67.1055C157.062 67.082 157.067 67.0588 157.077 67.0375C157.087 67.0162 157.101 66.9972 157.119 66.9819C157.137 66.9665 157.158 66.9551 157.18 66.9484C157.203 66.9416 157.227 66.9398 157.25 66.9428C157.273 66.9459 157.296 66.9539 157.316 66.9663C160.086 68.2983 166.826 73.0935 172.494 79.3006C177.495 84.7685 183.203 92.9869 182.024 101.105C182.013 101.149 181.985 101.187 181.947 101.211C181.908 101.234 181.862 101.242 181.818 101.232Z" fill="#467F86"/>
<path d="M161.685 54.4727C162.351 58.0091 163.07 64.4627 160.593 66.8536C163.371 69.7901 166.721 72.1268 170.436 73.7201C175.165 70.7564 171.588 66.8536 171.588 66.8536C167.645 65.9079 167.745 62.9841 168.431 60.2336L161.685 54.4727Z" fill="#FFC3BD"/>
<path opacity="0.2" d="M164.435 56.8232L168.431 60.2332C168.261 60.8724 168.148 61.5254 168.092 62.1845C166.586 61.9648 164.515 60.3131 164.355 58.7347C164.266 58.0979 164.293 57.4503 164.435 56.8232Z" fill="#0C0C0C"/>
<path d="M157.482 49.9495C159.807 55.384 160.679 57.7417 164.502 59.5932C170.263 62.377 176.437 58.3344 175.777 52.3071C175.191 46.8859 171.488 38.9005 165.254 38.6275C163.88 38.5614 162.512 38.8477 161.279 39.4593C160.047 40.0709 158.991 40.9874 158.212 42.1218C157.433 43.2561 156.958 44.5708 156.83 45.9408C156.702 47.3108 156.927 48.6907 157.482 49.9495Z" fill="#FFC3BD"/>
<path d="M164.309 41.5986C165.641 44.8553 160.426 51.229 156.683 53.7331C151.914 43.8097 154.751 39.6872 164.309 41.5986Z" fill="#263238"/>
<path d="M168.591 38.3218C175.031 39.9602 159.433 45.3748 154.938 45.6478C159.6 38.0155 162.544 36.3505 168.591 38.3218Z" fill="#263238"/>
<path d="M178.814 104.356C178.814 104.356 176.729 147.959 176.929 166.141C177.136 185.055 164.728 232.521 164.728 232.521L159.953 231.189C159.953 231.189 162.251 192.561 164.508 166.194C161.098 145.947 159.214 104.329 159.214 104.329L178.814 104.356Z" fill="#FFC3BD"/>
<path d="M164.342 231.428L159.893 230.395C159.779 230.368 159.659 230.382 159.555 230.436C159.451 230.49 159.37 230.58 159.327 230.689L157.509 235.131C157.464 235.26 157.447 235.396 157.459 235.532C157.47 235.668 157.511 235.8 157.577 235.919C157.642 236.039 157.733 236.143 157.842 236.225C157.95 236.307 158.075 236.365 158.208 236.396C160.512 236.889 160.672 236.782 163.536 237.455C165.321 237.868 168.398 239.36 170.922 239.36C173.446 239.36 172.973 236.976 171.914 236.789C168.085 236.09 167.918 234.731 165.201 232.014C164.973 231.745 164.676 231.542 164.342 231.428Z" fill="#467F86"/>
<path d="M172.494 104.355C172.494 104.355 159.127 167.006 155.937 173.033C151.635 181.172 111.455 169.63 110.083 169.657L109.883 165.534C109.883 165.534 129.67 165.081 146.067 165.901C146.067 145.368 154.612 104.355 154.612 104.355H172.494Z" fill="#FFC3BD"/>
<path d="M110.635 169.604L113.619 166.14C113.696 166.053 113.738 165.941 113.738 165.824C113.738 165.708 113.696 165.595 113.619 165.508L110.556 161.838C110.463 161.738 110.349 161.659 110.224 161.605C110.098 161.552 109.962 161.526 109.825 161.53C109.689 161.533 109.554 161.565 109.431 161.624C109.308 161.683 109.199 161.767 109.11 161.871C107.605 163.676 107.625 163.869 105.68 166.12C104.488 167.506 103.616 168.665 101.838 170.449C100.059 172.234 101.751 174.126 102.63 173.513C105.827 171.282 106.033 171.295 109.716 170.13C110.065 170.04 110.382 169.859 110.635 169.604Z" fill="#467F86"/>
<path d="M166.5 48.4916C166.659 48.9445 167.032 49.2242 167.325 49.1243C167.618 49.0244 167.732 48.5649 167.572 48.112C167.412 47.6591 167.039 47.3727 166.739 47.4793C166.44 47.5859 166.313 48.0387 166.5 48.4916Z" fill="#263238"/>
<path d="M171.588 46.6664C171.754 47.1193 172.121 47.399 172.42 47.2924C172.72 47.1859 172.826 46.7397 172.66 46.2868C172.493 45.8339 172.127 45.5475 171.834 45.6208C171.541 45.694 171.428 46.2135 171.588 46.6664Z" fill="#263238"/>
<path d="M171.714 45.7275L172.687 45.0615C172.687 45.0615 172.434 46.0738 171.714 45.7275Z" fill="#263238"/>
<path d="M170.496 47.9521C171.273 48.8432 172.17 49.6231 173.16 50.2698C172.988 50.5173 172.764 50.7242 172.504 50.876C172.244 51.0279 171.954 51.121 171.654 51.149L170.496 47.9521Z" fill="#ED847E"/>
<path d="M169.916 53.6802C170.18 53.63 170.441 53.561 170.695 53.4737C170.731 53.4613 170.76 53.4355 170.776 53.4017C170.792 53.368 170.794 53.3292 170.782 53.2939C170.77 53.2586 170.744 53.2296 170.71 53.2134C170.676 53.1971 170.637 53.1949 170.602 53.2073C170.044 53.4229 169.442 53.5027 168.847 53.4402C168.252 53.3777 167.68 53.1746 167.179 52.8477C167.164 52.8363 167.147 52.828 167.129 52.8232C167.111 52.8183 167.092 52.8171 167.073 52.8196C167.055 52.8221 167.037 52.8282 167.021 52.8376C167.005 52.847 166.99 52.8594 166.979 52.8743C166.968 52.8892 166.959 52.9061 166.955 52.9242C166.95 52.9423 166.948 52.9612 166.951 52.9797C166.953 52.9983 166.96 53.0162 166.969 53.0324C166.978 53.0486 166.991 53.0627 167.006 53.0741C167.86 53.6468 168.904 53.8642 169.916 53.6802Z" fill="#263238"/>
<path d="M157.236 53.3138C157.838 54.275 158.795 54.9596 159.9 55.2185C161.378 55.5449 162.031 54.1995 161.552 52.8476C161.112 51.6288 159.82 49.9971 158.368 50.2768C158.055 50.3481 157.764 50.4963 157.522 50.708C157.28 50.9197 157.094 51.1883 156.982 51.4896C156.87 51.7908 156.834 52.1153 156.878 52.4337C156.923 52.7522 157.046 53.0546 157.236 53.3138Z" fill="#FFC3BD"/>
<path d="M161.365 55.6308C161.365 55.8943 161.287 56.1518 161.14 56.3709C160.994 56.5899 160.786 56.7606 160.543 56.8614C160.299 56.9623 160.031 56.9886 159.773 56.9372C159.515 56.8858 159.277 56.759 159.091 56.5727C158.905 56.3864 158.778 56.1491 158.727 55.8907C158.675 55.6323 158.702 55.3645 158.802 55.1211C158.903 54.8777 159.074 54.6697 159.293 54.5233C159.512 54.377 159.769 54.2988 160.033 54.2988C160.386 54.2988 160.725 54.4392 160.975 54.689C161.225 54.9388 161.365 55.2776 161.365 55.6308Z" fill="#467F86"/>
<path d="M164.841 46.5797C164.916 46.5602 164.981 46.5125 165.021 46.4465C165.184 46.1317 165.418 45.8593 165.705 45.6511C165.991 45.443 166.323 45.3048 166.673 45.2477C166.709 45.2452 166.745 45.2354 166.778 45.2189C166.811 45.2025 166.841 45.1797 166.865 45.1518C166.889 45.124 166.907 45.0916 166.919 45.0567C166.931 45.0217 166.935 44.9848 166.932 44.948C166.93 44.9112 166.92 44.8753 166.904 44.8424C166.887 44.8094 166.864 44.78 166.837 44.7558C166.809 44.7317 166.776 44.7133 166.741 44.7017C166.706 44.6901 166.669 44.6855 166.633 44.6883C166.187 44.7481 165.763 44.9142 165.396 45.1728C165.028 45.4313 164.728 45.7745 164.522 46.1734C164.504 46.2058 164.493 46.2413 164.489 46.2779C164.485 46.3145 164.489 46.3515 164.499 46.3867C164.51 46.422 164.527 46.4549 164.55 46.4834C164.574 46.5119 164.602 46.5356 164.635 46.5531C164.665 46.5719 164.699 46.584 164.735 46.5886C164.771 46.5932 164.807 46.5902 164.841 46.5797Z" fill="#263238"/>
<path d="M173.16 43.4034C173.221 43.3684 173.266 43.3111 173.286 43.2435C173.297 43.2081 173.302 43.1708 173.298 43.1338C173.295 43.0968 173.284 43.0608 173.267 43.0279C173.25 42.9951 173.226 42.966 173.197 42.9424C173.168 42.9188 173.135 42.9012 173.1 42.8906C172.673 42.7524 172.219 42.7184 171.777 42.7914C171.334 42.8644 170.915 43.0422 170.556 43.3101C170.521 43.332 170.491 43.361 170.469 43.3953C170.446 43.4295 170.431 43.4682 170.425 43.5087C170.419 43.5493 170.421 43.5907 170.432 43.6301C170.443 43.6696 170.463 43.7063 170.489 43.7376C170.516 43.7689 170.549 43.7941 170.586 43.8116C170.623 43.8291 170.663 43.8384 170.704 43.8389C170.745 43.8394 170.786 43.8312 170.824 43.8146C170.861 43.7981 170.895 43.7737 170.922 43.743C171.206 43.5367 171.536 43.4007 171.883 43.3463C172.231 43.2919 172.586 43.3206 172.92 43.43C172.959 43.4428 173.001 43.4471 173.043 43.4425C173.084 43.4379 173.124 43.4246 173.16 43.4034Z" fill="#263238"/>
<path d="M166.593 47.5528L167.572 46.8535C167.572 46.8535 167.312 47.8991 166.593 47.5528Z" fill="#263238"/>
<path d="M178.814 104.355L178.075 159.74L145.74 153.18C144.408 126.919 147.918 111.641 154.605 104.349L178.814 104.355Z" fill="#263238"/>
<path d="M178.734 105.675L154.159 104.882C154.106 104.88 154.054 104.866 154.007 104.841C153.96 104.816 153.919 104.781 153.888 104.738C153.856 104.695 153.835 104.645 153.826 104.593C153.816 104.541 153.818 104.487 153.832 104.436L154.205 103.104C154.226 103.029 154.272 102.963 154.335 102.917C154.397 102.871 154.474 102.848 154.552 102.851L178.794 103.643C178.886 103.647 178.974 103.686 179.037 103.754C179.101 103.821 179.135 103.911 179.134 104.003L179.094 105.335C179.09 105.427 179.051 105.515 178.983 105.578C178.916 105.642 178.827 105.676 178.734 105.675Z" fill="#467F86"/>
<path opacity="0.4" d="M171.635 143.716L164.582 130.763L165.454 119.154L171.635 143.716Z" fill="#0C0C0C"/>
<path d="M151.954 73.7059C149.856 70.316 147.958 66.926 146.173 63.3895C144.329 59.8429 142.742 56.1682 141.425 52.3939C141.098 51.4215 140.805 50.3959 140.552 49.3836C140.419 48.8708 140.312 48.3313 140.213 47.7918L139.993 46.2933C139.74 44.2953 139.527 42.4039 139.327 40.4658C138.98 36.5897 138.714 32.7203 138.601 28.8308C138.59 28.457 138.718 28.0925 138.96 27.8073C139.202 27.522 139.541 27.3359 139.911 27.2848C140.281 27.2336 140.658 27.321 140.968 27.5301C141.278 27.7391 141.5 28.0553 141.591 28.4179C142.517 32.1875 143.323 35.9703 144.115 39.7399L145.281 45.3609L145.58 46.6929C145.687 47.0925 145.787 47.4988 145.913 47.9184C146.16 48.7509 146.453 49.59 146.786 50.4425C147.452 52.1342 148.191 53.8391 148.997 55.5241C149.803 57.2091 150.649 58.9007 151.535 60.5724C153.319 63.9024 155.204 67.2324 157.116 70.4691V70.5091C157.535 71.1997 157.663 72.0287 157.471 72.8137C157.28 73.5987 156.784 74.2754 156.093 74.6949C155.403 75.1144 154.574 75.2424 153.789 75.0507C153.004 74.8589 152.327 74.3632 151.907 73.6726L151.954 73.7059Z" fill="#FFC3BD"/>
<path d="M140.985 30.1564L146.713 27.2193L141.125 24.875C141.125 24.875 138.128 27.2526 138.568 29.6968L140.985 30.1564Z" fill="#FFC3BD"/>
<path d="M148.817 22.6708L144.036 20.9658L140.412 25.5346L146.713 27.2196L148.817 22.6708Z" fill="#FFC3BD"/>
<path d="M118.403 29.6596L116.141 31.0674L116.493 31.6328L118.755 30.225L118.403 29.6596Z" fill="#467F86"/>
<path d="M125.285 25.3741L120.502 28.3516L120.854 28.917L125.637 25.9396L125.285 25.3741Z" fill="#467F86"/>
<path d="M134.865 22.1582L146.879 32.9208L119.886 54.1262L109.171 38.1422L134.865 22.1582Z" fill="#467F86"/>
<path d="M147.565 33.5403L146.879 32.9209L119.886 54.1263L126.06 56.8236L147.565 33.5403Z" fill="#263238"/>
<path d="M138.761 25.814C138.737 25.8138 138.715 25.8083 138.694 25.7979C138.673 25.7875 138.655 25.7725 138.641 25.7541C138.626 25.7392 138.614 25.7216 138.606 25.7022C138.598 25.6827 138.594 25.6619 138.594 25.6409C138.594 25.6198 138.598 25.599 138.606 25.5796C138.614 25.5601 138.626 25.5425 138.641 25.5277C139.973 24.3755 140.978 23.4631 142.137 23.1301C142.157 23.1239 142.179 23.1218 142.199 23.1238C142.22 23.1258 142.241 23.132 142.259 23.1419C142.278 23.1518 142.294 23.1652 142.308 23.1815C142.321 23.1977 142.331 23.2165 142.337 23.2366C142.343 23.2567 142.345 23.2779 142.343 23.2988C142.341 23.3197 142.335 23.3401 142.325 23.3586C142.315 23.3772 142.302 23.3936 142.286 23.407C142.269 23.4203 142.251 23.4303 142.231 23.4364C141.138 23.7494 140.126 24.6419 138.854 25.7674C138.83 25.7944 138.797 25.8111 138.761 25.814Z" fill="#263238"/>
<path d="M143.256 29.8368C143.234 29.8365 143.211 29.8316 143.191 29.8225C143.17 29.8133 143.152 29.8001 143.136 29.7835C143.121 29.7687 143.11 29.751 143.102 29.7316C143.094 29.7122 143.089 29.6914 143.089 29.6703C143.089 29.6493 143.094 29.6284 143.102 29.609C143.11 29.5896 143.121 29.5719 143.136 29.5571C144.828 28.0586 145.887 26.7399 146.193 25.7476C146.207 25.7064 146.236 25.6722 146.275 25.6523C146.313 25.6324 146.358 25.6284 146.4 25.641C146.439 25.6547 146.472 25.683 146.492 25.72C146.512 25.7571 146.517 25.8002 146.506 25.8408C146.173 26.9064 145.114 28.2384 143.349 29.7969C143.323 29.8196 143.291 29.8335 143.256 29.8368Z" fill="#263238"/>
</svg>
