<svg width="177" height="129" viewBox="0 0 177 129" fill="none" xmlns="http://www.w3.org/2000/svg">
<path d="M117.225 101.593L111.152 127.954L113.72 127.949L119.805 101.84L117.225 101.593Z" fill="#E0E0E0"/>
<path d="M128.302 101.593L134.396 127.954H136.835L130.938 101.593H128.302Z" fill="#E0E0E0"/>
<path d="M113.127 81.792L116.585 99.9423H120.514L116.82 81.792H113.127Z" fill="#E0E0E0"/>
<path d="M52.913 101.593L47.96 127.954H50.4827L55.6561 101.593H52.913Z" fill="#E0E0E0"/>
<path d="M63.3255 101.593L68.9874 127.809H71.4803L66.012 101.593H63.3255Z" fill="#E0E0E0"/>
<path d="M48.8148 81.792L52.2697 99.9423H56.1982L52.508 81.792H48.8148Z" fill="#E0E0E0"/>
<path d="M41.0352 80.1396L41.7411 83.4427H120.63L119.709 80.1396H41.0352Z" fill="#EBEBEB"/>
<path d="M42.5423 86.5488L43.3762 89.8489H121.729L121.017 86.5488H42.5423Z" fill="#EBEBEB"/>
<path d="M44.1 93.1846L44.8773 96.4846H122.986L122.247 93.1846H44.1Z" fill="#EBEBEB"/>
<path d="M134.3 99.9395H50.0716V103.24H134.3V99.9395Z" fill="#EBEBEB"/>
<path d="M24.4843 124.743C28.9519 120.692 29.2348 114.2 28.3056 108.52C28.1507 107.57 28.1269 106.551 27.5669 105.774C27.007 104.996 25.8752 104.561 25.074 105.074C24.4098 105.497 24.2073 106.36 23.8975 107.09C23.4878 108.067 22.8079 108.907 21.9378 109.512C21.3719 109.905 20.6481 110.194 20.0048 109.94C19.1113 109.595 18.8819 108.472 18.7658 107.522C18.5513 105.757 18.3359 103.99 18.1195 102.22C18.0033 101.273 17.8812 100.305 17.4702 99.4446C17.0592 98.5838 16.2997 97.8303 15.3674 97.6933C14.4352 97.5563 13.3868 98.2205 13.3153 99.1825C13.3301 99.582 13.3719 99.98 13.4404 100.374C13.4642 100.77 13.3362 101.229 12.9788 101.387C12.6214 101.544 12.1984 101.327 11.8797 101.089C10.7807 100.258 9.95868 99.111 9.18132 97.9673C8.40396 96.8236 7.63852 95.6442 6.61693 94.7149C5.59535 93.7857 4.26103 93.1155 2.89692 93.2257C1.53282 93.3359 0.189569 94.3456 0.0198009 95.7216C-0.149967 97.0976 0.800137 98.3575 1.78896 99.3284C3.24944 100.76 4.9098 101.972 6.7182 102.926C7.06399 103.065 7.35766 103.309 7.5581 103.623C7.85594 104.219 7.32579 104.934 6.73011 105.223C6.05402 105.547 5.27964 105.574 4.54993 105.756C3.82023 105.937 3.06074 106.366 2.87608 107.099C2.611 108.118 3.55217 109.029 4.43377 109.592C6.202 110.717 8.15042 111.53 10.194 111.996C10.9237 112.162 11.6832 112.293 12.3116 112.707C12.9401 113.121 13.3868 113.934 13.1307 114.646C12.8745 115.358 12.0346 115.683 11.287 115.641C10.5395 115.599 9.83359 115.287 9.10686 115.114C7.73978 114.789 6.07189 115.096 5.3809 116.329C5.17804 116.748 5.07463 117.207 5.07877 117.672C5.0829 118.137 5.19446 118.595 5.40473 119.01C5.83275 119.838 6.42331 120.571 7.14113 121.166C9.52259 123.381 12.4501 124.923 15.6236 125.634C18.7777 126.295 21.6131 126.229 24.4724 124.74" fill="#EBEBEB"/>
<path d="M25.1038 128.964C24.4979 126.351 23.6432 123.803 22.5513 121.354C21.2055 118.367 19.6879 115.46 18.0063 112.648L16.6958 110.426C16.2669 109.699 15.838 108.976 15.3764 108.297C14.4867 106.993 13.5263 105.739 12.4993 104.541C11.5253 103.388 10.5603 102.334 9.64893 101.351C8.73754 100.368 7.8619 99.4747 7.04284 98.6914C5.74523 97.4471 4.35094 96.3078 2.87309 95.2841C2.35188 94.9237 1.93788 94.6556 1.65493 94.4769L1.33029 94.2774C1.29541 94.2518 1.25737 94.2307 1.21711 94.2148C1.24913 94.2441 1.28406 94.2701 1.32135 94.2923L1.61919 94.5067C1.89618 94.6944 2.30422 94.9714 2.81055 95.3407C4.26744 96.3842 5.64523 97.5341 6.93264 98.7807C7.74872 99.57 8.60947 100.469 9.5149 101.461C10.4203 102.453 11.3824 103.504 12.3474 104.654C13.3679 105.851 14.3224 107.103 15.2066 108.404C15.6653 109.08 16.1001 109.798 16.5201 110.527L17.8276 112.746C19.5042 115.554 21.0236 118.452 22.3786 121.428C23.472 123.866 24.3355 126.401 24.9579 128.999" fill="#E0E0E0"/>
<path d="M15.3257 108.296C15.3526 108.159 15.3656 108.019 15.3645 107.879C15.3823 107.611 15.3913 107.224 15.3972 106.742C15.4121 105.783 15.3972 104.454 15.3466 102.992C15.296 101.53 15.3019 100.204 15.3287 99.2481C15.3287 98.7685 15.3555 98.3814 15.3674 98.1133C15.3828 97.9737 15.3828 97.8329 15.3674 97.6934C15.3298 97.8285 15.3069 97.9673 15.2989 98.1074C15.2662 98.3724 15.2334 98.7626 15.2036 99.2421C15.1441 100.201 15.1351 101.53 15.1709 102.995C15.2066 104.46 15.2453 105.744 15.2751 106.742C15.2751 107.194 15.29 107.573 15.296 107.879C15.2916 108.019 15.3016 108.159 15.3257 108.296Z" fill="#E0E0E0"/>
<path d="M2.84629 107.588C3.00976 107.602 3.17426 107.602 3.33773 107.588C3.65641 107.588 4.11211 107.555 4.678 107.549C5.80979 107.525 7.35855 107.549 9.09793 107.65C10.8373 107.751 12.3742 107.912 13.5 108.061C14.0629 108.133 14.5156 108.201 14.8283 108.246C14.99 108.28 15.1546 108.299 15.3198 108.302C15.1643 108.246 15.0037 108.204 14.8403 108.177C14.5424 108.112 14.0778 108.022 13.5179 107.936C12.395 107.757 10.8373 107.576 9.10686 107.471C7.63139 107.379 6.15213 107.363 4.67502 107.424C4.10615 107.448 3.65046 107.486 3.33475 107.519C3.1701 107.526 3.00652 107.549 2.84629 107.588Z" fill="#E0E0E0"/>
<path d="M22.3726 121.148C22.4017 121.099 22.4238 121.046 22.4381 120.99C22.4769 120.862 22.5275 120.71 22.59 120.523C22.7181 120.115 22.8879 119.522 23.0934 118.786C23.5044 117.315 24.0018 115.266 24.523 112.996C25.0442 110.727 25.5237 108.675 25.902 107.197C26.0867 106.48 26.2386 105.89 26.3547 105.449C26.4024 105.258 26.4411 105.101 26.4739 104.972C26.4907 104.917 26.5007 104.86 26.5036 104.803C26.4758 104.854 26.4538 104.908 26.4381 104.964C26.3994 105.089 26.3488 105.244 26.2892 105.428C26.1581 105.836 25.9914 106.429 25.7829 107.165C25.3748 108.636 24.8894 110.685 24.3532 112.955C23.8171 115.224 23.3525 117.276 22.9742 118.754L22.5245 120.502C22.4739 120.692 22.4352 120.85 22.4024 120.978C22.3858 121.034 22.3758 121.091 22.3726 121.148Z" fill="#E0E0E0"/>
<path d="M5.52684 118.016C5.58128 118.038 5.63834 118.053 5.69661 118.061L6.18804 118.159L7.99295 118.498C9.51788 118.796 11.6176 119.204 13.9497 119.669C16.2818 120.133 18.3786 120.539 19.9065 120.792C20.6719 120.92 21.2944 121.018 21.7233 121.075L22.2177 121.14C22.276 121.148 22.3352 121.148 22.3935 121.14C22.339 121.118 22.282 121.103 22.2237 121.096L21.7352 120.997L19.9303 120.661C18.4054 120.363 16.3027 119.955 13.9736 119.487C11.6445 119.02 9.54469 118.62 8.01677 118.364C7.25133 118.236 6.63182 118.141 6.19996 118.081L5.70554 118.016C5.64625 118.008 5.58613 118.008 5.52684 118.016Z" fill="#E0E0E0"/>
<path d="M77.12 4.62126L13.523 6.15332L15.5542 90.4709L79.1512 88.9388L77.12 4.62126Z" fill="#E0E0E0"/>
<path d="M82.0682 8.56071L18.4712 10.0928L20.5025 94.4103L84.0994 92.8783L82.0682 8.56071Z" fill="#EBEBEB"/>
<path d="M136.841 40.6164H164.763C164.763 40.6164 162.294 36.125 155.107 36.7773C148.242 37.4027 147.894 34.5673 144.403 34.2188C140.913 33.8704 138.006 36.5539 136.841 40.6164Z" fill="#EBEBEB"/>
<path d="M128.597 58.1647H146.863C146.863 58.1647 145.246 55.225 140.546 55.6539C136.055 56.0619 135.828 54.2094 133.544 53.98C131.26 53.7507 129.359 55.5079 128.597 58.1647Z" fill="#EBEBEB"/>
<path d="M102.736 22.9986H137.729C137.729 22.9986 134.637 17.3664 125.627 18.1855C117.026 18.9688 116.588 15.4156 112.225 14.9778C107.861 14.54 104.195 17.8936 102.736 22.9986Z" fill="#E0E0E0"/>
<path d="M176.653 127.954C176.653 127.996 138.676 128.032 91.8406 128.032C45.0054 128.032 7.01604 127.996 7.01604 127.954C7.01604 127.913 44.9875 127.883 91.8406 127.883C138.694 127.883 176.653 127.91 176.653 127.954Z" fill="#263238"/>
<path d="M77.6517 0.0613091L14.6159 8.62891L25.9749 92.2025L89.0108 83.6349L77.6517 0.0613091Z" fill="#FAFAFA"/>
<path d="M89.0022 83.6421C88.9188 83.0464 84.3469 49.5961 77.58 0.0774376L77.6575 0.137006L14.6318 8.70583L14.6973 8.61648C18.9117 39.7228 22.8253 68.5834 26.0301 92.196L25.9586 92.1424L89.0022 83.6421L25.9735 92.2794H25.9109V92.2169C22.6913 68.6132 18.7688 39.7555 14.5365 8.64031V8.56585H14.6109L77.6396 0H77.7081V0.0685028C84.4035 49.5872 88.9217 83.0315 89.0022 83.6421Z" fill="#263238"/>
<path d="M23.0993 16.0775C23.2725 15.9701 23.4107 15.8146 23.4969 15.63C23.5831 15.4454 23.6137 15.2397 23.5848 15.038C23.5718 14.9077 23.5327 14.7814 23.47 14.6665C23.4072 14.5517 23.3219 14.4506 23.2193 14.3693C23.1167 14.288 22.9987 14.2282 22.8725 14.1934C22.7463 14.1586 22.6144 14.1495 22.4846 14.1666C22.3548 14.1838 22.2298 14.2269 22.117 14.2933C22.0042 14.3598 21.9059 14.4482 21.8279 14.5534C21.75 14.6586 21.6939 14.7783 21.6632 14.9056C21.6324 15.0328 21.6276 15.165 21.6489 15.2942C21.67 15.5007 21.7525 15.6962 21.8857 15.8555C22.019 16.0147 22.1968 16.1304 22.3964 16.1877C22.096 16.2652 21.8254 16.4303 21.619 16.6621C21.4127 16.8939 21.28 17.1818 21.2379 17.4892C21.6384 17.836 22.1496 18.0282 22.6794 18.0313L23.2751 17.9539C23.7924 17.8111 24.2408 17.4864 24.5379 17.0395C24.4228 16.753 24.2239 16.5079 23.9673 16.3362C23.7106 16.1646 23.4081 16.0744 23.0993 16.0775Z" fill="#455A64"/>
<path d="M22.9772 17.9986C22.9772 17.9807 23.1708 17.9599 23.4925 17.8258C23.944 17.6307 24.3179 17.2913 24.5558 16.8608C24.729 16.5466 24.8214 16.1943 24.8245 15.8355C24.8276 15.4768 24.7414 15.1229 24.5737 14.8057C24.3777 14.4271 24.0727 14.1158 23.698 13.9122C23.2994 13.6941 22.8415 13.6094 22.3912 13.6705C21.941 13.7316 21.5222 13.9353 21.1962 14.2518C20.8944 14.546 20.6871 14.9234 20.6005 15.3359C20.5237 15.6866 20.5352 16.0509 20.634 16.3961C20.7328 16.7413 20.9157 17.0565 21.1664 17.3135C21.5104 17.6637 21.9608 17.89 22.4471 17.9569C22.7926 18.0015 22.9892 17.9569 22.9892 17.9867C22.9441 18.0032 22.897 18.0132 22.8492 18.0164C22.7126 18.0322 22.5747 18.0322 22.4382 18.0164C21.9264 17.9726 21.446 17.7514 21.08 17.391C20.8248 17.1415 20.632 16.8354 20.5171 16.4975C20.3891 16.1135 20.3644 15.7026 20.4456 15.3061C20.5383 14.8598 20.7635 14.4518 21.0919 14.1356C21.443 13.7934 21.8948 13.5731 22.3807 13.5071C22.8665 13.4412 23.3607 13.5331 23.7903 13.7693C24.1706 13.976 24.4844 14.2864 24.6953 14.6644C24.9062 15.0425 25.0055 15.4726 24.9817 15.9048C24.957 16.3386 24.8071 16.7559 24.5503 17.1064C24.2934 17.4568 23.9405 17.7253 23.5342 17.8794C23.406 17.9268 23.2733 17.9608 23.1381 17.9807C23.0861 17.9967 23.0315 18.0027 22.9772 17.9986Z" fill="#455A64"/>
<path d="M45.7077 12.476L28.0356 14.8779L28.1555 15.7604L45.8276 13.3584L45.7077 12.476Z" fill="#455A64"/>
<path d="M74.0298 7.4307C74.0403 7.50663 74.0281 7.58398 73.9946 7.65294C73.9611 7.72191 73.9079 7.77938 73.8418 7.81809C73.7756 7.85679 73.6994 7.87498 73.6229 7.87036C73.5464 7.86573 73.473 7.83849 73.4119 7.7921C73.3509 7.7457 73.305 7.68224 73.2801 7.60974C73.2552 7.53725 73.2524 7.45898 73.272 7.38487C73.2916 7.31076 73.3327 7.24414 73.3902 7.19344C73.4477 7.14275 73.519 7.11026 73.595 7.1001C73.6964 7.08653 73.7991 7.11369 73.8806 7.17565C73.9621 7.2376 74.0157 7.3293 74.0298 7.4307Z" fill="#455A64"/>
<path d="M74.2055 8.80961C74.2161 8.88554 74.2038 8.96289 74.1703 9.03185C74.1369 9.10081 74.0837 9.15829 74.0175 9.19699C73.9513 9.2357 73.8752 9.25389 73.7986 9.24926C73.7221 9.24464 73.6487 9.2174 73.5877 9.171C73.5266 9.12461 73.4808 9.06114 73.4558 8.98865C73.4309 8.91615 73.4281 8.83789 73.4477 8.76378C73.4673 8.68967 73.5084 8.62305 73.5659 8.57235C73.6234 8.52165 73.6947 8.48917 73.7707 8.479C73.8721 8.46544 73.9749 8.4926 74.0563 8.55455C74.1378 8.61651 74.1915 8.70821 74.2055 8.80961Z" fill="#455A64"/>
<path d="M74.3932 10.186C74.4037 10.2619 74.3914 10.3392 74.358 10.4082C74.3245 10.4772 74.2713 10.5346 74.2051 10.5733C74.139 10.6121 74.0628 10.6302 73.9863 10.6256C73.9098 10.621 73.8363 10.5938 73.7753 10.5474C73.7143 10.501 73.6684 10.4375 73.6435 10.365C73.6186 10.2925 73.6157 10.2142 73.6353 10.1401C73.6549 10.066 73.6961 9.9994 73.7536 9.9487C73.8111 9.89801 73.8823 9.86552 73.9583 9.85536C74.0086 9.84824 74.0598 9.85116 74.109 9.86396C74.1581 9.87675 74.2043 9.89918 74.2447 9.92992C74.2852 9.96067 74.3191 9.99912 74.3446 10.0431C74.3701 10.087 74.3866 10.1356 74.3932 10.186Z" fill="#455A64"/>
<path d="M39.2005 84.6127L38.5155 84.4072C38.1955 84.6317 37.8108 84.745 37.4203 84.73C37.0298 84.7149 36.6549 84.5722 36.3532 84.3238C36.0515 84.0753 35.8396 83.7348 35.7499 83.3544C35.6602 82.974 35.6977 82.5747 35.8566 82.2177C36.0155 81.8606 36.2871 81.5655 36.6297 81.3775C36.9724 81.1895 37.3672 81.1191 37.7537 81.1769C38.1402 81.2347 38.4971 81.4177 38.7697 81.6977C39.0423 81.9778 39.2156 82.3395 39.2631 82.7274C39.3219 83.1688 39.2159 83.6163 38.9652 83.9843L39.2005 84.6127ZM37.2378 81.2978C36.9723 81.3196 36.7157 81.4037 36.489 81.5434C36.2622 81.6831 36.0716 81.8743 35.9327 82.1016C35.7938 82.3288 35.7105 82.5857 35.6896 82.8512C35.6687 83.1168 35.7108 83.3834 35.8125 83.6296C35.9142 83.8758 36.0725 84.0945 36.2747 84.2679C36.4769 84.4413 36.7171 84.5645 36.9759 84.6276C37.2347 84.6906 37.5047 84.6916 37.7639 84.6305C38.0232 84.5695 38.2644 84.4481 38.4678 84.2762L38.4917 84.2583L38.998 84.4102L38.8282 83.9545L38.8491 83.9277C39.0374 83.6587 39.1432 83.3407 39.1536 83.0125C39.1639 82.6843 39.0784 82.3602 38.9074 82.0798C38.7364 81.7995 38.4874 81.5751 38.1909 81.4341C37.8943 81.2931 37.5631 81.2416 37.2378 81.2859V81.2978Z" fill="#263238"/>
<path d="M43.3315 83.8026L42.3576 82.0841L40.8029 80.991L44.1774 80.5264L43.3315 83.8026ZM41.1335 81.0714L42.4589 82.0156L43.2869 83.478L44.0106 80.6872L41.1335 81.0714Z" fill="#263238"/>
<path d="M44.0527 80.562L42.3635 81.9961L42.4444 82.0915L44.1337 80.6573L44.0527 80.562Z" fill="#263238"/>
<path d="M56.0105 79.5884C56.0331 79.7254 56.0143 79.8661 55.9564 79.9923C55.8985 80.1185 55.8042 80.2246 55.6857 80.2968C55.5671 80.3691 55.4296 80.4044 55.2909 80.398C55.1522 80.3916 55.0186 80.344 54.9071 80.2611C54.7957 80.1783 54.7115 80.064 54.6654 79.9331C54.6193 79.8021 54.6134 79.6603 54.6485 79.5259C54.6835 79.3916 54.7579 79.2707 54.8621 79.1789C54.9662 79.0871 55.0955 79.0285 55.2332 79.0106C55.3222 78.9971 55.413 79.0014 55.5004 79.0232C55.5878 79.045 55.67 79.0839 55.7422 79.1376C55.8145 79.1913 55.8754 79.2588 55.9215 79.3362C55.9675 79.4136 55.9978 79.4993 56.0105 79.5884Z" fill="#263238"/>
<path d="M58.149 79.3051C58.1606 79.4817 58.1047 79.6561 57.9924 79.7929C57.8802 79.9297 57.7201 80.0187 57.5446 80.0418C57.3692 80.0649 57.1915 80.0204 57.0477 79.9174C56.9038 79.8143 56.8046 79.6604 56.77 79.4868C56.7584 79.3102 56.8144 79.1358 56.9267 78.999C57.0389 78.8622 57.199 78.7732 57.3745 78.7501C57.5499 78.727 57.7276 78.7715 57.8714 78.8746C58.0153 78.9776 58.1145 79.1316 58.149 79.3051Z" fill="#263238"/>
<path d="M60.2845 79.0373C60.3077 79.1743 60.2894 79.3151 60.232 79.4416C60.1745 79.5682 60.0805 79.6746 59.9621 79.7474C59.8437 79.8201 59.7063 79.8558 59.5674 79.8498C59.4286 79.8439 59.2947 79.7965 59.183 79.7139C59.0712 79.6313 58.9868 79.5171 58.9404 79.3861C58.894 79.2551 58.8878 79.1133 58.9227 78.9787C58.9575 78.8442 59.0318 78.7232 59.136 78.6312C59.2401 78.5392 59.3694 78.4804 59.5072 78.4624C59.6864 78.436 59.8689 78.4816 60.0146 78.5893C60.1603 78.697 60.2573 78.8581 60.2845 79.0373Z" fill="#263238"/>
<path d="M83.8585 78.7397L82.271 77.5335L81.1362 79.0376L80.5823 75.0197L83.3045 74.6504L83.8585 78.7397ZM82.2472 77.3577L82.2978 77.3965L83.6947 78.4598L83.1973 74.8053L80.7222 75.1418L81.2077 78.7159L82.2472 77.3577Z" fill="#263238"/>
<path d="M33.5058 82.3133C33.4253 82.0775 33.264 81.8779 33.0504 81.7498C32.8368 81.6217 32.5847 81.5733 32.3389 81.6133C32.093 81.6532 31.8693 81.779 31.7072 81.9681C31.5452 82.1573 31.4554 82.3978 31.4537 82.6468C31.3858 82.407 31.2351 82.1991 31.0284 82.0598C30.8217 81.9205 30.5723 81.859 30.3245 81.8862C30.0768 81.9133 29.8466 82.0273 29.6749 82.208C29.5033 82.3887 29.4012 82.6244 29.3867 82.8732C29.385 83.2384 29.5236 83.5902 29.7739 83.8561C30.0227 84.1193 30.3051 84.3486 30.6138 84.5381C31.0308 84.836 31.418 85.0921 31.8379 85.375C32.1656 84.9908 32.4336 84.6304 32.7672 84.2462C33.0143 83.9767 33.2255 83.6764 33.3956 83.3527C33.5614 83.0323 33.6007 82.6613 33.5058 82.3133Z" fill="#073D51"/>
<path d="M75.0607 15.2367L20.774 22.3652L28.0257 77.5897L82.3124 70.4611L75.0607 15.2367Z" fill="#E0E0E0"/>
<path d="M34.5036 40.616C33.8096 43.8922 33.7858 48.6338 33.9586 54.7276C33.9883 55.8504 44.7373 47.2369 44.7373 47.2369L46.304 56.9673C46.304 56.9673 38.721 64.6069 31.826 64.2406C27.0457 63.9874 26.3905 57.2592 26.7062 51.919C27.004 46.7663 27.5848 41.2385 28.4694 38.4805" fill="#FFBE9D"/>
<path d="M33.9913 43.0647L27.8737 40.9798C27.8737 40.9798 28.6302 35.8421 29.6041 35.86C29.6041 35.86 30.1552 36.0208 30.0122 36.4021C30.0122 36.4021 30.4173 35.6872 30.9802 35.9493C31.5431 36.2114 31.2959 36.959 31.2959 36.959C31.2959 36.959 33.0829 31.5979 33.8215 31.8958C34.4559 32.1519 34.1194 32.6493 32.928 36.2531C32.928 36.2531 32.4217 37.9508 32.8268 37.7066C33.2318 37.4624 34.9355 34.2904 35.5073 33.5815C35.8052 33.1973 36.3085 33.8555 35.823 34.8473C35.415 35.6753 34.2981 37.9359 34.2564 38.4214C34.2632 38.5596 34.2903 38.6961 34.3368 38.8265C34.4649 39.0945 34.7687 39.8302 34.4768 41.1854C34.3964 41.5666 34.0032 43.0677 34.0032 43.0677" fill="#FFBE9D"/>
<path d="M32.8476 42.1707C32.7643 42.1054 32.691 42.0281 32.6302 41.9414C32.4499 41.7187 32.2838 41.485 32.1328 41.2415C31.9102 40.8781 31.7189 40.4965 31.561 40.1008C31.467 39.8669 31.3855 39.6283 31.3167 39.3859C31.281 39.2608 31.2452 39.1328 31.2184 38.9958C31.1821 38.8521 31.1821 38.7016 31.2184 38.5579C31.2406 38.4657 31.2894 38.3821 31.3588 38.3175C31.4282 38.2529 31.5151 38.2101 31.6086 38.1946C31.7801 38.1901 31.9477 38.246 32.0822 38.3524C32.7007 38.7861 33.1707 39.3996 33.4284 40.1097H33.348C33.4802 39.9419 33.6481 39.8056 33.8394 39.7106C33.9735 39.648 34.0539 39.6331 34.0539 39.6421C33.8085 39.7698 33.5932 39.9486 33.4225 40.1663L33.3718 40.2318L33.3391 40.1544C33.1677 39.7423 32.9258 39.3634 32.6242 39.0345C32.4365 38.8302 32.2268 38.6475 31.9988 38.4894C31.8935 38.4045 31.7617 38.3592 31.6265 38.3614C31.5632 38.3734 31.5048 38.4039 31.4587 38.4489C31.4127 38.4939 31.3809 38.5515 31.3674 38.6145C31.3354 38.8656 31.3671 39.1206 31.4597 39.3562C31.5272 39.6044 31.6046 39.8396 31.692 40.062C31.841 40.4531 32.0192 40.8325 32.2251 41.1968C32.5825 41.8074 32.8685 42.1529 32.8476 42.1707Z" fill="#EB996E"/>
<path d="M31.1559 37.3101C31.169 37.409 31.169 37.5091 31.1559 37.608C31.1559 37.8105 31.138 38.0994 31.1112 38.4568C31.0844 38.8142 31.0487 39.2401 30.9921 39.7137C30.9682 39.965 30.9294 40.2146 30.8759 40.4613C30.8348 40.6058 30.7441 40.7313 30.6198 40.8157C30.5519 40.8638 30.4707 40.8896 30.3875 40.8896C30.3042 40.8896 30.2231 40.8638 30.1552 40.8157C30.0377 40.7163 29.9578 40.5797 29.9288 40.4285C29.8996 40.296 29.8797 40.1617 29.8692 40.0264C29.8454 39.7673 29.8365 39.5171 29.8335 39.2788C29.8335 38.8023 29.8335 38.3853 29.8514 38.016C29.8692 37.6467 29.8811 37.4054 29.8901 37.1701C29.8897 37.0652 29.8997 36.9604 29.9199 36.8574C29.9463 36.9595 29.9573 37.0649 29.9526 37.1701C29.9526 37.3697 29.9526 37.6616 29.9526 38.019C29.9526 38.3764 29.9526 38.8023 29.9526 39.2759C29.9526 39.5112 29.9705 39.7584 29.9973 40.0115C30.007 40.1388 30.0259 40.2652 30.0539 40.3898C30.0759 40.5051 30.1356 40.6099 30.2237 40.6876C30.2661 40.721 30.3186 40.7391 30.3726 40.7391C30.4266 40.7391 30.479 40.721 30.5215 40.6876C30.6163 40.6233 30.685 40.5272 30.7151 40.4166C30.7693 40.18 30.809 39.9403 30.8342 39.6988C30.8968 39.2282 30.9474 38.8053 30.9891 38.4509C31.0308 38.0964 31.0546 37.8403 31.0785 37.608C31.0937 37.5062 31.1196 37.4064 31.1559 37.3101Z" fill="#EB996E"/>
<path d="M29.8335 38.6984C29.9213 38.9202 29.9379 39.1637 29.8811 39.3954C29.8586 39.5129 29.8267 39.6284 29.7858 39.7409C29.7388 39.8781 29.6591 40.0018 29.5535 40.1012C29.5191 40.1323 29.4784 40.1556 29.4342 40.1695C29.39 40.1833 29.3433 40.1875 29.2974 40.1817C29.25 40.1715 29.2054 40.151 29.1668 40.1216C29.1282 40.0923 29.0965 40.0548 29.074 40.0119C29.005 39.862 28.9521 39.7053 28.9161 39.5443C28.7719 39.0025 28.7066 38.4428 28.7225 37.8823C28.7172 37.6494 28.7494 37.4171 28.8179 37.1943C28.8093 37.9718 28.8923 38.7475 29.0651 39.5056C29.0992 39.6523 29.146 39.7958 29.205 39.9345C29.2136 39.9597 29.2286 39.9823 29.2485 40.0001C29.2684 40.0179 29.2926 40.0302 29.3186 40.0359C29.3447 40.0416 29.3718 40.0405 29.3973 40.0326C29.4228 40.0247 29.4458 40.0104 29.4642 39.991C29.554 39.9089 29.6233 39.8069 29.6667 39.6932C29.7104 39.5898 29.7463 39.4833 29.7739 39.3745C29.8125 39.1512 29.8325 38.9251 29.8335 38.6984Z" fill="#EB996E"/>
<path d="M32.6302 42.6001C32.6153 42.6269 32.4128 42.4869 32.0345 42.3916C31.8218 42.3348 31.5979 42.3348 31.3852 42.3916C31.1259 42.4674 30.9001 42.6292 30.7449 42.8502L30.6138 43.0319V42.8085C30.6138 42.7252 30.6138 42.6358 30.593 42.5464C30.5214 41.9834 30.2816 41.455 29.905 41.0304C29.6071 40.7028 29.3748 40.5628 29.3897 40.542C29.6193 40.6288 29.824 40.771 29.9854 40.956C30.4057 41.382 30.6737 41.9348 30.7478 42.5286C30.7627 42.6239 30.7627 42.7192 30.7687 42.8085L30.6257 42.7668C30.7833 42.5411 31.01 42.3726 31.2715 42.2867C31.5331 42.2008 31.8154 42.202 32.0762 42.2903C32.1627 42.316 32.2464 42.3499 32.3264 42.3916C32.3877 42.4173 32.4457 42.4503 32.4991 42.4899C32.5855 42.5554 32.6302 42.5911 32.6302 42.6001Z" fill="#EB996E"/>
<path d="M68.2249 72.0469L67.522 68.5503L66.0328 55.3233L69.9047 47.7909L69.3567 47.1506C64.907 41.7299 60.7194 43.0642 58.8787 43.1238L49.6457 43.9875C44.919 44.61 43.8468 45.2891 40.5587 49.1461L34.4768 54.4714L36.2251 65.5153L44.3829 60.8452L45.8542 70.5726L45.4909 75.1325" fill="#073D51"/>
<path d="M81.4341 60.086C81.4341 60.086 76.0432 53.6765 68.5555 46.2275L64.9338 56.1813C64.9338 56.1813 73.3686 67.3056 75.5696 71.0494L82.7922 70.0666L81.4341 60.086Z" fill="#FFBE9D"/>
<path d="M43.2422 46.7334C43.2571 46.7334 43.1052 46.9359 42.9265 47.3291C42.6815 47.8944 42.5441 48.5004 42.5214 49.1161C42.5018 50.0316 42.6019 50.9458 42.8193 51.8354C43.0456 52.851 43.2541 53.9768 43.4626 55.1563C43.8706 57.5122 44.237 59.6447 44.508 61.2113L44.8237 63.046C44.8565 63.2515 44.8863 63.4154 44.9071 63.5464C44.9228 63.6036 44.9298 63.6628 44.928 63.7221C44.9051 63.6675 44.8882 63.6106 44.8773 63.5524C44.8505 63.4392 44.8088 63.2724 44.7642 63.058C44.6688 62.6291 44.5467 62.0036 44.4008 61.2322C44.103 59.6864 43.7307 57.5479 43.3107 55.1831C43.0992 53.9917 42.8967 52.8808 42.6793 51.8652C42.4646 50.9623 42.3724 50.0346 42.4053 49.1072C42.439 48.4801 42.5958 47.8658 42.8669 47.2993C42.941 47.1464 43.0277 47 43.126 46.8615C43.1605 46.8151 43.1994 46.7722 43.2422 46.7334Z" fill="#263238"/>
<path d="M53.8363 47.6546C54.4119 47.5765 54.9651 47.3803 55.4612 47.0782C55.9573 46.7762 56.3856 46.3748 56.7193 45.8994C57.0529 45.4239 57.2847 44.8847 57.4 44.3154C57.5154 43.7461 57.5118 43.1592 57.3895 42.5914L56.779 39.7232C56.779 39.7232 60.0403 38.7522 59.6293 35.4134C59.2183 32.0747 57.601 24.5334 57.601 24.5334C55.5965 23.9761 53.4797 23.9642 51.469 24.4988C49.4584 25.0334 47.627 26.0951 46.164 27.5743L45.7351 28.0092L49.1543 44.3397C49.3721 45.3812 49.9758 46.3019 50.8442 46.9167C51.7127 47.5316 52.7816 47.7952 53.8363 47.6546Z" fill="#FFBE9D"/>
<path d="M57.2823 30.6027C57.2026 30.5482 57.1408 30.4713 57.1047 30.3817C57.0687 30.2921 57.06 30.1938 57.0798 30.0993C57.0996 30.0047 57.147 29.9182 57.216 29.8506C57.285 29.7829 57.3724 29.7373 57.4674 29.7194C57.5623 29.7015 57.6604 29.7121 57.7492 29.75C57.8381 29.7878 57.9138 29.8512 57.9666 29.932C58.0195 30.0128 58.0472 30.1075 58.0463 30.2041C58.0454 30.3007 58.0158 30.3948 57.9614 30.4746C57.9252 30.5277 57.879 30.573 57.8253 30.6082C57.7716 30.6433 57.7115 30.6675 57.6484 30.6794C57.5853 30.6913 57.5206 30.6906 57.4577 30.6775C57.3949 30.6643 57.3353 30.6389 57.2823 30.6027Z" fill="#263238"/>
<path d="M58.3426 29.6823C58.2979 29.7478 57.9376 29.5393 57.4789 29.6019C57.0202 29.6644 56.7194 29.9444 56.6598 29.8997C56.6003 29.8551 56.6598 29.7657 56.7998 29.6346C56.9764 29.4667 57.2024 29.3601 57.4444 29.3306C57.6863 29.3011 57.9313 29.3503 58.1431 29.4708C58.3009 29.5542 58.3664 29.6555 58.3426 29.6823Z" fill="#263238"/>
<path d="M52.7879 30.6359C52.8764 30.6748 52.9514 30.739 53.0034 30.8205C53.0553 30.902 53.082 30.997 53.0799 31.0936C53.0778 31.1902 53.0471 31.2841 52.9917 31.3632C52.9363 31.4424 52.8587 31.5034 52.7686 31.5384C52.6785 31.5734 52.5801 31.581 52.4857 31.56C52.3914 31.5391 52.3054 31.4906 52.2386 31.4208C52.1718 31.351 52.1272 31.2629 52.1105 31.1677C52.0937 31.0725 52.1056 30.9745 52.1446 30.8861C52.1701 30.8272 52.2071 30.774 52.2534 30.7294C52.2996 30.6849 52.3542 30.65 52.4141 30.6268C52.4739 30.6035 52.5377 30.5923 52.6019 30.5939C52.6661 30.5955 52.7293 30.6098 52.7879 30.6359Z" fill="#263238"/>
<path d="M53.3866 30.5578C53.3419 30.6233 52.9815 30.4149 52.5229 30.4744C52.0642 30.534 51.7604 30.8169 51.7038 30.7723C51.6472 30.7276 51.7038 30.6382 51.8438 30.5072C52.0205 30.3396 52.2463 30.233 52.488 30.203C52.7297 30.173 52.9747 30.2212 53.187 30.3404C53.3449 30.4297 53.4074 30.528 53.3866 30.5578Z" fill="#263238"/>
<path d="M55.7395 34.094C55.9636 33.9679 56.2072 33.8803 56.4603 33.8349C56.5794 33.8081 56.6688 33.7664 56.6688 33.7009C56.6567 33.5806 56.6113 33.4661 56.5377 33.3703L56.0493 32.4768C55.3672 31.2169 54.8579 30.1685 54.9294 30.1328C55.0009 30.097 55.5966 31.0918 56.2786 32.3517L56.7522 33.2452C56.8499 33.3885 56.8961 33.5607 56.8832 33.7336C56.8741 33.7823 56.853 33.828 56.8218 33.8665C56.7906 33.905 56.7503 33.9351 56.7045 33.954C56.64 33.9818 56.5718 33.9999 56.502 34.0077C56.2546 34.0799 55.9967 34.1091 55.7395 34.094Z" fill="#263238"/>
<path d="M56.776 39.6843C55.2424 39.9231 53.6724 39.6991 52.2667 39.041C52.2667 39.041 53.6189 41.2986 56.9011 40.5481L56.776 39.6843Z" fill="#EB996E"/>
<path d="M56.9458 23.7827C57.135 23.7401 57.3118 23.6545 57.4626 23.5326C57.6134 23.4106 57.7341 23.2555 57.8153 23.0794C57.8965 22.9032 57.936 22.7108 57.9308 22.5169C57.9256 22.323 57.8759 22.1329 57.7854 21.9614C57.6948 21.7899 57.566 21.6415 57.4089 21.5277C57.2518 21.414 57.0706 21.338 56.8794 21.3056C56.6882 21.2732 56.4921 21.2853 56.3063 21.3409C56.1205 21.3965 55.95 21.4942 55.808 21.6264C56.1381 21.2235 56.3796 20.7557 56.5169 20.2533C56.5801 20.001 56.5647 19.7353 56.4726 19.492C56.3805 19.2487 56.2161 19.0394 56.0016 18.8922C55.5549 18.642 54.983 18.7999 54.5601 19.0888C53.9227 19.5266 53.4879 20.2265 52.8207 20.6197C52.1535 21.0128 51.3315 21.0486 50.5631 21.2362C49.7101 21.4233 48.9378 21.8746 48.3561 22.5258C48.071 22.8543 47.8665 23.2448 47.759 23.6662C47.6514 24.0876 47.6438 24.5283 47.7366 24.9532C46.6376 25.0336 45.4432 25.2511 44.7284 26.0939C44.1327 26.7998 43.9987 27.8214 44.1774 28.7328C44.3561 29.6442 44.9071 30.4364 45.3479 31.2555C45.4602 31.4916 45.6181 31.7032 45.8125 31.878L46.6822 34.1564L48.1446 33.8378L47.0694 28.9413C47.0694 28.9413 46.5095 26.9011 48.3263 26.7283C50.1431 26.5556 52.9666 28.0805 56.3352 26.8832C56.8802 26.6896 57.4521 26.5109 57.8601 26.0969C58.0704 25.8968 58.2233 25.644 58.3029 25.3649C58.3825 25.0857 58.3859 24.7904 58.3128 24.5094C58.2263 24.2329 58.0343 24.0016 57.7784 23.8656C57.5226 23.7295 57.2234 23.6998 56.9458 23.7827Z" fill="#263238"/>
<path d="M46.1521 31.2314C46.0746 31.2314 43.6443 31.3833 44.4246 34.1384C45.205 36.8934 47.7306 35.1927 47.7008 35.1123C47.6711 35.0319 46.1521 31.2314 46.1521 31.2314Z" fill="#FFBE9D"/>
<path d="M46.5959 34.3852C46.5959 34.3852 46.5571 34.4329 46.4857 34.4924C46.385 34.5732 46.2568 34.6117 46.1283 34.5997C45.8066 34.5758 45.4313 34.1827 45.2764 33.6913C45.2031 33.4574 45.1827 33.2102 45.2169 32.9675C45.2176 32.8741 45.2414 32.7822 45.2861 32.7002C45.3307 32.6181 45.3949 32.5483 45.473 32.4969C45.524 32.4662 45.5842 32.4544 45.6431 32.4637C45.7019 32.4729 45.7556 32.5026 45.7947 32.5476C45.8513 32.6131 45.8513 32.6726 45.8662 32.6726C45.881 32.6726 45.9138 32.6101 45.8662 32.5029C45.8324 32.4385 45.7762 32.3887 45.7083 32.3629C45.6177 32.3257 45.516 32.3257 45.4254 32.3629C45.3184 32.4171 45.2272 32.4979 45.1604 32.5975C45.0937 32.6971 45.0536 32.8122 45.0441 32.9318C44.9949 33.2039 45.0122 33.4839 45.0948 33.7478C45.2705 34.2988 45.6904 34.7367 46.1342 34.7396C46.2142 34.7396 46.2932 34.7216 46.3653 34.6871C46.4375 34.6526 46.501 34.6024 46.5512 34.5401C46.6078 34.4537 46.6048 34.3852 46.5959 34.3852Z" fill="#EB996E"/>
<path d="M53.0947 28.4941C53.0441 28.6162 52.5169 28.4941 51.9033 28.6013C51.2898 28.7086 50.8043 28.9528 50.712 28.8486C50.6733 28.8009 50.7477 28.6609 50.9413 28.506C51.2012 28.3134 51.5045 28.1876 51.8244 28.1398C52.1444 28.092 52.4712 28.1237 52.776 28.232C53.0054 28.3244 53.1185 28.4375 53.0947 28.4941Z" fill="#263238"/>
<path d="M57.6487 28.1873C57.5951 28.3064 57.2883 28.2915 56.9577 28.3898C56.6271 28.4881 56.362 28.643 56.2637 28.5685C56.2131 28.5298 56.222 28.4196 56.3173 28.2707C56.4471 28.102 56.6295 27.9814 56.8356 27.9281C57.0407 27.8694 57.2595 27.8799 57.458 27.9579C57.595 28.0383 57.6487 28.1307 57.6487 28.1873Z" fill="#263238"/>
<path d="M50.5839 31.4306C50.547 31.3179 50.5191 31.2023 50.5005 31.0851C50.4618 30.829 50.4082 30.4895 50.3427 30.0844V30.0397H50.3903C51.3494 29.8968 52.7879 29.6883 54.4409 29.4619H54.5184V29.5394C54.569 29.9116 54.6226 30.2988 54.6762 30.695C54.7717 31.1483 54.7228 31.6201 54.5362 32.0442C54.4205 32.3104 54.2505 32.5495 54.0371 32.7463C53.8236 32.943 53.5715 33.093 53.2967 33.1866C53.0219 33.2803 52.7306 33.3155 52.4415 33.2901C52.1523 33.2647 51.8716 33.1791 51.6174 33.039C51.1876 32.8067 50.8549 32.4286 50.6792 31.9727C50.6326 31.8506 50.5996 31.7238 50.5809 31.5944C50.573 31.5501 50.573 31.5047 50.5809 31.4604C50.5988 31.4604 50.6137 31.6451 50.7448 31.9489C50.9334 32.3778 51.2635 32.7289 51.68 32.9437C51.9844 33.0987 52.3233 33.1735 52.6647 33.161C53.006 33.1485 53.3386 33.0491 53.6308 32.8722C53.975 32.6606 54.2463 32.3488 54.4082 31.9787C54.579 31.5796 54.6227 31.1376 54.5333 30.7128C54.4797 30.3167 54.426 29.9295 54.3754 29.5572L54.4618 29.6227C52.8088 29.8431 51.3672 30.0278 50.4022 30.144L50.4439 30.0904C50.4886 30.5014 50.5273 30.8379 50.5571 31.0941C50.5758 31.2053 50.5848 31.3179 50.5839 31.4306Z" fill="#455A64"/>
<path d="M55.9748 30.6984C55.9408 30.5826 55.9168 30.464 55.9033 30.344C55.8616 30.0878 55.808 29.7483 55.7455 29.3432V29.2986H55.7931C56.7551 29.1526 58.1907 28.9441 59.8467 28.7178H59.9212V28.7952C59.9748 29.1675 60.0254 29.5547 60.082 29.9508C60.1744 30.4043 60.1255 30.8752 59.942 31.3C59.8242 31.5644 59.653 31.8017 59.4393 31.9969C59.2255 32.1921 58.9737 32.341 58.6997 32.4344C58.4257 32.5278 58.1354 32.5636 57.8469 32.5396C57.5584 32.5156 57.278 32.4322 57.0232 32.2948C56.5927 32.0634 56.2597 31.685 56.085 31.2286C56.0356 31.1074 56.0025 30.9802 55.9867 30.8503C55.9821 30.8057 55.9821 30.7608 55.9867 30.7163C56.0046 30.7163 56.0225 30.9009 56.1535 31.2047C56.3398 31.6342 56.6692 31.9858 57.0857 32.1995C57.3263 32.3239 57.5898 32.3978 57.86 32.4166C58.1302 32.4354 58.4014 32.3988 58.6569 32.309C58.9124 32.2191 59.1469 32.078 59.3458 31.8943C59.5448 31.7105 59.7041 31.488 59.8139 31.2405C59.9861 30.8407 60.0299 30.3973 59.939 29.9717C59.8854 29.5755 59.8318 29.1884 59.7842 28.8161L59.8676 28.8816C58.2146 29.102 56.773 29.2866 55.808 29.4028L55.8497 29.3492C55.8974 29.7602 55.9361 30.0968 55.9629 30.3529C55.9771 30.4675 55.9811 30.5831 55.9748 30.6984Z" fill="#455A64"/>
<path d="M55.9152 30.3859C55.7086 30.4892 55.482 30.5461 55.2511 30.5527C55.0265 30.6029 54.7936 30.6029 54.569 30.5527C54.9983 30.3914 55.4585 30.3293 55.9152 30.371V30.3859Z" fill="#455A64"/>
<path d="M50.4529 30.6953C49.641 30.8827 48.8185 31.02 47.9897 31.1063C47.1688 31.243 46.3402 31.3296 45.5088 31.3655C46.3196 31.1782 47.1412 31.0409 47.9689 30.9544C48.7904 30.8143 49.6201 30.7277 50.4529 30.6953Z" fill="#455A64"/>
<path d="M56.3739 35.2163C56.3739 35.2341 56.2577 35.3086 56.0284 35.3592C55.7321 35.4181 55.4261 35.4069 55.1349 35.3265C54.8395 35.2463 54.5677 35.0961 54.3426 34.8887C54.1729 34.7278 54.1044 34.5908 54.1193 34.5908C54.4334 34.8508 54.7915 35.0526 55.1766 35.1865C55.5707 35.2677 55.9762 35.2778 56.3739 35.2163Z" fill="#263238"/>
<path d="M46.8848 35.5796C46.8848 35.5796 46.9473 35.7434 46.7954 35.9548C46.7186 36.0658 46.6064 36.1474 46.4772 36.1862C46.348 36.2251 46.2094 36.2189 46.0841 36.1688C45.9589 36.1186 45.8544 36.0274 45.7877 35.91C45.7211 35.7927 45.6962 35.6562 45.7172 35.523C45.7363 35.3727 45.8119 35.2353 45.9287 35.1388C46.1312 34.9749 46.307 35.0137 46.298 35.0286C46.2891 35.0434 46.1521 35.0613 46.0002 35.2192C45.9185 35.3069 45.8673 35.4187 45.8542 35.5379C45.8514 35.6086 45.864 35.6791 45.8913 35.7445C45.9186 35.8098 45.9598 35.8684 46.0121 35.9161C46.0626 35.9658 46.1236 36.0037 46.1906 36.0269C46.2575 36.05 46.3288 36.058 46.3993 36.0501C46.5136 36.0291 46.6181 35.9716 46.6971 35.8863C46.858 35.7285 46.858 35.5766 46.8848 35.5796Z" fill="#263238"/>
<path d="M54.4737 34.1026C54.5184 34.1026 54.5303 34.4005 54.2831 34.6477C54.0359 34.8949 53.7321 34.883 53.738 34.8413C53.744 34.7996 53.9733 34.746 54.1729 34.5434C54.3724 34.3409 54.432 34.0967 54.4737 34.1026Z" fill="#263238"/>
<path d="M55.0694 53.8497C55.0277 53.8497 54.7001 52.4737 54.3337 50.7582C53.9674 49.0426 53.7083 47.6428 53.738 47.6338C53.7678 47.6249 54.1103 49.0098 54.4737 50.7254C54.8371 52.441 55.1111 53.8408 55.0694 53.8497Z" fill="#263238"/>
<path d="M55.0575 48.1126C55.0783 48.1305 54.9443 48.2258 54.9413 48.4462C54.9402 48.5059 54.9513 48.5652 54.9738 48.6205C54.9963 48.6758 55.0299 48.7259 55.0724 48.7679C55.1299 48.8089 55.1974 48.8338 55.2678 48.84C55.3382 48.8462 55.4089 48.8335 55.4728 48.8031C55.5366 48.7727 55.5911 48.7258 55.6307 48.6672C55.6702 48.6087 55.6934 48.5406 55.6978 48.47C55.6861 48.354 55.6295 48.2471 55.54 48.1722C55.444 48.1013 55.3309 48.0572 55.2123 48.0441C55.1975 48.0441 55.3732 47.9339 55.6055 48.0828C55.6715 48.1268 55.7268 48.1848 55.7675 48.2529C55.8082 48.3209 55.8333 48.3971 55.8408 48.476C55.8426 48.575 55.8153 48.6723 55.7624 48.7559C55.7094 48.8396 55.6331 48.9058 55.5429 48.9466C55.4538 48.9911 55.3533 49.0078 55.2545 48.9945C55.1557 48.9812 55.0632 48.9386 54.989 48.8721C54.9335 48.8153 54.8915 48.7467 54.8662 48.6714C54.841 48.5961 54.833 48.5161 54.843 48.4373C54.8698 48.1662 55.0604 48.0948 55.0575 48.1126Z" fill="#263238"/>
<path d="M55.54 50.7667C55.5578 50.7846 55.4238 50.8799 55.4208 51.1003C55.4195 51.1599 55.4307 51.2191 55.4538 51.274C55.4769 51.3289 55.5113 51.3783 55.5549 51.419C55.6093 51.4634 55.6757 51.4907 55.7456 51.4976C55.8155 51.5045 55.8859 51.4906 55.948 51.4577C56.0132 51.4319 56.0695 51.3879 56.1102 51.3308C56.1509 51.2737 56.1742 51.2061 56.1773 51.1361C56.1723 51.0784 56.1558 51.0223 56.1287 50.9711C56.1016 50.9199 56.0644 50.8747 56.0195 50.8382C55.9235 50.7674 55.8105 50.7232 55.6919 50.7101C55.677 50.7101 55.8557 50.5999 56.085 50.7489C56.1513 50.7925 56.2069 50.8505 56.2476 50.9185C56.2883 50.9866 56.3132 51.063 56.3203 51.142C56.3233 51.2412 56.2965 51.339 56.2434 51.4229C56.1903 51.5068 56.1134 51.5728 56.0225 51.6126C55.9327 51.657 55.8318 51.6736 55.7326 51.6603C55.6334 51.6471 55.5404 51.6045 55.4655 51.5381C55.4103 51.4812 55.3688 51.4125 55.344 51.3371C55.3193 51.2618 55.3119 51.1819 55.3225 51.1033C55.3523 50.8203 55.54 50.7429 55.54 50.7667Z" fill="#263238"/>
<path d="M62.9621 54.1735L70.1102 65.0923L79.4535 56.8749C79.4535 56.8749 68.5823 45.3277 66.1996 44.2793L62.9621 54.1735Z" fill="#073D51"/>
<path d="M67.111 59.63C67.0638 59.5919 67.0218 59.5479 66.9859 59.499L66.6583 59.1029C66.3753 58.7544 65.9673 58.2511 65.4669 57.6137C65.2197 57.298 64.9547 56.9465 64.6896 56.5563C64.4245 56.1662 64.1594 55.7343 63.8884 55.2786C63.2632 54.3015 62.8277 53.2153 62.6047 52.0769C62.3716 50.9323 62.4404 49.7468 62.8043 48.6368C63.1196 47.7355 63.6503 46.9247 64.35 46.2749C64.8193 45.8391 65.3699 45.5001 65.9703 45.2772C66.1327 45.2193 66.2989 45.1725 66.4677 45.1372C66.5259 45.1206 66.5859 45.1106 66.6464 45.1074C66.5924 45.134 66.5354 45.154 66.4766 45.167C66.3119 45.2139 66.1499 45.2696 65.9911 45.3338C65.4095 45.5731 64.8781 45.9197 64.4245 46.3554C63.7537 47.0013 63.248 47.7991 62.9502 48.6815C62.6017 49.768 62.5381 50.9259 62.7655 52.0441C62.9857 53.1674 63.4108 54.2406 64.0194 55.2101C64.2875 55.6658 64.5436 56.1036 64.8028 56.4878C65.0619 56.8721 65.324 57.2295 65.5622 57.5511L66.7059 59.0642L67.0038 59.4781C67.0441 59.5254 67.08 59.5762 67.111 59.63Z" fill="#263238"/>
<g opacity="0.3">
<path d="M64.7968 56.6992C66.7268 61.4081 65.4759 67.2427 61.7827 70.7423C61.478 70.985 61.2282 71.2895 61.05 71.6358C60.9654 71.8099 60.9435 72.0078 60.988 72.1961C61.0325 72.3844 61.1407 72.5516 61.2942 72.6693C61.5306 72.8204 61.806 72.8991 62.0865 72.8957C64.1416 72.6664 66.1579 72.3 68.213 72.0617L67.5101 68.5651L66.4409 58.7841L64.7968 56.6992Z" fill="#0C0C0C"/>
</g>
<path d="M90.9083 126.394L90.8428 123.544L85.5055 123.633L85.5562 127.803H85.8868C87.3611 127.86 93.3893 127.994 94.3692 127.678C95.4742 127.341 90.9083 126.394 90.9083 126.394Z" fill="#073D51"/>
<g opacity="0.4">
<path d="M93.1332 126.937C93.1332 126.937 94.7326 127.368 94.539 127.633C94.3454 127.899 88.2486 127.997 85.5562 127.803V127.684L92.6686 127.63C92.6686 127.63 92.8234 126.954 93.1332 126.937Z" fill="white"/>
</g>
<path d="M85.4787 127.681C85.5094 127.685 85.5404 127.685 85.571 127.681H85.8331L86.8041 127.708C87.6261 127.708 88.7579 127.732 90.0088 127.708C91.2598 127.684 92.3916 127.645 93.2136 127.604L94.1846 127.55L94.4466 127.529H94.1816L93.2106 127.565C92.3916 127.595 91.2598 127.631 90.0088 127.648C88.7579 127.666 87.6261 127.666 86.8041 127.648H85.8331H85.4787V127.681Z" fill="#263238"/>
<path d="M92.6745 127.713C92.7127 127.552 92.7707 127.396 92.8472 127.248C92.9424 127.112 93.0512 126.985 93.1719 126.87C93.0072 126.935 92.8718 127.058 92.7907 127.216C92.6904 127.361 92.6489 127.538 92.6745 127.713Z" fill="#263238"/>
<path d="M91.084 126.94C91.1019 126.94 91.1734 126.856 91.2508 126.734C91.3283 126.612 91.3759 126.502 91.361 126.493C91.3461 126.484 91.2717 126.576 91.1942 126.698C91.1168 126.82 91.0692 126.931 91.084 126.94Z" fill="#263238"/>
<path d="M90.6492 126.719C90.6492 126.719 90.7445 126.674 90.8368 126.59C90.9292 126.507 90.9887 126.427 90.9768 126.415C90.9649 126.403 90.8815 126.456 90.7922 126.543C90.7028 126.629 90.6373 126.692 90.6492 126.719Z" fill="#263238"/>
<path d="M90.3692 126.218C90.4579 126.25 90.5528 126.26 90.6462 126.248C90.7408 126.259 90.8366 126.247 90.9262 126.215C90.8361 126.185 90.7406 126.175 90.6462 126.186C90.5526 126.175 90.4579 126.187 90.3692 126.218Z" fill="#263238"/>
<path d="M90.268 125.864C90.3608 125.924 90.47 125.954 90.5807 125.95C90.6903 125.966 90.8022 125.95 90.9024 125.902C90.7968 125.887 90.6902 125.881 90.5837 125.885C90.4793 125.868 90.3736 125.861 90.268 125.864Z" fill="#263238"/>
<path d="M91.2598 126.472C91.3731 126.491 91.4889 126.491 91.6023 126.472C91.726 126.455 91.8477 126.426 91.9657 126.385C92.0387 126.364 92.1087 126.334 92.1741 126.296C92.1946 126.285 92.2125 126.269 92.2268 126.251C92.2412 126.232 92.2516 126.211 92.2575 126.189C92.2619 126.163 92.2592 126.137 92.2497 126.113C92.2403 126.089 92.2244 126.067 92.2039 126.052C92.0715 125.99 91.9219 125.976 91.7803 126.012C91.6386 126.047 91.5137 126.131 91.4266 126.248C91.3757 126.318 91.3392 126.397 91.3193 126.481C91.3193 126.54 91.3193 126.573 91.3193 126.573C91.3509 126.466 91.4014 126.365 91.4683 126.275C91.5472 126.183 91.6504 126.115 91.7661 126.078C91.8323 126.055 91.9025 126.045 91.9725 126.049C92.0426 126.053 92.1111 126.071 92.1741 126.102C92.2307 126.141 92.2099 126.204 92.1503 126.242C92.0891 126.276 92.0253 126.305 91.9597 126.329C91.8442 126.37 91.7257 126.401 91.6053 126.424C91.3908 126.46 91.2598 126.46 91.2598 126.472Z" fill="#263238"/>
<path d="M91.3491 126.486C91.3887 126.414 91.4014 126.329 91.3849 126.248C91.3726 126.158 91.3389 126.072 91.2866 125.998C91.2558 125.946 91.2122 125.904 91.16 125.874C91.1078 125.844 91.0488 125.828 90.9887 125.828C90.9542 125.837 90.9241 125.858 90.9048 125.888C90.8854 125.918 90.8782 125.954 90.8845 125.989C90.8943 126.043 90.9157 126.095 90.947 126.141C90.9925 126.216 91.0476 126.285 91.1109 126.346C91.2211 126.451 91.3074 126.489 91.3104 126.48C91.3134 126.471 91.2419 126.421 91.1436 126.314C91.0887 126.251 91.0398 126.183 90.9977 126.111C90.95 126.04 90.9143 125.909 90.9977 125.891C91.0811 125.873 91.1734 125.965 91.227 126.034C91.2759 126.1 91.3104 126.176 91.3283 126.257C91.3412 126.333 91.3482 126.409 91.3491 126.486Z" fill="#263238"/>
<path d="M85.5651 126.219C85.5651 126.219 85.717 126.201 85.9582 126.219C86.2731 126.249 86.5733 126.367 86.8249 126.558C87.0731 126.753 87.2627 127.013 87.373 127.309C87.4593 127.538 87.4683 127.69 87.4832 127.69C87.4877 127.654 87.4877 127.618 87.4832 127.583C87.4737 127.481 87.4527 127.382 87.4206 127.285C87.3192 126.973 87.1259 126.699 86.866 126.498C86.6061 126.298 86.2918 126.181 85.9642 126.162C85.8651 126.153 85.7654 126.153 85.6664 126.162C85.6295 126.175 85.5951 126.194 85.5651 126.219Z" fill="#263238"/>
<path d="M86.0833 123.987C86.051 124.352 86.041 124.718 86.0535 125.083C86.0446 125.45 86.0565 125.817 86.0893 126.182C86.1199 125.817 86.1298 125.45 86.1191 125.083C86.128 124.718 86.1161 124.352 86.0833 123.987Z" fill="#263238"/>
<path d="M88.1533 127.199C88.4097 127.253 88.6718 127.275 88.9337 127.264C89.1961 127.273 89.4585 127.247 89.714 127.187C89.714 127.169 89.3655 127.187 88.9337 127.187C88.5018 127.187 88.1563 127.178 88.1533 127.199Z" fill="#263238"/>
<path d="M87.1079 127.214C87.1079 127.214 87.1377 127.285 87.1734 127.366C87.2092 127.446 87.233 127.514 87.2509 127.514C87.2687 127.514 87.2747 127.431 87.233 127.339C87.1913 127.246 87.1347 127.199 87.1079 127.214Z" fill="#263238"/>
<path d="M86.7058 126.728C86.7058 126.728 86.7296 126.796 86.7833 126.85C86.8369 126.904 86.8964 126.939 86.9083 126.927C86.9203 126.916 86.8845 126.859 86.8309 126.805C86.7773 126.752 86.7177 126.716 86.7058 126.728Z" fill="#263238"/>
<path d="M86.1369 126.514C86.1369 126.532 86.2114 126.529 86.2918 126.555C86.3722 126.582 86.4288 126.624 86.4407 126.612C86.4526 126.6 86.408 126.526 86.3127 126.493C86.2173 126.46 86.131 126.496 86.1369 126.514Z" fill="#263238"/>
<path d="M85.7349 126.412C85.7349 126.43 85.7587 126.457 85.8034 126.475C85.848 126.493 85.8897 126.49 85.8957 126.475C85.9017 126.46 85.8719 126.433 85.8272 126.415C85.7825 126.398 85.7408 126.395 85.7349 126.412Z" fill="#263238"/>
<g opacity="0.3">
<path d="M85.5681 126.076L90.9024 125.903L90.8815 125.26L85.5204 125.739L85.5681 126.076Z" fill="#0C0C0C"/>
</g>
<path d="M95.8703 125.798L96.7638 123.097L91.7006 121.366L90.3335 125.307L90.6313 125.435C92.0014 125.989 97.6246 128.157 98.6551 128.193C99.8316 128.237 95.8703 125.798 95.8703 125.798Z" fill="#073D51"/>
<g opacity="0.4">
<path d="M97.7795 127.068C97.7795 127.068 99.1346 128.018 98.8636 128.199C98.5926 128.381 92.8234 126.412 90.3543 125.31L90.4109 125.203L97.1183 127.568C97.1183 127.568 97.4816 126.99 97.7795 127.068Z" fill="white"/>
</g>
<path d="M90.3246 125.17L90.4079 125.209L90.6522 125.31L91.5457 125.664C92.3111 125.962 93.3744 126.349 94.5569 126.757C95.7393 127.165 96.8204 127.508 97.6067 127.749L98.536 128.023L98.7921 128.095C98.8212 128.105 98.8511 128.112 98.8815 128.116L98.7951 128.083L98.5449 127.999L97.6186 127.702C96.8383 127.451 95.7631 127.106 94.5777 126.692C93.3923 126.278 92.329 125.9 91.5606 125.62L90.6492 125.283L90.4109 125.203L90.3246 125.17Z" fill="#263238"/>
<path d="M97.0825 127.642C97.1748 127.504 97.2828 127.377 97.4042 127.264C97.5379 127.165 97.6829 127.083 97.8361 127.02C97.6594 127.022 97.4903 127.091 97.3625 127.213C97.2192 127.316 97.1194 127.469 97.0825 127.642Z" fill="#263238"/>
<path d="M95.8495 126.377C95.8495 126.377 95.9627 126.326 96.0758 126.237C96.189 126.147 96.2724 126.061 96.2605 126.046C96.1765 126.075 96.1002 126.123 96.0371 126.186C95.921 126.275 95.8405 126.362 95.8495 126.377Z" fill="#263238"/>
<path d="M95.5159 126.018C95.5159 126.033 95.6201 126.018 95.7333 125.962C95.8465 125.905 95.9358 125.86 95.9269 125.843C95.918 125.825 95.8227 125.843 95.7095 125.902C95.5963 125.962 95.5099 126 95.5159 126.018Z" fill="#263238"/>
<path d="M95.4206 125.453C95.4206 125.471 95.5278 125.525 95.6738 125.578C95.7591 125.62 95.8528 125.641 95.9478 125.641C95.9478 125.623 95.8405 125.569 95.6946 125.516C95.6092 125.474 95.5155 125.453 95.4206 125.453Z" fill="#263238"/>
<path d="M95.4474 125.087C95.5146 125.175 95.6071 125.24 95.7125 125.275C95.8087 125.328 95.919 125.349 96.0282 125.337C95.9327 125.288 95.833 125.247 95.7303 125.215C95.6403 125.163 95.5455 125.121 95.4474 125.087Z" fill="#263238"/>
<path d="M96.1741 125.992C96.2744 126.049 96.3845 126.087 96.4988 126.102C96.6211 126.129 96.7459 126.143 96.8711 126.144C96.9453 126.153 97.0202 126.153 97.0944 126.144C97.141 126.134 97.1823 126.108 97.2106 126.07C97.2251 126.048 97.2328 126.023 97.2328 125.997C97.2328 125.971 97.2251 125.945 97.2106 125.924C97.1439 125.858 97.0636 125.808 96.9752 125.777C96.8869 125.746 96.7928 125.735 96.6997 125.745C96.6067 125.754 96.5169 125.784 96.4368 125.833C96.3567 125.881 96.2884 125.947 96.2367 126.025C96.2164 126.05 96.203 126.08 96.1979 126.111C96.2632 126.021 96.3451 125.944 96.4392 125.885C96.5412 125.823 96.6595 125.793 96.7787 125.799C96.9206 125.8 97.0562 125.857 97.157 125.956C97.1957 126.013 97.157 126.067 97.0855 126.082C97.0163 126.091 96.9462 126.091 96.877 126.082C96.7554 126.081 96.634 126.072 96.5136 126.055C96.2992 126.025 96.1771 125.983 96.1741 125.992Z" fill="#263238"/>
<path d="M96.2515 126.039C96.3142 125.984 96.3553 125.908 96.3677 125.825C96.3881 125.737 96.3881 125.645 96.3677 125.557C96.3568 125.5 96.3314 125.446 96.2938 125.401C96.2563 125.356 96.2079 125.322 96.1533 125.301C96.1186 125.297 96.0836 125.306 96.0558 125.327C96.028 125.348 96.0095 125.379 96.0043 125.414C95.9923 125.469 95.9923 125.526 96.0043 125.581C96.023 125.666 96.052 125.749 96.0907 125.828C96.1235 125.902 96.1711 125.969 96.2307 126.025C96.2307 126.025 96.186 125.944 96.1324 125.81C96.101 125.732 96.078 125.652 96.0639 125.569C96.0431 125.485 96.0639 125.351 96.1414 125.363C96.2188 125.375 96.2813 125.494 96.3081 125.575C96.3327 125.653 96.3388 125.735 96.326 125.816C96.3094 125.893 96.2844 125.968 96.2515 126.039Z" fill="#263238"/>
<path d="M90.9024 123.824C90.9024 123.824 91.0513 123.86 91.2687 123.964C91.5538 124.102 91.7958 124.315 91.9686 124.581C92.1377 124.848 92.2285 125.158 92.2307 125.474C92.2307 125.715 92.192 125.864 92.2039 125.867C92.2204 125.835 92.2325 125.801 92.2397 125.766C92.2614 125.668 92.2734 125.568 92.2754 125.468C92.2868 125.14 92.1985 124.816 92.0222 124.539C91.848 124.268 91.5986 124.054 91.3044 123.922C91.2143 123.884 91.1205 123.855 91.0245 123.836C90.985 123.824 90.9434 123.82 90.9024 123.824Z" fill="#263238"/>
<path d="M92.1444 121.899C91.9934 122.234 91.8601 122.576 91.7453 122.924C91.6121 123.264 91.4997 123.612 91.4087 123.966C91.56 123.633 91.6933 123.292 91.8078 122.945C91.9408 122.603 92.0532 122.254 92.1444 121.899Z" fill="#263238"/>
<path d="M93.0051 125.623C93.2278 125.761 93.467 125.871 93.7169 125.95C93.9614 126.045 94.2164 126.11 94.4764 126.144C94.4764 126.126 94.1458 126.031 93.7408 125.888C93.3357 125.745 93.014 125.605 93.0051 125.623Z" fill="#263238"/>
<path d="M92.0163 125.283C91.9984 125.283 92.0163 125.36 92.0163 125.45C92.0163 125.539 92.0163 125.608 92.0371 125.614C92.058 125.62 92.0907 125.542 92.0788 125.441C92.0669 125.34 92.0312 125.274 92.0163 125.283Z" fill="#263238"/>
<path d="M91.8018 124.69C91.7869 124.69 91.8018 124.762 91.8346 124.833C91.8674 124.905 91.9091 124.956 91.9269 124.947C91.9448 124.938 91.9269 124.875 91.8942 124.804C91.8614 124.732 91.8197 124.682 91.8018 124.69Z" fill="#263238"/>
<path d="M91.3402 124.309C91.3402 124.327 91.4057 124.35 91.4712 124.401C91.5368 124.452 91.5755 124.511 91.5933 124.505C91.6112 124.499 91.5933 124.413 91.5099 124.35C91.4266 124.288 91.3402 124.276 91.3402 124.309Z" fill="#263238"/>
<path d="M91.0066 124.065C91.0066 124.065 91.0066 124.113 91.0513 124.146C91.096 124.179 91.1287 124.191 91.1377 124.176C91.1466 124.161 91.1377 124.125 91.093 124.095C91.0483 124.065 91.0066 124.051 91.0066 124.065Z" fill="#263238"/>
<g opacity="0.3">
<path d="M90.953 123.69L96.0282 125.337L96.2307 124.727L91.0245 123.356L90.953 123.69Z" fill="#0C0C0C"/>
</g>
<path d="M75.2569 46.8706C75.2569 49.1997 75.2777 53.5154 76.2815 57.6196C76.4631 58.3732 81.6843 49.7329 81.6843 49.7329L84.2516 55.2369C84.2516 55.2369 82.7982 60.872 77.4817 63.3322C71.1378 66.2659 70.42 50.7247 70.8638 46.3018" fill="#FFBE9D"/>
<path d="M99.6737 73.0332L93.3923 73.3072L83.7572 73.0332L84.8562 125.855L92.6209 125.599C92.6209 125.599 92.6209 125.003 92.6209 123.982L96.7221 125.042C96.7221 125.042 104.451 109.17 106.113 102.406C107.501 96.765 99.6737 73.0332 99.6737 73.0332ZM92.5911 115.922C92.463 103.731 93.0051 82.9959 93.1868 80.4613C93.1868 80.4613 97.9522 98.7159 97.985 100.154C98.0088 101.018 94.67 109.444 92.5911 115.91V115.922Z" fill="#263238"/>
<path d="M92.5554 112.449C92.5778 112.619 92.5877 112.79 92.5851 112.962C92.5851 113.316 92.6 113.787 92.612 114.358C92.6298 115.55 92.6417 117.167 92.6477 118.966C92.6537 120.765 92.6477 122.394 92.6477 123.574C92.6477 124.145 92.6328 124.616 92.6269 124.97C92.6292 125.142 92.6202 125.313 92.6 125.483C92.5757 125.313 92.5658 125.142 92.5703 124.97C92.5703 124.616 92.5524 124.145 92.5405 123.574C92.5256 122.382 92.5107 120.765 92.5077 118.966C92.5047 117.167 92.5077 115.538 92.5077 114.358C92.5077 113.787 92.5077 113.316 92.5256 112.962C92.5211 112.79 92.5311 112.619 92.5554 112.449Z" fill="#455A64"/>
<path d="M88.8175 73.751C88.831 73.8408 88.831 73.9322 88.8175 74.022C88.7965 74.2705 88.7455 74.5155 88.6656 74.7517C88.4069 75.5448 87.8769 76.2212 87.1686 76.6619C86.4604 77.1026 85.6194 77.2795 84.7937 77.1612C84.5469 77.1307 84.3047 77.0697 84.0729 76.9795C83.9863 76.9516 83.9041 76.9114 83.8287 76.8604C84.1501 76.9456 84.4763 77.0112 84.8056 77.057C85.6036 77.1453 86.4081 76.9624 87.0894 76.5377C87.7707 76.113 88.2892 75.4713 88.5614 74.716C88.6675 74.4002 88.7531 74.0778 88.8175 73.751Z" fill="#455A64"/>
<path d="M93.8837 73.8281C93.9056 73.9188 93.9156 74.0119 93.9135 74.1051C93.9135 74.2838 93.9344 74.5429 93.9433 74.8616C93.9582 75.499 93.9731 76.3806 93.979 77.3516V78.7395C94.0034 79.1259 93.9144 79.511 93.7229 79.8474C93.652 79.9585 93.5587 80.0535 93.449 80.1264C93.3392 80.1992 93.2154 80.2483 93.0855 80.2704C92.9864 80.2931 92.8824 80.2782 92.7936 80.2287C92.8834 80.2287 92.973 80.2217 93.0617 80.2078C93.2974 80.1459 93.4995 79.994 93.6246 79.7849C93.7874 79.4596 93.8584 79.0962 93.8301 78.7335C93.8301 78.3076 93.8301 77.84 93.8301 77.3605C93.8301 76.3895 93.8301 75.5079 93.8301 74.8706C93.8301 74.5519 93.8301 74.2928 93.848 74.114C93.845 74.0175 93.8571 73.921 93.8837 73.8281Z" fill="#455A64"/>
<path d="M100.255 77.1198C100.183 77.1305 100.111 77.1305 100.04 77.1198C99.8461 77.1061 99.6537 77.0752 99.4652 77.0275C98.8376 76.8732 98.2477 76.5934 97.7312 76.2049C97.2147 75.8163 96.7822 75.3272 96.46 74.7669C96.3625 74.5991 96.2808 74.4226 96.2158 74.2397C96.1844 74.1751 96.1642 74.1056 96.1562 74.0342C96.1831 74.0342 96.2933 74.3052 96.5524 74.7133C97.2323 75.7822 98.2767 76.5685 99.492 76.9262C99.9418 77.0632 100.257 77.093 100.255 77.1198Z" fill="#455A64"/>
<path d="M116.99 41.5693L116.936 41.6646L114.655 45.5276L116.436 46.4241L117.836 44.2707" fill="#FFBE9D"/>
<path d="M100.481 56.4378C100.481 56.4378 104.862 57.8615 108.448 58.8801C109.025 59.0435 109.628 59.0896 110.223 59.0158C110.818 58.9421 111.392 58.7499 111.912 58.4506C112.431 58.1513 112.885 57.7511 113.248 57.2734C113.61 56.7957 113.873 56.2503 114.021 55.6694L116.791 45.9271L113.759 44.8906L109.672 53.4803L102.473 50.5704" fill="#FFBE9D"/>
<path d="M116.791 40.8463L114.849 45.4538L113.759 44.8909C113.759 44.8909 113.845 44.5097 114.187 43.4464C114.44 42.6877 114.973 42.0539 115.677 41.6743C115.677 41.6743 116.359 39.0652 116.761 39.2409C117.163 39.4166 116.791 40.8463 116.791 40.8463Z" fill="#FFBE9D"/>
<path d="M117.011 38.1055C116.933 38.311 114.655 46.0042 114.655 46.0042L115.474 46.1382L117.937 38.3676L117.011 38.1055Z" fill="#263238"/>
<path d="M116.791 45.9267C116.791 45.9267 118.193 44.646 118.295 43.8925C118.333 43.6244 118.485 40.232 118.315 40.2112C118.146 40.1903 115.957 41.5544 116.266 41.9059C116.364 42.0022 116.492 42.0628 116.629 42.0779C116.765 42.093 116.903 42.0618 117.02 41.9893C117.02 41.9893 115.617 42.7875 115.93 43.0674C116.242 43.3474 117.103 42.8471 117.103 42.8471C117.103 42.8471 115.316 43.675 115.686 44.095C116.055 44.5149 117.562 43.8508 117.562 43.8508L116.791 45.9267Z" fill="#FFBE9D"/>
<path d="M118.083 41.2744C117.822 41.5226 117.527 41.7332 117.208 41.8999C117.087 41.9795 116.96 42.0474 116.826 42.1024C116.705 42.1422 116.575 42.1422 116.454 42.1024C116.248 42.0339 116.183 41.9058 116.198 41.8969C116.213 41.888 116.305 41.9684 116.481 41.9952C116.581 42.0124 116.685 41.9999 116.779 41.9594C116.9 41.9016 117.018 41.8349 117.13 41.7599C117.423 41.5532 117.744 41.3898 118.083 41.2744Z" fill="#EB996E"/>
<path d="M118.137 42.1918C117.637 42.6122 117.075 42.9537 116.472 43.2045C116.344 43.2846 116.191 43.3133 116.043 43.2849C116.001 43.274 115.963 43.2534 115.931 43.225C115.899 43.1965 115.874 43.1609 115.858 43.1211C115.835 43.0452 115.841 42.9632 115.876 42.8918C115.93 42.7871 116.003 42.6932 116.091 42.6148C116.164 42.5396 116.241 42.469 116.323 42.4033C116.464 42.2685 116.632 42.1668 116.817 42.1055C116.683 42.2393 116.542 42.3656 116.394 42.4837C116.332 42.5433 116.266 42.6118 116.201 42.6863C116.129 42.759 116.069 42.8424 116.022 42.9335C115.983 43.0258 116.022 43.0973 116.1 43.1241C116.213 43.1378 116.327 43.1103 116.421 43.0466C117.377 42.6178 118.11 42.1531 118.137 42.1918Z" fill="#EB996E"/>
<path d="M117.919 43.3234C117.75 43.4437 117.567 43.5437 117.374 43.6213L116.779 43.9191L116.418 44.0889C116.286 44.1584 116.146 44.2124 116.001 44.2497C115.914 44.2667 115.823 44.2563 115.742 44.2199C115.7 44.2 115.663 44.1709 115.634 44.1348C115.604 44.0988 115.583 44.0566 115.572 44.0114C115.556 43.9334 115.561 43.8525 115.587 43.7771C115.613 43.7017 115.658 43.6345 115.718 43.5825C115.814 43.5009 115.919 43.4309 116.031 43.3741L116.308 43.2222C116.485 43.1112 116.674 43.0213 116.871 42.9541C116.719 43.0972 116.549 43.2195 116.365 43.3175L116.097 43.4843C115.996 43.5401 115.902 43.6071 115.817 43.6838C115.774 43.7194 115.742 43.7661 115.725 43.8187C115.708 43.8714 115.705 43.9278 115.718 43.9816C115.737 44.0311 115.774 44.0716 115.822 44.0948C115.869 44.118 115.924 44.1223 115.974 44.1067C116.106 44.0705 116.234 44.0205 116.356 43.9578L116.719 43.8L117.342 43.5349C117.524 43.4399 117.718 43.3689 117.919 43.3234Z" fill="#EB996E"/>
<path d="M87.0722 47.0851L92.6715 46.6383C92.7043 45.9831 92.6715 43.4544 92.6715 43.4544C92.6715 43.4544 95.0006 43.094 95.0274 40.7739C95.0542 38.4537 94.6522 33.0986 94.6522 33.0986C93.3287 32.5294 91.8772 32.3239 90.4477 32.5035C89.0183 32.6831 87.6627 33.2412 86.5212 34.1202L86.1757 34.3852L87.0722 47.0851Z" fill="#FFBE9D"/>
<path d="M94.1041 37.2358C94.0543 37.1907 94.019 37.1319 94.0027 37.0668C93.9863 37.0017 93.9896 36.9331 94.0122 36.8699C94.0348 36.8066 94.0756 36.7515 94.1296 36.7115C94.1835 36.6714 94.2481 36.6483 94.3151 36.6449C94.3822 36.6416 94.4488 36.6583 94.5064 36.6927C94.564 36.7272 94.6101 36.7781 94.6388 36.8387C94.6676 36.8994 94.6777 36.9673 94.6679 37.0337C94.658 37.1002 94.6287 37.1622 94.5837 37.212C94.5232 37.2787 94.4388 37.3187 94.3488 37.3232C94.2589 37.3277 94.1709 37.2962 94.1041 37.2358Z" fill="#263238"/>
<path d="M94.67 36.7024C94.6343 36.7441 94.4049 36.5684 94.0743 36.5654C93.7437 36.5624 93.5204 36.7292 93.4787 36.6875C93.437 36.6458 93.4965 36.5982 93.5978 36.5207C93.7336 36.4204 93.898 36.3662 94.0669 36.3662C94.2358 36.3662 94.4002 36.4204 94.536 36.5207C94.6522 36.6131 94.6879 36.6846 94.67 36.7024Z" fill="#263238"/>
<path d="M90.9739 36.8396C91.0303 36.8747 91.0751 36.9257 91.1027 36.9862C91.1302 37.0467 91.1391 37.114 91.1285 37.1796C91.1178 37.2452 91.0879 37.3062 91.0426 37.3548C90.9973 37.4035 90.9386 37.4376 90.8739 37.453C90.8093 37.4683 90.7415 37.4641 90.6792 37.441C90.6169 37.4179 90.5628 37.3768 90.5238 37.323C90.4848 37.2692 90.4626 37.205 90.46 37.1386C90.4574 37.0722 90.4745 37.0065 90.5092 36.9498C90.5566 36.8739 90.6319 36.8198 90.7189 36.7992C90.8059 36.7786 90.8975 36.7931 90.9739 36.8396Z" fill="#263238"/>
<path d="M91.1853 36.8424C91.1496 36.8811 90.9202 36.7054 90.5896 36.7054C90.259 36.7054 90.0356 36.8692 89.994 36.8275C89.9523 36.7858 90.0118 36.7352 90.1131 36.6577C90.2505 36.5605 90.4153 36.5094 90.5837 36.5118C90.7526 36.5118 90.9169 36.5672 91.0513 36.6697C91.1704 36.7441 91.2032 36.8245 91.1853 36.8424Z" fill="#263238"/>
<path d="M92.472 39.4873C92.6373 39.4218 92.8125 39.3845 92.9902 39.3771C93.0736 39.3771 93.1421 39.3503 93.1481 39.3056C93.1509 39.2209 93.1291 39.1371 93.0855 39.0644C93.0051 38.8529 92.9217 38.6385 92.8324 38.4121C92.4839 37.4829 92.2367 36.7174 92.2843 36.6995C92.332 36.6817 92.6537 37.4203 93.0051 38.3466C93.0855 38.5759 93.1659 38.7904 93.2434 39.0048C93.2982 39.1122 93.315 39.2351 93.291 39.3533C93.2787 39.3853 93.2591 39.4141 93.2337 39.4374C93.2084 39.4606 93.1781 39.4777 93.1451 39.4873C93.0988 39.5012 93.0504 39.5072 93.0021 39.5052C92.8256 39.5285 92.6465 39.5225 92.472 39.4873Z" fill="#263238"/>
<path d="M92.6626 43.4223C91.5876 43.4421 90.5311 43.1414 89.6276 42.5586C89.6276 42.5586 90.3454 44.2354 92.6685 44.0269L92.6626 43.4223Z" fill="#EB996E"/>
<path d="M94.262 32.5212C94.3954 32.5097 94.5244 32.4678 94.639 32.3985C94.7536 32.3292 94.8507 32.2344 94.9228 32.1216C94.9949 32.0088 95.0401 31.8809 95.0548 31.7478C95.0695 31.6147 95.0535 31.48 95.0078 31.3541C94.9621 31.2282 94.8881 31.1145 94.7915 31.0218C94.6948 30.9292 94.5781 30.86 94.4504 30.8196C94.3228 30.7792 94.1875 30.7688 94.0551 30.7891C93.9228 30.8094 93.7969 30.8599 93.6872 30.9367C93.9506 30.6909 94.1596 30.3926 94.3007 30.061C94.3663 29.8935 94.3798 29.71 94.3395 29.5346C94.2991 29.3592 94.2067 29.2001 94.0743 29.0782C93.9226 28.9861 93.7485 28.9375 93.571 28.9375C93.3935 28.9375 93.2194 28.9861 93.0677 29.0782C92.5881 29.3164 92.2248 29.7572 91.7304 29.9717C91.2359 30.1861 90.6641 30.1266 90.122 30.1831C89.5193 30.2328 88.9474 30.4703 88.4869 30.8622C88.2607 31.061 88.0841 31.3101 87.9714 31.5893C87.8587 31.8686 87.8128 32.1704 87.8376 32.4705C87.0751 32.4229 86.2352 32.4705 85.6664 32.9739C85.4389 33.2031 85.2649 33.4798 85.1567 33.784C85.0486 34.0883 85.0091 34.4128 85.0409 34.7341C85.0796 35.3775 85.3834 35.9701 85.6098 36.5748C85.6641 36.7479 85.7533 36.908 85.8719 37.0453L86.2561 38.6894L87.2896 38.606L87.0066 35.1481C87.0066 35.1481 86.813 33.6947 88.0789 33.7453C89.3447 33.7959 91.1347 35.1064 93.5591 34.5971C93.9575 34.5513 94.3403 34.4159 94.679 34.201C94.8419 34.083 94.9703 33.9235 95.051 33.7392C95.1316 33.5549 95.1615 33.3524 95.1376 33.1526C95.1047 32.953 94.9942 32.7745 94.8301 32.6562C94.666 32.5379 94.4618 32.4894 94.262 32.5212Z" fill="#263238"/>
<path d="M86.1578 36.6312C86.1072 36.6133 84.4214 36.5001 84.7014 38.4629C84.9813 40.4257 86.8726 39.4934 86.8667 39.4368C86.8607 39.3802 86.1578 36.6312 86.1578 36.6312Z" fill="#FFBE9D"/>
<path d="M86.1667 38.8298C86.1667 38.8298 86.137 38.8566 86.0833 38.8923C86.0064 38.9384 85.9148 38.9533 85.8272 38.934C85.6895 38.8714 85.5709 38.7733 85.4835 38.6498C85.3961 38.5263 85.3431 38.3818 85.3298 38.2311C85.2997 38.0637 85.3079 37.8916 85.3536 37.7278C85.3647 37.6644 85.3904 37.6045 85.4287 37.5528C85.4669 37.5011 85.5167 37.4591 85.574 37.4299C85.6118 37.4142 85.6539 37.4121 85.6931 37.4241C85.7322 37.436 85.766 37.4613 85.7885 37.4955C85.8242 37.5461 85.8183 37.5878 85.8272 37.5908C85.8361 37.5938 85.8659 37.5521 85.8272 37.4716C85.8081 37.4256 85.7747 37.387 85.7319 37.3614C85.6721 37.3278 85.6014 37.3192 85.5353 37.3376C85.457 37.3652 85.387 37.4122 85.3318 37.4742C85.2766 37.5362 85.238 37.6111 85.2196 37.692C85.1613 37.8748 85.148 38.0689 85.1809 38.2579C85.1961 38.4338 85.2631 38.6011 85.3733 38.739C85.4836 38.8768 85.6322 38.9788 85.8004 39.0323C85.854 39.0396 85.9086 39.0348 85.9601 39.0183C86.0116 39.0018 86.0588 38.9741 86.0982 38.937C86.1727 38.8834 86.1757 38.8298 86.1667 38.8298Z" fill="#EB996E"/>
<path d="M105.059 51.0139C102.509 49.7034 100.701 48.929 99.3104 48.0355C94.9798 45.2567 93.839 45.8702 92.8204 45.7451C90.8819 46.3562 88.8022 46.3562 86.8637 45.7451C85.2821 45.8136 84.4124 46.0876 83.4445 46.6833C82.0194 47.5749 80.8577 48.8302 80.0789 50.3199L76.6567 56.229L82.4199 61.5901L83.2628 60.2737C83.2628 60.2737 83.2122 62.6296 83.2211 62.2305L82.9977 73.3042H100.481L98.9917 63.6929L98.0713 55.2849L102.741 57.617L105.047 51.0109" fill="#073D51"/>
<path d="M75.2658 48.5929L70.7536 48.0627C70.7536 48.0627 70.5927 44.4887 71.2569 44.3517C71.2569 44.3517 71.6501 44.3815 71.6084 44.6495C71.6084 44.6495 71.7811 44.1074 72.204 44.2028C72.627 44.2981 72.5614 44.8401 72.5614 44.8401C72.5614 44.8401 73.0052 40.9474 73.5384 41.0397C74.006 41.1231 73.8541 41.5073 73.5652 44.1223C73.5652 44.1223 73.4699 45.3465 73.7081 45.1201C73.9464 44.8937 74.6404 42.5021 74.9173 41.9422C75.0663 41.6443 75.4981 42.0077 75.3135 42.7523C75.1586 43.3718 74.7178 45.0635 74.7714 45.3971C74.7958 45.4906 74.834 45.5799 74.8846 45.6622C75.0097 45.823 75.3224 46.2787 75.3224 47.2377C75.3224 47.5088 75.2747 48.581 75.2747 48.581" fill="#FFBE9D"/>
<path d="M74.3604 48.1514C74.1213 48.0193 73.9075 47.8459 73.729 47.6391C73.523 47.427 73.3366 47.1967 73.172 46.9511C73.0729 46.8061 72.9814 46.656 72.898 46.5014C72.7873 46.3334 72.7226 46.1393 72.7104 45.9385C72.7133 45.8688 72.7361 45.8014 72.7763 45.7444C72.8164 45.6873 72.8721 45.643 72.9367 45.6168C73.0587 45.5873 73.1871 45.6009 73.3001 45.6555C73.486 45.7337 73.662 45.8337 73.8243 45.9534C74.0836 46.1443 74.3032 46.3841 74.4706 46.6592H74.3872C74.4537 46.5247 74.5506 46.4074 74.6701 46.3167C74.7535 46.2572 74.8072 46.2363 74.8101 46.2452C74.6717 46.3748 74.5577 46.5281 74.4736 46.698L74.4378 46.7724L74.3902 46.7039C74.1036 46.294 73.7057 45.9747 73.2435 45.7836C73.1641 45.7446 73.074 45.7331 72.9874 45.7508C72.9506 45.7672 72.9194 45.7939 72.8977 45.8278C72.876 45.8617 72.8647 45.9012 72.8652 45.9414C72.8825 46.1112 72.9396 46.2745 73.032 46.418C73.1154 46.5758 73.2018 46.7158 73.2912 46.8588C73.4477 47.1018 73.6208 47.3337 73.8094 47.5527C74.137 47.937 74.3753 48.1335 74.3604 48.1514Z" fill="#EB996E"/>
<path d="M72.5108 45.1074C72.5843 45.3661 72.6322 45.6315 72.6538 45.8996C72.6895 46.1617 72.7282 46.4536 72.7699 46.7663C72.7989 46.9395 72.8118 47.115 72.8087 47.2905C72.8059 47.402 72.7612 47.5083 72.6836 47.5884C72.6411 47.6355 72.5847 47.6679 72.5225 47.6808C72.4604 47.6936 72.3958 47.6863 72.3381 47.6598C72.2539 47.6002 72.1824 47.5245 72.1277 47.4371C72.073 47.3497 72.0362 47.2523 72.0194 47.1505C71.9658 46.9778 71.9241 46.811 71.8883 46.6502C71.8139 46.3255 71.7632 46.0336 71.7215 45.7894C71.6651 45.5266 71.6302 45.2597 71.6173 44.9912C71.717 45.2417 71.7889 45.5024 71.8317 45.7686C71.8853 46.0098 71.9479 46.2987 72.0253 46.6144C72.067 46.7723 72.1117 46.9391 72.1653 47.1059C72.2189 47.2727 72.2815 47.4573 72.4036 47.5169C72.5257 47.5765 72.6538 47.4365 72.6597 47.2816C72.6607 47.1152 72.6497 46.949 72.627 46.7842C72.5972 46.4705 72.5704 46.1816 72.5466 45.9175C72.5085 45.6492 72.4966 45.3779 72.5108 45.1074Z" fill="#EB996E"/>
<path d="M71.8168 46.2397C71.9197 46.3722 71.9724 46.5368 71.9658 46.7043C71.9728 46.7876 71.9728 46.8713 71.9658 46.9545C71.9564 47.0614 71.9195 47.164 71.8585 47.2524C71.838 47.2814 71.8114 47.3055 71.7805 47.323C71.7496 47.3405 71.7152 47.3509 71.6798 47.3536C71.6429 47.3543 71.6063 47.3467 71.5728 47.3312C71.5392 47.3157 71.5097 47.2928 71.4862 47.2643C71.4169 47.1712 71.3571 47.0714 71.3075 46.9664C71.0325 46.4829 70.8983 45.9319 70.9203 45.376C71.0504 45.8966 71.2258 46.4049 71.4445 46.895C71.4878 46.988 71.5396 47.0767 71.5994 47.16C71.653 47.2226 71.6947 47.2196 71.7483 47.16C71.8271 47.0233 71.8682 46.8681 71.8675 46.7103C71.8645 46.4214 71.79 46.2486 71.8168 46.2397Z" fill="#EB996E"/>
<path d="M74.274 48.476C74.274 48.4999 74.1072 48.4433 73.8451 48.4373C73.696 48.4317 73.548 48.4656 73.4162 48.5356C73.2565 48.6221 73.1314 48.7609 73.0618 48.9288L72.9725 49.1343L72.9129 48.9168C72.898 48.8632 72.8831 48.8037 72.8622 48.7441C72.7322 48.3784 72.4982 48.0585 72.1891 47.8238C71.9509 47.6421 71.7692 47.5766 71.7781 47.5527C71.9502 47.5663 72.1147 47.6294 72.2517 47.7344C72.6055 47.9588 72.8723 48.2971 73.0082 48.6935C73.032 48.759 73.0469 48.8215 73.0648 48.8841H72.9159C73.0016 48.6826 73.157 48.5187 73.3537 48.4224C73.5078 48.3466 73.681 48.3186 73.8511 48.342C74.0022 48.3436 74.1495 48.3903 74.274 48.476Z" fill="#EB996E"/>
<path d="M91.1794 35.3982C91.1109 35.5113 90.7594 35.419 90.3424 35.4309C89.9255 35.4428 89.58 35.5292 89.5085 35.4309C89.4757 35.3773 89.5323 35.2701 89.6783 35.1688C89.875 35.0439 90.1034 34.9778 90.3365 34.9782C90.5703 34.9703 90.8013 35.0314 91.0007 35.1539C91.1496 35.2552 91.2091 35.3446 91.1794 35.3982Z" fill="#263238"/>
<path d="M94.3245 35.6095C94.2531 35.7197 94.0505 35.7227 93.842 35.7554C93.6335 35.7882 93.434 35.8299 93.3387 35.7554C93.294 35.7108 93.3 35.6184 93.3744 35.5231C93.4786 35.4043 93.6221 35.3272 93.7786 35.3058C93.9351 35.2845 94.0941 35.3204 94.2262 35.407C94.3245 35.4695 94.3543 35.5529 94.3245 35.6095Z" fill="#263238"/>
<path d="M89.1808 37.1789C89.1612 37.0971 89.1531 37.0128 89.157 36.9287C89.157 36.7351 89.1421 36.5058 89.1332 36.2288V36.1812H89.1808C89.854 36.1663 90.8607 36.1543 92.0163 36.1514H92.0937V37.0449C92.1165 37.3697 92.0374 37.6935 91.8674 37.9712C91.7605 38.144 91.6189 38.2928 91.4517 38.4082C91.2844 38.5237 91.0951 38.6032 90.8956 38.6418C90.6961 38.6804 90.4907 38.6773 90.2925 38.6326C90.0943 38.5879 89.9074 38.5027 89.7438 38.3822C89.4684 38.1795 89.2749 37.8846 89.1987 37.5512C89.1789 37.4623 89.1699 37.3713 89.1719 37.2802C89.1719 37.2176 89.1719 37.1878 89.1719 37.1878C89.1719 37.1878 89.1719 37.3159 89.2494 37.5363C89.3396 37.844 89.5331 38.1112 89.7974 38.2928C90.0106 38.4413 90.2619 38.5256 90.5215 38.5358C90.7812 38.5461 91.0383 38.4818 91.2625 38.3505C91.4868 38.2193 91.6688 38.0266 91.7871 37.7953C91.9053 37.5639 91.9549 37.3035 91.9299 37.0449V36.2377L92.0073 36.3122C90.8517 36.3122 89.845 36.3122 89.1719 36.2824L89.2196 36.2377C89.2196 36.5147 89.2196 36.7441 89.1987 36.9377C89.203 37.0185 89.197 37.0996 89.1808 37.1789Z" fill="#455A64"/>
<path d="M92.9515 37.1789C92.9316 37.0971 92.9226 37.0129 92.9247 36.9287C92.9247 36.7351 92.9247 36.5058 92.9038 36.2288V36.1812H92.9545C93.6246 36.1663 94.6313 36.1543 95.7869 36.1514H95.8644V37.0449C95.8867 37.3692 95.8087 37.6926 95.641 37.9712C95.4794 38.2297 95.2424 38.4324 94.9619 38.552C94.7263 38.6501 94.4694 38.686 94.216 38.6562C93.9625 38.6265 93.7209 38.5321 93.5144 38.3822C93.2385 38.1805 93.0458 37.885 92.9723 37.5512C92.9504 37.4626 92.9403 37.3714 92.9426 37.2802C92.9426 37.2176 92.9426 37.1878 92.9426 37.1878C92.9426 37.1878 92.9426 37.3159 93.017 37.5363C93.1096 37.8428 93.3026 38.1093 93.565 38.2928C93.7783 38.4413 94.0296 38.5256 94.2892 38.5358C94.5488 38.5461 94.806 38.4818 95.0302 38.3505C95.2545 38.2193 95.4365 38.0266 95.5547 37.7953C95.673 37.5639 95.7226 37.3035 95.6976 37.0449C95.6976 36.7679 95.6976 36.4969 95.6976 36.2377L95.772 36.3122C94.6164 36.3122 93.6097 36.3122 92.9396 36.2824L92.9843 36.2377C92.9843 36.5147 92.9694 36.7441 92.9634 36.9377C92.9686 37.0183 92.9646 37.0992 92.9515 37.1789Z" fill="#455A64"/>
<path d="M92.9366 36.9593C92.9366 37.001 92.7281 37.0367 92.466 37.0367C92.2039 37.0367 91.9984 37.001 91.9984 36.9593C91.9984 36.9176 92.2069 36.8818 92.466 36.8818C92.7251 36.8818 92.9366 36.9146 92.9366 36.9593Z" fill="#455A64"/>
<path d="M89.16 36.6614C88.0097 36.7647 86.8524 36.7647 85.7021 36.6614C86.8524 36.5582 88.0097 36.5582 89.16 36.6614Z" fill="#455A64"/>
<path d="M92.7936 40.3181C92.7936 40.336 92.7073 40.3807 92.5435 40.3986C92.3289 40.4168 92.113 40.3821 91.915 40.2973C91.7163 40.2144 91.5421 40.0821 91.4087 39.9131C91.3104 39.782 91.2806 39.6837 91.2955 39.6748C91.5027 39.8615 91.7317 40.0226 91.9776 40.1543C92.2422 40.241 92.5161 40.296 92.7936 40.3181Z" fill="#263238"/>
<path d="M86.2561 39.6808C86.2739 39.6808 86.2978 39.8059 86.1727 39.9429C86.0945 40.025 85.988 40.074 85.8748 40.0799C85.8062 40.0833 85.7378 40.0698 85.6755 40.0408C85.6132 40.0117 85.559 39.9679 85.5174 39.9132C85.4731 39.8608 85.4419 39.7987 85.4263 39.7318C85.4108 39.665 85.4114 39.5955 85.4281 39.5289C85.4593 39.4236 85.5282 39.3335 85.6217 39.2758C85.7855 39.1835 85.9046 39.2311 85.8957 39.249C85.8868 39.2669 85.7944 39.2728 85.6872 39.3651C85.6545 39.3915 85.6274 39.4241 85.6073 39.461C85.5873 39.4979 85.5747 39.5384 85.5702 39.5801C85.5658 39.6219 85.5696 39.6641 85.5815 39.7044C85.5934 39.7447 85.6132 39.7822 85.6396 39.8149C85.666 39.8475 85.6985 39.8747 85.7354 39.8947C85.7723 39.9148 85.8128 39.9274 85.8546 39.9318C85.8963 39.9363 85.9385 39.9324 85.9788 39.9205C86.0191 39.9086 86.0566 39.8889 86.0893 39.8625C86.2114 39.7762 86.2412 39.6779 86.2561 39.6808Z" fill="#263238"/>
<path d="M92.4958 74.3587C92.4958 74.3825 92.3171 74.4093 92.2158 74.6565C92.1864 74.7189 92.1711 74.7871 92.1711 74.8561C92.1711 74.9251 92.1864 74.9932 92.2158 75.0556C92.2597 75.125 92.3237 75.1793 92.3993 75.2113C92.4749 75.2432 92.5585 75.2513 92.6388 75.2343C92.7195 75.2258 92.7956 75.1926 92.8569 75.1393C92.9182 75.0861 92.9616 75.0153 92.9813 74.9365C92.9906 74.8679 92.9845 74.798 92.9634 74.7321C92.9422 74.6661 92.9066 74.6057 92.8592 74.5553C92.6894 74.3646 92.4988 74.3974 92.5017 74.3706C92.5047 74.3438 92.5405 74.3408 92.6239 74.3408C92.7413 74.3471 92.8524 74.3958 92.9366 74.4778C93.0034 74.5374 93.0552 74.6118 93.0878 74.6951C93.1204 74.7785 93.1329 74.8683 93.1242 74.9573C93.0991 75.0668 93.0419 75.1663 92.96 75.2432C92.8782 75.32 92.7753 75.3708 92.6644 75.389C92.5536 75.4072 92.4399 75.392 92.3377 75.3454C92.2356 75.2987 92.1496 75.2228 92.0907 75.1271C92.0538 75.0454 92.0367 74.9562 92.0409 74.8666C92.045 74.7771 92.0703 74.6898 92.1146 74.6119C92.1698 74.5084 92.2593 74.4273 92.3677 74.3825C92.4392 74.3408 92.4958 74.3498 92.4958 74.3587Z" fill="#455A64"/>
<path d="M85.848 55.6602C85.7331 55.9706 85.5895 56.2698 85.4191 56.5537C85.1213 57.0957 84.7252 57.8344 84.2486 58.6385C83.7721 59.4427 83.3194 60.1545 82.9798 60.6639C82.8104 60.9488 82.6171 61.2188 82.402 61.471C82.5431 61.1719 82.7053 60.8832 82.8875 60.6073L84.1146 58.5611L85.3238 56.503C85.4796 56.2107 85.6548 55.9291 85.848 55.6602Z" fill="#263238"/>
<path d="M98.2381 58.564C98.1926 58.2683 98.1677 57.9697 98.1637 57.6705C98.119 57.0748 98.0624 56.3124 98.0028 55.4844C97.9433 54.6564 97.8926 53.8522 97.8867 53.2893C97.8657 52.9851 97.8777 52.6795 97.9224 52.3779C97.9667 52.6788 97.9916 52.9822 97.9969 53.2863C98.0416 53.882 98.0952 54.6415 98.1577 55.4725C98.2203 56.3034 98.2679 57.1017 98.2739 57.6646C98.2923 57.9648 98.2803 58.2662 98.2381 58.564Z" fill="#263238"/>
<path opacity="0.3" d="M86.7356 54.0078L83.2122 65.4984L83.2628 60.2773L86.7356 54.0078Z" fill="#0C0C0C"/>
<path opacity="0.3" d="M98.0088 54.5049C98.0088 54.5049 102.179 56.8191 103.435 55.6605L102.753 57.6203L98.0833 55.2882L98.0088 54.5049Z" fill="#0C0C0C"/>
<path d="M91.09 52.8038C91.0483 52.8038 90.9024 51.3354 90.7683 49.5275C90.6343 47.7197 90.5569 46.2335 90.6016 46.2305C90.6462 46.2275 90.7862 47.6988 90.9232 49.5067C91.0602 51.3146 91.1317 52.8008 91.09 52.8038Z" fill="#263238"/>
<path d="M91.3045 46.9988C91.3193 47.0197 91.227 47.0763 91.2121 47.2192C91.2065 47.2572 91.2089 47.2958 91.2191 47.3328C91.2294 47.3697 91.2473 47.4041 91.2717 47.4337C91.3031 47.465 91.3427 47.4866 91.386 47.4961C91.4292 47.5056 91.4743 47.5026 91.5159 47.4873C91.5588 47.4773 91.598 47.4551 91.6286 47.4234C91.6592 47.3917 91.6801 47.3518 91.6887 47.3086C91.6923 47.2703 91.6877 47.2317 91.6754 47.1952C91.6631 47.1588 91.6433 47.1254 91.6172 47.0971C91.5248 46.9839 91.4176 46.9899 91.4176 46.9661C91.4176 46.9422 91.5427 46.8916 91.6946 47.0167C91.738 47.053 91.7725 47.0987 91.7957 47.1503C91.8189 47.2019 91.8302 47.258 91.8287 47.3145C91.8185 47.3851 91.7875 47.4511 91.7398 47.5042C91.6921 47.5572 91.6297 47.5948 91.5606 47.6124C91.4907 47.6364 91.4152 47.6387 91.344 47.6191C91.2728 47.5994 91.2091 47.5587 91.1615 47.5022C91.1271 47.4558 91.1041 47.402 91.0942 47.3451C91.0844 47.2882 91.0881 47.2298 91.1049 47.1746C91.1704 47.0078 91.3045 46.978 91.3045 46.9988Z" fill="#263238"/>
<path d="M91.5159 49.659C91.5159 49.6798 91.4355 49.7364 91.4206 49.8794C91.412 49.9559 91.4333 50.0327 91.4802 50.0938C91.5115 50.1251 91.5512 50.1468 91.5945 50.1563C91.6377 50.1658 91.6828 50.1627 91.7244 50.1474C91.7673 50.1374 91.8064 50.1152 91.8371 50.0835C91.8677 50.0518 91.8886 50.012 91.8971 49.9687C91.9032 49.8911 91.8787 49.8141 91.8286 49.7543C91.7363 49.6441 91.6291 49.6501 91.6261 49.6262C91.6231 49.6024 91.7512 49.5518 91.9061 49.6769C91.9488 49.7137 91.9829 49.7595 92.006 49.811C92.0292 49.8624 92.0408 49.9183 92.0401 49.9747C92.0293 50.0473 91.9981 50.1152 91.9501 50.1707C91.9021 50.2262 91.8394 50.267 91.7692 50.2882C91.699 50.3094 91.6242 50.3102 91.5535 50.2906C91.4828 50.271 91.4192 50.2316 91.37 50.1772C91.3351 50.1311 91.3111 50.0776 91.2997 50.0209C91.2884 49.9642 91.29 49.9056 91.3044 49.8496C91.37 49.665 91.5159 49.6381 91.5159 49.659Z" fill="#263238"/>
<path d="M81.0231 60.2922C80.932 60.417 80.8325 60.5354 80.7252 60.6466C80.473 60.9741 80.2374 61.3141 80.0193 61.6652C79.6616 62.1717 79.2413 62.6311 78.7684 63.0323C78.1925 63.5447 77.4791 63.8771 76.7163 63.9883C75.9438 64.0626 75.1692 63.8703 74.5212 63.4433C73.9979 63.1023 73.5523 62.6547 73.2137 62.1298C72.9847 61.7815 72.795 61.4089 72.6478 61.0189C72.5943 60.8748 72.5583 60.7248 72.5406 60.5721C72.5406 60.5721 72.6091 60.7181 72.7282 60.9861C72.8945 61.3605 73.0939 61.7194 73.3239 62.0583C73.6653 62.5607 74.1063 62.9875 74.6195 63.3122C75.2365 63.7207 75.973 63.9095 76.7103 63.8484C77.4438 63.7391 78.1309 63.4229 78.691 62.937C79.1581 62.5465 79.578 62.1027 79.9419 61.6146C80.1699 61.2677 80.4206 60.9364 80.6925 60.6228C80.7907 60.5155 80.8712 60.4351 80.9277 60.3815C80.9843 60.3279 81.0201 60.2892 81.0231 60.2922Z" fill="#EB996E"/>
<path d="M143.498 111.079C142.711 112.201 141.187 111.829 140.481 111.144C139.775 110.459 139.474 109.47 139.203 108.526C138.58 106.367 137.955 104.1 138.417 101.899C138.53 101.237 138.822 100.619 139.262 100.112C139.488 99.8619 139.774 99.6752 140.094 99.5706C140.414 99.4661 140.756 99.4474 141.085 99.5165C141.854 99.719 142.33 100.473 142.676 101.19C143.694 103.304 144.227 105.619 144.236 107.966C144.236 109.056 144.111 110.203 143.498 111.102" fill="#073D51"/>
<g opacity="0.2">
<path d="M143.498 111.079C142.711 112.201 141.187 111.829 140.481 111.144C139.775 110.459 139.474 109.47 139.203 108.526C138.58 106.367 137.955 104.1 138.417 101.899C138.53 101.237 138.822 100.619 139.262 100.112C139.488 99.8619 139.774 99.6752 140.094 99.5706C140.414 99.4661 140.756 99.4474 141.085 99.5165C141.854 99.719 142.33 100.473 142.676 101.19C143.694 103.304 144.227 105.619 144.236 107.966C144.236 109.056 144.111 110.203 143.498 111.102" fill="#0C0C0C"/>
</g>
<path d="M140.558 116.755C139.274 116.091 137.764 116.004 136.338 116.24C135.575 116.368 134.777 116.597 134.253 117.172C133.729 117.747 133.633 118.757 134.232 119.257C134.617 119.519 135.082 119.637 135.545 119.59C136.659 119.59 137.895 119.382 138.789 120.052C139.295 120.436 139.635 121.071 140.242 121.258C140.546 121.329 140.865 121.299 141.15 121.172C141.434 121.045 141.67 120.828 141.821 120.555C142.112 119.997 142.176 119.349 142 118.745C141.93 118.324 141.763 117.925 141.513 117.58C141.263 117.235 140.936 116.952 140.558 116.755Z" fill="#073D51"/>
<path d="M145.651 112.693C144.799 111.683 144.638 110.209 145.017 108.943C145.395 107.677 146.253 106.599 147.239 105.717C148.4 104.684 149.752 103.887 151.218 103.37C151.785 103.144 152.395 103.043 153.005 103.073C153.307 103.09 153.6 103.181 153.859 103.337C154.118 103.492 154.336 103.708 154.494 103.966C154.914 104.764 154.512 105.732 154.077 106.524C153.313 107.918 152.441 109.25 151.468 110.507C150.685 111.516 149.788 112.514 148.594 112.97C147.399 113.425 146.16 113.372 145.529 112.544" fill="#073D51"/>
<path d="M143.548 127.981C143.506 127.814 143.483 127.643 143.48 127.471C143.441 127.102 143.396 126.637 143.343 126.083C143.274 125.399 143.17 124.719 143.03 124.046C142.849 123.225 142.601 122.42 142.289 121.64C141.984 120.86 141.57 120.127 141.061 119.462C140.647 118.922 140.116 118.482 139.51 118.173C139.098 117.97 138.657 117.832 138.202 117.765C138.03 117.759 137.859 117.734 137.693 117.69C137.865 117.672 138.039 117.672 138.211 117.69C138.683 117.724 139.144 117.844 139.572 118.045C140.212 118.346 140.773 118.791 141.21 119.346C141.744 120.019 142.174 120.768 142.485 121.568C142.801 122.359 143.047 123.177 143.221 124.01C143.352 124.692 143.443 125.382 143.492 126.074C143.536 126.67 143.551 127.144 143.56 127.474C143.574 127.643 143.57 127.813 143.548 127.981Z" fill="#263238"/>
<path d="M143.453 126.912C143.444 126.833 143.444 126.755 143.453 126.676V126C143.453 125.405 143.453 124.565 143.423 123.519C143.373 121.434 143.191 118.53 142.828 115.353C142.464 112.175 142.012 109.309 141.589 107.257C141.487 106.742 141.386 106.28 141.291 105.875C141.195 105.47 141.124 105.119 141.05 104.836C140.975 104.553 140.933 104.35 140.892 104.178C140.868 104.102 140.854 104.024 140.85 103.945C140.886 104.015 140.913 104.089 140.93 104.166C140.984 104.335 141.05 104.55 141.127 104.815C141.204 105.08 141.303 105.443 141.407 105.848C141.511 106.254 141.624 106.712 141.732 107.227C142.312 109.902 142.748 112.607 143.036 115.329C143.388 118.516 143.542 121.414 143.557 123.516C143.557 124.565 143.557 125.417 143.522 126.003C143.504 126.277 143.489 126.501 143.48 126.679C143.482 126.758 143.473 126.836 143.453 126.912Z" fill="#263238"/>
<path d="M143.426 121.33C143.409 121.095 143.409 120.86 143.426 120.625C143.453 120.172 143.516 119.517 143.644 118.712C143.798 117.773 144.005 116.844 144.263 115.928C144.573 114.802 144.963 113.7 145.431 112.631C146.238 110.662 147.397 108.857 148.85 107.302C149.102 107.037 149.371 106.787 149.654 106.555C149.779 106.45 149.886 106.346 150 106.257L150.297 106.039C150.485 105.897 150.685 105.771 150.893 105.661C150.207 106.198 149.557 106.778 148.945 107.398C147.552 108.963 146.434 110.754 145.639 112.693C145.178 113.759 144.787 114.853 144.469 115.969C144.201 116.877 143.981 117.797 143.808 118.727C143.662 119.523 143.578 120.172 143.528 120.622C143.512 120.86 143.478 121.097 143.426 121.33Z" fill="#263238"/>
</svg>
