<svg width="218" height="30" viewBox="0 0 218 30" fill="none" xmlns="http://www.w3.org/2000/svg">
<path d="M105.25 27.5H112.75C119 27.5 121.5 25 121.5 18.75V11.25C121.5 5 119 2.5 112.75 2.5H105.25C99 2.5 96.5 5 96.5 11.25V18.75C96.5 25 99 27.5 105.25 27.5Z" stroke="#073D51" stroke-width="1.5" stroke-linecap="round" stroke-linejoin="round"/>
<path d="M110.942 17.986C111.058 17.986 111.15 18.02 111.218 18.088C111.286 18.156 111.32 18.244 111.32 18.352V19H105.584V18.634C105.584 18.558 105.6 18.48 105.632 18.4C105.664 18.32 105.714 18.246 105.782 18.178L108.536 15.412C108.764 15.18 108.972 14.958 109.16 14.746C109.348 14.53 109.508 14.314 109.64 14.098C109.772 13.882 109.874 13.664 109.946 13.444C110.018 13.22 110.054 12.982 110.054 12.73C110.054 12.478 110.014 12.258 109.934 12.07C109.854 11.878 109.744 11.72 109.604 11.596C109.468 11.472 109.306 11.38 109.118 11.32C108.93 11.256 108.728 11.224 108.512 11.224C108.292 11.224 108.09 11.256 107.906 11.32C107.722 11.384 107.558 11.474 107.414 11.59C107.274 11.702 107.156 11.836 107.06 11.992C106.964 12.148 106.896 12.32 106.856 12.508C106.808 12.648 106.742 12.742 106.658 12.79C106.578 12.834 106.464 12.846 106.316 12.826L105.758 12.73C105.814 12.338 105.922 11.992 106.082 11.692C106.246 11.388 106.45 11.134 106.694 10.93C106.942 10.726 107.224 10.572 107.54 10.468C107.856 10.36 108.198 10.306 108.566 10.306C108.93 10.306 109.27 10.36 109.586 10.468C109.902 10.576 110.176 10.734 110.408 10.942C110.64 11.146 110.822 11.396 110.954 11.692C111.086 11.988 111.152 12.324 111.152 12.7C111.152 13.02 111.104 13.318 111.008 13.594C110.912 13.866 110.782 14.126 110.618 14.374C110.454 14.622 110.264 14.864 110.048 15.1C109.836 15.336 109.61 15.574 109.37 15.814L107.102 18.13C107.262 18.086 107.424 18.052 107.588 18.028C107.752 18 107.91 17.986 108.062 17.986H110.942Z" fill="#073D51"/>
<path d="M20.4562 2H9.55677C4.82241 2 2 4.821 2 9.553V20.434C2 25.179 4.82241 28 9.55677 28H20.4432C25.1775 28 28 25.179 28 20.447V9.553C28.013 4.821 25.1906 2 20.4562 2ZM21.2236 12.01L13.8489 19.381C13.6668 19.563 13.4197 19.667 13.1596 19.667C12.8994 19.667 12.6523 19.563 12.4702 19.381L8.78938 15.702C8.41219 15.325 8.41219 14.701 8.78938 14.324C9.16657 13.947 9.79088 13.947 10.1681 14.324L13.1596 17.314L19.8449 10.632C20.2221 10.255 20.8464 10.255 21.2236 10.632C21.6008 11.009 21.6008 11.62 21.2236 12.01Z" fill="#073D51"/>
<path d="M199.25 27.5H206.75C213 27.5 215.5 25 215.5 18.75V11.25C215.5 5 213 2.5 206.75 2.5H199.25C193 2.5 190.5 5 190.5 11.25V18.75C190.5 25 193 27.5 199.25 27.5Z" stroke="#073D51" stroke-width="1.5" stroke-linecap="round" stroke-linejoin="round"/>
<path d="M199.8 12.73C199.856 12.338 199.964 11.992 200.124 11.692C200.284 11.388 200.486 11.134 200.73 10.93C200.978 10.726 201.26 10.572 201.576 10.468C201.896 10.36 202.24 10.306 202.608 10.306C202.972 10.306 203.308 10.358 203.616 10.462C203.924 10.566 204.188 10.714 204.408 10.906C204.632 11.098 204.806 11.33 204.93 11.602C205.054 11.874 205.116 12.176 205.116 12.508C205.116 12.78 205.08 13.024 205.008 13.24C204.94 13.452 204.84 13.638 204.708 13.798C204.58 13.958 204.424 14.094 204.24 14.206C204.056 14.318 203.85 14.41 203.622 14.482C204.182 14.626 204.602 14.874 204.882 15.226C205.166 15.574 205.308 16.01 205.308 16.534C205.308 16.93 205.232 17.286 205.08 17.602C204.932 17.918 204.728 18.188 204.468 18.412C204.208 18.632 203.904 18.802 203.556 18.922C203.212 19.038 202.842 19.096 202.446 19.096C201.99 19.096 201.6 19.04 201.276 18.928C200.952 18.812 200.678 18.654 200.454 18.454C200.23 18.254 200.046 18.018 199.902 17.746C199.758 17.47 199.636 17.172 199.536 16.852L199.998 16.66C200.118 16.608 200.234 16.594 200.346 16.618C200.462 16.642 200.546 16.708 200.598 16.816C200.65 16.928 200.714 17.062 200.79 17.218C200.87 17.374 200.978 17.524 201.114 17.668C201.25 17.812 201.422 17.934 201.63 18.034C201.842 18.134 202.11 18.184 202.434 18.184C202.734 18.184 202.996 18.136 203.22 18.04C203.448 17.94 203.636 17.812 203.784 17.656C203.936 17.5 204.05 17.326 204.126 17.134C204.202 16.942 204.24 16.752 204.24 16.564C204.24 16.332 204.21 16.12 204.15 15.928C204.09 15.736 203.978 15.57 203.814 15.43C203.65 15.29 203.424 15.18 203.136 15.1C202.852 15.02 202.486 14.98 202.038 14.98V14.206C202.406 14.202 202.718 14.162 202.974 14.086C203.234 14.01 203.444 13.906 203.604 13.774C203.768 13.642 203.886 13.484 203.958 13.3C204.034 13.116 204.072 12.912 204.072 12.688C204.072 12.44 204.032 12.224 203.952 12.04C203.876 11.856 203.77 11.704 203.634 11.584C203.498 11.464 203.336 11.374 203.148 11.314C202.964 11.254 202.764 11.224 202.548 11.224C202.332 11.224 202.13 11.256 201.942 11.32C201.758 11.384 201.594 11.474 201.45 11.59C201.31 11.702 201.192 11.836 201.096 11.992C201 12.148 200.932 12.32 200.892 12.508C200.84 12.648 200.774 12.742 200.694 12.79C200.618 12.834 200.506 12.846 200.358 12.826L199.8 12.73Z" fill="#073D51"/>
<line x1="32" y1="14.25" x2="91.0339" y2="14.25" stroke="#073D51" stroke-width="1.5"/>
<line x1="126" y1="14.25" x2="185.034" y2="14.25" stroke="#073D51" stroke-width="1.5"/>
</svg>
