<svg width="218" height="30" viewBox="0 0 218 30" fill="none" xmlns="http://www.w3.org/2000/svg">
<path d="M114.456 2H103.557C98.8224 2 96 4.821 96 9.553V20.434C96 25.179 98.8224 28 103.557 28H114.443C119.178 28 122 25.179 122 20.447V9.553C122.013 4.821 119.191 2 114.456 2ZM115.224 12.01L107.849 19.381C107.667 19.563 107.42 19.667 107.16 19.667C106.899 19.667 106.652 19.563 106.47 19.381L102.789 15.702C102.412 15.325 102.412 14.701 102.789 14.324C103.167 13.947 103.791 13.947 104.168 14.324L107.16 17.314L113.845 10.632C114.222 10.255 114.846 10.255 115.224 10.632C115.601 11.009 115.601 11.62 115.224 12.01Z" fill="#073D51"/>
<path d="M20.4562 2H9.55677C4.82241 2 2 4.821 2 9.553V20.434C2 25.179 4.82241 28 9.55677 28H20.4432C25.1775 28 28 25.179 28 20.447V9.553C28.013 4.821 25.1906 2 20.4562 2ZM21.2236 12.01L13.8489 19.381C13.6668 19.563 13.4197 19.667 13.1596 19.667C12.8994 19.667 12.6523 19.563 12.4702 19.381L8.78938 15.702C8.41219 15.325 8.41219 14.701 8.78938 14.324C9.16657 13.947 9.79088 13.947 10.1681 14.324L13.1596 17.314L19.8449 10.632C20.2221 10.255 20.8464 10.255 21.2236 10.632C21.6008 11.009 21.6008 11.62 21.2236 12.01Z" fill="#073D51"/>
<path d="M208.456 2H197.557C192.822 2 190 4.821 190 9.553V20.434C190 25.179 192.822 28 197.557 28H208.443C213.178 28 216 25.179 216 20.447V9.553C216.013 4.821 213.191 2 208.456 2ZM209.224 12.01L201.849 19.381C201.667 19.563 201.42 19.667 201.16 19.667C200.899 19.667 200.652 19.563 200.47 19.381L196.789 15.702C196.412 15.325 196.412 14.701 196.789 14.324C197.167 13.947 197.791 13.947 198.168 14.324L201.16 17.314L207.845 10.632C208.222 10.255 208.846 10.255 209.224 10.632C209.601 11.009 209.601 11.62 209.224 12.01Z" fill="#073D51"/>
<line x1="32" y1="14.25" x2="91.0339" y2="14.25" stroke="#073D51" stroke-width="1.5"/>
<line x1="126" y1="14.25" x2="185.034" y2="14.25" stroke="#073D51" stroke-width="1.5"/>
</svg>
