<svg width="245" height="206" viewBox="0 0 245 206" fill="none" xmlns="http://www.w3.org/2000/svg">
<path d="M38.2175 187.29C85.5193 212.003 162.214 212.003 209.521 187.29C256.829 162.578 256.823 122.514 209.521 97.802C162.22 73.0897 85.5193 73.084 38.2118 97.802C-9.09561 122.52 -9.08997 162.578 38.2175 187.29Z" fill="#FAFAFA"/>
<path d="M163.45 191.829C173.014 191.829 180.766 188.133 180.766 183.575C180.766 179.016 173.014 175.32 163.45 175.32C153.887 175.32 146.134 179.016 146.134 183.575C146.134 188.133 153.887 191.829 163.45 191.829Z" fill="#F0F0F0"/>
<path d="M28.0435 40.834V69.2331C28.0435 70.1647 28.6984 70.5486 29.5114 70.08L95.4449 32.0093C95.8715 31.7305 96.2267 31.3553 96.4817 30.914C96.7367 30.4726 96.8843 29.9776 96.9128 29.4687V1.04693C96.9128 0.115345 96.2522 -0.26858 95.4449 0.200035L29.5114 38.2707C29.0808 38.5507 28.7231 38.9293 28.4678 39.375C28.2125 39.8207 28.0671 40.3209 28.0435 40.834Z" fill="#F0F0F0"/>
<path d="M32.6335 40.3881L52.3944 28.9833C53.3034 28.4582 54.0317 28.8817 54.0317 29.9262V49.783C54.0007 50.3493 53.8362 50.9003 53.5517 51.3909C53.2671 51.8815 52.8706 52.2979 52.3944 52.606L32.6335 64.0164C31.7302 64.5359 30.9962 64.1124 30.9962 63.0679V43.2224C31.0268 42.6544 31.191 42.1017 31.4756 41.6092C31.7601 41.1167 32.1568 40.6984 32.6335 40.3881Z" fill="#FAFAFA"/>
<path d="M48.6342 38.8916L42.7567 51.0755L39.7644 49.3479C39.4771 49.1907 39.14 49.1511 38.824 49.2375C38.5081 49.3238 38.238 49.5294 38.0706 49.8108L30.9962 62.0117V63.0788C30.9962 64.1233 31.7302 64.5468 32.6335 64.0273L52.3944 52.6169C52.8696 52.3078 53.2655 51.8912 53.5499 51.4007C53.8343 50.9103 53.9994 50.3599 54.0317 49.7939V42.8098L50.0795 38.6657C49.9913 38.5423 49.8705 38.4458 49.7305 38.3871C49.5906 38.3283 49.4372 38.3096 49.2872 38.3331C49.1373 38.3565 48.9969 38.4211 48.8815 38.5197C48.7662 38.6184 48.6806 38.7471 48.6342 38.8916Z" fill="#59A9A2"/>
<path d="M33.966 47.6539C35.187 46.8576 36.2031 45.7846 36.9319 44.5222C37.6608 43.2597 38.0818 41.8432 38.1609 40.3876C38.1609 39.1624 37.7657 38.276 37.1164 37.8018L32.6335 40.3876C32.1583 40.6967 31.7625 41.1133 31.478 41.6037C31.1936 42.0941 31.0285 42.6446 30.9962 43.2106V47.9362C31.7697 48.3879 32.8086 48.3202 33.966 47.6539Z" fill="#59A9A2"/>
<path d="M61.4053 25.6348L91.0974 8.48799C91.7749 8.09842 92.3226 8.37507 92.3226 9.10904C92.2928 9.52036 92.1663 9.91882 91.9534 10.272C91.7405 10.6252 91.4472 10.9231 91.0974 11.1416L61.4053 28.2827C60.7278 28.6723 60.1802 28.3956 60.1802 27.6616C60.2109 27.2513 60.3378 26.854 60.5506 26.5018C60.7635 26.1497 61.0563 25.8526 61.4053 25.6348Z" fill="#FAFAFA"/>
<path d="M61.4053 31.501L91.0974 14.3542C91.7749 13.9646 92.3226 14.2413 92.3226 14.9753C92.2928 15.3866 92.1663 15.785 91.9534 16.1382C91.7405 16.4914 91.4472 16.7894 91.0974 17.0078L61.4053 34.1489C60.7278 34.5385 60.1802 34.2618 60.1802 33.5335C60.21 33.1222 60.3365 32.7237 60.5494 32.3705C60.7623 32.0174 61.0556 31.7194 61.4053 31.501Z" fill="#FAFAFA"/>
<path d="M61.4053 37.3676L91.0974 20.2264C91.7749 19.8369 92.3226 20.1135 92.3226 20.8418C92.2928 21.2532 92.1663 21.6516 91.9534 22.0048C91.7405 22.358 91.4472 22.6559 91.0974 22.8744L61.4053 40.0155C60.7278 40.4107 60.1802 40.1341 60.1802 39.4001C60.21 38.9888 60.3365 38.5903 60.5494 38.2371C60.7623 37.8839 61.0556 37.586 61.4053 37.3676Z" fill="#FAFAFA"/>
<path d="M61.4053 43.2336L91.0974 26.0925C91.7749 25.7029 92.3226 25.9796 92.3226 26.7135C92.2919 27.1239 92.165 27.5212 91.9521 27.8733C91.7393 28.2255 91.4465 28.5225 91.0974 28.7404L61.4053 45.9154C60.7278 46.305 60.1802 46.0283 60.1802 45.2944C60.2056 44.8782 60.3301 44.474 60.5432 44.1156C60.7563 43.7572 61.0519 43.4548 61.4053 43.2336Z" fill="#FAFAFA"/>
<path d="M14.267 130.186V88.5136C14.2941 88.0044 14.4412 87.5088 14.6963 87.0673C14.9514 86.6258 15.3073 86.2508 15.7349 85.973L65.6 57.1786C66.4074 56.71 67.0679 57.0883 67.0679 58.0255V99.6983C67.0395 100.207 66.8918 100.702 66.6368 101.144C66.3818 101.585 66.0266 101.96 65.6 102.239L15.7349 131.033C14.9219 131.502 14.267 131.124 14.267 130.186Z" fill="#F0F0F0"/>
<path d="M14.267 128.103V130.187C14.267 131.124 14.9219 131.502 15.7349 131.033L65.6 102.239C66.0266 101.96 66.3818 101.585 66.6368 101.144C66.8918 100.702 67.0395 100.207 67.0679 99.6984V97.6094L14.267 128.103Z" fill="#59A9A2"/>
<path d="M38.3925 90.3096L43.4738 90.0443C44.0949 90.0104 44.2643 90.3604 43.8521 90.8347L38.0142 97.4743C37.602 97.9429 37.2689 97.8131 37.2689 97.192V91.5009C37.2711 91.1972 37.3882 90.9055 37.5966 90.6845C37.805 90.4635 38.0894 90.3296 38.3925 90.3096Z" fill="#59A9A2"/>
<path d="M37.0825 101.116C36.4736 101.124 35.8735 100.97 35.3436 100.67C34.0902 99.9419 33.4014 98.4118 33.4014 96.4132C33.4014 92.3368 36.2752 87.3796 39.8095 85.3189C41.5541 84.3082 43.1971 84.1558 44.4618 84.8785C45.7265 85.6012 46.4096 87.1369 46.4096 89.1299C46.4096 93.2119 43.5302 98.1634 40.0015 100.224C39.1232 100.771 38.1167 101.079 37.0825 101.116ZM42.7285 84.8164C41.7635 84.8545 40.8253 85.1445 40.0071 85.6576C36.58 87.6337 33.7966 92.461 33.7966 96.4132C33.7966 98.2876 34.4176 99.6822 35.5468 100.331C36.676 100.981 38.1891 100.828 39.8095 99.8911C43.2366 97.9094 46.0201 93.1159 46.0201 89.1299C46.0201 87.2554 45.399 85.8665 44.2698 85.2116C43.7974 84.9473 43.2641 84.811 42.7228 84.8164H42.7285Z" fill="#59A9A2"/>
<path d="M17.0169 49.7886L13.9286 48.0157C12.455 47.0277 10.4055 47.0672 8.14147 48.3771C3.6247 50.9742 0 57.563 0 63.0961V64.3551C0 69.8882 7.44137 75.8955 7.44137 75.8955L10.4789 77.6175C10.4789 77.6175 8.65525 75.5341 8.86415 75.105C10.8798 71.0174 16.2716 59.4657 16.2716 54.949V53.6899C16.2831 52.7787 16.1672 51.8703 15.9272 50.9912L16.2716 51.1888L17.0169 49.7886ZM8.13582 62.475C5.87744 63.7736 4.06509 62.7178 4.06509 60.1263C5.27332 59.9344 8.31649 54.7401 8.13582 53.0745C10.3942 51.7759 12.2009 52.8317 12.2066 55.4232C12.13 56.8359 11.7216 58.2106 11.0143 59.4358C10.307 60.6611 9.32085 61.7023 8.13582 62.475Z" fill="#59A9A2"/>
<g opacity="0.2">
<path d="M17.0169 49.7886L13.9286 48.0157C12.455 47.0277 10.4055 47.0672 8.14147 48.3771C3.6247 50.9742 0 57.563 0 63.0961V64.3551C0 69.8882 7.44137 75.8955 7.44137 75.8955L10.4789 77.6175C10.4789 77.6175 8.65525 75.5341 8.86415 75.105C10.8798 71.0174 16.2716 59.4657 16.2716 54.949V53.6899C16.2831 52.7787 16.1672 51.8703 15.9272 50.9912L16.2716 51.1888L17.0169 49.7886ZM8.13582 62.475C5.87744 63.7736 4.06509 62.7178 4.06509 60.1263C5.27332 59.9344 8.31649 54.7401 8.13582 53.0745C10.3942 51.7759 12.2009 52.8317 12.2066 55.4232C12.13 56.8359 11.7216 58.2106 11.0143 59.4358C10.307 60.6611 9.32085 61.7023 8.13582 62.475Z" fill="#0C0C0C"/>
</g>
<path d="M17.0166 49.7883C16.9829 49.7643 16.947 49.7436 16.9094 49.7262C15.4584 48.9132 13.5218 49.0261 11.3876 50.257C8.16943 52.1201 5.38597 56.0215 4.04788 60.1261C3.53043 61.6877 3.25622 63.3197 3.23486 64.9647V66.2406C3.23486 70.5033 8.06215 75.4492 10.281 77.4987C10.329 77.5417 10.38 77.5813 10.4335 77.6172C10.5639 77.6972 10.7097 77.7489 10.8614 77.769C11.013 77.7892 11.1672 77.7773 11.314 77.7342C11.4608 77.6911 11.597 77.6178 11.7137 77.5189C11.8304 77.4199 11.9252 77.2977 11.9917 77.1599C13.9114 73.2078 19.4952 61.419 19.4952 56.8345V55.5754C19.5291 52.7299 18.5636 50.7199 17.0166 49.7883ZM7.39029 62.8192C7.34341 62.5508 7.32073 62.2787 7.32254 62.0062C7.3971 60.593 7.8041 59.2173 8.51046 57.991C9.21681 56.7646 10.2026 55.7223 11.3876 54.9487C11.6244 54.8124 11.8717 54.6953 12.1272 54.5987C14.0243 53.9099 15.4584 54.9996 15.4584 57.2975C15.3823 58.7094 14.974 60.0835 14.2666 61.3079C13.5593 62.5323 12.5729 63.5724 11.3876 64.3436C9.3946 65.5067 7.73469 64.8066 7.39029 62.8192Z" fill="#59A9A2"/>
<path d="M15.4588 57.3036C15.3828 58.7156 14.9745 60.0897 14.2671 61.3141C13.5597 62.5385 12.5733 63.5785 11.3881 64.3497C9.39506 65.4789 7.73515 64.8071 7.39075 62.8197C7.64946 62.7286 7.899 62.6133 8.13601 62.4753C9.32031 61.7022 10.3056 60.6608 11.0119 59.4356C11.7182 58.2103 12.1257 56.8357 12.2011 55.4235C12.2037 55.1488 12.1791 54.8746 12.1277 54.6048C14.0247 53.916 15.4588 55.0057 15.4588 57.3036Z" fill="#59A9A2"/>
<g opacity="0.2">
<path d="M15.4588 57.3036C15.3828 58.7156 14.9745 60.0897 14.2671 61.3141C13.5597 62.5385 12.5733 63.5785 11.3881 64.3497C9.39506 65.4789 7.73515 64.8071 7.39075 62.8197C7.64946 62.7286 7.899 62.6133 8.13601 62.4753C9.32031 61.7022 10.3056 60.6608 11.0119 59.4356C11.7182 58.2103 12.1257 56.8357 12.2011 55.4235C12.2037 55.1488 12.1791 54.8746 12.1277 54.6048C14.0247 53.916 15.4588 55.0057 15.4588 57.3036Z" fill="#0C0C0C"/>
</g>
<path d="M74.7803 127.403C74.7803 127.403 76.8185 114.417 72.2904 103.25C67.7624 92.0818 61.6591 91.393 58.4973 92.9795C55.3356 94.5661 57.3682 100.76 60.1911 104.921C63.9513 110.38 70.1619 122.135 69.9586 132.693L74.7803 127.403Z" fill="#59A9A2"/>
<path opacity="0.2" d="M74.7803 127.403C74.7803 127.403 76.8185 114.417 72.2904 103.25C67.7624 92.0818 61.6591 91.393 58.4973 92.9795C55.3356 94.5661 57.3682 100.76 60.1911 104.921C63.9513 110.38 70.1619 122.135 69.9586 132.693L74.7803 127.403Z" fill="#0C0C0C"/>
<path d="M72.7481 128.227C72.6974 128.226 72.6476 128.214 72.6015 128.193C72.5554 128.172 72.514 128.142 72.4797 128.105C72.4455 128.067 72.4191 128.023 72.4022 127.976C72.3852 127.928 72.3781 127.877 72.3811 127.826C73.1264 110.047 64.2453 96.7737 60.4117 94.1878C60.3698 94.1596 60.3339 94.1235 60.306 94.0814C60.278 94.0394 60.2587 93.9922 60.249 93.9427C60.2393 93.8931 60.2394 93.8421 60.2494 93.7927C60.2594 93.7432 60.2791 93.6961 60.3073 93.6543C60.3354 93.6124 60.3716 93.5764 60.4136 93.5485C60.4557 93.5206 60.5029 93.5012 60.5524 93.4915C60.6019 93.4818 60.6529 93.482 60.7024 93.492C60.7519 93.502 60.7989 93.5216 60.8408 93.5498C65.3576 96.5647 73.8942 110.138 73.1433 127.86C73.1419 127.91 73.1305 127.96 73.1097 128.006C73.089 128.051 73.0594 128.092 73.0226 128.127C72.9858 128.161 72.9426 128.187 72.8955 128.205C72.8484 128.222 72.7983 128.23 72.7481 128.227Z" fill="white"/>
<path d="M73.9789 142.822C73.2054 140.88 71.2068 138.712 66.0746 136.397C60.9424 134.082 57.0806 130.994 56.3692 128.758C56.1551 128.14 56.1272 127.473 56.2888 126.84C56.4504 126.207 56.7944 125.635 57.2782 125.195C57.2782 125.195 52.4396 124.631 51.8299 121.667C51.0677 117.929 55.2965 117.686 55.2965 117.686C55.2965 117.686 49.7465 109.872 48.2729 106.394C46.7993 102.916 48.4988 102.707 52.0783 104.034C55.6578 105.361 62.4781 112.04 63.5339 114.078C63.5339 114.078 65.3802 111.82 67.3675 113.305C69.3549 114.79 69.4509 119.233 68.2765 120.837C69.0685 120.689 69.8862 120.774 70.6307 121.082C71.3752 121.39 72.0146 121.906 72.4715 122.57C74.4927 125.218 75.1589 131.841 75.1589 131.841L73.9789 142.822Z" fill="#59A9A2"/>
<path d="M74.3397 141.014C74.2539 141.013 74.1709 140.984 74.1035 140.931C74.0362 140.878 73.9882 140.804 73.9671 140.721C71.2231 129.288 58.1979 111.04 50.1073 105.236C50.0661 105.207 50.0311 105.17 50.0043 105.127C49.9775 105.084 49.9594 105.036 49.951 104.987C49.9426 104.937 49.9441 104.886 49.9554 104.837C49.9668 104.787 49.9877 104.741 50.0169 104.7C50.0462 104.659 50.0833 104.624 50.1261 104.597C50.1689 104.57 50.2166 104.552 50.2664 104.543C50.3162 104.535 50.3672 104.537 50.4164 104.548C50.4656 104.559 50.5122 104.58 50.5533 104.609C58.7456 110.487 71.9345 128.966 74.718 140.54C74.7401 140.64 74.7223 140.744 74.6685 140.83C74.6147 140.917 74.5291 140.979 74.43 141.003L74.3397 141.014Z" fill="white"/>
<path d="M176.538 25.8898C176.471 25.889 176.405 25.8716 176.346 25.839L174.76 24.9187C174.716 24.8935 174.677 24.86 174.647 24.8199C174.616 24.7799 174.593 24.7342 174.58 24.6854C174.567 24.6367 174.564 24.5858 174.57 24.5358C174.577 24.4857 174.593 24.4374 174.618 24.3937C174.644 24.3499 174.677 24.3116 174.717 24.2808C174.757 24.25 174.803 24.2275 174.852 24.2144C174.9 24.2012 174.951 24.1979 175.001 24.2044C175.051 24.211 175.1 24.2273 175.143 24.2525L176.73 25.1728C176.774 25.198 176.812 25.2315 176.843 25.2715C176.874 25.3116 176.896 25.3573 176.909 25.4061C176.923 25.4548 176.926 25.5057 176.919 25.5558C176.913 25.6059 176.896 25.6542 176.871 25.6979C176.837 25.7563 176.789 25.8049 176.73 25.8386C176.672 25.8723 176.605 25.89 176.538 25.8898Z" fill="white"/>
<path d="M73.979 59.3642V143.365C73.979 144.302 74.6339 144.68 75.4413 144.212L173.421 87.6448C173.848 87.366 174.203 86.9907 174.458 86.5494C174.713 86.1081 174.861 85.613 174.889 85.1041V1.10361C174.889 0.166377 174.229 -0.211902 173.421 0.256713L75.4413 56.8235C75.0151 57.1023 74.6605 57.4777 74.4065 57.9191C74.1524 58.3605 74.006 58.8556 73.979 59.3642Z" fill="#455A64"/>
<path d="M85.4457 74.879C85.4457 77.8092 87.6307 78.9158 90.3351 77.3575L168.006 32.5117V21.9199L90.3351 66.7601C87.6307 68.324 85.4457 71.9544 85.4457 74.879Z" fill="#F5F5F5"/>
<path d="M174.613 18.1203C177.311 16.562 179.502 17.6686 179.502 20.5932C179.502 23.5178 177.311 27.1538 174.613 28.7121L168.035 32.5118V21.92L174.613 18.1203Z" fill="#59A9A2"/>
<path d="M172.241 27.047C171.96 27.051 171.683 26.9788 171.439 26.8381C171.139 26.6374 170.899 26.3593 170.744 26.0334C170.589 25.7074 170.525 25.3457 170.559 24.9863C170.599 24.1026 170.851 23.2415 171.293 22.4752C171.735 21.709 172.355 21.0599 173.099 20.5824C173.384 20.3505 173.732 20.2107 174.098 20.1815C174.463 20.1523 174.829 20.2352 175.147 20.4191C175.464 20.6029 175.718 20.8791 175.875 21.2109C176.032 21.5426 176.084 21.9142 176.024 22.2762C175.982 23.1596 175.729 24.0201 175.287 24.7862C174.846 25.5522 174.227 26.2015 173.483 26.6801C173.108 26.9091 172.68 27.0356 172.241 27.047ZM174.336 20.9776C174.033 20.9926 173.739 21.086 173.483 21.2486C172.86 21.6629 172.34 22.2159 171.966 22.8644C171.592 23.5128 171.373 24.2391 171.326 24.9863C171.268 25.2111 171.285 25.4489 171.375 25.663C171.465 25.8772 171.623 26.056 171.824 26.172C172.025 26.288 172.259 26.3348 172.489 26.3052C172.72 26.2756 172.934 26.1713 173.099 26.0082C173.723 25.5946 174.243 25.0417 174.617 24.3931C174.992 23.7446 175.21 23.018 175.256 22.2706C175.285 22.0467 175.254 21.8191 175.167 21.6109C175.08 21.4027 174.939 21.2213 174.759 21.0849C174.63 21.0112 174.484 20.9741 174.336 20.9776Z" fill="white"/>
<path d="M175.742 41.3036L100.651 84.6306C100.222 84.9078 99.8661 85.2826 99.6109 85.7243C99.3557 86.166 99.209 86.6619 99.1827 87.1713V110.28C99.1827 111.217 99.8377 111.596 100.651 111.127L175.742 67.7831C176.169 67.5053 176.525 67.1303 176.78 66.6888C177.036 66.2472 177.183 65.7516 177.21 65.2424V42.1505C177.182 41.2133 176.527 40.835 175.742 41.3036Z" fill="#59A9A2"/>
<path opacity="0.2" d="M175.742 41.3036L100.651 84.6306C100.222 84.9078 99.8661 85.2826 99.6109 85.7243C99.3557 86.166 99.209 86.6619 99.1827 87.1713V110.28C99.1827 111.217 99.8377 111.596 100.651 111.127L175.742 67.7831C176.169 67.5053 176.525 67.1303 176.78 66.6888C177.036 66.2472 177.183 65.7516 177.21 65.2424V42.1505C177.182 41.2133 176.527 40.835 175.742 41.3036Z" fill="white"/>
<path d="M127.948 72.7231L141.555 64.864C142.233 64.4744 142.78 64.7511 142.78 65.485C142.75 65.8954 142.623 66.2927 142.41 66.6448C142.197 66.997 141.904 67.294 141.555 67.5119L127.948 75.3711C127.271 75.7607 126.723 75.484 126.723 74.75C126.754 74.3397 126.881 73.9424 127.094 73.5902C127.307 73.2381 127.599 72.941 127.948 72.7231Z" fill="white"/>
<path d="M126.723 80.0461C126.723 80.7801 127.288 81.0567 127.948 80.6672L169.079 56.9203C169.428 56.7009 169.72 56.4026 169.931 56.0495C170.143 55.6964 170.269 55.2984 170.299 54.8877C170.299 54.1594 169.734 53.8828 169.079 54.2723L127.948 78.0192C127.599 78.2371 127.307 78.5342 127.094 78.8863C126.881 79.2384 126.754 79.6358 126.723 80.0461Z" fill="white"/>
<path d="M126.723 85.341C126.723 86.075 127.288 86.3517 127.948 85.9621L169.079 62.2152C169.428 61.9958 169.72 61.6975 169.931 61.3444C170.143 60.9913 170.269 60.5934 170.299 60.1827C170.299 59.4543 169.734 59.1777 169.079 59.5673L127.948 83.3141C127.599 83.532 127.307 83.8291 127.094 84.1812C126.881 84.5334 126.754 84.9307 126.723 85.341Z" fill="white"/>
<path d="M126.723 90.6379C126.723 91.3719 127.288 91.6485 127.948 91.259L169.079 67.5121C169.428 67.2927 169.72 66.9944 169.931 66.6413C170.143 66.2882 170.269 65.8902 170.299 65.4795C170.299 64.7512 169.734 64.4746 169.079 64.8641L127.948 88.611C127.599 88.8289 127.307 89.126 127.094 89.4781C126.881 89.8303 126.754 90.2276 126.723 90.6379Z" fill="white"/>
<path d="M102.965 85.9517L120.671 75.7269C121.484 75.2639 122.139 75.6422 122.139 76.5737V94.3754C122.111 94.8845 121.964 95.38 121.709 95.8214C121.454 96.2629 121.098 96.638 120.671 96.9161L102.965 107.135C102.158 107.604 101.497 107.226 101.497 106.294V88.4924C101.524 87.9831 101.671 87.4876 101.927 87.046C102.182 86.6045 102.538 86.2295 102.965 85.9517Z" fill="white"/>
<path d="M117.306 84.6135L112.038 95.5328L109.356 93.9858C109.097 93.8363 108.789 93.7958 108.5 93.873C108.211 93.9503 107.965 94.1391 107.815 94.3979L101.497 105.334V106.288C101.497 107.226 102.158 107.604 102.965 107.135L120.671 96.916C121.098 96.6382 121.454 96.2632 121.709 95.8217C121.965 95.3802 122.112 94.8846 122.139 94.3754V88.1253L118.576 84.4103C118.495 84.3065 118.388 84.2263 118.266 84.1781C118.144 84.1299 118.011 84.1154 117.881 84.1362C117.751 84.1569 117.629 84.2122 117.528 84.2962C117.427 84.3801 117.35 84.4897 117.306 84.6135Z" fill="#59A9A2"/>
<path d="M104.156 92.4668C105.251 91.7526 106.162 90.7905 106.815 89.6585C107.469 88.5265 107.846 87.2564 107.917 85.9513C107.954 85.5181 107.889 85.0821 107.726 84.6788C107.563 84.2756 107.307 83.9165 106.979 83.6309L102.965 85.9513C102.538 86.2292 102.182 86.6042 101.927 87.0457C101.671 87.4872 101.524 87.9828 101.497 88.492V92.7265C102.18 93.1217 103.118 93.0652 104.156 92.4668Z" fill="#59A9A2"/>
<path d="M175.742 75.7268L100.651 119.054C100.223 119.332 99.8672 119.707 99.6121 120.148C99.357 120.59 99.2099 121.085 99.1827 121.595V144.72C99.1827 145.652 99.8377 146.03 100.651 145.567L175.742 102.212C176.169 101.934 176.525 101.559 176.78 101.118C177.036 100.676 177.183 100.18 177.21 99.6713V76.5737C177.182 75.6421 176.527 75.2751 175.742 75.7268Z" fill="#59A9A2"/>
<path opacity="0.2" d="M175.742 75.7268L100.651 119.054C100.223 119.332 99.8672 119.707 99.6121 120.148C99.357 120.59 99.2099 121.085 99.1827 121.595V144.72C99.1827 145.652 99.8377 146.03 100.651 145.567L175.742 102.212C176.169 101.934 176.525 101.559 176.78 101.118C177.036 100.676 177.183 100.18 177.21 99.6713V76.5737C177.182 75.6421 176.527 75.2751 175.742 75.7268Z" fill="white"/>
<path d="M127.948 107.146L141.555 99.2928C142.233 98.9033 142.78 99.1799 142.78 99.9083C142.751 100.32 142.624 100.718 142.411 101.071C142.198 101.424 141.905 101.722 141.555 101.941L127.948 109.794C127.271 110.184 126.723 109.907 126.723 109.179C126.753 108.768 126.88 108.369 127.092 108.016C127.305 107.663 127.599 107.365 127.948 107.146Z" fill="white"/>
<path d="M126.723 114.474C126.723 115.203 127.288 115.479 127.948 115.09L169.079 91.343C169.427 91.1241 169.718 90.8267 169.93 90.4747C170.142 90.1226 170.268 89.7258 170.299 89.3161C170.299 88.5821 169.734 88.3055 169.079 88.695L127.948 112.442C127.599 112.66 127.305 112.958 127.092 113.311C126.88 113.665 126.753 114.063 126.723 114.474Z" fill="white"/>
<path d="M126.723 119.77C126.723 120.499 127.288 120.775 127.948 120.386L169.079 96.6389C169.427 96.42 169.718 96.1226 169.93 95.7706C170.142 95.4185 170.268 95.0217 170.299 94.612C170.299 93.878 169.734 93.6013 169.079 93.9909L127.948 117.738C127.599 117.956 127.305 118.254 127.092 118.607C126.88 118.961 126.753 119.359 126.723 119.77Z" fill="white"/>
<path d="M126.723 125.066C126.723 125.795 127.288 126.071 127.948 125.682L169.079 101.935C169.427 101.716 169.718 101.418 169.93 101.066C170.142 100.714 170.268 100.318 170.299 99.9079C170.299 99.1739 169.734 98.8972 169.079 99.2868L127.948 123.034C127.599 123.252 127.305 123.55 127.092 123.903C126.88 124.256 126.753 124.655 126.723 125.066Z" fill="white"/>
<path d="M102.965 120.38L120.671 110.155C121.484 109.687 122.139 110.065 122.139 111.002V128.798C122.113 129.308 121.966 129.803 121.711 130.245C121.455 130.687 121.099 131.062 120.671 131.339L102.965 141.564C102.158 142.032 101.497 141.654 101.497 140.717V122.921C101.524 122.411 101.671 121.916 101.927 121.474C102.182 121.033 102.538 120.658 102.965 120.38Z" fill="white"/>
<path d="M117.306 119.042L112.038 129.962L109.356 128.409C109.228 128.335 109.086 128.288 108.939 128.269C108.792 128.25 108.642 128.26 108.499 128.299C108.356 128.338 108.222 128.404 108.105 128.495C107.987 128.585 107.889 128.698 107.815 128.827L101.497 139.763V140.717C101.497 141.655 102.158 142.033 102.965 141.564L120.671 131.339C121.098 131.063 121.454 130.689 121.709 130.248C121.965 129.808 122.112 129.313 122.139 128.804V122.549L118.576 118.839C118.497 118.734 118.39 118.652 118.267 118.602C118.144 118.553 118.01 118.538 117.88 118.559C117.749 118.58 117.627 118.636 117.526 118.721C117.425 118.806 117.349 118.917 117.306 119.042Z" fill="#59A9A2"/>
<path d="M104.156 126.891C105.251 126.178 106.162 125.217 106.815 124.086C107.469 122.955 107.846 121.685 107.917 120.381C107.954 119.948 107.889 119.512 107.726 119.108C107.563 118.705 107.307 118.346 106.979 118.061L102.965 120.381C102.538 120.659 102.182 121.034 101.927 121.475C101.671 121.917 101.524 122.413 101.497 122.922V127.156C102.18 127.546 103.118 127.489 104.156 126.891Z" fill="#59A9A2"/>
<path d="M174.889 4.70008V1.10361C174.889 0.166377 174.229 -0.211902 173.421 0.256713L75.447 56.8235C75.0194 57.1014 74.6635 57.4763 74.4084 57.9179C74.1533 58.3594 74.0061 58.855 73.979 59.3642V62.9663L174.889 4.70008Z" fill="#59A9A2"/>
<path d="M162.869 7.72683C162.553 7.93422 162.29 8.21294 162.102 8.5405C161.914 8.86806 161.805 9.23529 161.785 9.61257C161.785 10.307 162.27 10.5893 162.869 10.2393C163.186 10.0347 163.451 9.75759 163.64 9.43069C163.83 9.10378 163.939 8.73651 163.958 8.35917C163.958 7.66472 163.473 7.38242 162.869 7.72683Z" fill="#F5F5F5"/>
<path d="M167.188 5.26516C166.871 5.47193 166.607 5.75037 166.418 6.07797C166.229 6.40557 166.119 6.77313 166.098 7.15091C166.098 7.84536 166.589 8.12201 167.188 7.77761C167.506 7.57185 167.77 7.29364 167.96 6.96583C168.149 6.63802 168.258 6.26996 168.277 5.89186C168.277 5.16918 167.792 4.89253 167.188 5.26516Z" fill="#F5F5F5"/>
<path d="M171.507 2.74706C171.189 2.95159 170.925 3.22874 170.735 3.55564C170.546 3.88255 170.437 4.24983 170.417 4.62716C170.417 5.32161 170.903 5.60391 171.507 5.2595C171.823 5.05211 172.086 4.7734 172.274 4.44583C172.462 4.11827 172.571 3.75104 172.591 3.37376C172.591 2.6793 172.106 2.39701 171.507 2.74706Z" fill="#F5F5F5"/>
<path d="M176.453 179.848C176.624 180.282 176.741 180.735 176.803 181.198C176.962 181.676 176.999 182.186 176.91 182.683C176.53 183.316 175.925 183.784 175.217 183.992C174.712 184.109 174.189 184.118 173.681 184.021C173.172 183.924 172.69 183.722 172.264 183.428C171.23 182.812 170.457 182.062 168.989 181.649C167.942 181.424 166.956 180.975 166.098 180.334C165.285 179.685 164.201 177.878 165.754 177.46C167.307 177.042 170.688 178.516 173.766 178.651L176.453 179.848Z" fill="#263238"/>
<path d="M176.306 177.815C176.306 177.815 176.487 179.972 176.487 180.238C176.487 180.966 173.8 181.931 173.303 180.238L172.874 177.945L176.306 177.815Z" fill="#F28F8F"/>
<path d="M173.009 130.497C173.933 131.856 174.78 133.266 175.544 134.72C175.544 134.72 175.81 137.859 175.81 139.948C175.81 143.788 175.217 146.752 174.68 154.317C175.554 155.806 176.054 157.483 176.137 159.207C176.363 162.634 176.369 162.594 176.391 178.403C175.877 178.68 175.312 178.852 174.73 178.909C174.149 178.965 173.562 178.904 173.004 178.73L167.922 156.593L167.358 147.904L165.766 137.103L173.009 130.497Z" fill="#37474F"/>
<path d="M160.983 183.806C161.164 183.992 161.102 184.37 161.187 184.991C161.281 185.469 161.305 185.958 161.26 186.442C160.964 187.114 160.429 187.651 159.758 187.95C159.271 188.126 158.753 188.199 158.236 188.165C157.719 188.131 157.215 187.99 156.755 187.752C155.659 187.267 154.796 186.623 153.288 186.392C152.221 186.3 151.187 185.978 150.256 185.449C149.37 184.884 148.066 183.247 149.556 182.626C151.047 182.005 154.784 183.117 157.85 182.869L160.983 183.806Z" fill="#263238"/>
<path d="M161.689 181.095C161.689 181.095 161.125 183.557 160.972 184.105C160.634 185.42 157.715 185.488 157.715 183.969L157.912 180.469L161.689 181.095Z" fill="#F28F8F"/>
<path d="M166.42 131.169C167.883 134.043 169.294 136.578 169.339 139.638C169.446 146.114 166.759 153.245 165.771 157.925C166.065 159.619 166.149 161.343 166.019 163.057C165.822 165.016 161.356 182.818 161.356 182.818C161.356 182.818 158.872 183.338 157.816 182.214L159.069 147.937L159.408 137.984L166.42 131.169Z" fill="#37474F"/>
<path d="M164.411 113.615L165.331 118.713L169.938 118.374L168.972 112.599L164.411 113.615Z" fill="#FFA8A7"/>
<path d="M174.799 118.002C174.342 116.619 172.586 115.111 170.847 115.439C168.235 115.883 165.66 116.525 163.146 117.359C161.536 117.923 160.069 119.329 159.933 124.625L159.431 137.949C160.126 138.568 160.961 139.009 161.864 139.237C164.309 139.908 165.923 140.309 169.638 139.496C174.477 138.44 175.629 135.51 175.629 135.51C175.629 135.51 175.442 128.458 175.296 124.625C175.177 121.367 175.109 118.956 174.799 118.002Z" fill="#455A64"/>
<path d="M162.446 107.105L138.987 100.742C136.864 100.375 135.977 105.558 138.1 105.92L162.192 108.353L162.446 107.105Z" fill="#263238"/>
<path d="M155.698 117.855L150.905 118.002C150.905 118.002 151.627 110.871 152.073 109.934C152.52 108.997 153.587 108.805 154.648 108.506C155.709 108.206 155.704 107.698 155.704 107.698L154.75 107.602C153.914 107.518 153.581 106.473 153.942 105.767C154.117 105.44 154.4 104.921 154.908 105.062L156.172 105.406C156.192 104.848 156.053 104.296 155.772 103.814C155.348 103.345 155.066 103.492 154.219 103.199C153.592 102.978 152.311 102.589 151.277 103.012C150.244 103.436 149.459 105.378 149.194 106.75C148.926 108.336 148.49 109.89 147.895 111.385C146.975 113.926 145.637 119.143 145.496 121.232C145.434 122.197 145.524 122.773 146.597 123.027C147.67 123.281 155.563 123.298 155.563 123.298L155.698 117.855Z" fill="#FFA8A7"/>
<path d="M161 107.58C161 107.58 159.871 109.229 160.029 109.409C160.284 109.579 160.567 109.704 160.865 109.776L161 107.58Z" fill="#FFA8A7"/>
<path d="M164.405 102.375C163.332 102.939 161.48 103.916 160.966 107.846C160.441 111.877 161.136 113.175 161.678 113.712C162.051 114.073 164.049 114.096 165.065 113.791C166.319 113.418 169.147 112.34 170.44 110.268C171.959 107.829 172.298 104.565 170.587 103.267C169.717 102.606 168.693 102.178 167.611 102.022C166.53 101.866 165.427 101.987 164.405 102.375Z" fill="#FFA8A7"/>
<path d="M167.561 151.026L170.005 144.116C171.9 143.444 173.598 142.311 174.946 140.818C174.946 140.818 174.381 142.789 170.519 144.81L167.837 151.348V154.984L167.561 151.026Z" fill="#263238"/>
<path d="M160.746 103.701C161.096 104.667 161.689 107.038 164.162 108.026C164.162 108.026 164.518 106.519 165.782 106.677C167.047 106.835 167.267 108.455 166.488 109.46C165.709 110.465 164.952 110.104 164.952 110.104C164.952 110.104 164.783 112.266 166.228 113.249C166.766 113.566 167.371 113.754 167.994 113.798C168.617 113.842 169.242 113.741 169.819 113.503C170.649 113.124 171.829 111.131 172.518 109.494C173.975 106.039 174.184 103.284 171.953 102.391C171.677 100.822 170.971 100.229 169.548 99.9355C166.488 99.3088 164.173 101.319 161.604 100.963C160.289 100.777 160.34 102.595 160.746 103.701Z" fill="#263238"/>
<path d="M172.027 102.939L173.472 102.041C173.346 101.865 173.158 101.743 172.946 101.701C172.733 101.659 172.513 101.699 172.329 101.813C172.145 101.927 172.012 102.107 171.955 102.316C171.899 102.525 171.925 102.748 172.027 102.939Z" fill="#263238"/>
<path d="M154.626 117.759C154.626 117.759 161.373 117.37 163.095 117.358C164.817 117.347 166.646 120.289 165.574 122.293C164.862 123.608 162.643 124.06 159.849 124.196C157.054 124.331 154.237 124.331 154.237 124.331C154.237 124.331 151.724 121.469 154.626 117.759Z" fill="#455A64"/>
<path d="M159.933 124.196C159.933 124.196 164.207 124.139 165.608 122.293C165.608 122.293 165.28 123.422 163.62 124.117C162.431 124.574 161.177 124.844 159.905 124.918L159.933 124.196Z" fill="#37474F"/>
<path d="M138.987 100.742C136.864 100.375 135.977 105.558 138.1 105.92L141.488 106.258C140.11 106.117 141.064 101.301 142.115 101.583L138.987 100.742Z" fill="#455A64"/>
<path d="M224.421 99.3602C224.421 100.411 224.105 101.438 223.513 102.306C222.921 103.175 222.081 103.845 221.103 104.229C220.124 104.613 219.053 104.693 218.029 104.459C217.004 104.225 216.074 103.688 215.359 102.917L215.015 102.499C214.211 101.428 213.849 100.088 214.004 98.7579C214.159 97.4274 214.819 96.2071 215.848 95.3489C216.876 94.4906 218.195 94.0599 219.532 94.1455C220.868 94.2311 222.121 94.8265 223.032 95.8089L223.388 96.238C224.058 97.1409 224.42 98.2356 224.421 99.3602Z" fill="#455A64"/>
<path d="M224.421 99.3601C224.421 100.411 224.105 101.438 223.513 102.306C222.921 103.175 222.081 103.845 221.103 104.229C220.125 104.613 219.053 104.693 218.029 104.459C217.004 104.225 216.074 103.688 215.359 102.917L215.015 102.499L193.244 76.2061L202.419 70.9102L223.032 95.7975L223.388 96.2266C224.061 97.1326 224.423 98.2316 224.421 99.3601Z" fill="#455A64"/>
<path d="M206.41 92.1047C207.325 93.0637 208.569 93.6397 209.892 93.7164C211.214 93.7931 212.517 93.3647 213.536 92.5178C214.555 91.6709 215.214 90.4687 215.381 89.1543C215.547 87.8398 215.209 86.5111 214.433 85.4369L211.74 82.1904C212.545 83.2626 212.907 84.6031 212.752 85.9348C212.597 87.2665 211.936 88.4877 210.906 89.3459C209.876 90.2042 208.555 90.6339 207.217 90.5463C205.88 90.4587 204.626 89.8605 203.717 88.8752L206.41 92.1047Z" fill="#59A9A2"/>
<path d="M202.069 29.5761C203.713 29.7591 205.302 30.2759 206.738 31.0949L200.116 27.2444C195.672 24.1899 189.275 24.3706 182.167 28.4695C168.747 36.2214 157.861 55.0733 157.861 70.5771C157.861 78.1934 160.453 83.6362 164.727 86.222L164.817 86.2785L171.886 90.3492C170.632 89.5336 169.539 88.4944 168.662 87.2834C170.404 87.4741 172.165 87.373 173.873 86.9842C174.494 86.8487 175.121 86.685 175.759 86.4817C175.675 86.4566 175.594 86.4245 175.516 86.3857C175.176 86.2266 174.851 86.0377 174.545 85.8211C173.989 85.4338 173.495 84.9657 173.077 84.4322C172.506 83.7018 172.043 82.8938 171.699 82.0327C171.239 82.0992 170.775 82.1332 170.311 82.1343C169.212 82.1563 168.121 81.9386 167.115 81.4963C166.88 81.3886 166.651 81.266 166.432 81.1293C166.234 81.0051 166.037 80.8583 165.867 80.7116C165.459 78.8004 165.26 76.8504 165.274 74.8962C165.274 59.3981 176.16 40.5406 189.591 32.7887C191.306 31.7883 193.123 30.9744 195.012 30.3609C195.52 30.5688 195.999 30.8442 196.434 31.1796C196.895 31.5333 197.311 31.9429 197.671 32.3991C198.243 33.1314 198.709 33.9412 199.054 34.8043C199.516 34.7396 199.982 34.7075 200.449 34.7083C201.725 34.674 202.988 34.98 204.107 35.5947C204.391 35.7491 204.661 35.9266 204.915 36.1255C204.813 35.6738 204.706 35.2278 204.576 34.8043C204.066 32.9234 203.216 31.1515 202.069 29.5761Z" fill="#263238"/>
<path d="M206.738 31.0944L206.354 30.8855C205.019 30.1864 203.566 29.7422 202.069 29.5756C200.462 29.3964 198.837 29.4707 197.253 29.7958C196.49 29.9404 195.736 30.1289 194.994 30.3604C193.106 30.9739 191.289 31.7878 189.574 32.7881C176.142 40.54 165.257 59.3975 165.257 74.8957C165.243 76.8499 165.442 78.7999 165.85 80.711C165.923 81.0554 166.008 81.3829 166.093 81.7103C166.596 83.7087 167.469 85.595 168.667 87.2716C169.202 88.0094 169.818 88.6855 170.502 89.2872C170.939 89.671 171.403 90.022 171.891 90.3373C176.323 93.1998 182.618 92.9514 189.563 88.9315C202.995 81.1796 213.88 62.3278 213.88 46.824C213.874 39.0721 211.147 33.6237 206.738 31.0944ZM204.084 35.6111C204.368 35.7655 204.638 35.943 204.892 36.1418C205.317 36.4876 205.705 36.8775 206.049 37.3049C207.743 39.4278 208.641 42.7307 208.641 46.8409C208.641 60.3912 198.704 77.6227 186.943 84.4147C183.979 86.1085 181.128 87.0345 178.706 87.0345C177.695 87.0463 176.693 86.8543 175.759 86.4699C175.675 86.4448 175.594 86.4127 175.516 86.3739C175.176 86.2148 174.851 86.0259 174.545 85.8093C174.164 85.5419 173.812 85.2354 173.495 84.8946C173.353 84.7479 173.218 84.5841 173.082 84.4204C172.512 83.6899 172.048 82.882 171.705 82.0209C170.845 79.7424 170.434 77.3189 170.497 74.8844C170.497 74.7037 170.497 74.5287 170.497 74.3198C170.745 60.826 180.575 43.9841 192.183 37.288C192.448 37.1355 192.719 36.9831 192.99 36.8419C194.862 35.7963 196.906 35.0945 199.026 34.7699C199.488 34.7052 199.954 34.6731 200.42 34.6739C201.425 34.6652 202.421 34.8572 203.35 35.2385C203.605 35.3397 203.851 35.4624 204.084 35.6055V35.6111Z" fill="#455A64"/>
<path d="M208.64 46.8348C208.64 60.3851 198.703 77.6166 186.943 84.4087C186.229 84.8238 185.494 85.2008 184.741 85.5378C182.86 86.4454 180.81 86.9493 178.722 87.0171C177.712 87.0289 176.71 86.8369 175.775 86.4525C175.692 86.4274 175.61 86.3953 175.532 86.3565C175.193 86.1974 174.868 86.0085 174.561 85.7919C174.006 85.4046 173.511 84.9365 173.093 84.403C172.947 84.2054 172.794 84.0134 172.659 83.7933C172.924 83.7933 173.223 83.8328 173.483 83.8328C175.905 83.8328 178.756 82.9238 181.72 81.2131C193.464 74.4605 203.406 57.2516 203.406 43.6562C203.406 39.9242 202.667 36.881 201.261 34.7412C202.253 34.8063 203.218 35.0938 204.084 35.5825C204.367 35.7368 204.637 35.9143 204.891 36.1132C205.317 36.459 205.705 36.8488 206.049 37.2762C207.539 39.145 208.414 41.9229 208.595 45.3612C208.623 45.8581 208.64 46.3436 208.64 46.8348Z" fill="#37474F"/>
<path opacity="0.6" d="M206.371 45.2718C206.371 58.8221 196.434 76.0535 184.673 82.8456C181.709 84.5394 178.864 85.4653 176.436 85.4653C175.428 85.4772 174.427 85.2851 173.494 84.9007C173.353 84.7539 173.218 84.5902 173.082 84.4265C172.512 83.696 172.048 82.8881 171.705 82.0269C170.845 79.7485 170.434 77.325 170.496 74.8904C170.496 74.7098 170.496 74.5348 170.496 74.3259C170.745 60.832 180.575 43.9901 192.183 37.294C192.448 37.1416 192.719 36.9892 192.99 36.848C194.862 35.8024 196.906 35.1006 199.025 34.7759C199.488 34.7112 199.954 34.6792 200.42 34.68C201.425 34.6713 202.421 34.8633 203.35 35.2446C203.503 35.397 203.644 35.5607 203.779 35.7245C205.473 37.8586 206.371 41.1615 206.371 45.2718Z" fill="white"/>
</svg>
