<svg width="369" height="275" viewBox="0 0 369 275" fill="none" xmlns="http://www.w3.org/2000/svg">
<path d="M369 241.621H0V241.806H369V241.621Z" fill="#EBEBEB"/>
<path d="M332.026 253.496H307.584V253.681H332.026V253.496Z" fill="#EBEBEB"/>
<path d="M244.44 255.503H238.027V255.687H244.44V255.503Z" fill="#EBEBEB"/>
<path d="M306.846 246.646H292.683V246.831H306.846V246.646Z" fill="#EBEBEB"/>
<path d="M70.5898 247.887H38.7156V248.071H70.5898V247.887Z" fill="#EBEBEB"/>
<path d="M81.8368 247.887H77.1653V248.071H81.8368V247.887Z" fill="#EBEBEB"/>
<path d="M166.161 251.001H97.0249V251.185H166.161V251.001Z" fill="#EBEBEB"/>
<path d="M174.906 208.706H32.4056C31.2892 208.704 30.2193 208.26 29.4306 207.47C28.6419 206.68 28.199 205.609 28.199 204.492V4.17708C28.2087 3.06715 28.6559 2.00587 29.4436 1.22377C30.2312 0.441662 31.2956 0.00190137 32.4056 0H174.906C176.024 0 177.095 0.443972 177.886 1.23425C178.676 2.02452 179.12 3.09636 179.12 4.21398V204.492C179.12 205.61 178.676 206.682 177.886 207.472C177.095 208.262 176.024 208.706 174.906 208.706ZM32.4056 0.147601C31.3382 0.149556 30.3152 0.57495 29.5611 1.33041C28.807 2.08587 28.3835 3.10967 28.3835 4.17708V204.492C28.3835 205.56 28.807 206.584 29.5611 207.339C30.3152 208.095 31.3382 208.52 32.4056 208.522H174.906C175.974 208.52 176.998 208.095 177.753 207.34C178.508 206.584 178.934 205.561 178.935 204.492V4.17708C178.934 3.10899 178.508 2.08521 177.753 1.32996C176.998 0.57471 175.974 0.149551 174.906 0.147601H32.4056Z" fill="#EBEBEB"/>
<path d="M334.543 208.706H192.035C190.918 208.704 189.847 208.26 189.057 207.47C188.268 206.68 187.823 205.609 187.821 204.492V4.17708C187.833 3.06647 188.282 2.0052 189.07 1.2233C189.859 0.441404 190.924 0.00188064 192.035 0H334.543C335.652 0.00384092 336.714 0.44446 337.5 1.22636C338.286 2.00825 338.732 3.06842 338.742 4.17708V204.492C338.742 205.608 338.3 206.677 337.513 207.467C336.726 208.257 335.658 208.703 334.543 208.706ZM192.035 0.147601C190.967 0.149551 189.943 0.57471 189.188 1.32996C188.433 2.08521 188.007 3.10899 188.006 4.17708V204.492C188.007 205.561 188.433 206.584 189.188 207.34C189.943 208.095 190.967 208.52 192.035 208.522H334.543C335.611 208.52 336.635 208.095 337.39 207.34C338.145 206.584 338.57 205.561 338.572 204.492V4.17708C338.57 3.10899 338.145 2.08521 337.39 1.32996C336.635 0.57471 335.611 0.149551 334.543 0.147601H192.035Z" fill="#EBEBEB"/>
<path d="M129.593 80.7002H72.7151V196.544H129.593V80.7002Z" fill="#EBEBEB"/>
<path d="M127.452 194.139V83.1064H74.8625V194.139H127.452Z" fill="#E0E0E0"/>
<path d="M101.763 82.4863H100.552V195.341H101.763V82.4863Z" fill="#EBEBEB"/>
<path d="M130.907 79.0322H71.4016V85.0617H130.907V79.0322Z" fill="#EBEBEB"/>
<path d="M130.907 85.7334H71.4016V86.4493H130.907V85.7334Z" fill="#EBEBEB"/>
<path d="M130.907 87.3496H71.4016V88.0655H130.907V87.3496Z" fill="#EBEBEB"/>
<path d="M130.907 88.9736H71.4016V89.6895H130.907V88.9736Z" fill="#EBEBEB"/>
<path d="M130.907 90.5967H71.4016V91.3125H130.907V90.5967Z" fill="#EBEBEB"/>
<path d="M130.907 92.2207H71.4016V92.9366H130.907V92.2207Z" fill="#EBEBEB"/>
<path d="M130.907 93.8438H71.4016V94.5596H130.907V93.8438Z" fill="#EBEBEB"/>
<path d="M130.907 95.46H71.4016V96.1758H130.907V95.46Z" fill="#EBEBEB"/>
<path d="M130.907 97.084H71.4016V97.7998H130.907V97.084Z" fill="#EBEBEB"/>
<path d="M130.907 98.708H71.4016V99.4239H130.907V98.708Z" fill="#EBEBEB"/>
<path d="M130.907 100.331H71.4016V101.047H130.907V100.331Z" fill="#EBEBEB"/>
<path d="M130.907 101.955H71.4016V102.671H130.907V101.955Z" fill="#EBEBEB"/>
<path d="M130.907 103.578H71.4016V104.294H130.907V103.578Z" fill="#EBEBEB"/>
<path d="M130.907 105.194H71.4016V105.91H130.907V105.194Z" fill="#EBEBEB"/>
<path d="M130.907 106.818H71.4016V107.534H130.907V106.818Z" fill="#EBEBEB"/>
<path d="M130.907 108.441H71.4016V109.157H130.907V108.441Z" fill="#EBEBEB"/>
<path d="M130.907 110.065H71.4016V110.781H130.907V110.065Z" fill="#EBEBEB"/>
<path d="M130.907 111.688H71.4016V112.404H130.907V111.688Z" fill="#EBEBEB"/>
<path d="M130.907 113.305H71.4016V114.021H130.907V113.305Z" fill="#EBEBEB"/>
<path d="M196.935 80.7002H140.058V196.544H196.935V80.7002Z" fill="#EBEBEB"/>
<path d="M194.795 194.139V83.1064H142.205V194.139H194.795Z" fill="#E0E0E0"/>
<path d="M169.105 82.4863H167.895V195.341H169.105V82.4863Z" fill="#EBEBEB"/>
<path d="M198.249 79.0322H138.744V85.0617H198.249V79.0322Z" fill="#EBEBEB"/>
<path d="M198.249 85.7334H138.744V86.4493H198.249V85.7334Z" fill="#EBEBEB"/>
<path d="M198.249 87.3496H138.744V88.0655H198.249V87.3496Z" fill="#EBEBEB"/>
<path d="M198.249 88.9736H138.744V89.6895H198.249V88.9736Z" fill="#EBEBEB"/>
<path d="M198.249 90.5967H138.744V91.3125H198.249V90.5967Z" fill="#EBEBEB"/>
<path d="M198.249 92.2207H138.744V92.9366H198.249V92.2207Z" fill="#EBEBEB"/>
<path d="M198.249 93.8438H138.744V94.5596H198.249V93.8438Z" fill="#EBEBEB"/>
<path d="M198.249 95.46H138.744V96.1758H198.249V95.46Z" fill="#EBEBEB"/>
<path d="M198.249 97.084H138.744V97.7998H198.249V97.084Z" fill="#EBEBEB"/>
<path d="M198.249 98.708H138.744V99.4239H198.249V98.708Z" fill="#EBEBEB"/>
<path d="M198.249 100.331H138.744V101.047H198.249V100.331Z" fill="#EBEBEB"/>
<path d="M198.249 101.955H138.744V102.671H198.249V101.955Z" fill="#EBEBEB"/>
<path d="M198.249 103.578H138.744V104.294H198.249V103.578Z" fill="#EBEBEB"/>
<path d="M198.249 105.194H138.744V105.91H198.249V105.194Z" fill="#EBEBEB"/>
<path d="M198.249 106.818H138.744V107.534H198.249V106.818Z" fill="#EBEBEB"/>
<path d="M198.249 108.441H138.744V109.157H198.249V108.441Z" fill="#EBEBEB"/>
<path d="M198.249 110.065H138.744V110.781H198.249V110.065Z" fill="#EBEBEB"/>
<path d="M198.249 111.688H138.744V112.404H198.249V111.688Z" fill="#EBEBEB"/>
<path d="M198.249 113.305H138.744V114.021H198.249V113.305Z" fill="#EBEBEB"/>
<path d="M148.655 215.075H199.828C200.65 215.075 201.439 215.402 202.02 215.983C202.601 216.564 202.928 217.353 202.928 218.175V224.005H145.556V218.175C145.556 217.768 145.636 217.365 145.792 216.989C145.947 216.613 146.176 216.271 146.464 215.983C146.751 215.695 147.093 215.467 147.469 215.311C147.845 215.155 148.248 215.075 148.655 215.075Z" fill="#E0E0E0"/>
<path opacity="0.6" d="M148.655 215.075H163.415C164.237 215.075 165.026 215.402 165.607 215.983C166.188 216.564 166.515 217.353 166.515 218.175V224.005H145.556V218.175C145.556 217.768 145.636 217.365 145.792 216.989C145.947 216.613 146.176 216.271 146.464 215.983C146.751 215.695 147.093 215.467 147.469 215.311C147.845 215.155 148.248 215.075 148.655 215.075Z" fill="#F0F0F0"/>
<path d="M184.928 265.496H183.208L182.057 223.519H184.928V265.496Z" fill="#E0E0E0"/>
<path d="M147.172 265.496H145.445V223.519H148.316L147.172 265.496Z" fill="#E0E0E0"/>
<path d="M164.626 265.496H162.906V223.519H165.777L164.626 265.496Z" fill="#E0E0E0"/>
<path d="M202.389 265.496H200.662L199.518 223.519H202.389V265.496Z" fill="#E0E0E0"/>
<path d="M204.315 223.519H144.862C144.43 223.519 144.08 223.869 144.08 224.301V227.297C144.08 227.729 144.43 228.079 144.862 228.079H204.315C204.747 228.079 205.098 227.729 205.098 227.297V224.301C205.098 223.869 204.747 223.519 204.315 223.519Z" fill="#EBEBEB"/>
<path d="M85.165 215.075H136.338C137.16 215.075 137.948 215.402 138.53 215.983C139.111 216.564 139.438 217.353 139.438 218.175V224.005H82.0654V218.175C82.0654 217.353 82.392 216.564 82.9733 215.983C83.5546 215.402 84.343 215.075 85.165 215.075Z" fill="#E0E0E0"/>
<path opacity="0.6" d="M85.165 215.075H99.925C100.747 215.075 101.535 215.402 102.117 215.983C102.698 216.564 103.025 217.353 103.025 218.175V224.005H82.0654V218.175C82.0654 217.353 82.392 216.564 82.9733 215.983C83.5546 215.402 84.343 215.075 85.165 215.075Z" fill="#F0F0F0"/>
<path d="M121.438 265.496H119.718L118.567 223.519H121.438V265.496Z" fill="#E0E0E0"/>
<path d="M83.6819 265.496H81.9624V223.519H84.8258L83.6819 265.496Z" fill="#E0E0E0"/>
<path d="M101.136 265.496H99.416V223.519H102.287L101.136 265.496Z" fill="#E0E0E0"/>
<path d="M138.899 265.496H137.179L136.028 223.519H138.899V265.496Z" fill="#E0E0E0"/>
<path d="M140.825 223.519H81.3719C80.9398 223.519 80.5896 223.869 80.5896 224.301V227.297C80.5896 227.729 80.9398 228.079 81.3719 228.079H140.825C141.257 228.079 141.607 227.729 141.607 227.297V224.301C141.607 223.869 141.257 223.519 140.825 223.519Z" fill="#EBEBEB"/>
<path d="M184.5 274.95C263.527 274.95 327.591 271.209 327.591 266.595C327.591 261.981 263.527 258.241 184.5 258.241C105.473 258.241 41.4094 261.981 41.4094 266.595C41.4094 271.209 105.473 274.95 184.5 274.95Z" fill="#F5F5F5"/>
<path d="M276.66 48.1614C278.328 41.0924 273.95 34.0094 266.881 32.3409C259.812 30.6725 252.729 35.0505 251.061 42.1195C249.392 49.1884 253.77 56.2715 260.839 57.9399C267.908 59.6083 274.991 55.2303 276.66 48.1614Z" fill="#073D51"/>
<path opacity="0.4" d="M275.144 46.1515C276.131 40.0383 271.977 34.2817 265.864 33.2937C259.75 32.3057 253.994 36.4605 253.006 42.5737C252.018 48.6869 256.173 54.4435 262.286 55.4315C268.399 56.4195 274.156 52.2647 275.144 46.1515Z" fill="white"/>
<path d="M263.341 46.0216C263.214 46.0212 263.089 45.9881 262.979 45.9256L257.813 42.9736C257.729 42.9252 257.655 42.8606 257.595 42.7835C257.536 42.7065 257.492 42.6185 257.467 42.5247C257.442 42.4308 257.435 42.3328 257.448 42.2364C257.46 42.1399 257.491 42.0469 257.54 41.9626C257.588 41.8783 257.653 41.8043 257.73 41.745C257.807 41.6856 257.895 41.642 257.989 41.6166C258.083 41.5913 258.181 41.5847 258.277 41.5972C258.374 41.6097 258.467 41.6411 258.551 41.6895L262.632 43.9995V37.446C262.632 37.2503 262.71 37.0626 262.848 36.9242C262.987 36.7858 263.174 36.708 263.37 36.708C263.566 36.708 263.754 36.7858 263.892 36.9242C264.03 37.0626 264.108 37.2503 264.108 37.446V45.2614C264.109 45.3915 264.075 45.5193 264.01 45.6321C263.945 45.7448 263.852 45.8385 263.739 45.9035C263.62 45.9802 263.482 46.0212 263.341 46.0216Z" fill="#073D51"/>
<path opacity="0.4" d="M276.66 48.1614C278.328 41.0924 273.95 34.0094 266.881 32.3409C259.812 30.6725 252.729 35.0505 251.061 42.1195C249.392 49.1884 253.77 56.2715 260.839 57.9399C267.908 59.6083 274.991 55.2303 276.66 48.1614Z" fill="white"/>
<path d="M70.7668 244.566C70.7668 244.566 71.9034 236.248 77.2243 235.333C82.5453 234.418 80.9143 230.403 82.3239 228.846C83.7335 227.289 87.3276 231.879 84.228 236.329C81.1284 240.78 83.6597 239.385 82.3239 243.525C80.9881 247.665 70.2798 251.466 70.7668 244.566Z" fill="#263238"/>
<path opacity="0.2" d="M70.7668 244.566C70.7668 244.566 71.9034 236.248 77.2243 235.333C82.5453 234.418 80.9143 230.403 82.3239 228.846C83.7335 227.289 87.3276 231.879 84.228 236.329C81.1284 240.78 83.6597 239.385 82.3239 243.525C80.9881 247.665 70.2798 251.466 70.7668 244.566Z" fill="white"/>
<path d="M72.5305 250.248H72.3977C72.3079 250.211 72.2362 250.139 72.1976 250.05C72.1591 249.961 72.1567 249.86 72.1911 249.768C72.1911 249.68 75.4973 240.912 72.3239 227.628C71.3371 223.805 69.9545 220.095 68.1985 216.558C65.121 209.916 62.4716 204.131 66.4051 193.378C67.6155 190.05 68.8774 186.95 70.0951 183.946C74.6043 172.876 78.1615 164.124 74.4051 156.028C74.3667 155.937 74.3645 155.836 74.3988 155.744C74.4331 155.652 74.5014 155.576 74.5896 155.533C74.6786 155.493 74.7799 155.49 74.8712 155.525C74.9625 155.559 75.0364 155.629 75.0766 155.718C78.9659 164.101 75.3571 172.987 70.7815 184.227C69.5564 187.223 68.3018 190.315 67.0915 193.629C63.2613 204.094 65.7336 209.459 68.8553 216.249C70.6395 219.813 72.0492 223.552 73.0619 227.407C76.2943 240.979 72.9364 249.923 72.8995 250.012C72.8704 250.085 72.8191 250.147 72.7529 250.189C72.6868 250.232 72.609 250.252 72.5305 250.248Z" fill="#263238"/>
<path d="M74.0584 248.307C74.0584 248.307 77.4975 243.141 72.5307 240.455C67.564 237.769 66.5751 239.939 63.505 238.02C60.4349 236.101 58.1029 231.466 57.601 234.433C57.0992 237.4 60.6268 239.097 59.3722 240.455C58.1176 241.813 67.6968 250.64 74.0584 248.307Z" fill="#263238"/>
<path d="M76.5455 159.998C76.5455 159.998 79.0768 149.578 71.4606 149.969C63.8445 150.36 72.9809 159.194 76.5455 159.998Z" fill="#263238"/>
<path d="M70.5749 168.33C70.5749 168.33 67.5712 159.282 62.3388 161.688C57.1064 164.094 65.217 168.928 70.5749 168.33Z" fill="#263238"/>
<path d="M79.7851 168.396C79.7851 168.396 78.3829 161.09 84.095 160.485C89.8071 159.88 87.7776 166.559 79.7851 168.396Z" fill="#263238"/>
<path d="M77.1873 183.762C77.1873 183.762 84.3163 176.301 87.5193 181.179C90.7222 186.057 82.1835 187.762 77.1873 183.762Z" fill="#263238"/>
<path d="M63.5048 183.6C63.5048 183.6 61.1506 172.345 55.2318 176.382C49.313 180.419 58.1912 185.172 63.5048 183.6Z" fill="#263238"/>
<path d="M59.3499 200.315C59.3499 200.315 63.0399 188.463 54.6046 190.44C46.1692 192.418 53.136 198.012 59.3499 200.315Z" fill="#263238"/>
<path d="M72.7373 203.371C72.7373 203.371 79.2391 194.33 84.9512 196.574C90.6633 198.817 86.8405 207.592 72.7373 203.371Z" fill="#263238"/>
<path d="M67.719 222.647C67.719 222.647 60.5161 209.548 55.4313 214.566C50.3465 219.585 59.815 225.717 67.719 222.647Z" fill="#263238"/>
<path d="M76.5454 221.141C76.5454 221.141 74.0879 210.721 80.2354 211.09C86.383 211.459 85.2686 218.027 76.5454 221.141Z" fill="#263238"/>
<g opacity="0.2">
<path d="M76.5455 159.998C76.5455 159.998 79.0768 149.578 71.4606 149.969C63.8445 150.36 72.9809 159.194 76.5455 159.998Z" fill="white"/>
<path d="M70.5749 168.33C70.5749 168.33 67.5712 159.282 62.3388 161.688C57.1064 164.094 65.217 168.928 70.5749 168.33Z" fill="white"/>
<path d="M79.7851 168.396C79.7851 168.396 78.3829 161.09 84.095 160.485C89.8071 159.88 87.7776 166.559 79.7851 168.396Z" fill="white"/>
<path d="M77.1873 183.762C77.1873 183.762 84.3163 176.301 87.5193 181.179C90.7222 186.057 82.1835 187.762 77.1873 183.762Z" fill="white"/>
<path d="M63.5048 183.6C63.5048 183.6 61.1506 172.345 55.2318 176.382C49.313 180.419 58.1912 185.172 63.5048 183.6Z" fill="white"/>
<path d="M59.3499 200.315C59.3499 200.315 63.0399 188.463 54.6046 190.44C46.1692 192.418 53.136 198.012 59.3499 200.315Z" fill="white"/>
<path d="M72.7373 203.371C72.7373 203.371 79.2391 194.33 84.9512 196.574C90.6633 198.817 86.8405 207.592 72.7373 203.371Z" fill="white"/>
<path d="M67.719 222.647C67.719 222.647 60.5161 209.548 55.4313 214.566C50.3465 219.585 59.815 225.717 67.719 222.647Z" fill="white"/>
<path d="M76.5454 221.141C76.5454 221.141 74.0879 210.721 80.2354 211.09C86.383 211.459 85.2686 218.027 76.5454 221.141Z" fill="white"/>
</g>
<path d="M74.3462 174.168H74.2724C74.1756 174.147 74.091 174.088 74.0362 174.006C74.0362 173.947 70.6488 168.611 68.3536 167.467C68.3044 167.45 68.2594 167.422 68.2217 167.386C68.1839 167.35 68.1543 167.307 68.1346 167.258C68.1149 167.21 68.1058 167.158 68.1077 167.106C68.1096 167.054 68.1225 167.002 68.1456 166.956C68.1688 166.909 68.2015 166.868 68.2418 166.834C68.2821 166.801 68.329 166.777 68.3793 166.763C68.4296 166.749 68.4823 166.747 68.5339 166.755C68.5854 166.763 68.6347 166.782 68.6783 166.81C70.8407 167.88 73.6672 172.072 74.4569 173.29C78.4347 170.471 81.1505 165.696 81.1801 165.644C81.2031 165.601 81.2346 165.564 81.2726 165.533C81.3106 165.503 81.3543 165.481 81.4011 165.467C81.448 165.454 81.497 165.451 81.5453 165.457C81.5935 165.463 81.64 165.479 81.6819 165.504C81.7655 165.553 81.8268 165.633 81.8529 165.727C81.879 165.82 81.868 165.92 81.8221 166.006C81.704 166.22 78.8701 171.238 74.5528 174.124C74.4892 174.157 74.4178 174.172 74.3462 174.168Z" fill="#263238"/>
<path d="M68.5158 188.839H68.4716C68.42 188.833 68.3704 188.816 68.3259 188.789C68.2814 188.763 68.243 188.727 68.2133 188.684C68.1764 188.625 64.0583 182.839 59.1875 180.47C59.0994 180.427 59.0321 180.351 59.0003 180.258C58.9684 180.166 58.9747 180.064 59.0178 179.976C59.0609 179.888 59.1371 179.82 59.2299 179.789C59.3226 179.757 59.4242 179.763 59.5122 179.806C63.9402 181.954 67.6302 186.633 68.5749 187.924C74.7519 182.655 82.929 182.205 83.0102 182.197C83.0591 182.193 83.1084 182.199 83.1548 182.215C83.2013 182.231 83.2439 182.257 83.28 182.29C83.3161 182.323 83.3448 182.364 83.3644 182.409C83.3841 182.454 83.3941 182.502 83.3939 182.551C83.3969 182.6 83.3903 182.648 83.3743 182.693C83.3584 182.739 83.3336 182.781 83.3013 182.816C83.269 182.852 83.2298 182.881 83.1862 182.901C83.1425 182.922 83.0952 182.933 83.0471 182.935C82.9659 182.935 74.7667 183.393 68.7594 188.743C68.6927 188.804 68.606 188.838 68.5158 188.839Z" fill="#263238"/>
<path d="M65.5787 207.836C65.5053 207.839 65.4327 207.818 65.3721 207.777C60.4939 204.47 56.2504 195.614 56.0733 195.231C56.0521 195.187 56.0399 195.139 56.0374 195.09C56.0348 195.041 56.042 194.992 56.0585 194.946C56.075 194.9 56.1004 194.858 56.1333 194.822C56.1663 194.786 56.2061 194.757 56.2504 194.736C56.3396 194.695 56.4413 194.691 56.5336 194.724C56.626 194.757 56.7018 194.825 56.7448 194.913C56.7448 195.002 60.9514 203.703 65.6008 207.016C67.0326 206.05 75.0546 200.817 81.4826 200.175C81.5311 200.17 81.58 200.175 81.6266 200.189C81.6733 200.203 81.7166 200.226 81.7543 200.257C81.792 200.288 81.8233 200.326 81.8463 200.369C81.8693 200.412 81.8837 200.459 81.8885 200.507C81.8934 200.556 81.8886 200.605 81.8745 200.651C81.8605 200.698 81.8374 200.741 81.8065 200.779C81.7757 200.817 81.7377 200.848 81.6948 200.871C81.6519 200.894 81.6049 200.908 81.5564 200.913C74.8111 201.592 65.896 207.71 65.8075 207.777C65.7389 207.819 65.6592 207.84 65.5787 207.836Z" fill="#263238"/>
<path d="M72.5306 226.677C72.4778 226.676 72.4256 226.665 72.3773 226.643C72.329 226.622 72.2858 226.59 72.2502 226.551C69.3789 223.596 65.6738 221.588 61.6304 220.795C61.5819 220.785 61.5359 220.765 61.4951 220.737C61.4542 220.709 61.4192 220.673 61.3921 220.632C61.3651 220.591 61.3464 220.544 61.3373 220.495C61.3282 220.447 61.3287 220.397 61.3389 220.348C61.349 220.3 61.3687 220.254 61.3966 220.213C61.4246 220.172 61.4603 220.137 61.5017 220.11C61.5432 220.083 61.5896 220.064 61.6382 220.055C61.6869 220.046 61.7369 220.047 61.7854 220.057C65.8761 220.87 69.6336 222.878 72.5823 225.828C75.7262 223.348 79.4088 214.529 79.4457 214.433C79.4839 214.342 79.5566 214.27 79.648 214.233C79.7393 214.195 79.8418 214.196 79.9328 214.234C80.0238 214.272 80.0959 214.345 80.1333 214.436C80.1706 214.528 80.1702 214.63 80.132 214.721C79.9697 215.112 76.1099 224.315 72.752 226.632C72.6845 226.67 72.6072 226.685 72.5306 226.677Z" fill="#263238"/>
<path d="M73.5271 247.067C73.5271 247.067 76.4791 242.374 79.8075 241.709C83.1359 241.045 84.575 237.2 85.8074 239.495C87.0399 241.791 83.6451 249.444 73.5271 247.067Z" fill="#263238"/>
<path d="M88.8329 265.495H56.634L54.479 245.628H90.9879L88.8329 265.495Z" fill="#073D51"/>
<path d="M91.7407 249.392H53.7263L53.2393 245.186H92.2278L91.7407 249.392Z" fill="#073D51"/>
<path opacity="0.3" d="M91.7407 249.392H53.7263L53.2393 245.186H92.2278L91.7407 249.392Z" fill="white"/>
<path d="M307.532 73.5195H218.426V265.495H307.532V73.5195Z" fill="#073D51"/>
<path opacity="0.2" d="M304.691 73.5195H218.426V265.495H304.691V73.5195Z" fill="white"/>
<path d="M248.293 84.3018H229.636V157.135H248.293V84.3018Z" fill="#073D51"/>
<path opacity="0.7" d="M246.566 84.3018H229.636V157.135H246.566V84.3018Z" fill="white"/>
<path d="M236.116 177.541C236.116 178.181 235.926 178.808 235.57 179.341C235.214 179.873 234.708 180.289 234.116 180.534C233.524 180.779 232.872 180.843 232.244 180.718C231.615 180.593 231.038 180.285 230.585 179.832C230.132 179.378 229.823 178.801 229.698 178.173C229.573 177.544 229.637 176.893 229.883 176.301C230.128 175.709 230.543 175.203 231.076 174.847C231.609 174.491 232.235 174.301 232.876 174.301C233.302 174.3 233.723 174.383 234.117 174.545C234.51 174.708 234.868 174.947 235.169 175.248C235.47 175.549 235.709 175.906 235.871 176.3C236.033 176.693 236.117 177.115 236.116 177.541Z" fill="#073D51"/>
<path d="M236.116 180.78C237.905 180.78 239.355 179.33 239.355 177.541C239.355 175.751 237.905 174.301 236.116 174.301C234.326 174.301 232.876 175.751 232.876 177.541C232.876 179.33 234.326 180.78 236.116 180.78Z" fill="#263238"/>
<path opacity="0.8" d="M236.116 180.78C237.905 180.78 239.355 179.33 239.355 177.541C239.355 175.751 237.905 174.301 236.116 174.301C234.326 174.301 232.876 175.751 232.876 177.541C232.876 179.33 234.326 180.78 236.116 180.78Z" fill="white"/>
<path d="M189.666 134.588C187.344 133.469 185.102 132.189 182.958 130.758L182.316 124.965L181.718 119.533C186.02 120.552 195.6 128.035 197.149 131.341C198.271 133.71 198.448 138.67 189.666 134.588Z" fill="#073D51"/>
<path d="M161.571 265.68H155.467C155.367 265.68 155.269 265.714 155.191 265.777C155.113 265.84 155.06 265.929 155.039 266.027L154.05 270.499C154.03 270.595 154.029 270.693 154.046 270.789C154.064 270.885 154.101 270.977 154.155 271.058C154.208 271.14 154.277 271.21 154.358 271.265C154.439 271.32 154.53 271.358 154.626 271.377H154.788C156.759 271.377 158.198 271.222 160.692 271.222C162.22 271.222 166.833 271.385 168.936 271.385C171.039 271.385 171.32 269.304 170.463 269.112C166.589 268.263 163.674 267.097 162.434 265.983C162.196 265.774 161.887 265.666 161.571 265.68Z" fill="#263238"/>
<path d="M187.452 265.517H181.349C181.249 265.518 181.152 265.553 181.074 265.616C180.996 265.679 180.942 265.767 180.921 265.864L179.932 270.337C179.911 270.432 179.91 270.53 179.927 270.625C179.944 270.721 179.981 270.812 180.033 270.894C180.086 270.975 180.155 271.046 180.235 271.101C180.315 271.156 180.405 271.195 180.5 271.215C180.554 271.222 180.609 271.222 180.662 271.215C182.64 271.215 184.079 271.067 186.566 271.067C188.094 271.067 192.699 271.222 194.81 271.222C196.921 271.222 197.194 269.141 196.33 268.949C192.456 268.108 189.541 266.934 188.301 265.82C188.067 265.614 187.763 265.506 187.452 265.517Z" fill="#263238"/>
<path d="M158.338 152.529H185.002C187.541 166.374 194.64 222.337 188.95 265.997L179.917 266.277C179.917 266.277 181.592 199.953 173.622 178.529C172.699 189.998 171.615 202.197 170.67 208.691C168.345 224.669 163.223 266.255 163.223 266.255H154.035C154.035 266.255 156.072 226.137 156.943 210.433C157.888 193.407 158.301 156.027 158.338 152.529Z" fill="#263238"/>
<path opacity="0.2" d="M154.035 266.278H163.223C163.223 266.278 168.345 224.662 170.67 208.714C171.615 202.227 172.699 190.028 173.622 178.559C174.923 182.316 175.91 186.174 176.574 190.094C181.334 215.799 179.888 266.308 179.888 266.308L188.913 266.189C194.611 222.529 187.511 166.301 184.972 152.877H158.338C158.301 156.072 157.895 193.6 156.943 210.648C156.072 226.323 154.035 266.278 154.035 266.278Z" fill="white"/>
<path opacity="0.2" d="M173.622 178.53C174.923 182.287 175.91 186.145 176.574 190.065C177.312 179.866 174.36 169.039 174.36 169.039L173.622 178.53Z" fill="#0C0C0C"/>
<path d="M185.002 152.847H158.338C158.257 147.518 157.848 142.2 157.113 136.921C156.707 134.036 156.161 131.017 155.438 128.065C154.909 125.872 154.246 123.713 153.452 121.6C153.452 121.6 165.26 116.766 181.725 119.549C183.814 130.528 184.91 141.672 185.002 152.847Z" fill="#073D51"/>
<path d="M166.367 155.821L183.009 155.828L182.758 152.552L166.367 152.751V155.821Z" fill="#0C0C0C"/>
<path d="M183.836 155.828H185.592L185.002 152.529L183.577 152.544L183.836 155.828Z" fill="#0C0C0C"/>
<path d="M165.541 152.766L158.338 152.847V155.821H165.541V152.766Z" fill="#0C0C0C"/>
<path d="M177.681 152.331C177.474 152.146 172.869 152.213 172.515 152.626C172.515 152.626 172.338 155.755 172.552 156.028C172.766 156.301 177.179 155.917 177.592 155.903C178.006 155.888 177.858 152.515 177.681 152.331ZM177.172 155.6C176.825 155.6 173.209 155.925 173.031 155.696C172.932 154.767 172.919 153.831 172.995 152.899C173.275 152.567 177.061 152.508 177.231 152.663C177.4 152.818 177.511 155.585 177.172 155.6Z" fill="white"/>
<path d="M176.877 153.57H175.969C175.884 153.572 175.804 153.606 175.744 153.665C175.683 153.724 175.648 153.804 175.644 153.888C175.641 153.934 175.648 153.981 175.664 154.025C175.68 154.069 175.705 154.109 175.738 154.143C175.771 154.176 175.81 154.202 175.854 154.219C175.897 154.236 175.944 154.244 175.991 154.242L176.899 154.205C176.944 154.203 176.989 154.192 177.03 154.172C177.071 154.153 177.108 154.124 177.138 154.09C177.168 154.055 177.19 154.015 177.203 153.971C177.217 153.927 177.221 153.881 177.216 153.836C177.199 153.759 177.156 153.691 177.094 153.642C177.032 153.594 176.955 153.569 176.877 153.57Z" fill="white"/>
<path opacity="0.2" d="M157.113 136.921C156.707 134.036 156.161 131.017 155.438 128.065C155.767 127.824 156.127 127.628 156.508 127.482C156.508 127.482 159.076 132.766 157.113 136.921Z" fill="#0C0C0C"/>
<path d="M153.452 121.585C148.013 124.168 140.596 140.035 142.109 145.408C143.622 150.78 156.943 158.559 156.943 158.559L152.766 162.603C152.766 162.603 156.139 165.466 157.659 165.134C159.179 164.802 160.921 161.09 160.81 159.23C160.7 157.371 158.375 155.821 158.375 155.821C158.375 155.821 148.914 145.71 148.722 143.371C148.257 137.74 155.607 128.611 155.607 128.611L153.452 121.585Z" fill="#B97964"/>
<path d="M153.452 121.585C150.375 122.19 141.039 134.456 141.91 144.463L149.364 143.393C149.364 143.393 151.578 135.858 156.161 131.297C156.161 131.297 157.201 128.53 155.873 124.057C155.379 122.375 153.452 121.585 153.452 121.585Z" fill="#073D51"/>
<path d="M141.394 144.065L149.866 142.987V144.065L141.394 146.087V144.065Z" fill="#073D51"/>
<path opacity="0.2" d="M141.394 144.065L149.866 142.987V144.065L141.394 146.087V144.065Z" fill="white"/>
<path opacity="0.2" d="M189.666 134.589C187.343 133.47 185.102 132.19 182.957 130.759L182.315 124.966C183.858 125.807 189.54 129.298 189.666 134.589Z" fill="#0C0C0C"/>
<path d="M192.013 128.899C192.013 128.899 181.858 127.674 180.013 127.977C178.168 128.279 174.168 131.8 174.013 131.925C173.858 132.051 176.817 135.836 177.445 135.704C178.072 135.571 181.327 132.242 181.415 131.925C181.504 131.608 181.681 131.084 181.681 131.084L191.349 134.198C191.349 134.198 193.504 131.003 192.013 128.899Z" fill="#B97964"/>
<path d="M180.759 127.977C181.386 128.981 181.714 130.143 181.703 131.327H182.729C182.989 130.829 183.143 130.284 183.183 129.724C183.222 129.164 183.146 128.602 182.958 128.072L180.759 127.977Z" fill="#073D51"/>
<path opacity="0.2" d="M180.759 127.977C181.386 128.981 181.714 130.143 181.703 131.327H182.729C182.989 130.829 183.143 130.284 183.183 129.724C183.222 129.164 183.146 128.602 182.958 128.072L180.759 127.977Z" fill="#0C0C0C"/>
<path d="M183.304 128.316C183.304 128.692 182.64 128.943 181.895 128.884C181.149 128.825 180.559 128.478 180.588 128.146C180.618 127.814 181.245 127.519 181.998 127.578C182.751 127.637 183.334 127.947 183.304 128.316Z" fill="#263238"/>
<path d="M182.958 128.05C182.958 128.323 182.478 128.515 181.924 128.471C181.371 128.427 180.943 128.168 180.965 127.895C180.987 127.622 181.452 127.438 181.998 127.482C182.544 127.526 182.98 127.777 182.958 128.05Z" fill="#073D51"/>
<path opacity="0.7" d="M182.958 128.05C182.958 128.323 182.478 128.515 181.924 128.471C181.371 128.427 180.943 128.168 180.965 127.895C180.987 127.622 181.452 127.438 181.998 127.482C182.544 127.526 182.98 127.777 182.958 128.05Z" fill="white"/>
<path d="M191.105 134.619L192.338 128.294L193.341 128.678L192.995 135.334L191.105 134.619Z" fill="#073D51"/>
<path opacity="0.2" d="M191.105 134.619L192.338 128.294L193.341 128.678L192.995 135.334L191.105 134.619Z" fill="white"/>
<path d="M159.548 121.586C159.548 121.586 160.655 118.774 165.962 117.851C171.268 116.929 177.091 119.364 178.508 121.136L173.954 121.586L171.644 126.612L166.397 122.132L159.548 121.586Z" fill="#073D51"/>
<path opacity="0.2" d="M159.548 121.586C159.548 121.586 160.655 118.774 165.962 117.851C171.268 116.929 177.091 119.364 178.508 121.136L173.954 121.586L171.644 126.612L166.397 122.132L159.548 121.586Z" fill="white"/>
<path d="M162.412 120.035C163.43 120.958 165.068 121.356 166.633 121.511L171.4 125.939L172.795 121.098C172.795 121.098 174.603 120.456 173.814 119.283C171.6 118.921 170.544 117.888 170.124 116.574C169.881 115.759 169.805 114.903 169.902 114.058C169.935 113.584 169.997 113.114 170.087 112.648L162.67 107.157C163.622 110.737 164.81 117.408 162.412 120.035Z" fill="#B97964"/>
<path opacity="0.2" d="M164.36 110.604C164.655 115.032 168.308 116.279 170.102 116.508C169.859 115.692 169.783 114.836 169.88 113.991L164.36 110.604Z" fill="#0C0C0C"/>
<path d="M177.356 97.7705C177.356 97.7705 178.205 103.468 174.53 106.132C170.854 108.796 170.84 95.9033 170.84 95.9033L177.356 97.7705Z" fill="#263238"/>
<path d="M163.836 111.637C164.606 112.777 165.728 113.632 167.03 114.072C168.333 114.512 169.744 114.512 171.046 114.073C172.744 113.534 174.173 112.37 175.046 110.818C175.164 110.607 175.275 110.385 175.378 110.154C177.186 105.918 177.762 98.5158 173.29 95.7483C171.762 94.7876 169.915 94.4725 168.155 94.8724C166.395 95.2723 164.865 96.3545 163.902 97.8811C163.327 98.7833 162.977 99.8112 162.884 100.877C162.36 105.822 161.807 108.708 163.836 111.637Z" fill="#B97964"/>
<path d="M170.124 103.519C170.028 103.91 170.205 104.257 170.47 104.324C170.736 104.39 171.002 104.08 171.068 103.682C171.135 103.283 170.98 102.944 170.721 102.877C170.463 102.811 170.197 103.121 170.124 103.519Z" fill="#263238"/>
<path d="M174.641 104.294C174.545 104.685 174.729 105.032 174.987 105.091C175.246 105.15 175.519 104.847 175.585 104.449C175.652 104.05 175.497 103.711 175.238 103.644C174.98 103.578 174.707 103.91 174.641 104.294Z" fill="#263238"/>
<path d="M173.172 104.242C173.436 105.545 173.881 106.804 174.493 107.984C174.186 108.134 173.85 108.215 173.508 108.221C173.166 108.227 172.827 108.159 172.515 108.021L173.172 104.242Z" fill="#A24E3F"/>
<path d="M169.002 101.843C169.044 101.855 169.088 101.857 169.13 101.848C169.173 101.839 169.212 101.82 169.246 101.792C169.456 101.58 169.713 101.422 169.997 101.329C170.281 101.237 170.582 101.213 170.877 101.26C170.907 101.268 170.939 101.27 170.97 101.265C171.001 101.26 171.031 101.249 171.058 101.232C171.085 101.216 171.108 101.194 171.126 101.169C171.144 101.143 171.157 101.114 171.164 101.083C171.172 101.054 171.174 101.023 171.169 100.993C171.165 100.962 171.155 100.933 171.139 100.907C171.123 100.881 171.102 100.858 171.077 100.84C171.053 100.823 171.024 100.81 170.995 100.803C170.625 100.735 170.244 100.758 169.884 100.868C169.524 100.979 169.197 101.174 168.928 101.438C168.884 101.483 168.859 101.544 168.859 101.607C168.859 101.671 168.884 101.732 168.928 101.777C168.949 101.803 168.974 101.826 169.002 101.843Z" fill="#263238"/>
<path d="M168.707 108.117C169.291 108.155 169.859 108.331 170.362 108.631C170.865 108.931 171.289 109.347 171.6 109.844C171.614 109.874 171.616 109.908 171.606 109.939C171.597 109.97 171.576 109.997 171.548 110.014C171.535 110.023 171.52 110.029 171.504 110.031C171.488 110.034 171.472 110.033 171.457 110.029C171.441 110.025 171.427 110.017 171.415 110.007C171.402 109.997 171.393 109.984 171.386 109.97C171.091 109.514 170.694 109.133 170.226 108.858C169.759 108.582 169.233 108.42 168.692 108.383C168.66 108.381 168.63 108.367 168.608 108.344C168.586 108.32 168.574 108.289 168.574 108.257C168.576 108.225 168.59 108.195 168.613 108.173C168.637 108.151 168.667 108.139 168.699 108.139L168.707 108.117Z" fill="#263238"/>
<path d="M176.847 103.069C176.89 103.083 176.937 103.083 176.98 103.069C177.039 103.051 177.09 103.012 177.122 102.959C177.153 102.905 177.163 102.841 177.15 102.781C177.052 102.413 176.867 102.075 176.61 101.794C176.353 101.514 176.032 101.301 175.674 101.172C175.644 101.163 175.612 101.16 175.581 101.163C175.55 101.167 175.519 101.176 175.492 101.191C175.464 101.206 175.44 101.227 175.421 101.251C175.401 101.276 175.387 101.304 175.378 101.334C175.362 101.395 175.37 101.46 175.4 101.515C175.431 101.57 175.481 101.611 175.541 101.63C175.818 101.741 176.066 101.915 176.263 102.14C176.461 102.364 176.602 102.632 176.677 102.921C176.693 102.957 176.716 102.989 176.745 103.014C176.775 103.04 176.809 103.059 176.847 103.069Z" fill="#263238"/>
<path d="M170.227 92.929C169.636 92.8479 169.046 92.7814 168.456 92.7519C166.742 92.5925 165.018 92.9362 163.496 93.7408C160.079 95.7703 160.67 100.958 161.113 104.324C161.696 108.796 163.452 110.818 163.452 110.818C162.389 108.685 162.714 104.53 163.4 104.427C164.087 104.324 164.042 105.121 164.042 105.121C165.585 104.161 166.994 101.431 166.493 99.5268C166.124 98.0508 167.769 96.9733 169.149 97.6596L169.57 97.8663L170.227 98.1688V92.929Z" fill="#263238"/>
<path d="M160.08 104.538C160.255 105.133 160.546 105.688 160.936 106.17C161.326 106.653 161.808 107.053 162.353 107.35C163.829 108.139 164.906 106.914 164.81 105.342C164.707 103.947 163.843 101.815 162.22 101.652C161.862 101.624 161.502 101.687 161.175 101.835C160.848 101.984 160.564 102.213 160.35 102.502C160.136 102.79 159.999 103.129 159.952 103.485C159.904 103.841 159.948 104.203 160.08 104.538Z" fill="#B97964"/>
<path d="M172.205 97.1796C171.88 97.7479 172.692 99.5781 170.854 99.1427C169.017 98.7073 168.891 99.4822 167.592 100.744C166.293 102.006 163.651 100.087 163.651 100.087L160.773 100.464C160.773 100.464 158.663 98.5745 159.984 97.556C161.305 96.5376 161.592 95.0911 162.397 93.3863C163.201 91.6815 166.788 89.4675 170.589 92.0579C170.589 92.0579 172.611 91.3642 173.504 91.866C174.171 92.3486 174.718 92.9771 175.105 93.7037C175.228 93.5525 175.382 93.4294 175.556 93.3428C175.73 93.2563 175.921 93.2082 176.116 93.2019C176.31 93.1956 176.504 93.2312 176.684 93.3063C176.863 93.3814 177.025 93.4943 177.157 93.6372C178.19 94.7147 177.371 98.5671 178.256 99.5412C179.142 100.515 177.157 101.704 177.157 101.704C177.157 101.704 175.6 101.335 175.6 100.191C175.6 98.1685 175.304 97.4453 174.316 97.0763C174.132 97.0138 173.933 97.0108 173.748 97.0678C173.562 97.1248 173.399 97.2388 173.282 97.3937C173.282 97.3937 172.692 96.2793 172.205 97.1796Z" fill="#263238"/>
</svg>
