<svg width="49" height="49" viewBox="0 0 49 49" fill="none" xmlns="http://www.w3.org/2000/svg">
<rect x="1" y="1" width="47" height="47" rx="11" fill="#073D51" stroke="#E6ECEE" stroke-width="2"/>
<path fill-rule="evenodd" clip-rule="evenodd" d="M25 15C24.1716 15 23.5 15.6716 23.5 16.5V23.5H16.5C15.6716 23.5 15 24.1716 15 25C15 25.8284 15.6716 26.5 16.5 26.5H23.5V33.5C23.5 34.3284 24.1716 35 25 35C25.8284 35 26.5 34.3284 26.5 33.5V26.5H33.5C34.3284 26.5 35 25.8284 35 25C35 24.1716 34.3284 23.5 33.5 23.5H26.5V16.5C26.5 15.6716 25.8284 15 25 15Z" fill="#F4F4F6"/>
</svg>
