<svg width="36" height="36" viewBox="0 0 36 36" fill="none" xmlns="http://www.w3.org/2000/svg">
<rect width="36" height="36" rx="8" fill="white"/>
<path d="M15.57 24.8201C15.38 24.8201 15.19 24.7501 15.04 24.6001L8.97 18.5301C8.68 18.2401 8.68 17.7601 8.97 17.4701L15.04 11.4001C15.33 11.1101 15.81 11.1101 16.1 11.4001C16.39 11.6901 16.39 12.1701 16.1 12.4601L10.56 18.0001L16.1 23.5401C16.39 23.8301 16.39 24.3101 16.1 24.6001C15.96 24.7501 15.76 24.8201 15.57 24.8201Z" fill="#0C0C0C"/>
<path d="M26.5 18.75H9.67001C9.26001 18.75 8.92001 18.41 8.92001 18C8.92001 17.59 9.26001 17.25 9.67001 17.25H26.5C26.91 17.25 27.25 17.59 27.25 18C27.25 18.41 26.91 18.75 26.5 18.75Z" fill="#0C0C0C"/>
</svg>
