<svg width="42" height="42" viewBox="0 0 42 42" fill="none" xmlns="http://www.w3.org/2000/svg">
<path d="M30.1701 39.8125H11.8301C6.93006 39.8125 3.81506 36.89 3.53506 32.0075L2.62506 17.57C2.48506 15.3825 3.23756 13.2825 4.74256 11.69C6.23006 10.0975 8.33006 9.1875 10.5001 9.1875C11.0601 9.1875 11.6026 8.855 11.8651 8.33L13.1251 5.8275C14.1576 3.78 16.7476 2.1875 19.0051 2.1875H23.0126C25.2701 2.1875 27.8426 3.78 28.8751 5.81L30.1351 8.365C30.3976 8.855 30.9226 9.1875 31.5001 9.1875C33.6701 9.1875 35.7701 10.0975 37.2576 11.69C38.7626 13.3 39.5151 15.3825 39.3751 17.57L38.4651 32.025C38.1501 36.9775 35.1226 39.8125 30.1701 39.8125ZM19.0051 4.8125C17.7101 4.8125 16.0651 5.8275 15.4701 7L14.2101 9.52C13.4751 10.9375 12.0576 11.8125 10.5001 11.8125C9.03006 11.8125 7.66506 12.4075 6.65006 13.475C5.65256 14.5425 5.14506 15.9425 5.25006 17.395L6.16006 31.85C6.37006 35.385 8.27756 37.1875 11.8301 37.1875H30.1701C33.7051 37.1875 35.6126 35.385 35.8401 31.85L36.7501 17.395C36.8376 15.9425 36.3476 14.5425 35.3501 13.475C34.3351 12.4075 32.9701 11.8125 31.5001 11.8125C29.9426 11.8125 28.5251 10.9375 27.7901 9.555L26.5126 7C25.9351 5.845 24.2901 4.83 22.9951 4.83H19.0051V4.8125Z" fill="#F4F4F6"/>
<path d="M23.625 15.3125H18.375C17.6575 15.3125 17.0625 14.7175 17.0625 14C17.0625 13.2825 17.6575 12.6875 18.375 12.6875H23.625C24.3425 12.6875 24.9375 13.2825 24.9375 14C24.9375 14.7175 24.3425 15.3125 23.625 15.3125Z" fill="#F4F4F6"/>
<path d="M21 32.8125C17.1325 32.8125 14 29.68 14 25.8125C14 21.945 17.1325 18.8125 21 18.8125C24.8675 18.8125 28 21.945 28 25.8125C28 29.68 24.8675 32.8125 21 32.8125ZM21 21.4375C18.585 21.4375 16.625 23.3975 16.625 25.8125C16.625 28.2275 18.585 30.1875 21 30.1875C23.415 30.1875 25.375 28.2275 25.375 25.8125C25.375 23.3975 23.415 21.4375 21 21.4375Z" fill="#F4F4F6"/>
</svg>
