<svg width="36" height="36" viewBox="0 0 36 36" fill="none" xmlns="http://www.w3.org/2000/svg">
<rect width="36" height="36" rx="8" fill="#F4F4F6"/>
<path fill-rule="evenodd" clip-rule="evenodd" d="M23.5351 24.4175C23.6851 24.5675 23.8751 24.6375 24.0651 24.6375C24.2551 24.6375 24.4551 24.5675 24.5951 24.4175C24.8851 24.1275 24.8851 23.6475 24.5951 23.3575L19.0551 17.8175L24.5951 12.2775C24.8851 11.9875 24.8851 11.5075 24.5951 11.2175C24.3051 10.9275 23.8251 10.9275 23.5351 11.2175L17.8149 16.9376L12.2774 11.4001C11.9874 11.1101 11.5074 11.1101 11.2174 11.4001C10.9274 11.6901 10.9274 12.1701 11.2174 12.4601L16.7574 18.0001L11.2174 23.5401C10.9274 23.8301 10.9274 24.3101 11.2174 24.6001C11.3574 24.7501 11.5574 24.8201 11.7474 24.8201C11.9374 24.8201 12.1274 24.7501 12.2774 24.6001L17.9976 18.88L23.5351 24.4175Z" fill="#0C0C0C"/>
</svg>
