<svg width="24" height="24" viewBox="0 0 24 24" fill="none" xmlns="http://www.w3.org/2000/svg">
<path fill-rule="evenodd" clip-rule="evenodd" d="M17.5351 18.4175C17.6851 18.5675 17.8751 18.6375 18.0651 18.6375C18.2551 18.6375 18.4551 18.5675 18.5951 18.4175C18.8851 18.1275 18.8851 17.6475 18.5951 17.3575L13.0551 11.8175L18.5951 6.2775C18.8851 5.9875 18.8851 5.5075 18.5951 5.2175C18.3051 4.9275 17.8251 4.9275 17.5351 5.2175L11.815 10.9376L6.2775 5.40012C5.9875 5.11012 5.5075 5.11012 5.2175 5.40012C4.9275 5.69012 4.9275 6.17012 5.2175 6.46012L10.7575 12.0001L5.2175 17.5401C4.9275 17.8301 4.9275 18.3101 5.2175 18.6001C5.3575 18.7501 5.5575 18.8201 5.7475 18.8201C5.9375 18.8201 6.1275 18.7501 6.2775 18.6001L11.9976 12.88L17.5351 18.4175Z" fill="#0C0C0C"/>
</svg>
