<svg width="32" height="32" viewBox="0 0 32 32" fill="none" xmlns="http://www.w3.org/2000/svg">
<path d="M22.2531 19.4538H9.5064C9.49529 19.4538 9.48441 19.457 9.47509 19.4631C9.46577 19.4691 9.4584 19.4778 9.45387 19.4879C8.81894 20.926 7.19894 21.666 5.7184 21.0106C5.024 20.703 4.52631 20.1885 4.22534 19.4671C4.22178 19.4584 4.2152 19.454 4.2056 19.454C3.7152 19.4548 3.23494 19.4922 2.7496 19.3428C2.30507 19.206 2.0104 18.9652 1.71894 18.5927C1.188 17.9138 0.818137 17.1399 0.659737 16.2874C0.64587 16.2129 0.641603 16.0661 0.646937 15.8471C0.65387 15.5641 0.73547 15.2809 0.891737 14.9975C1.14951 14.5305 1.41005 14.0651 1.67334 13.6012C2.03627 12.962 2.71894 12.5055 3.44667 12.4335C3.77334 12.4012 4.23894 12.4151 4.49547 12.4068C5.34294 12.3804 6.18223 12.2804 7.01334 12.1068C7.868 11.9284 8.724 11.6652 9.56694 11.4218C10.3328 11.2007 11.1171 11.0098 11.9048 10.886C13.7088 10.6031 15.5629 10.5812 17.3667 10.6882C17.5507 10.6988 17.7491 10.7242 17.9312 10.7796C18.3795 10.9162 18.8117 11.1322 19.2347 11.3327C20.4069 11.8877 21.5872 12.4251 22.7755 12.9447C22.9632 13.0268 23.2077 13.1042 23.4368 13.1463C25.224 13.4756 27.0029 13.8543 28.6944 14.5378C29.339 14.7982 29.9465 15.125 30.5168 15.518C30.6914 15.6382 30.8269 15.7521 30.9235 15.8596C31.2154 16.1846 31.3798 16.5644 31.4168 16.9988C31.4324 17.1839 31.4354 17.418 31.4256 17.701C31.4174 17.9301 31.3973 18.1063 31.3653 18.2295C31.2093 18.8271 30.7141 19.2967 30.1093 19.4191C29.9984 19.4417 29.8214 19.4531 29.5784 19.4532C28.8961 19.454 28.2139 19.454 27.5317 19.4535C27.5223 19.4535 27.5157 19.4579 27.512 19.4666C27.1896 20.1978 26.6176 20.794 25.8613 21.073C24.4373 21.5986 22.8392 20.8906 22.2787 19.4711C22.2766 19.466 22.2731 19.4616 22.2685 19.4585C22.264 19.4554 22.2586 19.4538 22.2531 19.4538ZM8.8768 12.9535C9.47947 13.2833 10.0726 13.6122 10.6563 13.9402C10.8173 14.0308 11.0052 14.0798 11.2197 14.0871C11.7813 14.1065 12.3349 14.125 12.8805 14.1426C12.9125 14.1436 12.9283 14.1282 12.9277 14.0962C12.9235 13.8647 12.9045 13.5684 12.9728 13.378C13.0923 13.0436 13.5109 12.9106 13.8267 13.0407C14.3027 13.2372 14.2117 13.7767 14.2056 14.1812C14.2055 14.1883 14.2082 14.195 14.213 14.2001C14.2178 14.2052 14.2245 14.2082 14.2315 14.2084C15.9444 14.2732 17.6589 14.3355 19.3752 14.3954C19.6464 14.405 19.8509 14.306 20.0744 14.1679C20.3908 13.9722 20.709 13.7788 21.0288 13.5879C21.0308 13.5868 21.0324 13.5851 21.0334 13.5831C21.0345 13.5811 21.035 13.5789 21.0348 13.5766C21.0346 13.5744 21.0338 13.5722 21.0325 13.5704C21.0311 13.5685 21.0293 13.5671 21.0272 13.5663C20.9685 13.5418 20.9107 13.5052 20.8563 13.4818C19.8947 13.0656 18.9361 12.6425 17.9805 12.2124C17.736 12.1023 17.5144 12.0388 17.2323 12.0234C16.0312 11.9583 14.9091 11.93 13.7181 12.0106C13.0269 12.0572 12.3404 12.1428 11.6587 12.2676C10.7235 12.4386 9.79734 12.6708 8.88107 12.918C8.87734 12.919 8.87399 12.9211 8.87146 12.924C8.86893 12.9269 8.86733 12.9305 8.86687 12.9343C8.86641 12.9382 8.86711 12.942 8.86888 12.9455C8.87065 12.9489 8.87341 12.9517 8.8768 12.9535ZM8.14294 16.0124C8.96614 16.4527 9.48427 17.2271 9.59814 18.149C9.59892 18.1558 9.60221 18.1621 9.60737 18.1667C9.61253 18.1712 9.61921 18.1738 9.62614 18.1738H22.0616C22.0724 18.1738 22.079 18.1684 22.0813 18.1578C22.0981 18.0783 22.1077 17.9698 22.1181 17.9162C22.5155 15.8975 24.8501 15.0116 26.4853 16.238C27.1115 16.7077 27.476 17.3407 27.5789 18.137C27.5803 18.147 27.5852 18.1561 27.5927 18.1627C27.6002 18.1693 27.6098 18.173 27.6197 18.173C28.2884 18.1742 28.9511 18.1743 29.608 18.1732C29.7979 18.1727 29.964 18.1415 30.0395 17.9674C30.102 17.8227 30.1356 17.727 30.1403 17.6804C30.1529 17.5507 30.1518 17.2929 30.1371 16.9071C30.1312 16.7506 30.0952 16.6796 29.9627 16.5858C29.3411 16.146 28.6453 15.806 27.9336 15.5402C26.6749 15.07 25.3536 14.7476 24.0333 14.5076C23.5045 14.4114 23.028 14.3386 22.4824 14.1458C22.4737 14.1428 22.4655 14.1436 22.4579 14.1484C21.9612 14.4572 21.4642 14.7655 20.9669 15.0732C20.7045 15.2357 20.5525 15.328 20.5109 15.35C20.1328 15.5504 19.7342 15.6424 19.3152 15.626C16.5412 15.5171 13.7672 15.4062 10.9933 15.2935C10.6296 15.2788 10.3787 15.1855 10.0328 14.9978C9.04027 14.4589 8.04676 13.9212 7.05227 13.3847C7.04463 13.3804 7.03636 13.3791 7.02747 13.3807C6.38054 13.4999 5.74534 13.554 5.09094 13.6058C4.72294 13.6351 4.35147 13.6279 3.98267 13.6314C3.72596 13.6337 3.55218 13.6485 3.46134 13.6759C3.19067 13.7575 2.99627 13.9468 2.85387 14.194C2.73885 14.3933 2.46649 14.8748 2.0368 15.6383C1.97094 15.7554 1.92694 15.8714 1.95014 15.9916C2.05858 16.5534 2.27867 17.0774 2.6104 17.5636C2.8504 17.9154 3.01494 18.1588 3.42667 18.1724C3.51467 18.1753 3.73307 18.1754 4.08187 18.1727C4.09147 18.1725 4.09698 18.1677 4.0984 18.1583C4.11627 18.0324 4.1344 17.8964 4.1616 17.7839C4.584 16.0215 6.5512 15.1604 8.14294 16.0124ZM8.31254 18.4954C8.31254 18.2947 8.273 18.0959 8.19618 17.9104C8.11937 17.725 8.00678 17.5565 7.86484 17.4145C7.7229 17.2726 7.5544 17.16 7.36895 17.0832C7.1835 17.0064 6.98473 16.9668 6.784 16.9668C6.37861 16.9668 5.98982 17.1279 5.70317 17.4145C5.41651 17.7012 5.25547 18.09 5.25547 18.4954C5.25547 18.9008 5.41651 19.2896 5.70317 19.5762C5.98982 19.8629 6.37861 20.0239 6.784 20.0239C6.98473 20.0239 7.1835 19.9844 7.36895 19.9076C7.5544 19.8307 7.7229 19.7182 7.86484 19.5762C8.00678 19.4343 8.11937 19.2658 8.19618 19.0803C8.273 18.8949 8.31254 18.6961 8.31254 18.4954ZM26.3603 18.4956C26.3603 18.0902 26.1992 17.7013 25.9125 17.4146C25.6258 17.1279 25.2369 16.9668 24.8315 16.9668C24.426 16.9668 24.0371 17.1279 23.7504 17.4146C23.4637 17.7013 23.3027 18.0902 23.3027 18.4956C23.3027 18.9011 23.4637 19.29 23.7504 19.5767C24.0371 19.8634 24.426 20.0244 24.8315 20.0244C25.2369 20.0244 25.6258 19.8634 25.9125 19.5767C26.1992 19.29 26.3603 18.9011 26.3603 18.4956Z" fill="#0C0C0C"/>
</svg>
