<svg width="22" height="22" viewBox="0 0 22 22" fill="none" xmlns="http://www.w3.org/2000/svg">
<path fill-rule="evenodd" clip-rule="evenodd" d="M11.0003 2.20027C6.14819 2.20027 2.20027 6.14816 2.20027 11.0003C2.20027 15.8524 6.14819 19.8002 11.0003 19.8002C15.8524 19.8002 19.8004 15.8524 19.8004 11.0003C19.8004 6.14816 15.8524 2.20027 11.0003 2.20027ZM11 22C4.9346 22 0 17.0654 0 11C0 4.9346 4.9346 0 11 0C17.0654 0 22 4.9346 22 11C22 17.0654 17.0654 22 11 22Z" fill="#073D51"/>
<path fill-rule="evenodd" clip-rule="evenodd" d="M14.8338 11.001C15.7454 11.001 16.4842 10.2622 16.4842 9.35059C16.4842 8.43902 15.7454 7.7002 14.8338 7.7002C13.9222 7.7002 13.1834 8.43902 13.1834 9.35059C13.1834 10.2622 13.9222 11.001 14.8338 11.001ZM8.78389 9.35063C8.78389 10.2622 8.04506 11.001 7.13349 11.001C6.22192 11.001 5.48309 10.2622 5.48309 9.35063C5.48309 8.43907 6.22192 7.70024 7.13349 7.70024C8.04506 7.70024 8.78389 8.43907 8.78389 9.35063ZM10.9831 17.2288C9.23576 17.2288 7.5698 16.4786 6.41205 15.1696C6.06005 14.7714 6.09745 14.1637 6.4951 13.8111C6.8933 13.4591 7.5016 13.496 7.85415 13.8947C8.64615 14.7896 9.78686 15.3038 10.9831 15.3038C12.1794 15.3038 13.3201 14.7896 14.1121 13.8947C14.4646 13.4949 15.0735 13.4591 15.4711 13.8111C15.8688 14.1637 15.9062 14.7714 15.5542 15.1696C14.3964 16.4786 12.7305 17.2288 10.9831 17.2288Z" fill="#073D51"/>
</svg>
