<svg width="32" height="32" viewBox="0 0 32 32" fill="none" xmlns="http://www.w3.org/2000/svg">
<path fill-rule="evenodd" clip-rule="evenodd" d="M3.54664 7.38699C3.54664 7.40171 3.50464 7.41371 3.45336 7.41371C3.38816 7.41371 3.36 7.42571 3.36 7.45371C3.36 7.47635 3.33608 7.49371 3.3048 7.49371C3.24928 7.49371 3.17336 7.55059 3.17336 7.59211C3.17336 7.60435 3.14336 7.63691 3.10664 7.66443C3.0628 7.69739 3.04 7.74051 3.04 7.79075C3.04 7.83267 3.028 7.86699 3.01336 7.86699C2.99792 7.86699 2.98664 7.95147 2.98664 8.06699C2.98664 8.18259 2.99792 8.26699 3.01336 8.26699C3.028 8.26699 3.04 8.29139 3.04 8.32115C3.04 8.35099 3.058 8.38227 3.08 8.39067C3.102 8.39915 3.12 8.42875 3.12 8.45651C3.12 8.48427 3.132 8.50699 3.14664 8.50699C3.16136 8.50699 3.17336 8.51987 3.17336 8.53555C3.17336 8.57251 3.2412 8.64035 3.27808 8.64035C3.29384 8.64035 3.30664 8.66435 3.30664 8.69371C3.30664 8.72299 3.31864 8.74699 3.33336 8.74699C3.348 8.74699 3.36 8.75987 3.36 8.77555C3.36 8.81251 3.42784 8.88035 3.4648 8.88035C3.48048 8.88035 3.49336 8.89835 3.49336 8.92035C3.49336 8.94235 3.50536 8.96035 3.52 8.96035C3.53464 8.96035 3.54664 8.97875 3.54664 9.00115C3.54664 9.02363 3.56464 9.04891 3.58664 9.05739C3.60864 9.06579 3.62664 9.08395 3.62664 9.09771C3.62664 9.13179 3.7508 9.25371 3.78544 9.25371C3.8008 9.25371 3.81336 9.27771 3.81336 9.30699C3.81336 9.33635 3.82536 9.36035 3.84 9.36035C3.85464 9.36035 3.86664 9.37731 3.86664 9.39811C3.86664 9.41891 3.88168 9.44131 3.9 9.44787C3.92264 9.45595 3.914 9.47699 3.87336 9.51323C3.84032 9.54259 3.81336 9.58019 3.81336 9.59683C3.81336 9.61339 3.8008 9.62699 3.78544 9.62699C3.74928 9.62699 3.62664 9.74963 3.62664 9.78579C3.62664 9.80115 3.60864 9.81371 3.58664 9.81371C3.56464 9.81371 3.54664 9.82571 3.54664 9.84035C3.54664 9.85499 3.52568 9.86739 3.5 9.86787C3.45008 9.86875 3.36 9.92715 3.36 9.95851C3.36 9.98219 3.28984 10.0537 3.26664 10.0537C3.2444 10.0537 3.17336 10.1248 3.17336 10.147C3.17336 10.1799 3.0968 10.2404 3.0552 10.2404C3.03216 10.2404 3.01336 10.2524 3.01336 10.267C3.01336 10.2817 2.99536 10.2937 2.97336 10.2937C2.95136 10.2937 2.93336 10.3117 2.93336 10.3337C2.93336 10.3557 2.9208 10.3737 2.90544 10.3737C2.86928 10.3737 2.74664 10.4963 2.74664 10.5325C2.74664 10.5478 2.73128 10.5604 2.71256 10.5604C2.69376 10.5604 2.66112 10.5844 2.64 10.6137C2.61888 10.643 2.57424 10.667 2.5408 10.667C2.50736 10.667 2.48 10.6796 2.48 10.6949C2.48 10.7311 2.35744 10.8537 2.3212 10.8537C2.30584 10.8537 2.29336 10.8662 2.29336 10.8816C2.29336 10.9178 2.17072 11.0404 2.13456 11.0404C2.1192 11.0404 2.10664 11.0584 2.10664 11.0804C2.10664 11.1026 2.08296 11.1204 2.05336 11.1204C2.024 11.1204 2 11.1324 2 11.147C2 11.1617 1.98712 11.1737 1.97144 11.1737C1.94032 11.1737 1.86664 11.2393 1.86664 11.267C1.86664 11.2892 1.7956 11.3604 1.77336 11.3604C1.74568 11.3604 1.68 11.434 1.68 11.4652C1.68 11.4808 1.656 11.4937 1.62664 11.4937C1.59736 11.4937 1.57336 11.5057 1.57336 11.5204C1.57336 11.535 1.55536 11.547 1.53336 11.547C1.51136 11.547 1.49336 11.565 1.49336 11.587C1.49336 11.609 1.4808 11.627 1.46544 11.627C1.42928 11.627 1.30664 11.7496 1.30664 11.7858C1.30664 11.8012 1.29128 11.8137 1.27256 11.8137C1.25376 11.8137 1.22112 11.8377 1.2 11.867C1.17888 11.8964 1.14024 11.9204 1.11408 11.9204C1.088 11.9204 1.06664 11.9384 1.06664 11.9604C1.06664 11.9824 1.0536 12.0004 1.03768 12.0004C1.02176 12.0004 0.94424 12.0664 0.86552 12.147C0.7868 12.2277 0.71024 12.2937 0.69544 12.2937C0.68064 12.2937 0.65424 12.3204 0.63672 12.3532C0.59576 12.4296 0.54472 12.4804 0.50856 12.4804C0.49288 12.4804 0.48 12.5104 0.48 12.547C0.48 12.5837 0.468 12.6137 0.45336 12.6137C0.43584 12.6137 0.42664 13.2448 0.42664 14.4537C0.42664 15.6626 0.41752 16.2937 0.4 16.2937C0.38536 16.2937 0.37336 16.3237 0.37336 16.3604C0.37336 16.4019 0.35824 16.427 0.33336 16.427C0.30944 16.427 0.29336 16.4516 0.29336 16.4878C0.29336 16.5212 0.26936 16.5659 0.24 16.587C0.21064 16.6082 0.18664 16.6528 0.18664 16.6863C0.18664 16.7225 0.17056 16.747 0.14664 16.747C0.12448 16.747 0.10664 16.7708 0.10664 16.8004C0.10664 16.8297 0.09464 16.8537 0.08 16.8537C0.06536 16.8537 0.05336 16.8837 0.05336 16.9204C0.05336 16.957 0.04136 16.987 0.02664 16.987C0.0092 16.987 0 17.5204 0 18.5337C0 19.547 0.0092 20.0804 0.02664 20.0804C0.04136 20.0804 0.05336 20.1044 0.05336 20.1337C0.05336 20.163 0.06536 20.187 0.08 20.187C0.09464 20.187 0.10664 20.2114 0.10664 20.2412C0.10664 20.271 0.12464 20.3023 0.14664 20.3107C0.16864 20.3192 0.18664 20.3428 0.18664 20.3632C0.18664 20.3836 0.19728 20.4004 0.21032 20.4004C0.22328 20.4004 0.25384 20.4424 0.27824 20.4937C0.30256 20.545 0.33392 20.587 0.34792 20.587C0.36192 20.587 0.37336 20.605 0.37336 20.627C0.37336 20.649 0.38536 20.667 0.4 20.667C0.41464 20.667 0.42664 20.6867 0.42664 20.7106C0.42664 20.7346 0.45664 20.782 0.49336 20.816C0.53 20.85 0.56 20.8909 0.56 20.9068C0.56 20.9228 0.584 20.9617 0.61336 20.9932C0.64264 21.0247 0.66664 21.0721 0.66664 21.0988C0.66664 21.1253 0.68464 21.147 0.70664 21.147C0.72864 21.147 0.74664 21.165 0.74664 21.187C0.74664 21.209 0.75864 21.227 0.77336 21.227C0.788 21.227 0.8 21.2467 0.8 21.2706C0.8 21.2946 0.83 21.342 0.86664 21.376C0.90336 21.41 0.93336 21.4509 0.93336 21.4668C0.93336 21.4828 0.95736 21.5217 0.98664 21.5532C1.016 21.5847 1.04 21.6297 1.04 21.6534C1.04 21.6783 1.07928 21.7105 1.13336 21.73C1.18464 21.7486 1.22664 21.775 1.22664 21.7888C1.22664 21.8024 1.26864 21.8137 1.32 21.8137C1.3852 21.8137 1.41336 21.8257 1.41336 21.8537C1.41336 21.888 1.49776 21.8937 2.01336 21.8937C2.59552 21.8937 2.61336 21.8952 2.61336 21.947C2.61336 21.9764 2.62536 22.0004 2.64 22.0004C2.65464 22.0004 2.66664 22.0424 2.66664 22.0937C2.66664 22.1588 2.67872 22.187 2.70664 22.187C2.73464 22.187 2.74664 22.2152 2.74664 22.2804C2.74664 22.3317 2.75864 22.3737 2.77336 22.3737C2.788 22.3737 2.8 22.4217 2.8 22.4804C2.8 22.539 2.812 22.587 2.82664 22.587C2.84136 22.587 2.85336 22.611 2.85336 22.6404C2.85336 22.67 2.87112 22.6937 2.89336 22.6937C2.91824 22.6937 2.93336 22.7188 2.93336 22.7604C2.93336 22.797 2.94536 22.827 2.96 22.827C2.97464 22.827 2.98664 22.8519 2.98664 22.8823C2.98664 22.9413 3.0444 23.0137 3.09144 23.0137C3.10712 23.0137 3.12 23.0411 3.12 23.0744C3.12 23.1079 3.144 23.1525 3.17336 23.1737C3.20264 23.1948 3.22664 23.2395 3.22664 23.2729C3.22664 23.3064 3.2392 23.3337 3.25456 23.3337C3.29072 23.3337 3.41336 23.4563 3.41336 23.4925C3.41336 23.5078 3.42872 23.5204 3.44744 23.5204C3.46624 23.5204 3.49888 23.5444 3.52 23.5737C3.54112 23.603 3.57376 23.627 3.59256 23.627C3.61128 23.627 3.62664 23.6396 3.62664 23.6549C3.62664 23.6911 3.74928 23.8137 3.78544 23.8137C3.8008 23.8137 3.81336 23.8265 3.81336 23.8423C3.81336 23.8855 3.88384 23.947 3.93336 23.947C3.9828 23.947 4.05336 24.0086 4.05336 24.0518C4.05336 24.0675 4.08072 24.0804 4.11408 24.0804C4.14752 24.0804 4.19216 24.1044 4.21336 24.1337C4.23448 24.163 4.27912 24.187 4.31256 24.187C4.3488 24.187 4.37336 24.2032 4.37336 24.227C4.37336 24.2492 4.39704 24.267 4.42664 24.267C4.456 24.267 4.48 24.279 4.48 24.2937C4.48 24.3084 4.516 24.3204 4.56 24.3204C4.604 24.3204 4.64 24.3324 4.64 24.347C4.64 24.3617 4.676 24.3737 4.72 24.3737C4.77336 24.3737 4.8 24.387 4.8 24.4137C4.8 24.4416 4.82816 24.4537 4.89336 24.4537C4.94464 24.4537 4.98664 24.4657 4.98664 24.4804C4.98664 24.495 5.03936 24.507 5.10384 24.507C5.18336 24.507 5.22592 24.5199 5.23632 24.547C5.24864 24.5791 5.30744 24.587 5.53248 24.587C5.70192 24.587 5.81336 24.5976 5.81336 24.6137C5.81336 24.6285 5.88448 24.6404 5.97336 24.6404C6.06224 24.6404 6.13336 24.6285 6.13336 24.6137C6.13336 24.5978 6.23496 24.587 6.3848 24.587C6.57272 24.587 6.64632 24.5769 6.67616 24.547C6.69848 24.5248 6.7636 24.507 6.8232 24.507C6.882 24.507 6.9376 24.495 6.94664 24.4804C6.95576 24.4657 7.0044 24.4537 7.05488 24.4537C7.11872 24.4537 7.14664 24.4415 7.14664 24.4137C7.14664 24.3915 7.1704 24.3737 7.2 24.3737C7.22936 24.3737 7.25336 24.3617 7.25336 24.347C7.25336 24.3324 7.29536 24.3204 7.34664 24.3204C7.398 24.3204 7.44 24.3084 7.44 24.2937C7.44 24.279 7.47 24.267 7.50664 24.267C7.54816 24.267 7.57336 24.2519 7.57336 24.227C7.57336 24.2048 7.59704 24.187 7.62664 24.187C7.656 24.187 7.68 24.175 7.68 24.1604C7.68 24.1457 7.698 24.1337 7.72 24.1337C7.742 24.1337 7.76 24.1217 7.76 24.107C7.76 24.0924 7.79 24.0804 7.82664 24.0804C7.86336 24.0804 7.89336 24.0675 7.89336 24.0518C7.89336 24.0124 7.96208 23.9472 8.0048 23.9462C8.0456 23.9452 8.13336 23.8833 8.13336 23.8555C8.13336 23.8319 8.20344 23.7604 8.22664 23.7604C8.25432 23.7604 8.32 23.6867 8.32 23.6556C8.32 23.6399 8.33256 23.627 8.34784 23.627C8.38408 23.627 8.50664 23.5044 8.50664 23.4682C8.50664 23.4529 8.51952 23.4404 8.5352 23.4404C8.57216 23.4404 8.64 23.3725 8.64 23.3356C8.64 23.3199 8.652 23.307 8.66664 23.307C8.68136 23.307 8.69336 23.283 8.69336 23.2537C8.69336 23.2244 8.70616 23.2004 8.72192 23.2004C8.76688 23.2004 8.82664 23.129 8.82664 23.0752C8.82664 23.0484 8.85664 23.0038 8.89336 22.9763C8.93 22.9488 8.96 22.9039 8.96 22.8766C8.96 22.8493 8.972 22.827 8.98664 22.827C9.00136 22.827 9.01336 22.797 9.01336 22.7604C9.01336 22.7237 9.02536 22.6937 9.04 22.6937C9.05464 22.6937 9.06664 22.6688 9.06664 22.6384C9.06664 22.608 9.08464 22.5652 9.10664 22.5432C9.12864 22.5212 9.14664 22.474 9.14664 22.4384C9.14664 22.4028 9.15864 22.3737 9.17336 22.3737C9.188 22.3737 9.2 22.3317 9.2 22.2804C9.2 22.229 9.212 22.187 9.22664 22.187C9.24136 22.187 9.25336 22.133 9.25336 22.067C9.25336 21.9781 9.26368 21.947 9.29336 21.947C9.31536 21.947 9.33336 21.935 9.33336 21.9204C9.33336 21.9028 9.90224 21.8937 10.9866 21.8937C12.4385 21.8937 12.64 21.8888 12.64 21.8537C12.64 21.8267 12.667 21.8137 12.7235 21.8137C12.7722 21.8137 12.8253 21.7927 12.8506 21.7636C12.8745 21.736 12.9179 21.7088 12.947 21.7032C12.9774 21.6975 13.0036 21.6677 13.0086 21.6334C13.0132 21.6006 13.0282 21.5737 13.0418 21.5737C13.0555 21.5737 13.0666 21.5608 13.0666 21.5452C13.0666 21.5294 13.0846 21.4985 13.1066 21.4765C13.1649 21.4184 13.1649 20.9337 13.1066 20.9337C13.0828 20.9337 13.0666 20.9092 13.0666 20.8729C13.0666 20.8395 13.0426 20.7948 13.0134 20.7737C12.984 20.7525 12.96 20.7199 12.96 20.7012C12.96 20.6824 12.942 20.667 12.92 20.667C12.898 20.667 12.88 20.655 12.88 20.6404C12.88 20.6257 12.856 20.6137 12.8266 20.6137C12.7974 20.6137 12.7734 20.6017 12.7734 20.587C12.7734 20.5696 12.1822 20.5604 11.0534 20.5604C9.34224 20.5604 9.33336 20.56 9.33336 20.5062C9.33336 20.4764 9.31536 20.4451 9.29336 20.4367C9.26616 20.4263 9.25336 20.3837 9.25336 20.3042C9.25336 20.2397 9.24136 20.187 9.22664 20.187C9.212 20.187 9.2 20.145 9.2 20.0937C9.2 20.0424 9.188 20.0004 9.17336 20.0004C9.15864 20.0004 9.14664 19.9704 9.14664 19.9337C9.14664 19.8922 9.13152 19.867 9.10664 19.867C9.08176 19.867 9.06664 19.8419 9.06664 19.8004C9.06664 19.7637 9.05464 19.7337 9.04 19.7337C9.02536 19.7337 9.01336 19.7037 9.01336 19.667C9.01336 19.6304 9.00136 19.6004 8.98664 19.6004C8.972 19.6004 8.96 19.5764 8.96 19.547C8.96 19.5174 8.94224 19.4937 8.92 19.4937C8.89616 19.4937 8.88 19.4692 8.88 19.4329C8.88 19.3995 8.856 19.3548 8.82664 19.3337C8.79736 19.3125 8.77336 19.2756 8.77336 19.2516C8.77336 19.2275 8.74336 19.1853 8.70664 19.1578C8.67 19.1302 8.64 19.0977 8.64 19.0855C8.64 19.0593 8.57144 18.987 8.54664 18.987C8.51664 18.987 8.45336 18.9121 8.45248 18.8756C8.45104 18.8148 8.3832 18.747 8.32376 18.747C8.2908 18.747 8.26664 18.7301 8.26664 18.707C8.26664 18.685 8.25416 18.667 8.2388 18.667C8.20256 18.667 8.08 18.5444 8.08 18.5082C8.08 18.4929 8.062 18.4804 8.04 18.4804C8.018 18.4804 8 18.4684 8 18.4537C8 18.439 7.976 18.427 7.94664 18.427C7.91736 18.427 7.89336 18.415 7.89336 18.4004C7.89336 18.3857 7.87536 18.3737 7.85336 18.3737C7.83136 18.3737 7.81336 18.3557 7.81336 18.3337C7.81336 18.3115 7.7896 18.2937 7.76 18.2937C7.73064 18.2937 7.70664 18.2817 7.70664 18.267C7.70664 18.2524 7.67664 18.2404 7.64 18.2404C7.60336 18.2404 7.57336 18.2284 7.57336 18.2137C7.57336 18.199 7.54336 18.187 7.50664 18.187C7.4652 18.187 7.44 18.1719 7.44 18.147C7.44 18.1248 7.41632 18.107 7.38664 18.107C7.35736 18.107 7.33336 18.095 7.33336 18.0804C7.33336 18.0657 7.30336 18.0537 7.26664 18.0537C7.23 18.0537 7.2 18.0417 7.2 18.027C7.2 18.0124 7.158 18.0004 7.10664 18.0004C7.04152 18.0004 7.01336 17.9883 7.01336 17.9604C7.01336 17.9315 6.98368 17.9204 6.90664 17.9204C6.848 17.9204 6.8 17.9084 6.8 17.8937C6.8 17.8787 6.72448 17.867 6.62664 17.867C6.52888 17.867 6.45336 17.8554 6.45336 17.8404C6.45336 17.8236 6.27552 17.8137 5.97336 17.8137C5.67112 17.8137 5.49336 17.8236 5.49336 17.8404C5.49336 17.8556 5.41336 17.867 5.30664 17.867C5.2 17.867 5.12 17.8784 5.12 17.8937C5.12 17.9084 5.078 17.9204 5.02664 17.9204C4.96152 17.9204 4.93336 17.9324 4.93336 17.9604C4.93336 17.9883 4.9052 18.0004 4.84 18.0004C4.78864 18.0004 4.74664 18.0124 4.74664 18.027C4.74664 18.0417 4.71664 18.0537 4.68 18.0537C4.64336 18.0537 4.61336 18.0657 4.61336 18.0804C4.61336 18.095 4.57904 18.107 4.53704 18.107C4.48688 18.107 4.44368 18.1298 4.41072 18.1737C4.3832 18.2104 4.3336 18.2404 4.30032 18.2404C4.26712 18.2404 4.24 18.2524 4.24 18.267C4.24 18.2817 4.21 18.2937 4.17336 18.2937C4.13664 18.2937 4.10664 18.3065 4.10664 18.3223C4.10664 18.3655 4.03616 18.427 3.98664 18.427C3.94352 18.427 3.86664 18.4868 3.86664 18.5204C3.86664 18.548 3.79296 18.6137 3.76192 18.6137C3.74616 18.6137 3.73336 18.6257 3.73336 18.6404C3.73336 18.655 3.70936 18.667 3.68 18.667C3.6504 18.667 3.62664 18.6848 3.62664 18.707C3.62664 18.729 3.61416 18.747 3.5988 18.747C3.56952 18.747 3.44 18.8666 3.44 18.8936C3.44 18.9086 3.41176 18.946 3.34 19.026C3.32168 19.0465 3.30664 19.076 3.30664 19.0918C3.30664 19.1075 3.29384 19.1204 3.27808 19.1204C3.23488 19.1204 3.17336 19.1909 3.17336 19.2404C3.17336 19.2898 3.11176 19.3604 3.06856 19.3604C3.05288 19.3604 3.04 19.3904 3.04 19.427C3.04 19.4637 3.028 19.4937 3.01336 19.4937C2.99864 19.4937 2.98664 19.5177 2.98664 19.547C2.98664 19.5764 2.97464 19.6004 2.96 19.6004C2.94536 19.6004 2.93336 19.6132 2.93336 19.6289C2.93336 19.6447 2.91536 19.6755 2.89336 19.6975C2.87136 19.7195 2.85336 19.7667 2.85336 19.8023C2.85336 19.8379 2.84136 19.867 2.82664 19.867C2.812 19.867 2.8 19.897 2.8 19.9337C2.8 19.9704 2.788 20.0004 2.77336 20.0004C2.75864 20.0004 2.74664 20.0424 2.74664 20.0937C2.74664 20.1588 2.73464 20.187 2.70664 20.187C2.67704 20.187 2.66664 20.2181 2.66664 20.307C2.66664 20.373 2.65464 20.427 2.64 20.427C2.62536 20.427 2.61336 20.457 2.61336 20.4937V20.5604H2.28C2.06072 20.5604 1.94664 20.5506 1.94664 20.5318C1.94664 20.4948 1.8788 20.427 1.84192 20.427C1.82616 20.427 1.81336 20.3996 1.81336 20.3663C1.81336 20.3328 1.78936 20.2882 1.76 20.267C1.73064 20.2459 1.70664 20.2012 1.70664 20.1678C1.70664 20.1344 1.69384 20.107 1.67808 20.107C1.63488 20.107 1.57336 20.0365 1.57336 19.987C1.57336 19.9376 1.51176 19.867 1.46856 19.867C1.45288 19.867 1.44 19.8396 1.44 19.8063C1.44 19.7728 1.416 19.7282 1.38664 19.707C1.35736 19.6859 1.33336 19.6412 1.33336 19.6078C1.33336 19.5716 1.3172 19.547 1.29336 19.547C1.25848 19.547 1.25336 19.4167 1.25336 18.5337C1.25336 17.6508 1.25848 17.5204 1.29336 17.5204C1.31824 17.5204 1.33336 17.4952 1.33336 17.4537C1.33336 17.417 1.34536 17.387 1.36 17.387C1.37464 17.387 1.38664 17.357 1.38664 17.3204C1.38664 17.2837 1.39864 17.2537 1.41336 17.2537C1.428 17.2537 1.44 17.2297 1.44 17.2004C1.44 17.1708 1.45776 17.147 1.48 17.147C1.50488 17.147 1.52 17.1219 1.52 17.0804C1.52 17.0437 1.532 17.0137 1.54664 17.0137C1.56136 17.0137 1.57336 16.9837 1.57336 16.947C1.57336 16.9104 1.58536 16.8804 1.6 16.8804C1.61464 16.8804 1.62664 16.8564 1.62664 16.827C1.62664 16.7974 1.64448 16.7737 1.66664 16.7737C1.69152 16.7737 1.70664 16.7485 1.70664 16.707C1.70664 16.6704 1.71864 16.6404 1.73336 16.6404C1.7508 16.6404 1.76 16.0404 1.76 14.8937C1.76 13.747 1.7692 13.147 1.78664 13.147C1.80136 13.147 1.81336 13.129 1.81336 13.107C1.81336 13.085 1.82872 13.067 1.84744 13.067C1.86624 13.067 1.89888 13.043 1.92 13.0137C1.94112 12.9844 1.97688 12.9604 1.99944 12.9604C2.02208 12.9604 2.0764 12.9186 2.12024 12.8676C2.16408 12.8166 2.21504 12.7746 2.23336 12.7743C2.25168 12.774 2.26664 12.7608 2.26664 12.7452C2.26664 12.7145 2.33216 12.6404 2.3592 12.6404C2.37488 12.6404 2.4116 12.6128 2.49232 12.5404C2.5128 12.522 2.53696 12.507 2.546 12.507C2.5736 12.507 2.69336 12.378 2.69336 12.3482C2.69336 12.3329 2.70616 12.3204 2.72192 12.3204C2.75296 12.3204 2.82664 12.2547 2.82664 12.227C2.82664 12.1935 2.90352 12.1337 2.94664 12.1337C2.99616 12.1337 3.06664 12.0721 3.06664 12.0289C3.06664 12.0132 3.0792 12.0004 3.09456 12.0004C3.13072 12.0004 3.25336 11.8778 3.25336 11.8416C3.25336 11.8262 3.26872 11.8137 3.28744 11.8137C3.30624 11.8137 3.33888 11.7897 3.36 11.7604C3.38112 11.731 3.41688 11.707 3.43944 11.707C3.46208 11.707 3.5164 11.6653 3.56024 11.6143C3.60408 11.5632 3.65504 11.5212 3.67336 11.5209C3.69168 11.5206 3.70664 11.5078 3.70664 11.4925C3.70664 11.4569 3.82896 11.3337 3.86424 11.3337C3.87888 11.3337 3.92088 11.3037 3.9576 11.267C3.99424 11.2304 4.03168 11.2004 4.04072 11.2004C4.0624 11.2004 4.13336 11.1289 4.13336 11.107C4.13336 11.0848 4.2044 11.0137 4.22664 11.0137C4.25432 11.0137 4.32 10.94 4.32 10.9089C4.32 10.8932 4.3444 10.8804 4.37432 10.8804C4.448 10.8804 5.01336 10.3155 5.01336 10.2418C5.01336 10.2116 5.02536 10.187 5.04 10.187C5.05464 10.187 5.06664 10.1703 5.06664 10.1499C5.06664 10.1295 5.08464 10.1058 5.10664 10.0974C5.12864 10.0889 5.14664 10.0516 5.14664 10.0145C5.14664 9.97739 5.15864 9.94699 5.17336 9.94699C5.188 9.94699 5.2 9.89299 5.2 9.82699C5.2 9.76099 5.212 9.70699 5.22664 9.70699C5.24248 9.70699 5.25336 9.60923 5.25336 9.46699C5.25336 9.32483 5.24248 9.22699 5.22664 9.22699C5.212 9.22699 5.2 9.17299 5.2 9.10699C5.2 9.04099 5.18936 8.98699 5.17632 8.98699C5.16328 8.98699 5.1452 8.94763 5.13616 8.89947C5.12712 8.85131 5.09584 8.79467 5.06656 8.77363C5.03728 8.75251 5.01336 8.72587 5.01336 8.71443C5.01336 8.67043 16.0994 8.68963 16.1163 8.73371C16.1287 8.76603 16.1904 8.77371 16.4392 8.77371C16.6264 8.77371 16.7466 8.78411 16.7466 8.80035C16.7466 8.81499 16.8126 8.82699 16.8934 8.82699C16.974 8.82699 17.04 8.83899 17.04 8.85371C17.04 8.86835 17.1 8.88035 17.1734 8.88035C17.2741 8.88035 17.3066 8.89011 17.3066 8.92035C17.3066 8.94995 17.3378 8.96035 17.4266 8.96035C17.4926 8.96035 17.5466 8.97235 17.5466 8.98699C17.5466 9.00171 17.5886 9.01371 17.64 9.01371C17.6914 9.01371 17.7334 9.02571 17.7334 9.04035C17.7334 9.05499 17.7754 9.06699 17.8266 9.06699C17.8918 9.06699 17.92 9.07907 17.92 9.10699C17.92 9.13187 17.9452 9.14699 17.9866 9.14699C18.0234 9.14699 18.0534 9.15763 18.0534 9.17067C18.0534 9.18363 18.0923 9.20211 18.14 9.21163C18.1877 9.22115 18.2597 9.23587 18.3 9.24435C18.3403 9.25283 18.3734 9.27635 18.3734 9.29667C18.3734 9.31707 18.3974 9.33371 18.4266 9.33371C18.456 9.33371 18.48 9.34571 18.48 9.36035C18.48 9.37499 18.51 9.38699 18.5466 9.38699C18.5834 9.38699 18.6134 9.39899 18.6134 9.41371C18.6134 9.42835 18.6434 9.44035 18.68 9.44035C18.7166 9.44035 18.7466 9.45323 18.7466 9.46891C18.7466 9.51595 18.819 9.57371 18.8781 9.57371C18.9085 9.57371 18.9334 9.58571 18.9334 9.60035C18.9334 9.61499 18.9574 9.62699 18.9866 9.62699C19.0163 9.62699 19.04 9.64483 19.04 9.66699C19.04 9.68899 19.058 9.70699 19.08 9.70699C19.102 9.70699 19.12 9.71899 19.12 9.73371C19.12 9.74835 19.144 9.76035 19.1734 9.76035C19.2026 9.76035 19.2266 9.77235 19.2266 9.78699C19.2266 9.80171 19.2446 9.81371 19.2666 9.81371C19.2886 9.81371 19.3066 9.82739 19.3066 9.84411C19.3066 9.88123 19.387 9.94499 19.4352 9.94619C19.4718 9.94707 19.5466 10.0104 19.5466 10.0404C19.5466 10.068 19.6203 10.1337 19.6514 10.1337C19.6671 10.1337 19.68 10.1457 19.68 10.1604C19.68 10.175 19.71 10.187 19.7466 10.187C19.7834 10.187 19.8134 10.2024 19.8134 10.2212C19.8134 10.2399 19.8374 10.2725 19.8666 10.2937C19.896 10.3148 19.92 10.3475 19.92 10.3663C19.92 10.385 19.9318 10.4004 19.9462 10.4004C19.9803 10.4004 20.6666 11.0867 20.6666 11.1208C20.6666 11.1352 20.6792 11.147 20.6946 11.147C20.7307 11.147 20.8534 11.2696 20.8534 11.3058C20.8534 11.3212 20.8658 11.3337 20.8812 11.3337C20.9174 11.3337 21.04 11.4563 21.04 11.4925C21.04 11.5078 21.0526 11.5204 21.0678 11.5204C21.1041 11.5204 21.2266 11.6429 21.2266 11.6792C21.2266 11.6945 21.242 11.707 21.2608 11.707C21.2795 11.707 21.3126 11.7333 21.3341 11.7655C21.3557 11.7976 21.4003 11.8522 21.4334 11.8867C21.4663 11.9212 21.4934 11.9548 21.4934 11.9612C21.4934 11.9858 21.7606 12.2404 21.7863 12.2404C21.8012 12.2404 21.8134 12.2584 21.8134 12.2804C21.8134 12.3024 21.8254 12.3204 21.84 12.3204C21.8546 12.3204 21.8666 12.3384 21.8666 12.3604C21.8666 12.3824 21.8757 12.4004 21.8866 12.4004C21.9138 12.4004 22.0534 12.5218 22.0534 12.5454C22.0534 12.5689 22.1235 12.6404 22.1466 12.6404C22.1689 12.6404 22.24 12.7115 22.24 12.7337C22.24 12.756 22.3111 12.827 22.3334 12.827C22.3556 12.827 22.4266 12.8981 22.4266 12.9204C22.4266 12.9426 22.4978 13.0137 22.52 13.0137C22.5422 13.0137 22.6134 13.0848 22.6134 13.107C22.6134 13.1292 22.6844 13.2004 22.7066 13.2004C22.7289 13.2004 22.8 13.2715 22.8 13.2937C22.8 13.316 22.8711 13.387 22.8934 13.387C22.9156 13.387 22.9866 13.4581 22.9866 13.4804C22.9866 13.5026 23.0578 13.5737 23.08 13.5737C23.1022 13.5737 23.1734 13.6448 23.1734 13.667C23.1734 13.6892 23.2444 13.7604 23.2666 13.7604C23.2889 13.7604 23.36 13.8315 23.36 13.8537C23.36 13.876 23.4311 13.947 23.4534 13.947C23.481 13.947 23.5466 14.0207 23.5466 14.0518C23.5466 14.0675 23.5766 14.0804 23.6134 14.0804C23.65 14.0804 23.68 14.0924 23.68 14.107C23.68 14.1217 23.722 14.1337 23.7734 14.1337C23.8246 14.1337 23.8666 14.1457 23.8666 14.1604C23.8666 14.1752 23.9378 14.187 24.0266 14.187C24.1511 14.187 24.1866 14.1959 24.1866 14.227C24.1866 14.2567 24.2178 14.267 24.3066 14.267C24.3726 14.267 24.4266 14.279 24.4266 14.2937C24.4266 14.3084 24.4794 14.3204 24.5438 14.3204C24.6234 14.3204 24.6659 14.3332 24.6763 14.3604C24.6868 14.3878 24.7297 14.4004 24.8125 14.4004C24.879 14.4004 24.9334 14.4124 24.9334 14.427C24.9334 14.4417 24.9874 14.4537 25.0534 14.4537C25.1194 14.4537 25.1734 14.4657 25.1734 14.4804C25.1734 14.495 25.2282 14.507 25.2952 14.507C25.3681 14.507 25.4333 14.5232 25.4571 14.547C25.4806 14.5705 25.5458 14.587 25.6152 14.587C25.6802 14.587 25.7334 14.599 25.7334 14.6137C25.7334 14.6284 25.7934 14.6404 25.8666 14.6404C25.94 14.6404 26 14.6524 26 14.667C26 14.6817 26.054 14.6937 26.12 14.6937C26.2089 14.6937 26.24 14.704 26.24 14.7337C26.24 14.7633 26.2711 14.7737 26.36 14.7737C26.426 14.7737 26.48 14.7857 26.48 14.8004C26.48 14.815 26.54 14.827 26.6134 14.827C26.6866 14.827 26.7466 14.839 26.7466 14.8537C26.7466 14.8684 26.7994 14.8804 26.8638 14.8804C26.9434 14.8804 26.9859 14.8932 26.9963 14.9204C27.0074 14.9492 27.0526 14.9604 27.1592 14.9604C27.2403 14.9604 27.3066 14.9724 27.3066 14.987C27.3066 15.0017 27.3606 15.0137 27.4266 15.0137C27.4926 15.0137 27.5466 15.0257 27.5466 15.0404C27.5466 15.055 27.5874 15.067 27.6371 15.067C27.693 15.067 27.7335 15.0824 27.743 15.107C27.7535 15.1344 27.7963 15.147 27.8792 15.147C27.9456 15.147 28 15.159 28 15.1737C28 15.1884 28.024 15.2004 28.0534 15.2004C28.0826 15.2004 28.1066 15.2124 28.1066 15.227C28.1066 15.2417 28.1246 15.2537 28.1466 15.2537C28.1686 15.2537 28.1866 15.2657 28.1866 15.2804C28.1866 15.295 28.1626 15.307 28.1334 15.307C28.104 15.307 28.08 15.319 28.08 15.3337C28.08 15.3484 28.062 15.3604 28.04 15.3604C28.018 15.3604 28 15.3724 28 15.387C28 15.4017 27.97 15.4137 27.9334 15.4137C27.8966 15.4137 27.8666 15.4265 27.8666 15.4423C27.8666 15.4846 27.811 15.5315 27.7134 15.5714C27.6657 15.5909 27.6266 15.6234 27.6266 15.6436C27.6266 15.6638 27.6138 15.6804 27.5981 15.6804C27.567 15.6804 27.4934 15.746 27.4934 15.7737C27.4934 15.7832 27.4783 15.8076 27.46 15.828C27.3809 15.9163 27.36 15.9464 27.36 15.9726C27.36 15.9879 27.348 16.0004 27.3334 16.0004C27.3186 16.0004 27.3066 16.0231 27.3066 16.0508C27.3066 16.0786 27.2886 16.1082 27.2666 16.1167C27.2433 16.1256 27.2266 16.1656 27.2266 16.2128C27.2266 16.2573 27.2146 16.2937 27.2 16.2937C27.1854 16.2937 27.1734 16.3537 27.1734 16.427C27.1734 16.5004 27.1614 16.5604 27.1466 16.5604C27.1308 16.5604 27.12 16.6626 27.12 16.8137C27.12 16.9648 27.1308 17.067 27.1466 17.067C27.1614 17.067 27.1734 17.127 27.1734 17.2004C27.1734 17.2737 27.1854 17.3337 27.2 17.3337C27.2146 17.3337 27.2266 17.3757 27.2266 17.427C27.2266 17.4922 27.2387 17.5204 27.2666 17.5204C27.2889 17.5204 27.3066 17.544 27.3066 17.5737C27.3066 17.603 27.3186 17.627 27.3334 17.627C27.348 17.627 27.36 17.645 27.36 17.667C27.36 17.689 27.372 17.707 27.3866 17.707C27.4014 17.707 27.4134 17.731 27.4134 17.7604C27.4134 17.79 27.4311 17.8137 27.4534 17.8137C27.4754 17.8137 27.4934 17.8265 27.4934 17.8423C27.4934 17.8733 27.559 17.947 27.5866 17.947C27.6143 17.947 27.68 18.0207 27.68 18.0518C27.68 18.0675 27.7074 18.0804 27.7408 18.0804C27.7742 18.0804 27.8189 18.1044 27.84 18.1337C27.8611 18.163 27.9058 18.187 27.9392 18.187C27.9754 18.187 28 18.2032 28 18.227C28 18.2492 28.0237 18.267 28.0534 18.267C28.0826 18.267 28.1066 18.279 28.1066 18.2937C28.1066 18.3084 28.1666 18.3204 28.24 18.3204C28.3407 18.3204 28.3734 18.3301 28.3734 18.3604C28.3734 18.3953 28.5185 18.4004 29.52 18.4004H30.6666V18.507C30.6666 18.584 30.6778 18.6137 30.7066 18.6137C30.7408 18.6137 30.7466 18.6863 30.7466 19.107C30.7466 19.5278 30.7408 19.6004 30.7066 19.6004C30.6846 19.6004 30.6666 19.6184 30.6666 19.6404C30.6666 19.6624 30.6546 19.6804 30.64 19.6804C30.6254 19.6804 30.6134 19.7104 30.6134 19.747C30.6134 19.7837 30.6014 19.8137 30.5866 19.8137C30.572 19.8137 30.56 19.8377 30.56 19.867C30.56 19.8967 30.5422 19.9204 30.52 19.9204C30.4962 19.9204 30.48 19.9449 30.48 19.9812C30.48 20.0146 30.456 20.0592 30.4266 20.0804C30.3974 20.1015 30.3734 20.1461 30.3734 20.1796C30.3734 20.2158 30.3572 20.2404 30.3334 20.2404C30.3085 20.2404 30.2934 20.2656 30.2934 20.307C30.2934 20.3437 30.2814 20.3737 30.2666 20.3737C30.252 20.3737 30.24 20.3977 30.24 20.427C30.24 20.4564 30.228 20.4804 30.2134 20.4804C30.1986 20.4804 30.1866 20.4984 30.1866 20.5204C30.1866 20.5554 30.0266 20.5604 28.9066 20.5604H27.6266V20.467C27.6266 20.4157 27.6146 20.3737 27.6 20.3737C27.5854 20.3737 27.5734 20.3137 27.5734 20.2404C27.5734 20.167 27.5614 20.107 27.5466 20.107C27.532 20.107 27.52 20.0707 27.52 20.0262C27.52 19.9789 27.5034 19.939 27.48 19.93C27.458 19.9216 27.44 19.892 27.44 19.8642C27.44 19.8364 27.428 19.8137 27.4134 19.8137C27.3986 19.8137 27.3866 19.7837 27.3866 19.747C27.3866 19.7104 27.3746 19.6804 27.36 19.6804C27.3454 19.6804 27.3334 19.6504 27.3334 19.6137C27.3334 19.5722 27.3182 19.547 27.2934 19.547C27.2694 19.547 27.2534 19.5225 27.2534 19.4863C27.2534 19.4528 27.2294 19.4082 27.2 19.387C27.1706 19.3659 27.1466 19.3301 27.1466 19.3076C27.1466 19.285 27.105 19.2306 27.0539 19.1868C27.0029 19.1429 26.9609 19.0877 26.9606 19.0641C26.9602 19.0405 26.93 18.9986 26.8934 18.9711C26.8566 18.9436 26.8266 18.911 26.8266 18.8988C26.8266 18.8726 26.7582 18.8004 26.7334 18.8004C26.7111 18.8004 26.64 18.7292 26.64 18.707C26.64 18.6793 26.5663 18.6137 26.5352 18.6137C26.5195 18.6137 26.5066 18.6017 26.5066 18.587C26.5066 18.5724 26.4766 18.5604 26.44 18.5604C26.4034 18.5604 26.3734 18.5478 26.3734 18.5325C26.3734 18.4839 26.2446 18.3737 26.1878 18.3737C26.1572 18.3737 26.1334 18.3562 26.1334 18.3337C26.1334 18.3117 26.1154 18.2937 26.0934 18.2937C26.0714 18.2937 26.0534 18.2817 26.0534 18.267C26.0534 18.2524 26.0294 18.2404 26 18.2404C25.9706 18.2404 25.9466 18.2284 25.9466 18.2137C25.9466 18.199 25.9166 18.187 25.88 18.187C25.8385 18.187 25.8134 18.1719 25.8134 18.147C25.8134 18.125 25.7901 18.107 25.7616 18.107C25.7331 18.107 25.7024 18.095 25.6934 18.0804C25.6842 18.0657 25.6416 18.0537 25.5984 18.0537C25.5553 18.0537 25.52 18.0417 25.52 18.027C25.52 18.0124 25.478 18.0004 25.4266 18.0004C25.3615 18.0004 25.3334 17.9883 25.3334 17.9604C25.3334 17.9324 25.3052 17.9204 25.24 17.9204C25.1886 17.9204 25.1466 17.9084 25.1466 17.8937C25.1466 17.8788 25.0755 17.867 24.9866 17.867C24.8978 17.867 24.8266 17.8552 24.8266 17.8404C24.8266 17.8235 24.64 17.8137 24.32 17.8137C24 17.8137 23.8134 17.8235 23.8134 17.8404C23.8134 17.8552 23.7422 17.867 23.6534 17.867C23.5645 17.867 23.4934 17.8788 23.4934 17.8937C23.4934 17.9084 23.439 17.9204 23.3725 17.9204C23.2897 17.9204 23.2468 17.9329 23.2363 17.9604C23.2276 17.9832 23.1878 18.0004 23.1438 18.0004C23.1014 18.0004 23.0666 18.0124 23.0666 18.027C23.0666 18.0417 23.0366 18.0537 23 18.0537C22.9634 18.0537 22.9334 18.0657 22.9334 18.0804C22.9334 18.095 22.9034 18.107 22.8666 18.107C22.8252 18.107 22.8 18.1221 22.8 18.147C22.8 18.1719 22.7748 18.187 22.7334 18.187C22.6966 18.187 22.6666 18.199 22.6666 18.2137C22.6666 18.2284 22.6426 18.2404 22.6134 18.2404C22.584 18.2404 22.56 18.2524 22.56 18.267C22.56 18.2817 22.542 18.2937 22.52 18.2937C22.498 18.2937 22.48 18.3117 22.48 18.3337C22.48 18.3559 22.4563 18.3737 22.4266 18.3737C22.3974 18.3737 22.3734 18.3857 22.3734 18.4004C22.3734 18.415 22.3554 18.427 22.3334 18.427C22.3114 18.427 22.2934 18.439 22.2934 18.4537C22.2934 18.4684 22.2694 18.4804 22.24 18.4804C22.2104 18.4804 22.1866 18.4981 22.1866 18.5204C22.1866 18.5424 22.1742 18.5604 22.1588 18.5604C22.1226 18.5604 22 18.6829 22 18.7192C22 18.7345 21.9874 18.747 21.9722 18.747C21.9359 18.747 21.8134 18.8696 21.8134 18.9058C21.8134 18.9212 21.8009 18.9337 21.7856 18.9337C21.7415 18.9337 21.5466 19.1385 21.5466 19.1849C21.5466 19.2081 21.5346 19.227 21.52 19.227C21.5054 19.227 21.4934 19.245 21.4934 19.267C21.4934 19.289 21.4754 19.307 21.4534 19.307C21.4311 19.307 21.4134 19.3308 21.4134 19.3604C21.4134 19.3897 21.4014 19.4137 21.3866 19.4137C21.372 19.4137 21.36 19.4317 21.36 19.4537C21.36 19.4757 21.348 19.4937 21.3334 19.4937C21.3186 19.4937 21.3066 19.5164 21.3066 19.5442C21.3066 19.572 21.2886 19.6016 21.2666 19.61C21.2446 19.6184 21.2266 19.6497 21.2266 19.6796C21.2266 19.7093 21.2146 19.7337 21.2 19.7337C21.1854 19.7337 21.1734 19.7757 21.1734 19.827C21.1734 19.8784 21.1614 19.9204 21.1466 19.9204C21.132 19.9204 21.12 19.9504 21.12 19.987C21.12 20.0285 21.1049 20.0537 21.08 20.0537C21.0521 20.0537 21.04 20.0819 21.04 20.147C21.04 20.1984 21.028 20.2404 21.0134 20.2404C20.9986 20.2404 20.9866 20.2952 20.9866 20.3623C20.9866 20.574 21.101 20.5604 19.3219 20.5604C18.2806 20.5604 17.7334 20.5696 17.7334 20.587C17.7334 20.6017 17.7085 20.6137 17.6781 20.6137C17.6258 20.6137 17.5466 20.6699 17.5466 20.707C17.5466 20.7164 17.5295 20.7413 17.5086 20.7623C17.4876 20.7832 17.4628 20.8004 17.4534 20.8004C17.4096 20.8004 17.36 20.8844 17.36 20.9584C17.36 21.0035 17.348 21.0404 17.3334 21.0404C17.3186 21.0404 17.3066 21.1064 17.3066 21.187C17.3066 21.2677 17.3186 21.3337 17.3334 21.3337C17.348 21.3337 17.36 21.3757 17.36 21.427C17.36 21.4784 17.372 21.5204 17.3866 21.5204C17.4014 21.5204 17.4134 21.5444 17.4134 21.5737C17.4134 21.6033 17.4311 21.627 17.4534 21.627C17.4754 21.627 17.4934 21.6399 17.4934 21.6556C17.4934 21.7027 17.5658 21.7604 17.6248 21.7604C17.6551 21.7604 17.68 21.7724 17.68 21.787C17.68 21.8017 17.71 21.8137 17.7466 21.8137C17.7882 21.8137 17.8134 21.8288 17.8134 21.8537C17.8134 21.8888 18.0074 21.8937 19.4 21.8937H20.9866V22.0137C20.9866 22.0797 20.9986 22.1337 21.0134 22.1337C21.028 22.1337 21.04 22.1757 21.04 22.227C21.04 22.2922 21.0521 22.3204 21.08 22.3204C21.1079 22.3204 21.12 22.3485 21.12 22.4137C21.12 22.465 21.132 22.507 21.1466 22.507C21.1614 22.507 21.1734 22.537 21.1734 22.5737C21.1734 22.6104 21.1854 22.6404 21.2 22.6404C21.2146 22.6404 21.2266 22.6648 21.2266 22.6945C21.2266 22.7244 21.2446 22.7556 21.2666 22.764C21.2886 22.7725 21.3066 22.8021 21.3066 22.8299C21.3066 22.8576 21.3186 22.8804 21.3334 22.8804C21.348 22.8804 21.36 22.9052 21.36 22.9356C21.36 22.9946 21.4177 23.067 21.4648 23.067C21.4805 23.067 21.4934 23.0944 21.4934 23.1278C21.4934 23.1612 21.5174 23.2059 21.5466 23.227C21.576 23.2482 21.6 23.2812 21.6 23.3004C21.6 23.3196 21.618 23.3423 21.64 23.3507C21.662 23.3592 21.68 23.3828 21.68 23.4032C21.68 23.4236 21.692 23.4404 21.7066 23.4404C21.7214 23.4404 21.7334 23.4584 21.7334 23.4804C21.7334 23.5024 21.7458 23.5204 21.7612 23.5204C21.7974 23.5204 21.92 23.6429 21.92 23.6792C21.92 23.6945 21.9354 23.707 21.9541 23.707C21.9729 23.707 22.0055 23.731 22.0266 23.7604C22.0478 23.7897 22.075 23.8137 22.087 23.8137C22.1104 23.8137 22.1509 23.8444 22.2534 23.9404C22.2887 23.9733 22.3422 24.0004 22.3722 24.0004C22.4022 24.0004 22.4266 24.0132 22.4266 24.0289C22.4266 24.076 22.499 24.1337 22.5581 24.1337C22.5885 24.1337 22.6134 24.1457 22.6134 24.1604C22.6134 24.175 22.6434 24.187 22.68 24.187C22.7215 24.187 22.7466 24.2021 22.7466 24.227C22.7466 24.2492 22.7704 24.267 22.8 24.267C22.8294 24.267 22.8534 24.279 22.8534 24.2937C22.8534 24.3084 22.8834 24.3204 22.92 24.3204C22.9566 24.3204 22.9866 24.3324 22.9866 24.347C22.9866 24.3617 23.0115 24.3737 23.0419 24.3737C23.0723 24.3737 23.1151 24.3917 23.1371 24.4137C23.1591 24.4357 23.2183 24.4537 23.2686 24.4537C23.3189 24.4537 23.36 24.4657 23.36 24.4804C23.36 24.495 23.4127 24.507 23.4771 24.507C23.5566 24.507 23.5992 24.5199 23.6097 24.547C23.6217 24.5785 23.6763 24.587 23.8658 24.587C24.0208 24.587 24.1066 24.5973 24.1066 24.6159C24.1066 24.6354 24.169 24.6395 24.3 24.6284C24.4063 24.6195 24.6103 24.6056 24.7534 24.5978C24.9546 24.5867 25.0134 24.5748 25.0134 24.5452C25.0134 24.5177 25.0469 24.507 25.1334 24.507C25.1994 24.507 25.2534 24.495 25.2534 24.4804C25.2534 24.4657 25.2954 24.4537 25.3466 24.4537C25.4118 24.4537 25.44 24.4416 25.44 24.4137C25.44 24.3857 25.4682 24.3737 25.5334 24.3737C25.5846 24.3737 25.6266 24.3617 25.6266 24.347C25.6266 24.3324 25.6566 24.3204 25.6934 24.3204C25.73 24.3204 25.76 24.3084 25.76 24.2937C25.76 24.279 25.79 24.267 25.8266 24.267C25.8682 24.267 25.8934 24.2519 25.8934 24.227C25.8934 24.2048 25.917 24.187 25.9466 24.187C25.976 24.187 26 24.175 26 24.1604C26 24.1457 26.0249 24.1337 26.0552 24.1337C26.1142 24.1337 26.1866 24.076 26.1866 24.0289C26.1866 24.0132 26.214 24.0004 26.2474 24.0004C26.2809 24.0004 26.3255 23.9764 26.3466 23.947C26.3678 23.9177 26.4005 23.8937 26.4192 23.8937C26.438 23.8937 26.4534 23.8808 26.4534 23.8652C26.4534 23.8232 26.5084 23.7756 26.6066 23.7322C26.6543 23.7112 26.6934 23.6789 26.6934 23.6605C26.6934 23.6421 26.707 23.627 26.7238 23.627C26.7609 23.627 26.8246 23.5467 26.8258 23.4984C26.8267 23.4619 26.89 23.387 26.92 23.387C26.9477 23.387 27.0134 23.3133 27.0134 23.2823C27.0134 23.2665 27.0254 23.2537 27.04 23.2537C27.0546 23.2537 27.0666 23.2297 27.0666 23.2004C27.0666 23.1708 27.0845 23.147 27.1066 23.147C27.1286 23.147 27.1466 23.129 27.1466 23.107C27.1466 23.085 27.1586 23.067 27.1734 23.067C27.188 23.067 27.2 23.043 27.2 23.0137C27.2 22.9844 27.212 22.9604 27.2266 22.9604C27.2414 22.9604 27.2534 22.943 27.2534 22.9217C27.2534 22.9005 27.2834 22.8508 27.32 22.8112C27.3566 22.7716 27.3866 22.711 27.3866 22.6764C27.3866 22.642 27.3986 22.6137 27.4134 22.6137C27.428 22.6137 27.44 22.5777 27.44 22.5337C27.44 22.4804 27.4534 22.4537 27.48 22.4537C27.5079 22.4537 27.52 22.4256 27.52 22.3604C27.52 22.309 27.532 22.267 27.5466 22.267C27.5614 22.267 27.5734 22.225 27.5734 22.1737C27.5734 22.1224 27.5854 22.0804 27.6 22.0804C27.6146 22.0804 27.6266 22.0384 27.6266 21.987V21.8937H29.16C30.5052 21.8937 30.6934 21.8888 30.6934 21.8537C30.6934 21.8257 30.7215 21.8137 30.7866 21.8137C30.838 21.8137 30.88 21.8017 30.88 21.787C30.88 21.7724 30.9049 21.7604 30.9352 21.7604C30.9942 21.7604 31.0666 21.7027 31.0666 21.6556C31.0666 21.6399 31.0846 21.627 31.1066 21.627C31.1289 21.627 31.1466 21.6033 31.1466 21.5737C31.1466 21.5444 31.1586 21.5204 31.1734 21.5204C31.188 21.5204 31.2 21.4932 31.2 21.46C31.2 21.4268 31.2299 21.3772 31.2666 21.3496C31.3034 21.3221 31.3334 21.2772 31.3334 21.25C31.3334 21.2227 31.3454 21.2004 31.36 21.2004C31.3746 21.2004 31.3866 21.1704 31.3866 21.1337C31.3866 21.097 31.3986 21.067 31.4134 21.067C31.428 21.067 31.44 21.043 31.44 21.0137C31.44 20.984 31.4578 20.9604 31.48 20.9604C31.502 20.9604 31.52 20.9424 31.52 20.9204C31.52 20.8984 31.532 20.8804 31.5466 20.8804C31.5614 20.8804 31.5734 20.8564 31.5734 20.827C31.5734 20.7977 31.5854 20.7737 31.6 20.7737C31.6146 20.7737 31.6266 20.7437 31.6266 20.707C31.6266 20.6656 31.6418 20.6404 31.6666 20.6404C31.6906 20.6404 31.7066 20.6158 31.7066 20.5796C31.7066 20.5461 31.7306 20.5015 31.76 20.4804C31.7894 20.4592 31.8134 20.4146 31.8134 20.3812C31.8134 20.3449 31.8294 20.3204 31.8534 20.3204C31.8782 20.3204 31.8934 20.2952 31.8934 20.2537C31.8934 20.217 31.9054 20.187 31.92 20.187C31.9346 20.187 31.9466 20.163 31.9466 20.1337C31.9466 20.1044 31.9586 20.0804 31.9734 20.0804C31.9907 20.0804 32 19.6937 32 18.9737C32 18.2537 31.9907 17.867 31.9734 17.867C31.9585 17.867 31.9466 17.7959 31.9466 17.707C31.9466 17.6181 31.9348 17.547 31.92 17.547C31.9054 17.547 31.8934 17.493 31.8934 17.427C31.8934 17.3381 31.883 17.307 31.8534 17.307C31.8254 17.307 31.8134 17.2788 31.8134 17.2137C31.8134 17.1624 31.8014 17.1204 31.7866 17.1204C31.772 17.1204 31.76 17.0784 31.76 17.027C31.76 16.9757 31.748 16.9337 31.7334 16.9337C31.7186 16.9337 31.7066 16.9037 31.7066 16.867C31.7066 16.8256 31.6915 16.8004 31.6666 16.8004C31.6418 16.8004 31.6266 16.7752 31.6266 16.7337C31.6266 16.697 31.6146 16.667 31.6 16.667C31.5854 16.667 31.5734 16.643 31.5734 16.6137C31.5734 16.5844 31.5614 16.5604 31.5466 16.5604C31.532 16.5604 31.52 16.5304 31.52 16.4937C31.52 16.4522 31.5049 16.427 31.48 16.427C31.4551 16.427 31.44 16.4019 31.44 16.3604C31.44 16.3237 31.428 16.2937 31.4134 16.2937C31.3986 16.2937 31.3866 16.2697 31.3866 16.2404C31.3866 16.211 31.3746 16.187 31.36 16.187C31.3454 16.187 31.3334 16.169 31.3334 16.147C31.3334 16.125 31.3154 16.107 31.2934 16.107C31.2711 16.107 31.2534 16.0833 31.2534 16.0537C31.2534 16.0244 31.2414 16.0004 31.2266 16.0004C31.212 16.0004 31.2 15.9875 31.2 15.9718C31.2 15.956 31.185 15.9265 31.1666 15.906C31.0938 15.8248 31.0666 15.7885 31.0666 15.7724C31.0666 15.7632 31.0126 15.7032 30.9466 15.639C30.8806 15.5748 30.8266 15.5031 30.8266 15.4795C30.8266 15.4371 30.7666 15.3604 30.7334 15.3604C30.7111 15.3604 30.64 15.2892 30.64 15.267C30.64 15.2448 30.5689 15.1737 30.5466 15.1737C30.5214 15.1737 30.4534 15.1012 30.4534 15.0743C30.4534 15.0616 30.4114 15.0359 30.36 15.0173C30.3086 14.9988 30.2666 14.9724 30.2666 14.9586C30.2666 14.9449 30.2486 14.9337 30.2266 14.9337C30.2046 14.9337 30.1866 14.9212 30.1866 14.9058C30.1866 14.8572 30.058 14.747 30.0012 14.747C29.9712 14.747 29.9466 14.7342 29.9466 14.7184C29.9466 14.6816 29.8788 14.6137 29.8419 14.6137C29.8262 14.6137 29.8134 14.6017 29.8134 14.587C29.8134 14.5724 29.7894 14.5604 29.76 14.5604C29.7304 14.5604 29.7066 14.5426 29.7066 14.5204C29.7066 14.4984 29.6886 14.4804 29.6666 14.4804C29.6446 14.4804 29.6266 14.4684 29.6266 14.4537C29.6266 14.439 29.6026 14.427 29.5734 14.427C29.544 14.427 29.52 14.415 29.52 14.4004C29.52 14.3857 29.49 14.3737 29.4534 14.3737C29.4118 14.3737 29.3866 14.3586 29.3866 14.3337C29.3866 14.3088 29.3615 14.2937 29.32 14.2937C29.2834 14.2937 29.2534 14.2817 29.2534 14.267C29.2534 14.2524 29.2294 14.2404 29.2 14.2404C29.1706 14.2404 29.1466 14.2284 29.1466 14.2137C29.1466 14.199 29.1166 14.187 29.08 14.187C29.0385 14.187 29.0134 14.1719 29.0134 14.147C29.0134 14.1221 28.9882 14.107 28.9466 14.107C28.91 14.107 28.88 14.095 28.88 14.0804C28.88 14.0657 28.856 14.0537 28.8266 14.0537C28.7974 14.0537 28.7734 14.0417 28.7734 14.027C28.7734 14.0124 28.7314 14.0004 28.68 14.0004C28.6148 14.0004 28.5866 13.9883 28.5866 13.9604C28.5866 13.9337 28.56 13.9204 28.5066 13.9204C28.4626 13.9204 28.4266 13.9084 28.4266 13.8937C28.4266 13.879 28.3726 13.867 28.3066 13.867C28.2406 13.867 28.1866 13.855 28.1866 13.8404C28.1866 13.8257 28.1446 13.8137 28.0934 13.8137C28.0282 13.8137 28 13.8016 28 13.7737C28 13.744 27.9689 13.7337 27.88 13.7337C27.814 13.7337 27.76 13.7217 27.76 13.707C27.76 13.6924 27.7 13.6804 27.6266 13.6804C27.5534 13.6804 27.4934 13.6684 27.4934 13.6537C27.4934 13.639 27.4274 13.627 27.3466 13.627C27.2341 13.627 27.2 13.6177 27.2 13.587C27.2 13.5574 27.1689 13.547 27.08 13.547C27.014 13.547 26.96 13.535 26.96 13.5204C26.96 13.5057 26.9 13.4937 26.8266 13.4937C26.7259 13.4937 26.6934 13.4839 26.6934 13.4537C26.6934 13.424 26.6622 13.4137 26.5734 13.4137C26.5074 13.4137 26.4534 13.4017 26.4534 13.387C26.4534 13.3724 26.3934 13.3604 26.32 13.3604C26.2466 13.3604 26.1866 13.3484 26.1866 13.3337C26.1866 13.319 26.1279 13.307 26.0562 13.307C25.9648 13.307 25.9211 13.2951 25.9103 13.267C25.8995 13.2388 25.8555 13.227 25.7608 13.227C25.687 13.227 25.6266 13.215 25.6266 13.2004C25.6266 13.1857 25.5726 13.1737 25.5066 13.1737C25.4406 13.1737 25.3866 13.1617 25.3866 13.147C25.3866 13.1324 25.3339 13.1204 25.2695 13.1204C25.19 13.1204 25.1474 13.1075 25.137 13.0804C25.1265 13.0529 25.0837 13.0404 25.0008 13.0404C24.9344 13.0404 24.88 13.0284 24.88 13.0137C24.88 12.999 24.826 12.987 24.76 12.987C24.694 12.987 24.64 12.975 24.64 12.9604C24.64 12.9456 24.5689 12.9337 24.48 12.9337C24.384 12.9337 24.32 12.9223 24.32 12.9052C24.32 12.874 24.2543 12.8004 24.2266 12.8004C24.2044 12.8004 24.1334 12.7292 24.1334 12.707C24.1334 12.6848 24.0622 12.6137 24.04 12.6137C24.0178 12.6137 23.9466 12.5426 23.9466 12.5204C23.9466 12.4981 23.8756 12.427 23.8534 12.427C23.8311 12.427 23.76 12.356 23.76 12.3337C23.76 12.3115 23.6889 12.2404 23.6666 12.2404C23.6444 12.2404 23.5734 12.1692 23.5734 12.147C23.5734 12.1248 23.5022 12.0537 23.48 12.0537C23.4578 12.0537 23.3866 11.9826 23.3866 11.9604C23.3866 11.9381 23.3156 11.867 23.2934 11.867C23.2711 11.867 23.2 11.796 23.2 11.7737C23.2 11.7515 23.1289 11.6804 23.1066 11.6804C23.0844 11.6804 23.0134 11.6092 23.0134 11.587C23.0134 11.5593 22.9397 11.4937 22.9086 11.4937C22.8929 11.4937 22.88 11.4808 22.88 11.4652C22.88 11.4494 22.865 11.4198 22.8466 11.3994C22.7784 11.3232 22.7466 11.2823 22.7466 11.2702C22.7466 11.2437 22.429 10.9337 22.402 10.9337C22.3862 10.9337 22.3734 10.9212 22.3734 10.9058C22.3734 10.8696 22.2507 10.747 22.2146 10.747C22.1992 10.747 22.1866 10.7345 22.1866 10.7192C22.1866 10.6829 22.0641 10.5604 22.0278 10.5604C22.0126 10.5604 22 10.5478 22 10.5325C22 10.4963 21.8774 10.3737 21.8412 10.3737C21.8258 10.3737 21.8134 10.3612 21.8134 10.3458C21.8134 10.3096 21.6907 10.187 21.6546 10.187C21.6392 10.187 21.6266 10.1745 21.6266 10.1592C21.6266 10.1229 21.5041 10.0004 21.4678 10.0004C21.4526 10.0004 21.44 9.98779 21.44 9.97251C21.44 9.93627 21.3174 9.81371 21.2812 9.81371C21.2658 9.81371 21.2534 9.80115 21.2534 9.78579C21.2534 9.74963 21.1307 9.62699 21.0946 9.62699C21.0792 9.62699 21.0666 9.61459 21.0666 9.59939C21.0666 9.56291 20.6781 9.17371 20.6416 9.17371C20.6261 9.17371 20.6134 9.16171 20.6134 9.14699C20.6134 9.13235 20.5894 9.12035 20.56 9.12035C20.5306 9.12035 20.5066 9.10779 20.5066 9.09251C20.5066 9.05779 20.3848 8.93371 20.3507 8.93371C20.337 8.93371 20.3188 8.91571 20.3103 8.89371C20.3019 8.87171 20.2733 8.85371 20.2467 8.85371C20.2202 8.85371 20.1811 8.82971 20.16 8.80035C20.1389 8.77099 20.0942 8.74699 20.0608 8.74699C20.0274 8.74699 20 8.73419 20 8.71843C20 8.68155 19.9322 8.61371 19.8952 8.61371C19.8795 8.61371 19.8666 8.60171 19.8666 8.58699C19.8666 8.57235 19.8426 8.56035 19.8134 8.56035C19.7837 8.56035 19.76 8.54259 19.76 8.52035C19.76 8.49651 19.7354 8.48035 19.6992 8.48035C19.6658 8.48035 19.6211 8.45635 19.6 8.42699C19.5789 8.39771 19.5342 8.37371 19.5008 8.37371C19.4646 8.37371 19.44 8.35755 19.44 8.33371C19.44 8.31147 19.4163 8.29371 19.3866 8.29371C19.3574 8.29371 19.3334 8.28171 19.3334 8.26699C19.3334 8.25235 19.3034 8.24035 19.2666 8.24035C19.23 8.24035 19.2 8.22835 19.2 8.21371C19.2 8.19899 19.17 8.18699 19.1334 8.18699C19.0918 8.18699 19.0666 8.17187 19.0666 8.14699C19.0666 8.12483 19.043 8.10699 19.0134 8.10699C18.984 8.10699 18.96 8.09499 18.96 8.08035C18.96 8.06571 18.93 8.05371 18.8934 8.05371C18.8566 8.05371 18.8266 8.04171 18.8266 8.02699C18.8266 8.01235 18.7966 8.00035 18.76 8.00035C18.7185 8.00035 18.6934 7.98523 18.6934 7.96035C18.6934 7.93243 18.6652 7.92035 18.6 7.92035C18.5486 7.92035 18.5066 7.90835 18.5066 7.89371C18.5066 7.87899 18.4766 7.86699 18.44 7.86699C18.4034 7.86699 18.3734 7.85499 18.3734 7.84035C18.3734 7.82571 18.3314 7.81371 18.28 7.81371C18.2148 7.81371 18.1866 7.80163 18.1866 7.77371C18.1866 7.74571 18.1585 7.73371 18.0934 7.73371C18.042 7.73371 18 7.72171 18 7.70699C18 7.69235 17.946 7.68035 17.88 7.68035C17.814 7.68035 17.76 7.66835 17.76 7.65371C17.76 7.63899 17.706 7.62699 17.64 7.62699C17.5511 7.62699 17.52 7.61667 17.52 7.58699C17.52 7.55587 17.4845 7.54699 17.36 7.54699C17.2711 7.54699 17.2 7.53515 17.2 7.52035C17.2 7.50515 17.12 7.49371 17.0134 7.49371C16.8652 7.49371 16.8266 7.48539 16.8266 7.45371C16.8266 7.42019 16.7704 7.41371 16.48 7.41371C16.2666 7.41371 16.1334 7.40339 16.1334 7.38699C16.1334 7.36931 14.0178 7.36035 9.84 7.36035C5.66224 7.36035 3.54664 7.36931 3.54664 7.38699ZM7.62664 9.70699C7.62664 9.72171 7.56664 9.73371 7.49336 9.73371C7.39256 9.73371 7.36 9.74347 7.36 9.77371C7.36 9.79859 7.3348 9.81371 7.29336 9.81371C7.25664 9.81371 7.22664 9.82571 7.22664 9.84035C7.22664 9.85499 7.20264 9.86699 7.17336 9.86699C7.144 9.86699 7.12 9.87899 7.12 9.89371C7.12 9.90835 7.102 9.92035 7.08 9.92035C7.058 9.92035 7.04 9.93283 7.04 9.94811C7.04 9.98995 6.83016 10.187 6.7856 10.187C6.76416 10.187 6.74664 10.199 6.74664 10.2137C6.74664 10.2284 6.73384 10.2404 6.71808 10.2404C6.68704 10.2404 6.61336 10.306 6.61336 10.3337C6.61336 10.356 6.54224 10.427 6.52 10.427C6.49776 10.427 6.42664 10.4981 6.42664 10.5204C6.42664 10.5426 6.3556 10.6137 6.33336 10.6137C6.31112 10.6137 6.24 10.6848 6.24 10.707C6.24 10.7292 6.16888 10.8004 6.14664 10.8004C6.11896 10.8004 6.05336 10.874 6.05336 10.9052C6.05336 10.9208 6.02936 10.9337 6 10.9337C5.97064 10.9337 5.94664 10.9457 5.94664 10.9604C5.94664 10.975 5.93384 10.987 5.91808 10.987C5.8812 10.987 5.81336 11.0548 5.81336 11.0918C5.81336 11.1075 5.8008 11.1204 5.78544 11.1204C5.74928 11.1204 5.62664 11.2429 5.62664 11.2792C5.62664 11.2945 5.61408 11.307 5.59872 11.307C5.56232 11.307 5.30664 11.5627 5.30664 11.5991C5.30664 11.6144 5.29128 11.627 5.27256 11.627C5.25376 11.627 5.22112 11.651 5.2 11.6804C5.17888 11.7097 5.14024 11.7337 5.11408 11.7337C5.088 11.7337 5.06664 11.7517 5.06664 11.7737C5.06664 11.7957 5.05128 11.8137 5.03256 11.8137C5.01376 11.8137 4.98112 11.8377 4.96 11.867C4.93888 11.8964 4.90624 11.9204 4.88744 11.9204C4.86872 11.9204 4.85336 11.9329 4.85336 11.9482C4.85336 11.9844 4.73072 12.107 4.69456 12.107C4.6792 12.107 4.66664 12.1224 4.66664 12.1412C4.66664 12.1599 4.64264 12.1925 4.61336 12.2137C4.584 12.2348 4.56 12.2795 4.56 12.3129C4.56 12.3492 4.54384 12.3737 4.52 12.3737C4.4904 12.3737 4.48 12.4048 4.48 12.4937C4.48 12.5597 4.468 12.6137 4.45336 12.6137C4.43832 12.6137 4.42664 12.6892 4.42664 12.787C4.42664 12.8848 4.43832 12.9604 4.45336 12.9604C4.468 12.9604 4.48 13.0024 4.48 13.0537C4.48 13.1188 4.49208 13.147 4.52 13.147C4.54224 13.147 4.56 13.1708 4.56 13.2004C4.56 13.2297 4.572 13.2537 4.58664 13.2537C4.60136 13.2537 4.61336 13.2785 4.61336 13.3089C4.61336 13.368 4.67104 13.4404 4.71808 13.4404C4.73384 13.4404 4.74664 13.4584 4.74664 13.4804C4.74664 13.5026 4.7704 13.5204 4.8 13.5204C4.82936 13.5204 4.85336 13.5324 4.85336 13.547C4.85336 13.5617 4.88336 13.5737 4.92 13.5737C4.95664 13.5737 4.98664 13.5857 4.98664 13.6004C4.98664 13.615 5.02352 13.627 5.06856 13.627C5.1136 13.627 5.16848 13.645 5.19048 13.667C5.22232 13.6989 5.3088 13.707 5.6152 13.707C5.854 13.707 6 13.7172 6 13.7337C6 13.7501 6.13336 13.7604 6.34664 13.7604C6.56 13.7604 6.69336 13.7706 6.69336 13.787C6.69336 13.8036 6.84448 13.8137 7.09336 13.8137C7.43112 13.8137 7.49336 13.8199 7.49336 13.8537C7.49336 13.8873 7.55256 13.8937 7.86664 13.8937C8.09776 13.8937 8.24 13.9039 8.24 13.9204C8.24 13.9369 8.39112 13.947 8.64 13.947C8.88888 13.947 9.04 13.9571 9.04 13.9737C9.04 13.9903 9.18664 14.0004 9.42664 14.0004C9.75256 14.0004 9.81336 14.0067 9.81336 14.0404C9.81336 14.074 9.87256 14.0804 10.1866 14.0804C10.4178 14.0804 10.56 14.0905 10.56 14.107C10.56 14.1236 10.7111 14.1337 10.96 14.1337C11.2089 14.1337 11.36 14.1438 11.36 14.1604C11.36 14.1768 11.5022 14.187 11.7334 14.187C12.0474 14.187 12.1066 14.1934 12.1066 14.227C12.1066 14.2607 12.1659 14.267 12.48 14.267C12.7111 14.267 12.8534 14.2772 12.8534 14.2937C12.8534 14.3102 12.9962 14.3204 13.2286 14.3204C13.5266 14.3204 13.6121 14.3286 13.6438 14.3604C13.6755 14.3921 13.7606 14.4004 14.0552 14.4004C14.285 14.4004 14.4266 14.4105 14.4266 14.427C14.4266 14.4436 14.5689 14.4537 14.8 14.4537C15.0311 14.4537 15.1734 14.4639 15.1734 14.4804C15.1734 14.4968 15.3148 14.507 15.5445 14.507C15.8177 14.507 15.9185 14.5158 15.9266 14.5404C15.9346 14.5645 16.0486 14.576 16.3422 14.5823C16.567 14.5871 16.7466 14.6019 16.7466 14.6156C16.7466 14.6296 16.9082 14.6404 17.12 14.6404C17.3511 14.6404 17.4934 14.6505 17.4934 14.667C17.4934 14.6836 17.6348 14.6937 17.8645 14.6937C18.1377 14.6937 18.2385 14.7025 18.2466 14.727C18.2546 14.7512 18.366 14.7628 18.6489 14.769C18.8649 14.7738 19.04 14.7887 19.04 14.8024C19.04 14.8164 19.2072 14.827 19.4266 14.827C19.6666 14.827 19.8134 14.8372 19.8134 14.8537C19.8134 14.8705 19.9911 14.8804 20.2934 14.8804C20.5955 14.8804 20.7734 14.8705 20.7734 14.8537C20.7734 14.839 20.793 14.827 20.817 14.827C20.841 14.827 20.8883 14.797 20.9223 14.7604C20.9563 14.7237 20.9966 14.6937 21.0118 14.6937C21.057 14.6937 21.1466 14.6051 21.1466 14.5604C21.1466 14.5375 21.1706 14.5015 21.2 14.4804C21.2346 14.4554 21.2534 14.4113 21.2534 14.3544C21.2534 14.2945 21.2659 14.267 21.2934 14.267C21.3265 14.267 21.3334 14.2167 21.3334 13.9737C21.3334 13.7308 21.3265 13.6804 21.2934 13.6804C21.2685 13.6804 21.2534 13.6552 21.2534 13.6137C21.2534 13.577 21.2414 13.547 21.2266 13.547C21.212 13.547 21.2 13.5222 21.2 13.4918C21.2 13.4395 21.1438 13.3604 21.1066 13.3604C21.0844 13.3604 21.0134 13.2892 21.0134 13.267C21.0134 13.2448 20.9422 13.1737 20.92 13.1737C20.8865 13.1737 20.8266 13.0968 20.8266 13.0537C20.8266 13.0042 20.7651 12.9337 20.7219 12.9337C20.7062 12.9337 20.6934 12.9212 20.6934 12.9058C20.6934 12.8696 20.5707 12.747 20.5346 12.747C20.5192 12.747 20.5066 12.7316 20.5066 12.7129C20.5066 12.6941 20.4826 12.6615 20.4534 12.6404C20.424 12.6192 20.4 12.5848 20.4 12.564C20.4 12.5215 20.2552 12.3737 20.2136 12.3737C20.1988 12.3737 20.1866 12.3612 20.1866 12.3458C20.1866 12.3096 20.0641 12.187 20.0278 12.187C20.0126 12.187 20 12.169 20 12.147C20 12.125 19.988 12.107 19.9734 12.107C19.9586 12.107 19.9466 12.083 19.9466 12.0537C19.9466 12.0244 19.9346 12.0004 19.92 12.0004C19.9054 12.0004 19.8934 11.9824 19.8934 11.9604C19.8934 11.9384 19.8808 11.9204 19.8654 11.9204C19.8293 11.9204 19.7066 11.7978 19.7066 11.7616C19.7066 11.7462 19.6942 11.7337 19.6788 11.7337C19.6376 11.7337 19.5292 11.618 19.5081 11.5514C19.498 11.5196 19.4786 11.4937 19.4649 11.4937C19.4512 11.4937 19.44 11.4812 19.44 11.4658C19.44 11.4296 19.3174 11.307 19.2812 11.307C19.2658 11.307 19.2534 11.2945 19.2534 11.2792C19.2534 11.2429 19.1307 11.1204 19.0946 11.1204C19.0792 11.1204 19.0666 11.1024 19.0666 11.0804C19.0666 11.0581 19.043 11.0404 19.0134 11.0404C18.984 11.0404 18.96 11.0284 18.96 11.0137C18.96 10.999 18.9471 10.987 18.9314 10.987C18.9003 10.987 18.8266 10.9214 18.8266 10.8937C18.8266 10.8608 18.7502 10.8004 18.7086 10.8004C18.6855 10.8004 18.6666 10.7884 18.6666 10.7737C18.6666 10.759 18.6486 10.747 18.6266 10.747C18.6046 10.747 18.5866 10.729 18.5866 10.707C18.5866 10.685 18.5686 10.667 18.5466 10.667C18.5246 10.667 18.5066 10.655 18.5066 10.6404C18.5066 10.6257 18.4826 10.6137 18.4534 10.6137C18.424 10.6137 18.4 10.6017 18.4 10.587C18.4 10.5724 18.382 10.5604 18.36 10.5604C18.338 10.5604 18.32 10.5424 18.32 10.5204C18.32 10.4955 18.2948 10.4804 18.2534 10.4804C18.2166 10.4804 18.1866 10.4684 18.1866 10.4537C18.1866 10.439 18.1626 10.427 18.1334 10.427C18.104 10.427 18.08 10.415 18.08 10.4004C18.08 10.3857 18.062 10.3737 18.04 10.3737C18.018 10.3737 18 10.3557 18 10.3337C18 10.3115 17.9763 10.2937 17.9466 10.2937C17.9174 10.2937 17.8934 10.2817 17.8934 10.267C17.8934 10.2524 17.8634 10.2404 17.8266 10.2404C17.79 10.2404 17.76 10.2284 17.76 10.2137C17.76 10.199 17.7351 10.187 17.7048 10.187C17.6744 10.187 17.6315 10.169 17.6095 10.147C17.5875 10.125 17.5404 10.107 17.5048 10.107C17.4691 10.107 17.44 10.095 17.44 10.0804C17.44 10.0657 17.41 10.0537 17.3734 10.0537C17.3366 10.0537 17.3066 10.0417 17.3066 10.027C17.3066 10.0124 17.2706 10.0004 17.2266 10.0004C17.1734 10.0004 17.1466 9.98699 17.1466 9.96035C17.1466 9.93011 17.1141 9.92035 17.0134 9.92035C16.94 9.92035 16.88 9.90835 16.88 9.89371C16.88 9.87899 16.838 9.86699 16.7866 9.86699C16.7354 9.86699 16.6934 9.85499 16.6934 9.84035C16.6934 9.82571 16.6274 9.81371 16.5466 9.81371C16.4341 9.81371 16.4 9.80443 16.4 9.77371C16.4 9.74123 16.357 9.73371 16.1734 9.73371C16.04 9.73371 15.9466 9.72267 15.9466 9.70699C15.9466 9.68939 14.5422 9.68035 11.7866 9.68035C9.03112 9.68035 7.62664 9.68939 7.62664 9.70699ZM12.8534 11.9737V12.9337H12.4934C12.1911 12.9337 12.1334 12.9272 12.1334 12.8937C12.1334 12.86 12.0741 12.8537 11.76 12.8537C11.5289 12.8537 11.3866 12.8436 11.3866 12.827C11.3866 12.8105 11.2445 12.8004 11.0134 12.8004C10.7822 12.8004 10.64 12.7902 10.64 12.7737C10.64 12.7572 10.4978 12.747 10.2666 12.747C9.95256 12.747 9.89336 12.7407 9.89336 12.707C9.89336 12.6732 9.8296 12.667 9.48 12.667C9.22224 12.667 9.06664 12.657 9.06664 12.6404C9.06664 12.6239 8.92448 12.6137 8.69336 12.6137C8.46224 12.6137 8.32 12.6036 8.32 12.587C8.32 12.5705 8.17776 12.5604 7.94664 12.5604C7.63256 12.5604 7.57336 12.554 7.57336 12.5204C7.57336 12.4866 7.51112 12.4804 7.17336 12.4804C6.92448 12.4804 6.77336 12.4703 6.77336 12.4537C6.77336 12.4386 6.68968 12.4261 6.58 12.4249C6.47368 12.4238 6.40168 12.4168 6.42 12.4094C6.43832 12.402 6.45336 12.384 6.45336 12.3696C6.45336 12.3344 6.52224 12.267 6.55808 12.267C6.57384 12.267 6.58664 12.2545 6.58664 12.2392C6.58664 12.2025 6.70944 12.0804 6.74632 12.0804C6.76208 12.0804 6.78192 12.0624 6.79032 12.0404C6.7988 12.0184 6.8224 12.0004 6.84288 12.0004C6.86328 12.0004 6.88 11.9904 6.88 11.9782C6.88 11.966 6.91 11.94 6.94664 11.9204C6.98336 11.9008 7.01336 11.8739 7.01336 11.8606C7.01336 11.8331 7.08096 11.7604 7.10664 11.7604C7.11608 11.7604 7.14096 11.7432 7.16192 11.7223C7.18288 11.7013 7.2 11.6764 7.2 11.667C7.2 11.6448 7.27112 11.5737 7.29336 11.5737C7.3028 11.5737 7.3276 11.5565 7.34856 11.5356C7.36952 11.5147 7.38664 11.4898 7.38664 11.4804C7.38664 11.4709 7.40384 11.446 7.4248 11.4252C7.44568 11.4042 7.47056 11.387 7.48 11.387C7.50768 11.387 7.57336 11.3133 7.57336 11.2823C7.57336 11.2665 7.59736 11.2537 7.62664 11.2537C7.656 11.2537 7.68 11.2417 7.68 11.227C7.68 11.2124 7.69288 11.2004 7.70856 11.2004C7.72432 11.2004 7.75432 11.1832 7.7752 11.1623C7.79616 11.1413 7.81336 11.1113 7.81336 11.0956C7.81336 11.0799 7.83136 11.067 7.85336 11.067C7.87536 11.067 7.89336 11.055 7.89336 11.0404C7.89336 11.0228 8.73776 11.0137 10.3734 11.0137H12.8534V11.9737ZM15.8666 11.0404C15.8666 11.0556 15.9466 11.067 16.0534 11.067C16.2015 11.067 16.24 11.0753 16.24 11.107C16.24 11.1367 16.2711 11.147 16.36 11.147C16.426 11.147 16.48 11.159 16.48 11.1737C16.48 11.1884 16.522 11.2004 16.5734 11.2004C16.6246 11.2004 16.6666 11.2124 16.6666 11.227C16.6666 11.2417 16.7086 11.2537 16.76 11.2537C16.8252 11.2537 16.8534 11.2657 16.8534 11.2937C16.8534 11.3186 16.8785 11.3337 16.92 11.3337C16.9566 11.3337 16.9866 11.3457 16.9866 11.3604C16.9866 11.375 17.0166 11.387 17.0534 11.387C17.09 11.387 17.12 11.399 17.12 11.4137C17.12 11.4284 17.144 11.4404 17.1734 11.4404C17.203 11.4404 17.2266 11.4581 17.2266 11.4804C17.2266 11.5052 17.2518 11.5204 17.2934 11.5204C17.33 11.5204 17.36 11.5324 17.36 11.547C17.36 11.5617 17.3871 11.5737 17.4203 11.5737C17.4536 11.5737 17.5032 11.6036 17.5307 11.6404C17.5582 11.677 17.6005 11.707 17.6245 11.707C17.6486 11.707 17.6855 11.731 17.7066 11.7604C17.7278 11.7897 17.7725 11.8137 17.8059 11.8137C17.8393 11.8137 17.8666 11.8265 17.8666 11.8423C17.8666 11.8729 17.9322 11.947 17.9593 11.947C17.9683 11.947 18.0058 11.977 18.0424 12.0137C18.0791 12.0504 18.1211 12.0804 18.1358 12.0804C18.171 12.0804 18.2934 12.2036 18.2934 12.2392C18.2934 12.2545 18.3062 12.267 18.3219 12.267C18.3644 12.267 18.4266 12.3372 18.4266 12.3852C18.4266 12.4082 18.4386 12.427 18.4534 12.427C18.468 12.427 18.48 12.445 18.48 12.467C18.48 12.489 18.498 12.507 18.52 12.507C18.542 12.507 18.56 12.5196 18.56 12.5349C18.56 12.5711 18.6826 12.6937 18.7188 12.6937C18.7342 12.6937 18.7466 12.7062 18.7466 12.7216C18.7466 12.7369 18.7737 12.7784 18.8066 12.8136C18.9026 12.9162 18.9334 12.9566 18.9334 12.98C18.9334 12.992 18.9574 13.0192 18.9866 13.0404C19.016 13.0615 19.04 13.0941 19.04 13.1129C19.04 13.1316 19.0526 13.147 19.0678 13.147C19.1041 13.147 19.2266 13.2696 19.2266 13.3058C19.2266 13.3212 19.2395 13.3337 19.2552 13.3337C19.2978 13.3337 19.36 13.4039 19.36 13.4518C19.36 13.4848 19.3289 13.4937 19.2134 13.4937C19.1007 13.4937 19.0666 13.4844 19.0666 13.4537C19.0666 13.42 19.0074 13.4137 18.6934 13.4137C18.4622 13.4137 18.32 13.4036 18.32 13.387C18.32 13.3705 18.1778 13.3604 17.9466 13.3604C17.7155 13.3604 17.5734 13.3502 17.5734 13.3337C17.5734 13.3171 17.4232 13.307 17.1762 13.307C16.8478 13.307 16.7764 13.3001 16.7637 13.267C16.751 13.2341 16.6822 13.227 16.3742 13.227C16.1425 13.227 16 13.2168 16 13.2004C16 13.1839 15.8578 13.1737 15.6266 13.1737C15.3955 13.1737 15.2534 13.1636 15.2534 13.147C15.2534 13.1304 15.1022 13.1204 14.8534 13.1204C14.5155 13.1204 14.4534 13.1141 14.4534 13.0804C14.4534 13.0501 14.4207 13.0404 14.32 13.0404H14.1866V12.027V11.0137H15.0266C15.5689 11.0137 15.8666 11.0232 15.8666 11.0404ZM4.93336 15.0804C4.93336 15.1052 4.90816 15.1204 4.86664 15.1204C4.83 15.1204 4.8 15.1324 4.8 15.147C4.8 15.1617 4.77512 15.1737 4.7448 15.1737C4.68576 15.1737 4.61336 15.2314 4.61336 15.2784C4.61336 15.2942 4.60136 15.307 4.58664 15.307C4.572 15.307 4.56 15.331 4.56 15.3604C4.56 15.39 4.54224 15.4137 4.52 15.4137C4.48976 15.4137 4.48 15.4463 4.48 15.547C4.48 15.6204 4.468 15.6804 4.45336 15.6804C4.43864 15.6804 4.42664 15.6984 4.42664 15.7204C4.42664 15.7424 4.43864 15.7604 4.45336 15.7604C4.468 15.7604 4.48 15.8144 4.48 15.8804C4.48 15.9692 4.4904 16.0004 4.52 16.0004C4.54384 16.0004 4.56 16.0249 4.56 16.0612C4.56 16.0946 4.584 16.1392 4.61336 16.1604C4.64264 16.1815 4.66664 16.2141 4.66664 16.2329C4.66664 16.2516 4.68464 16.267 4.70664 16.267C4.72864 16.267 4.74664 16.279 4.74664 16.2937C4.74664 16.3084 4.76936 16.3204 4.79712 16.3204C4.82488 16.3204 4.85456 16.3384 4.86296 16.3604C4.87624 16.3948 5.0068 16.4004 5.81336 16.4004C6.61984 16.4004 6.75048 16.3948 6.76368 16.3604C6.77216 16.3384 6.80176 16.3204 6.82952 16.3204C6.85728 16.3204 6.88 16.3084 6.88 16.2937C6.88 16.279 6.898 16.267 6.92 16.267C6.942 16.267 6.96 16.2545 6.96 16.2392C6.96 16.2029 7.08256 16.0804 7.1188 16.0804C7.13416 16.0804 7.14664 16.0384 7.14664 15.987C7.14664 15.9357 7.15864 15.8937 7.17336 15.8937C7.1884 15.8937 7.2 15.8181 7.2 15.7204C7.2 15.6226 7.1884 15.547 7.17336 15.547C7.15864 15.547 7.14664 15.5127 7.14664 15.4708C7.14664 15.4205 7.12392 15.3774 7.08 15.3444C7.04336 15.3169 7.01336 15.2844 7.01336 15.2721C7.01336 15.2404 6.9424 15.1737 6.90856 15.1737C6.89288 15.1737 6.88 15.1617 6.88 15.147C6.88 15.1324 6.838 15.1204 6.78664 15.1204C6.72152 15.1204 6.69336 15.1083 6.69336 15.0804C6.69336 15.0456 6.57776 15.0404 5.81336 15.0404C5.04888 15.0404 4.93336 15.0456 4.93336 15.0804ZM13.3066 15.9604C13.3066 15.9852 13.2815 16.0004 13.24 16.0004C13.2034 16.0004 13.1734 16.0124 13.1734 16.027C13.1734 16.0417 13.1523 16.054 13.1266 16.0545C13.0558 16.0558 12.9866 16.1194 12.9866 16.1833C12.9866 16.2147 12.9746 16.2404 12.96 16.2404C12.9454 16.2404 12.9334 16.2704 12.9334 16.307C12.9334 16.3485 12.9182 16.3737 12.8934 16.3737C12.8609 16.3737 12.8534 16.4167 12.8534 16.6004C12.8534 16.784 12.8609 16.827 12.8934 16.827C12.9182 16.827 12.9334 16.8522 12.9334 16.8937C12.9334 16.9304 12.9454 16.9604 12.96 16.9604C12.9746 16.9604 12.9866 16.9782 12.9866 17C12.9866 17.058 13.071 17.147 13.1259 17.147C13.152 17.147 13.1734 17.159 13.1734 17.1737C13.1734 17.1884 13.2034 17.2004 13.24 17.2004C13.2766 17.2004 13.3066 17.2124 13.3066 17.227C13.3066 17.2443 13.6311 17.2537 14.2266 17.2537C14.8222 17.2537 15.1466 17.2443 15.1466 17.227C15.1466 17.2124 15.1706 17.2004 15.2 17.2004C15.2294 17.2004 15.2534 17.1884 15.2534 17.1737C15.2534 17.159 15.2746 17.147 15.3007 17.147C15.3557 17.147 15.44 17.058 15.44 17C15.44 16.9782 15.458 16.9604 15.48 16.9604C15.5049 16.9604 15.52 16.9352 15.52 16.8937C15.52 16.857 15.532 16.827 15.5466 16.827C15.5623 16.827 15.5734 16.7337 15.5734 16.6004C15.5734 16.467 15.5623 16.3737 15.5466 16.3737C15.532 16.3737 15.52 16.3437 15.52 16.307C15.52 16.2656 15.5049 16.2404 15.48 16.2404C15.4573 16.2404 15.44 16.2164 15.44 16.1852C15.44 16.1144 15.3793 16.0537 15.3086 16.0537C15.2782 16.0537 15.2534 16.0417 15.2534 16.027C15.2534 16.0124 15.2294 16.0004 15.2 16.0004C15.1704 16.0004 15.1466 15.9826 15.1466 15.9604C15.1466 15.9256 15.0266 15.9204 14.2266 15.9204C13.4266 15.9204 13.3066 15.9256 13.3066 15.9604ZM29.4934 16.107C29.4934 16.1217 29.5058 16.1337 29.5212 16.1337C29.5574 16.1337 29.68 16.2563 29.68 16.2925C29.68 16.3078 29.692 16.3204 29.7066 16.3204C29.7214 16.3204 29.7334 16.3384 29.7334 16.3604C29.7334 16.3824 29.7458 16.4004 29.7612 16.4004C29.7974 16.4004 29.92 16.5229 29.92 16.5592C29.92 16.5745 29.938 16.587 29.96 16.587C29.9822 16.587 30 16.6108 30 16.6404C30 16.6697 30.012 16.6937 30.0266 16.6937C30.0414 16.6937 30.0534 16.7065 30.0534 16.7223C30.0534 16.7592 30.1212 16.827 30.1581 16.827C30.1738 16.827 30.1866 16.857 30.1866 16.8937C30.1866 16.9304 30.1986 16.9604 30.2134 16.9604C30.228 16.9604 30.24 16.9784 30.24 17.0004C30.24 17.0351 30.1304 17.0404 29.4134 17.0404C28.88 17.0404 28.5866 17.0309 28.5866 17.0137C28.5866 16.999 28.5686 16.987 28.5466 16.987C28.5218 16.987 28.5066 16.9619 28.5066 16.9204C28.5066 16.8837 28.4946 16.8537 28.48 16.8537C28.4654 16.8537 28.4534 16.8357 28.4534 16.8137C28.4534 16.7917 28.4654 16.7737 28.48 16.7737C28.4946 16.7737 28.5066 16.7437 28.5066 16.707C28.5066 16.6616 28.5215 16.6401 28.5534 16.6395C28.611 16.6384 28.6934 16.5784 28.6934 16.5374C28.6934 16.5207 28.7207 16.507 28.7541 16.507C28.7875 16.507 28.8322 16.483 28.8534 16.4537C28.8745 16.4244 28.9191 16.4004 28.9526 16.4004C28.986 16.4004 29.0134 16.3875 29.0134 16.3718C29.0134 16.3248 29.0858 16.267 29.1448 16.267C29.1761 16.267 29.2 16.2497 29.2 16.227C29.2 16.2048 29.2237 16.187 29.2534 16.187C29.2826 16.187 29.3066 16.175 29.3066 16.1604C29.3066 16.1457 29.3246 16.1337 29.3466 16.1337C29.3686 16.1337 29.3866 16.1217 29.3866 16.107C29.3866 16.0924 29.4106 16.0804 29.44 16.0804C29.4694 16.0804 29.4934 16.0924 29.4934 16.107ZM6.30664 19.1737C6.31576 19.1884 6.3764 19.2004 6.4416 19.2004C6.50672 19.2004 6.56 19.2124 6.56 19.227C6.56 19.2417 6.602 19.2537 6.65336 19.2537C6.71848 19.2537 6.74664 19.2657 6.74664 19.2937C6.74664 19.3159 6.7704 19.3337 6.8 19.3337C6.82936 19.3337 6.85336 19.3457 6.85336 19.3604C6.85336 19.375 6.88336 19.387 6.92 19.387C6.95664 19.387 6.98664 19.399 6.98664 19.4137C6.98664 19.4284 6.9992 19.4404 7.01448 19.4404C7.04352 19.4404 7.07976 19.467 7.18672 19.567C7.222 19.6 7.26344 19.627 7.2788 19.627C7.29416 19.627 7.30664 19.645 7.30664 19.667C7.30664 19.689 7.31568 19.7071 7.32664 19.7071C7.35376 19.7071 7.49336 19.8285 7.49336 19.852C7.49336 19.8756 7.56352 19.947 7.58664 19.947C7.62016 19.947 7.68 20.0239 7.68 20.067C7.68 20.1165 7.7416 20.187 7.7848 20.187C7.80048 20.187 7.81336 20.217 7.81336 20.2537C7.81336 20.2904 7.82536 20.3204 7.84 20.3204C7.85464 20.3204 7.86664 20.3496 7.86664 20.3855C7.86664 20.4212 7.87864 20.458 7.89336 20.467C7.908 20.4761 7.92 20.5192 7.92 20.5628C7.92 20.6086 7.93688 20.6485 7.96 20.6574C7.98872 20.6684 8 20.7133 8 20.8165C8 20.8956 8.012 20.9604 8.02664 20.9604C8.04232 20.9604 8.05336 21.0537 8.05336 21.187C8.05336 21.3204 8.04232 21.4137 8.02664 21.4137C8.01184 21.4137 8 21.4848 8 21.5737C8 21.6981 7.99112 21.7337 7.96 21.7337C7.93208 21.7337 7.92 21.7619 7.92 21.827C7.92 21.8784 7.908 21.9204 7.89336 21.9204C7.87864 21.9204 7.86664 21.9504 7.86664 21.987C7.86664 22.0237 7.85464 22.0537 7.84 22.0537C7.82536 22.0537 7.81336 22.0837 7.81336 22.1204C7.81336 22.1619 7.79824 22.187 7.77336 22.187C7.75112 22.187 7.73336 22.2108 7.73336 22.2404C7.73336 22.2697 7.72136 22.2937 7.70664 22.2937C7.692 22.2937 7.68 22.3117 7.68 22.3337C7.68 22.3557 7.668 22.3737 7.65336 22.3737C7.63864 22.3737 7.62664 22.3977 7.62664 22.427C7.62664 22.4567 7.60888 22.4804 7.58664 22.4804C7.56464 22.4804 7.54664 22.4932 7.54664 22.5089C7.54664 22.54 7.48104 22.6137 7.45336 22.6137C7.43112 22.6137 7.36 22.6848 7.36 22.707C7.36 22.7347 7.28632 22.8004 7.2552 22.8004C7.23952 22.8004 7.22664 22.8124 7.22664 22.827C7.22664 22.8417 7.20264 22.8537 7.17336 22.8537C7.14368 22.8537 7.12 22.8715 7.12 22.8937C7.12 22.9157 7.102 22.9337 7.08 22.9337C7.058 22.9337 7.04 22.9457 7.04 22.9604C7.04 22.975 7.016 22.987 6.98664 22.987C6.95736 22.987 6.93336 22.999 6.93336 23.0137C6.93336 23.0284 6.90336 23.0404 6.86664 23.0404C6.8252 23.0404 6.8 23.0555 6.8 23.0804C6.8 23.1052 6.7748 23.1204 6.73336 23.1204C6.69664 23.1204 6.66664 23.1324 6.66664 23.147C6.66664 23.1617 6.62464 23.1737 6.57336 23.1737C6.522 23.1737 6.48 23.1857 6.48 23.2004C6.48 23.2156 6.4 23.227 6.29336 23.227C6.1452 23.227 6.10664 23.2353 6.10664 23.267C6.10664 23.2977 6.07256 23.307 5.96 23.307C5.84744 23.307 5.81336 23.2977 5.81336 23.267C5.81336 23.2353 5.7748 23.227 5.62664 23.227C5.52 23.227 5.44 23.2156 5.44 23.2004C5.44 23.1857 5.398 23.1737 5.34664 23.1737C5.29536 23.1737 5.25336 23.1617 5.25336 23.147C5.25336 23.1324 5.23064 23.1204 5.20288 23.1204C5.17512 23.1204 5.14544 23.1024 5.13704 23.0804C5.12856 23.0584 5.09728 23.0404 5.06752 23.0404C5.03768 23.0404 5.01336 23.0284 5.01336 23.0137C5.01336 22.999 4.98336 22.987 4.94664 22.987C4.91 22.987 4.88 22.975 4.88 22.9604C4.88 22.9457 4.86248 22.9337 4.84104 22.9337C4.79648 22.9337 4.58664 22.7366 4.58664 22.6948C4.58664 22.6795 4.57416 22.667 4.5588 22.667C4.52256 22.667 4.4 22.5444 4.4 22.5082C4.4 22.4929 4.38712 22.4804 4.37144 22.4804C4.3244 22.4804 4.26664 22.408 4.26664 22.3489C4.26664 22.3185 4.25384 22.2937 4.23808 22.2937C4.19104 22.2937 4.13336 22.2213 4.13336 22.1623C4.13336 22.1319 4.12136 22.107 4.10664 22.107C4.092 22.107 4.08 22.065 4.08 22.0137C4.08 21.9485 4.06792 21.9204 4.04 21.9204C4.01776 21.9204 4 21.8967 4 21.867C4 21.8377 3.988 21.8137 3.97336 21.8137C3.95848 21.8137 3.94664 21.7426 3.94664 21.6537C3.94664 21.5585 3.9352 21.4937 3.91832 21.4937C3.89928 21.4937 3.8944 21.4 3.90336 21.207C3.92056 20.8369 3.94568 20.6404 3.97592 20.6404C3.98912 20.6404 4 20.5984 4 20.547C4 20.4819 4.01208 20.4537 4.04 20.4537C4.06488 20.4537 4.08 20.4285 4.08 20.387C4.08 20.3504 4.092 20.3204 4.10664 20.3204C4.12136 20.3204 4.13336 20.2904 4.13336 20.2537C4.13336 20.217 4.14536 20.187 4.16 20.187C4.17464 20.187 4.18664 20.169 4.18664 20.147C4.18664 20.125 4.19904 20.107 4.21416 20.107C4.22928 20.107 4.2496 20.086 4.25936 20.0604C4.282 20.0004 4.33488 19.947 4.37144 19.947C4.38712 19.947 4.4 19.929 4.4 19.907C4.4 19.885 4.412 19.867 4.42664 19.867C4.44136 19.867 4.45336 19.8474 4.45336 19.8235C4.45336 19.776 4.55008 19.6804 4.59816 19.6804C4.61472 19.6804 4.64552 19.6564 4.66664 19.627C4.68784 19.5977 4.71528 19.5737 4.72776 19.5737C4.75992 19.5737 4.82664 19.503 4.82664 19.4689C4.82664 19.4532 4.85664 19.4404 4.89336 19.4404C4.93 19.4404 4.96 19.4284 4.96 19.4137C4.96 19.399 4.984 19.387 5.01336 19.387C5.04264 19.387 5.06664 19.375 5.06664 19.3604C5.06664 19.3457 5.09664 19.3337 5.13336 19.3337C5.1748 19.3337 5.2 19.3186 5.2 19.2937C5.2 19.2657 5.22816 19.2537 5.29336 19.2537C5.34464 19.2537 5.38664 19.2417 5.38664 19.227C5.38664 19.2124 5.42864 19.2004 5.48 19.2004C5.53136 19.2004 5.57336 19.1884 5.57336 19.1737C5.57336 19.1572 5.71056 19.147 5.93176 19.147C6.14192 19.147 6.29704 19.158 6.30664 19.1737ZM24.6666 19.1737C24.6666 19.1884 24.7266 19.2004 24.8 19.2004C24.8734 19.2004 24.9334 19.2124 24.9334 19.227C24.9334 19.2417 24.9582 19.2537 24.9886 19.2537C25.019 19.2537 25.0618 19.2717 25.0838 19.2937C25.1058 19.3157 25.147 19.3337 25.1752 19.3337C25.2035 19.3337 25.2266 19.3457 25.2266 19.3604C25.2266 19.375 25.2446 19.387 25.2666 19.387C25.2886 19.387 25.3066 19.399 25.3066 19.4137C25.3066 19.4284 25.3306 19.4404 25.36 19.4404C25.3894 19.4404 25.4134 19.456 25.4134 19.475C25.4134 19.494 25.4554 19.5248 25.5066 19.5434C25.558 19.562 25.6 19.5884 25.6 19.6021C25.6 19.6158 25.618 19.627 25.64 19.627C25.662 19.627 25.68 19.6399 25.68 19.6556C25.68 19.6867 25.7457 19.7604 25.7734 19.7604C25.7952 19.7604 25.8666 19.8312 25.8666 19.8529C25.8666 19.8686 25.8942 19.9053 25.9666 19.986C25.985 20.0065 26 20.036 26 20.0518C26 20.0675 26.0112 20.0804 26.025 20.0804C26.0386 20.0804 26.065 20.1224 26.0836 20.1737C26.1022 20.225 26.133 20.267 26.152 20.267C26.1712 20.267 26.1866 20.2968 26.1866 20.3337C26.1866 20.3704 26.1986 20.4004 26.2134 20.4004C26.228 20.4004 26.24 20.4424 26.24 20.4937C26.24 20.545 26.252 20.587 26.2666 20.587C26.2814 20.587 26.2934 20.641 26.2934 20.707C26.2934 20.7959 26.3037 20.827 26.3334 20.827C26.367 20.827 26.3734 20.8878 26.3734 21.2137C26.3734 21.5396 26.367 21.6004 26.3334 21.6004C26.3045 21.6004 26.2934 21.63 26.2934 21.707C26.2934 21.7657 26.2814 21.8137 26.2666 21.8137C26.252 21.8137 26.24 21.8557 26.24 21.907C26.24 21.9584 26.228 22.0004 26.2134 22.0004C26.1986 22.0004 26.1866 22.0244 26.1866 22.0537C26.1866 22.0833 26.1689 22.107 26.1466 22.107C26.1218 22.107 26.1066 22.1322 26.1066 22.1737C26.1066 22.2104 26.0946 22.2404 26.08 22.2404C26.0654 22.2404 26.0534 22.2652 26.0534 22.2956C26.0534 22.3479 25.9971 22.427 25.96 22.427C25.9323 22.427 25.8666 22.5007 25.8666 22.5318C25.8666 22.5475 25.8546 22.5604 25.84 22.5604C25.8254 22.5604 25.8134 22.5844 25.8134 22.6137C25.8134 22.6528 25.7955 22.667 25.7466 22.667C25.7052 22.667 25.68 22.6821 25.68 22.707C25.68 22.729 25.6674 22.747 25.6522 22.747C25.6159 22.747 25.4934 22.8696 25.4934 22.9058C25.4934 22.9212 25.466 22.9337 25.4326 22.9337C25.3991 22.9337 25.3545 22.9577 25.3334 22.987C25.3122 23.0164 25.2675 23.0404 25.2341 23.0404C25.1978 23.0404 25.1734 23.0565 25.1734 23.0804C25.1734 23.1083 25.1452 23.1204 25.08 23.1204C25.0286 23.1204 24.9866 23.1324 24.9866 23.147C24.9866 23.1617 24.9446 23.1737 24.8934 23.1737C24.842 23.1737 24.8 23.1857 24.8 23.2004C24.8 23.2152 24.7289 23.227 24.64 23.227C24.5155 23.227 24.48 23.2359 24.48 23.267C24.48 23.2984 24.443 23.307 24.3066 23.307C24.1704 23.307 24.1334 23.2984 24.1334 23.267C24.1334 23.2359 24.0978 23.227 23.9734 23.227C23.8845 23.227 23.8134 23.2152 23.8134 23.2004C23.8134 23.1857 23.7594 23.1737 23.6934 23.1737C23.6274 23.1737 23.5734 23.1617 23.5734 23.147C23.5734 23.1324 23.5434 23.1204 23.5066 23.1204C23.4652 23.1204 23.44 23.1052 23.44 23.0804C23.44 23.0581 23.4163 23.0404 23.3866 23.0404C23.3574 23.0404 23.3334 23.0284 23.3334 23.0137C23.3334 22.999 23.3062 22.987 23.273 22.987C23.2398 22.987 23.191 22.9581 23.1644 22.9228C23.1379 22.8875 23.081 22.844 23.0381 22.8263C22.9951 22.8084 22.96 22.7833 22.96 22.7704C22.96 22.7576 22.942 22.747 22.92 22.747C22.898 22.747 22.88 22.7345 22.88 22.7192C22.88 22.6829 22.7574 22.5604 22.7212 22.5604C22.7058 22.5604 22.6934 22.533 22.6934 22.4996C22.6934 22.4661 22.6694 22.4215 22.64 22.4004C22.6106 22.3792 22.5866 22.3466 22.5866 22.3278C22.5866 22.3091 22.5686 22.2937 22.5466 22.2937C22.5245 22.2937 22.5066 22.27 22.5066 22.2404C22.5066 22.211 22.4946 22.187 22.48 22.187C22.4654 22.187 22.4534 22.157 22.4534 22.1204C22.4534 22.0788 22.4382 22.0537 22.4134 22.0537C22.3854 22.0537 22.3734 22.0256 22.3734 21.9604C22.3734 21.909 22.3614 21.867 22.3466 21.867C22.332 21.867 22.32 21.825 22.32 21.7737C22.32 21.7224 22.308 21.6804 22.2934 21.6804C22.2777 21.6804 22.2666 21.587 22.2666 21.4537C22.2666 21.27 22.2591 21.227 22.2266 21.227C22.2046 21.227 22.1866 21.209 22.1866 21.187C22.1866 21.165 22.2046 21.147 22.2266 21.147C22.2591 21.147 22.2666 21.104 22.2666 20.9204C22.2666 20.787 22.2777 20.6937 22.2934 20.6937C22.308 20.6937 22.32 20.6517 22.32 20.6004C22.32 20.549 22.332 20.507 22.3466 20.507C22.3614 20.507 22.3734 20.4843 22.3734 20.4565C22.3734 20.4288 22.3914 20.3992 22.4134 20.3907C22.4354 20.3823 22.4534 20.345 22.4534 20.3079C22.4534 20.2708 22.4654 20.2404 22.48 20.2404C22.4946 20.2404 22.5066 20.2164 22.5066 20.187C22.5066 20.1574 22.5245 20.1337 22.5466 20.1337C22.5688 20.1337 22.5866 20.11 22.5866 20.0807C22.5866 20.028 23.069 19.5204 23.1191 19.5204C23.133 19.5204 23.1742 19.4904 23.2109 19.4537C23.2476 19.417 23.3022 19.387 23.3322 19.387C23.3622 19.387 23.3866 19.375 23.3866 19.3604C23.3866 19.3457 23.4166 19.3337 23.4534 19.3337C23.4948 19.3337 23.52 19.3186 23.52 19.2937C23.52 19.2657 23.5482 19.2537 23.6134 19.2537C23.6646 19.2537 23.7066 19.2417 23.7066 19.227C23.7066 19.2124 23.7606 19.2004 23.8266 19.2004C23.8926 19.2004 23.9466 19.1884 23.9466 19.1737C23.9466 19.1572 24.0845 19.147 24.3066 19.147C24.5289 19.147 24.6666 19.1572 24.6666 19.1737ZM15.04 20.587C15.04 20.6017 15.016 20.6137 14.9866 20.6137C14.9574 20.6137 14.9334 20.6257 14.9334 20.6404C14.9334 20.655 14.9154 20.667 14.8934 20.667C14.8714 20.667 14.8534 20.6796 14.8534 20.6949C14.8534 20.7102 14.8238 20.7522 14.7878 20.7882C14.7518 20.8242 14.7098 20.8537 14.6946 20.8537C14.6792 20.8537 14.6666 20.8957 14.6666 20.947C14.6666 20.9984 14.6546 21.0404 14.64 21.0404C14.6254 21.0404 14.6134 21.1064 14.6134 21.187C14.6134 21.2677 14.6254 21.3337 14.64 21.3337C14.6546 21.3337 14.6666 21.3757 14.6666 21.427C14.6666 21.4922 14.6787 21.5204 14.7066 21.5204C14.7289 21.5204 14.7466 21.544 14.7466 21.5737C14.7466 21.603 14.7586 21.627 14.7734 21.627C14.788 21.627 14.8 21.6399 14.8 21.6556C14.8 21.7027 14.8724 21.7604 14.9314 21.7604C14.9618 21.7604 14.9866 21.7724 14.9866 21.787C14.9866 21.8017 15.0286 21.8137 15.08 21.8137C15.1452 21.8137 15.1734 21.8257 15.1734 21.8537C15.1734 21.8839 15.2059 21.8937 15.3066 21.8937C15.4074 21.8937 15.44 21.8839 15.44 21.8537C15.44 21.8257 15.4682 21.8137 15.5334 21.8137C15.5846 21.8137 15.6266 21.8017 15.6266 21.787C15.6266 21.7724 15.6417 21.76 15.66 21.7595C15.7119 21.7581 15.8134 21.6632 15.8134 21.6161C15.8134 21.5928 15.8314 21.5737 15.8534 21.5737C15.8782 21.5737 15.8934 21.5485 15.8934 21.507C15.8934 21.4704 15.9054 21.4404 15.92 21.4404C15.9359 21.4404 15.9466 21.3381 15.9466 21.187C15.9466 21.0359 15.9359 20.9337 15.92 20.9337C15.9054 20.9337 15.8934 20.9037 15.8934 20.867C15.8934 20.8304 15.8805 20.8004 15.8648 20.8004C15.8337 20.8004 15.76 20.7347 15.76 20.707C15.76 20.6699 15.6809 20.6137 15.6286 20.6137C15.5982 20.6137 15.5734 20.6017 15.5734 20.587C15.5734 20.571 15.4666 20.5604 15.3066 20.5604C15.1466 20.5604 15.04 20.571 15.04 20.587Z" fill="#0C0C0C"/>
</svg>
