<svg width="36" height="36" viewBox="0 0 36 36" fill="none" xmlns="http://www.w3.org/2000/svg">
<rect width="36" height="36" rx="8" fill="white"/>
<path d="M16.92 25.7496C16.63 25.7496 16.35 25.7096 16.12 25.6196C12.7 24.4496 7.25 20.2696 7.25 14.0896C7.25 10.9196 9.80999 8.34961 12.96 8.34961C14.47 8.34961 15.88 8.92959 16.93 9.95959C17.99 8.92959 19.39 8.34961 20.9 8.34961C24.05 8.34961 26.61 10.9196 26.61 14.0896C26.61 14.5196 26.58 14.9596 26.52 15.4096C26.49 15.6396 26.35 15.8496 26.15 15.9696C25.95 16.0896 25.7 16.0996 25.48 16.0096C24.25 15.4796 22.72 15.8796 21.92 16.9496C21.78 17.1396 21.51 17.2396 21.32 17.2496C21.08 17.2496 20.86 17.1396 20.72 16.9496C20.15 16.1896 19.28 15.7596 18.34 15.7596C16.71 15.7596 15.38 17.0996 15.38 18.7496C15.38 21.3496 16.87 23.1996 18.13 24.3096C18.31 24.4696 18.4 24.6996 18.38 24.9396C18.36 25.1796 18.23 25.3896 18.02 25.5196C17.91 25.5796 17.82 25.6196 17.77 25.6296C17.51 25.7096 17.22 25.7496 16.92 25.7496ZM12.96 9.84961C10.64 9.84961 8.75 11.7496 8.75 14.0896C8.75 19.3196 13.1 22.5396 15.6 23.7796C14.65 22.5096 13.87 20.8296 13.87 18.7396C13.87 16.2596 15.87 14.2496 18.33 14.2496C19.45 14.2496 20.5 14.6596 21.31 15.3896C22.32 14.4896 23.76 14.0796 25.1 14.3296C25.1 14.2496 25.1 14.1696 25.1 14.0996C25.1 11.7596 23.21 9.85959 20.89 9.85959C19.56 9.85959 18.33 10.4796 17.52 11.5496C17.38 11.7396 17.16 11.8496 16.92 11.8496C16.68 11.8496 16.46 11.7396 16.32 11.5496C15.53 10.4696 14.3 9.84961 12.96 9.84961Z" fill="#B00020"/>
<path d="M21.3201 27.65C21.0901 27.65 20.8501 27.62 20.6601 27.55C19.8001 27.26 18.4101 26.55 17.1401 25.42C15.6601 24.11 13.8901 21.89 13.8901 18.74C13.8901 16.26 15.8901 14.25 18.3501 14.25C19.4701 14.25 20.5201 14.66 21.3301 15.39C22.5901 14.26 24.5101 13.94 26.0901 14.63C27.7101 15.35 28.7601 16.97 28.7601 18.75C28.7601 23.49 24.6001 26.67 21.9801 27.56C21.7801 27.62 21.5501 27.65 21.3201 27.65ZM18.3401 15.75C16.7101 15.75 15.3801 17.09 15.3801 18.74C15.3801 21.34 16.8701 23.19 18.1301 24.3C19.2401 25.28 20.4101 25.89 21.1401 26.13C21.2201 26.16 21.4101 26.16 21.4801 26.13C22.9801 25.62 27.2501 23.17 27.2501 18.74C27.2501 17.55 26.5501 16.47 25.4801 16C24.2701 15.47 22.7201 15.87 21.9201 16.94C21.7801 17.13 21.5101 17.23 21.3201 17.24C21.0801 17.24 20.8601 17.13 20.7201 16.94C20.1501 16.18 19.2801 15.75 18.3401 15.75Z" fill="#B00020"/>
</svg>
