<svg width="24" height="24" viewBox="0 0 24 24" fill="none" xmlns="http://www.w3.org/2000/svg">
<path d="M21 7.44H3C2.59 7.44 2.25 7.1136 2.25 6.72C2.25 6.3264 2.59 6 3 6H21C21.41 6 21.75 6.3264 21.75 6.72C21.75 7.1136 21.41 7.44 21 7.44Z" fill="#0C0C0C"/>
<path d="M21 12.2398H3C2.59 12.2398 2.25 11.9134 2.25 11.5198C2.25 11.1262 2.59 10.7998 3 10.7998H21C21.41 10.7998 21.75 11.1262 21.75 11.5198C21.75 11.9134 21.41 12.2398 21 12.2398Z" fill="#0C0C0C"/>
<path d="M21 17.0396H3C2.59 17.0396 2.25 16.7132 2.25 16.3196C2.25 15.926 2.59 15.5996 3 15.5996H21C21.41 15.5996 21.75 15.926 21.75 16.3196C21.75 16.7132 21.41 17.0396 21 17.0396Z" fill="#0C0C0C"/>
</svg>
