<svg width="24" height="24" viewBox="0 0 24 24" fill="none" xmlns="http://www.w3.org/2000/svg">
<path d="M12.02 19.7086C9.68999 19.7086 7.35999 19.3534 5.14999 18.643C4.30999 18.3646 3.66999 17.7982 3.38999 17.059C3.09999 16.3198 3.19999 15.5038 3.65999 14.7742L4.80999 12.9406C5.04999 12.5566 5.26999 11.7886 5.26999 11.3374V8.56301C5.26999 4.99181 8.29999 2.08301 12.02 2.08301C15.74 2.08301 18.77 4.99181 18.77 8.56301V11.3374C18.77 11.779 18.99 12.5566 19.23 12.9502L20.37 14.7742C20.8 15.4654 20.88 16.3006 20.59 17.059C20.3 17.8174 19.67 18.3934 18.88 18.643C16.68 19.3534 14.35 19.7086 12.02 19.7086ZM12.02 3.52301C9.12999 3.52301 6.76999 5.77901 6.76999 8.56301V11.3374C6.76999 12.0382 6.46999 13.075 6.09999 13.6798L4.94999 15.5134C4.72999 15.8686 4.66999 16.243 4.79999 16.5598C4.91999 16.8862 5.21999 17.1358 5.62999 17.2702C9.80999 18.6142 14.24 18.6142 18.42 17.2702C18.78 17.155 19.06 16.8958 19.19 16.5502C19.32 16.2046 19.29 15.8302 19.09 15.5134L17.94 13.6798C17.56 13.0558 17.27 12.0286 17.27 11.3278V8.56301C17.27 5.77901 14.92 3.52301 12.02 3.52301Z" fill="#0C0C0C"/>
<path d="M13.88 3.78241C13.81 3.78241 13.74 3.77281 13.67 3.75361C13.38 3.67681 13.1 3.61921 12.83 3.58081C11.98 3.47521 11.16 3.53281 10.39 3.75361C10.11 3.84001 9.80999 3.75361 9.61999 3.55201C9.42999 3.35041 9.36999 3.06241 9.47999 2.80321C9.88999 1.79521 10.89 1.13281 12.03 1.13281C13.17 1.13281 14.17 1.78561 14.58 2.80321C14.68 3.06241 14.63 3.35041 14.44 3.55201C14.29 3.70561 14.08 3.78241 13.88 3.78241Z" fill="#0C0C0C"/>
<path d="M12.02 21.8979C11.03 21.8979 10.07 21.5139 9.36999 20.8419C8.66999 20.1699 8.26999 19.2483 8.26999 18.2979H9.76999C9.76999 18.8643 10.01 19.4211 10.43 19.8243C10.85 20.2275 11.43 20.4579 12.02 20.4579C13.26 20.4579 14.27 19.4883 14.27 18.2979H15.77C15.77 20.2851 14.09 21.8979 12.02 21.8979Z" fill="#0C0C0C"/>
<ellipse cx="5" cy="8.6398" rx="4" ry="3.84" fill="#B00020"/>
</svg>
