<svg width="24" height="24" viewBox="0 0 24 24" fill="none" xmlns="http://www.w3.org/2000/svg">
<path d="M16.98 13.1996C16.79 13.1996 16.59 13.1196 16.45 12.9796L11.05 7.56958C10.8 7.31958 10.76 6.93958 10.95 6.63958L12.64 3.96958C13.11 3.22958 13.82 2.76958 14.65 2.67958C15.58 2.58958 16.54 2.94958 17.29 3.69958L20.32 6.72958C21.04 7.44958 21.4 8.41958 21.29 9.37958C21.2 10.2196 20.75 10.9496 20.05 11.3896L17.38 13.0796C17.26 13.1596 17.12 13.1996 16.98 13.1996ZM12.53 6.93958L17.09 11.4996L19.26 10.1296C19.57 9.92958 19.77 9.60958 19.81 9.21958C19.87 8.71958 19.66 8.18958 19.27 7.79958L16.24 4.76958C15.81 4.33958 15.29 4.10958 14.82 4.17958C14.44 4.21958 14.13 4.42958 13.91 4.77958L12.53 6.93958Z" fill="#292D32"/>
<path d="M5.89001 21.3395C5.00001 21.3395 4.20001 21.0195 3.60001 20.4295C2.90001 19.7295 2.59001 18.7595 2.72001 17.6795L3.70001 9.34954C4.00001 6.82954 5.11001 5.90954 7.70001 6.05954L11.62 6.28954C12.03 6.31954 12.35 6.66954 12.32 7.07954C12.29 7.48954 11.94 7.80954 11.53 7.77954L7.61001 7.55954C5.83001 7.44954 5.39001 7.79954 5.19001 9.52954L4.21001 17.8495C4.14001 18.4595 4.30001 18.9995 4.66001 19.3595C5.03001 19.7195 5.57001 19.8895 6.18001 19.8095L14.5 18.8295C16.25 18.6195 16.64 18.1595 16.47 16.4395L16.23 12.4895C16.21 12.0795 16.52 11.7195 16.93 11.6995C17.34 11.6695 17.7 11.9895 17.72 12.3995L17.95 16.3195C18.19 18.8095 17.21 20.0095 14.66 20.3195L6.34001 21.2995C6.20001 21.3295 6.04001 21.3395 5.89001 21.3395Z" fill="#292D32"/>
<path d="M4.60999 20.1703C4.41999 20.1703 4.22999 20.1003 4.07999 19.9503C3.78999 19.6603 3.78999 19.1803 4.07999 18.8903L7.11999 15.8503C7.40999 15.5603 7.88999 15.5603 8.17999 15.8503C8.46999 16.1403 8.46999 16.6203 8.17999 16.9103L5.13999 19.9503C4.98999 20.1003 4.79999 20.1703 4.60999 20.1703Z" fill="#292D32"/>
</svg>
