<svg width="14" height="14" viewBox="0 0 14 14" fill="none" xmlns="http://www.w3.org/2000/svg">
<path d="M9.91675 12.6875H4.08342C1.51091 12.6875 0.729248 11.9058 0.729248 9.33333V4.66667C0.729248 2.09417 1.51091 1.3125 4.08342 1.3125H9.91675C12.4892 1.3125 13.2709 2.09417 13.2709 4.66667V9.33333C13.2709 11.9058 12.4892 12.6875 9.91675 12.6875ZM4.08342 2.1875C1.99508 2.1875 1.60425 2.58417 1.60425 4.66667V9.33333C1.60425 11.4158 1.99508 11.8125 4.08342 11.8125H9.91675C12.0051 11.8125 12.3959 11.4158 12.3959 9.33333V4.66667C12.3959 2.58417 12.0051 2.1875 9.91675 2.1875H4.08342Z" fill="#292D32"/>
<path d="M11.0834 5.10449H8.16675C7.92758 5.10449 7.72925 4.90616 7.72925 4.66699C7.72925 4.42783 7.92758 4.22949 8.16675 4.22949H11.0834C11.3226 4.22949 11.5209 4.42783 11.5209 4.66699C11.5209 4.90616 11.3226 5.10449 11.0834 5.10449Z" fill="#292D32"/>
<path d="M11.0833 7.4375H8.75C8.51083 7.4375 8.3125 7.23917 8.3125 7C8.3125 6.76083 8.51083 6.5625 8.75 6.5625H11.0833C11.3225 6.5625 11.5208 6.76083 11.5208 7C11.5208 7.23917 11.3225 7.4375 11.0833 7.4375Z" fill="#292D32"/>
<path d="M11.0834 9.77051H9.91675C9.67758 9.77051 9.47925 9.57217 9.47925 9.33301C9.47925 9.09384 9.67758 8.89551 9.91675 8.89551H11.0834C11.3226 8.89551 11.5209 9.09384 11.5209 9.33301C11.5209 9.57217 11.3226 9.77051 11.0834 9.77051Z" fill="#292D32"/>
<path d="M4.95818 7.02378C4.13568 7.02378 3.46484 6.35294 3.46484 5.53044C3.46484 4.70794 4.13568 4.03711 4.95818 4.03711C5.78068 4.03711 6.45151 4.70794 6.45151 5.53044C6.45151 6.35294 5.78068 7.02378 4.95818 7.02378ZM4.95818 4.91211C4.61984 4.91211 4.33984 5.19211 4.33984 5.53044C4.33984 5.86878 4.61984 6.14878 4.95818 6.14878C5.29651 6.14878 5.57651 5.86878 5.57651 5.53044C5.57651 5.19211 5.29651 4.91211 4.95818 4.91211Z" fill="#292D32"/>
<path d="M6.99995 9.96303C6.77828 9.96303 6.58578 9.79387 6.56245 9.56637C6.49828 8.93637 5.99078 8.42887 5.35495 8.37053C5.08661 8.3472 4.81828 8.3472 4.54995 8.37053C3.91411 8.42887 3.40661 8.93053 3.34245 9.56637C3.31911 9.80553 3.10328 9.98637 2.86411 9.9572C2.62495 9.93387 2.44995 9.71803 2.47328 9.47887C2.57828 8.42887 3.41245 7.5947 4.46828 7.50137C4.78911 7.4722 5.11578 7.4722 5.43661 7.50137C6.48661 7.60053 7.32661 8.4347 7.43161 9.47887C7.45494 9.71803 7.27994 9.93387 7.04078 9.9572C7.02911 9.96303 7.01161 9.96303 6.99995 9.96303Z" fill="#292D32"/>
</svg>
