<svg width="32" height="32" viewBox="0 0 32 32" fill="none" xmlns="http://www.w3.org/2000/svg">
<path d="M32 16.0405V20.3246C31.8733 21.3282 31.2474 21.5624 30.2912 21.5662C29.5377 21.5679 28.8051 21.5684 28.0934 21.5675C28.0021 21.5667 27.933 21.6059 27.8861 21.6853C27.1454 22.9277 26.144 23.6108 24.8819 23.7346C23.2858 23.8907 21.8765 23.1086 21.1635 21.6686C21.1481 21.6379 21.1245 21.612 21.0953 21.5939C21.0662 21.5758 21.0326 21.5662 20.9984 21.5662C19.6868 21.5688 18.3659 21.5684 17.0355 21.565C16.8154 21.5641 16.6669 21.5432 16.5901 21.5022C16.2893 21.341 16.3699 20.6446 16.745 20.6434C18.0574 20.6391 19.3557 20.6378 20.64 20.6395C20.6796 20.6399 20.7178 20.6246 20.7463 20.5971C20.7748 20.5696 20.7913 20.5319 20.7923 20.4923L20.8166 19.5118C20.8168 19.5045 20.8155 19.4972 20.8128 19.4904C20.8101 19.4836 20.8061 19.4773 20.801 19.4721C20.7959 19.4668 20.7897 19.4627 20.783 19.4598C20.7762 19.457 20.7689 19.4555 20.7616 19.4555H10.368C10.304 19.4555 10.272 19.4875 10.272 19.5515V20.5742C10.272 20.6254 10.2976 20.6506 10.3488 20.6498C11.7841 20.6199 13.2198 20.6182 14.656 20.6446C15.2832 20.6549 15.3139 21.5458 14.6547 21.5522C13.1281 21.5641 11.5989 21.5697 10.0672 21.5688C10.0228 21.5688 9.98784 21.5871 9.96224 21.6238C9.76768 21.9118 9.5872 22.2459 9.37984 22.4763C7.54688 24.5179 4.40704 24.0699 3.17824 21.6302C3.16896 21.6117 3.1547 21.5962 3.13706 21.5853C3.11942 21.5745 3.09911 21.5687 3.0784 21.5688C2.00448 21.565 0.22272 21.9733 0 20.404V14.1704C0.10496 13.1861 0.70528 12.9621 1.63712 12.9608C3.66293 12.9582 5.68789 12.9582 7.712 12.9608C8.27264 12.9608 8.33664 13.853 7.56864 13.8709C6.22976 13.9042 4.89899 13.8999 3.57632 13.8581C3.56138 13.8576 3.54648 13.8601 3.53252 13.8654C3.51857 13.8708 3.50583 13.8789 3.49508 13.8893C3.48433 13.8997 3.47578 13.9121 3.46995 13.9259C3.46411 13.9397 3.46111 13.9545 3.46112 13.9694C3.45472 14.612 3.6032 15.4773 2.97344 15.8882C2.53952 16.1698 1.66784 16.0648 1.09696 16.0635C1.07456 16.0633 1.05234 16.0676 1.03161 16.0761C1.01088 16.0846 0.992045 16.0972 0.976202 16.113C0.96036 16.1288 0.947827 16.1477 0.939332 16.1684C0.930837 16.1891 0.92655 16.2114 0.92672 16.2338L0.93312 18.4021C0.933457 18.4355 0.946822 18.4674 0.97031 18.4909C0.993798 18.5143 1.02551 18.5275 1.05856 18.5275H3.04C3.07535 18.5275 3.11003 18.5176 3.14012 18.4988C3.1702 18.48 3.19449 18.4532 3.21024 18.4213C4.61568 15.5554 8.37248 15.6744 9.9072 18.3918C9.94816 18.4635 10.01 18.4998 10.0928 18.5006L15.657 18.5365C15.8413 18.5373 15.9339 18.4456 15.9347 18.2613L15.9514 14.0475C15.9514 13.9366 15.8959 13.8815 15.785 13.8824C13.83 13.8978 11.8323 13.8926 9.792 13.867C9.36832 13.8606 9.3056 13.2603 9.57184 13.0619C9.66656 12.9911 9.81973 12.9561 10.0314 12.957C11.3719 12.9604 12.7117 12.9608 14.0506 12.9582C14.0641 12.9582 14.0772 12.9527 14.0868 12.9429C14.0964 12.933 14.1018 12.9197 14.1018 12.9058C14.077 11.7154 14.0727 10.5203 14.089 9.32048C14.1005 8.40656 14.7571 8.22864 15.5686 8.2248C16.4493 8.22139 17.3286 8.22011 18.2067 8.22096C20.4224 8.2248 21.3683 9.76208 22.6125 11.3314C22.6665 11.3986 22.7347 11.4531 22.8121 11.4909C22.8896 11.5288 22.9744 11.549 23.0605 11.5502C24.2125 11.563 25.4144 11.3429 25.4592 12.9493C25.4603 12.9861 25.4748 13.0213 25.5 13.0482C25.5253 13.0751 25.5595 13.0918 25.5962 13.0952C26.8471 13.2061 28.1148 13.3235 29.399 13.4472C30.9188 13.5931 31.7858 14.4575 32 16.0405ZM20.0717 9.81584C19.1053 9.02224 18.217 9.21424 17.0752 9.11696C17.0525 9.11501 17.0296 9.1178 17.008 9.12514C16.9864 9.13248 16.9665 9.14422 16.9497 9.15961C16.9329 9.17501 16.9194 9.19372 16.9102 9.21458C16.9009 9.23544 16.8961 9.25799 16.896 9.2808V12.8315C16.896 12.8655 16.9095 12.898 16.9335 12.922C16.9575 12.946 16.9901 12.9595 17.024 12.9595H21.3325C21.3848 12.9596 21.4357 12.9427 21.4775 12.9113C21.5193 12.8799 21.5497 12.8357 21.5642 12.7854L21.8048 11.9637C21.8159 11.9261 21.8103 11.8916 21.7882 11.86C21.1166 10.8846 20.5444 10.2033 20.0717 9.81584ZM15.9526 9.3192C15.9526 9.27541 15.9352 9.23341 15.9043 9.20244C15.8733 9.17148 15.8313 9.15408 15.7875 9.15408H15.2064C15.1626 9.15408 15.1206 9.17148 15.0896 9.20244C15.0587 9.23341 15.0413 9.27541 15.0413 9.3192V12.7931C15.0413 12.8369 15.0587 12.8789 15.0896 12.9099C15.1206 12.9408 15.1626 12.9582 15.2064 12.9582H15.7875C15.8313 12.9582 15.8733 12.9408 15.9043 12.9099C15.9352 12.8789 15.9526 12.8369 15.9526 12.7931V9.3192ZM24.4992 12.7964C24.4986 12.7108 24.4641 12.629 24.4031 12.569C24.3422 12.5089 24.26 12.4755 24.1744 12.4761L22.8202 12.4855C22.7347 12.4861 22.6529 12.5207 22.5928 12.5816C22.5327 12.6425 22.4993 12.7248 22.4999 12.8103L22.5049 13.5323C22.5055 13.6178 22.5401 13.6996 22.601 13.7597C22.6619 13.8197 22.7442 13.8531 22.8298 13.8525L24.184 13.8431C24.2695 13.8425 24.3513 13.8079 24.4114 13.747C24.4714 13.6861 24.5049 13.6038 24.5043 13.5183L24.4992 12.7964ZM31.0093 15.6578C30.496 14.4277 29.6934 14.429 28.5222 14.315C27.5034 14.2152 26.4862 14.1162 25.4707 14.0181C25.4287 14.0139 25.3863 14.0228 25.3492 14.0437C25.3122 14.0645 25.2822 14.0962 25.2634 14.1346C24.8538 14.987 23.648 14.8078 22.8646 14.7733C22.2848 14.749 21.9046 14.539 21.6794 14.0258C21.6611 13.9832 21.6307 13.9469 21.5921 13.9215C21.5534 13.896 21.5081 13.8824 21.4618 13.8824L16.9971 13.8811C16.971 13.8811 16.9459 13.8915 16.9274 13.91C16.9089 13.9285 16.8986 13.9535 16.8986 13.9797L16.8922 18.4238C16.8922 18.45 16.9025 18.475 16.921 18.4935C16.9395 18.512 16.9646 18.5224 16.9907 18.5224L20.9536 18.5262C21.0662 18.5271 21.1469 18.4763 21.1955 18.3739C22.5011 15.645 26.1658 15.6898 27.7376 18.1794C27.9334 18.4878 28.128 18.6645 28.4864 18.4622C28.5039 18.4521 28.5185 18.4377 28.5286 18.4204C28.5387 18.4031 28.544 18.3835 28.544 18.3637C28.544 17.7838 28.4467 16.893 28.6912 16.4411C29.097 15.6962 30.1798 15.8626 30.8736 15.8626C30.8978 15.8626 30.9216 15.8566 30.9429 15.8451C30.9642 15.8337 30.9824 15.8171 30.9958 15.7968C31.0092 15.7766 31.0174 15.7533 31.0198 15.7291C31.0222 15.7048 31.0185 15.6803 31.0093 15.6578ZM2.5153 14.0409C2.5152 14.0205 2.51108 14.0004 2.5032 13.9817C2.49532 13.9629 2.48382 13.9459 2.46936 13.9316C2.4549 13.9173 2.43777 13.906 2.41894 13.8983C2.4001 13.8906 2.37994 13.8867 2.3596 13.8868L1.11291 13.8934C1.09257 13.8935 1.07245 13.8976 1.0537 13.9055C1.03495 13.9133 1.01793 13.9248 1.00363 13.9393C0.989321 13.9537 0.978001 13.9709 0.970316 13.9897C0.96263 14.0085 0.958729 14.0287 0.958835 14.049L0.963738 14.986C0.963845 15.0063 0.967957 15.0264 0.97584 15.0452C0.983723 15.0639 0.995221 15.081 1.00968 15.0953C1.02414 15.1096 1.04127 15.1209 1.0601 15.1286C1.07894 15.1363 1.0991 15.1402 1.11944 15.14L2.36613 15.1335C2.38647 15.1334 2.40659 15.1293 2.42534 15.1214C2.44409 15.1135 2.46111 15.102 2.47541 15.0876C2.48972 15.0731 2.50104 15.056 2.50872 15.0372C2.51641 15.0183 2.52031 14.9982 2.52021 14.9778L2.5153 14.0409ZM31.0745 16.9559C31.0746 16.9396 31.0714 16.9234 31.0652 16.9084C31.059 16.8933 31.0499 16.8796 31.0385 16.868C31.027 16.8564 31.0133 16.8472 30.9983 16.8409C30.9832 16.8346 30.9671 16.8314 30.9508 16.8313L29.6042 16.8266C29.5713 16.8265 29.5397 16.8395 29.5163 16.8627C29.4929 16.8859 29.4798 16.9174 29.4796 16.9503L29.4746 18.389C29.4746 18.4054 29.4777 18.4215 29.4839 18.4366C29.4901 18.4517 29.4992 18.4654 29.5107 18.477C29.5222 18.4885 29.5358 18.4977 29.5509 18.504C29.5659 18.5103 29.582 18.5136 29.5983 18.5136L30.9449 18.5183C30.9778 18.5185 31.0094 18.5055 31.0328 18.4823C31.0562 18.4591 31.0694 18.4275 31.0695 18.3946L31.0745 16.9559ZM9.34016 20.043C9.34016 19.6776 9.26818 19.3158 9.12834 18.9781C8.98849 18.6405 8.78352 18.3338 8.52512 18.0754C8.26672 17.817 7.95996 17.612 7.62234 17.4721C7.28473 17.3323 6.92287 17.2603 6.55744 17.2603C5.81942 17.2603 5.11162 17.5535 4.58976 18.0754C4.0679 18.5972 3.77472 19.305 3.77472 20.043C3.77472 20.4085 3.8467 20.7703 3.98654 21.1079C4.12639 21.4456 4.33136 21.7523 4.58976 22.0107C4.84816 22.2691 5.15492 22.4741 5.49254 22.6139C5.83015 22.7538 6.19201 22.8258 6.55744 22.8258C6.92287 22.8258 7.28473 22.7538 7.62234 22.6139C7.95996 22.4741 8.26672 22.2691 8.52512 22.0107C8.78352 21.7523 8.98849 21.4456 9.12834 21.1079C9.26818 20.7703 9.34016 20.4085 9.34016 20.043ZM27.2934 20.0418C27.2934 19.3034 27.0001 18.5953 26.478 18.0732C25.9559 17.5511 25.2478 17.2578 24.5094 17.2578C23.7711 17.2578 23.063 17.5511 22.5409 18.0732C22.0188 18.5953 21.7254 19.3034 21.7254 20.0418C21.7254 20.7801 22.0188 21.4882 22.5409 22.0103C23.063 22.5324 23.7711 22.8258 24.5094 22.8258C25.2478 22.8258 25.9559 22.5324 26.478 22.0103C27.0001 21.4882 27.2934 20.7801 27.2934 20.0418ZM2.84728 19.5039C2.84739 19.4937 2.84345 19.4839 2.83632 19.4766C2.8292 19.4693 2.81948 19.4652 2.80929 19.4651L0.991795 19.446C0.986752 19.446 0.981748 19.4469 0.977069 19.4488C0.972389 19.4507 0.968126 19.4535 0.964522 19.457C0.960918 19.4605 0.958044 19.4647 0.956065 19.4694C0.954085 19.474 0.953039 19.479 0.952986 19.484L0.941517 20.5797C0.941411 20.5898 0.945354 20.5996 0.952478 20.6069C0.959603 20.6142 0.969325 20.6183 0.979507 20.6184L2.797 20.6375C2.80205 20.6375 2.80705 20.6366 2.81173 20.6347C2.81641 20.6328 2.82067 20.6301 2.82428 20.6265C2.82788 20.623 2.83076 20.6188 2.83274 20.6142C2.83471 20.6095 2.83576 20.6045 2.83581 20.5995L2.84728 19.5039ZM30.9722 19.4389L28.2944 19.4722C28.2833 19.4723 28.2724 19.4747 28.2622 19.4791C28.252 19.4835 28.2428 19.4898 28.235 19.4978C28.2273 19.5058 28.2212 19.5152 28.2171 19.5255C28.2131 19.5358 28.211 19.5468 28.2112 19.5579L28.2214 20.3912C28.2219 20.4253 28.229 20.459 28.2423 20.4903C28.2556 20.5217 28.2748 20.55 28.2988 20.5738C28.3228 20.5976 28.3511 20.6163 28.3822 20.6289C28.4133 20.6415 28.4466 20.6477 28.48 20.6472L30.8173 20.619C30.8507 20.6185 30.8838 20.6113 30.9145 20.5978C30.9452 20.5843 30.973 20.5647 30.9963 20.5402C31.0196 20.5158 31.0379 20.4868 31.0503 20.4551C31.0626 20.4234 31.0687 20.3895 31.0682 20.3554L31.0579 19.5221C31.0578 19.511 31.0554 19.5 31.051 19.4898C31.0466 19.4797 31.0402 19.4704 31.0323 19.4627C31.0243 19.455 31.0149 19.4489 31.0046 19.4448C30.9943 19.4407 30.9833 19.4387 30.9722 19.4389Z" fill="#0C0C0C"/>
<path d="M8.50816 20.0379C8.50816 20.5556 8.3025 21.0521 7.93643 21.4182C7.57036 21.7843 7.07386 21.9899 6.55616 21.9899C6.03845 21.9899 5.54196 21.7843 5.17588 21.4182C4.80981 21.0521 4.60416 20.5556 4.60416 20.0379C4.60416 19.5202 4.80981 19.0237 5.17588 18.6577C5.54196 18.2916 6.03845 18.0859 6.55616 18.0859C7.07386 18.0859 7.57036 18.2916 7.93643 18.6577C8.3025 19.0237 8.50816 19.5202 8.50816 20.0379ZM7.57504 20.0482C7.57504 19.7776 7.46756 19.5181 7.27624 19.3268C7.08492 19.1355 6.82544 19.028 6.55488 19.028C6.28431 19.028 6.02483 19.1355 5.83351 19.3268C5.6422 19.5181 5.53472 19.7776 5.53472 20.0482C5.53472 20.3187 5.6422 20.5782 5.83351 20.7695C6.02483 20.9609 6.28431 21.0683 6.55488 21.0683C6.82544 21.0683 7.08492 20.9609 7.27624 20.7695C7.46756 20.5782 7.57504 20.3187 7.57504 20.0482Z" fill="#0C0C0C"/>
<path d="M26.464 20.0398C26.464 20.5585 26.2579 21.056 25.8911 21.4228C25.5243 21.7896 25.0269 21.9957 24.5081 21.9957C23.9894 21.9957 23.4919 21.7896 23.1252 21.4228C22.7584 21.056 22.5523 20.5585 22.5523 20.0398C22.5523 19.5211 22.7584 19.0236 23.1252 18.6568C23.4919 18.29 23.9894 18.084 24.5081 18.084C25.0269 18.084 25.5243 18.29 25.8911 18.6568C26.2579 19.0236 26.464 19.5211 26.464 20.0398ZM25.5321 20.0501C25.5321 19.7798 25.4248 19.5207 25.2337 19.3296C25.0426 19.1385 24.7835 19.0312 24.5133 19.0312C24.243 19.0312 23.9839 19.1385 23.7928 19.3296C23.6017 19.5207 23.4944 19.7798 23.4944 20.0501C23.4944 20.1839 23.5207 20.3164 23.5719 20.44C23.6231 20.5636 23.6982 20.6759 23.7928 20.7705C23.8874 20.8651 23.9997 20.9402 24.1234 20.9914C24.247 21.0426 24.3795 21.0689 24.5133 21.0689C24.6471 21.0689 24.7796 21.0426 24.9032 20.9914C25.0268 20.9402 25.1391 20.8651 25.2337 20.7705C25.3283 20.6759 25.4034 20.5636 25.4546 20.44C25.5058 20.3164 25.5321 20.1839 25.5321 20.0501Z" fill="#0C0C0C"/>
</svg>
