<svg width="42" height="39" viewBox="0 0 42 39" fill="none" xmlns="http://www.w3.org/2000/svg">
<path d="M10.3141 33.3177L10.3129 33.3184C9.17394 33.9551 8.3575 33.8832 7.8841 33.6034C7.40857 33.3223 6.94991 32.6373 6.94991 31.3352V7.47924C6.94991 4.44053 9.44219 1.94824 12.4809 1.94824H28.8189C31.8576 1.94824 34.3499 4.44053 34.3499 7.47924V31.3352C34.3499 32.6362 33.8922 33.3146 33.4161 33.5937C32.9379 33.8741 32.1128 33.9446 30.9609 33.3156C30.9598 33.315 30.9588 33.3144 30.9577 33.3139L22.7142 28.7201C22.7136 28.7198 22.7131 28.7195 22.7126 28.7192C22.0941 28.3727 21.3421 28.23 20.6473 28.23C19.9507 28.23 19.1976 28.3734 18.5736 28.7151L18.5736 28.7151L18.5671 28.7187L10.3141 33.3177Z" fill="#F99137" stroke="#FCFCFC" stroke-width="2"/>
</svg>
