<svg width="32" height="32" viewBox="0 0 32 32" fill="none" xmlns="http://www.w3.org/2000/svg">
<path fill-rule="evenodd" clip-rule="evenodd" d="M9.59048 7.95992C9.55776 7.99264 9.45992 7.99992 9.0552 7.99992C8.74288 7.99992 8.56 8.00976 8.56 8.02656C8.56 8.04128 8.5 8.05328 8.42664 8.05328C8.35336 8.05328 8.29336 8.06528 8.29336 8.07992C8.29336 8.09456 8.25696 8.10656 8.21248 8.10656C8.16528 8.10656 8.12528 8.1232 8.11632 8.14656C8.10784 8.16856 8.07824 8.18656 8.05048 8.18656C8.02272 8.18656 8 8.19856 8 8.21328C8 8.22792 7.97 8.23992 7.93336 8.23992C7.89664 8.23992 7.86664 8.25192 7.86664 8.26656C7.86664 8.28128 7.83664 8.29328 7.8 8.29328C7.76336 8.29328 7.73336 8.30608 7.73336 8.32184C7.73336 8.36504 7.6628 8.42656 7.61336 8.42656C7.56384 8.42656 7.49336 8.48816 7.49336 8.53136C7.49336 8.54704 7.47536 8.55992 7.45336 8.55992C7.43136 8.55992 7.41336 8.57048 7.41336 8.58336C7.41336 8.59624 7.37736 8.62168 7.33336 8.63992C7.28936 8.65816 7.25336 8.6896 7.25336 8.70984C7.25336 8.73008 7.23536 8.74656 7.21336 8.74656C7.19136 8.74656 7.17336 8.76456 7.17336 8.78656C7.17336 8.80856 7.16136 8.82656 7.14664 8.82656C7.132 8.82656 7.12 8.85056 7.12 8.87992C7.12 8.90928 7.10744 8.93328 7.09216 8.93328C7.04352 8.93328 6.93336 9.06192 6.93336 9.11872C6.93336 9.14872 6.92048 9.17328 6.9048 9.17328C6.85768 9.17328 6.8 9.24568 6.8 9.30472C6.8 9.33504 6.788 9.35992 6.77336 9.35992C6.75864 9.35992 6.74664 9.38992 6.74664 9.42656C6.74664 9.46352 6.7312 9.49328 6.712 9.49328C6.69296 9.49328 6.66216 9.53528 6.6436 9.58656C6.62504 9.63792 6.59864 9.67992 6.58496 9.67992C6.5712 9.67992 6.56 9.70992 6.56 9.74656C6.56 9.78808 6.54488 9.81328 6.52 9.81328C6.49776 9.81328 6.48 9.83696 6.48 9.86656C6.48 9.89592 6.468 9.91992 6.45336 9.91992C6.43864 9.91992 6.42664 9.94704 6.42664 9.98024C6.42664 10.0135 6.39672 10.0631 6.36 10.0906C6.32336 10.1182 6.29336 10.163 6.29336 10.1903C6.29336 10.2176 6.28136 10.2399 6.26664 10.2399C6.252 10.2399 6.24 10.2699 6.24 10.3066C6.24 10.3433 6.228 10.3733 6.21336 10.3733C6.19864 10.3733 6.18664 10.3973 6.18664 10.4266C6.18664 10.4562 6.16888 10.4799 6.14664 10.4799C6.1228 10.4799 6.10664 10.5045 6.10664 10.5407C6.10664 10.5742 6.08264 10.6188 6.05336 10.6399C6.024 10.661 6 10.7057 6 10.7391C6 10.7754 5.98384 10.7999 5.96 10.7999C5.93512 10.7999 5.92 10.8251 5.92 10.8666C5.92 10.9033 5.908 10.9333 5.89336 10.9333C5.87864 10.9333 5.86664 10.9573 5.86664 10.9866C5.86664 11.0159 5.85464 11.0399 5.84 11.0399C5.82536 11.0399 5.81336 11.0699 5.81336 11.1066C5.81336 11.1481 5.79824 11.1733 5.77336 11.1733C5.74944 11.1733 5.73336 11.1978 5.73336 11.234C5.73336 11.2674 5.70936 11.3121 5.68 11.3333C5.65064 11.3544 5.62664 11.399 5.62664 11.4325C5.62664 11.4687 5.61056 11.4933 5.58664 11.4933C5.56176 11.4933 5.54664 11.5184 5.54664 11.5599C5.54664 11.5966 5.53464 11.6266 5.52 11.6266C5.50536 11.6266 5.49336 11.6506 5.49336 11.6799C5.49336 11.7095 5.47552 11.7333 5.45336 11.7333C5.43136 11.7333 5.41336 11.7513 5.41336 11.7733C5.41336 11.7953 5.40136 11.8133 5.38664 11.8133C5.372 11.8133 5.36 11.8373 5.36 11.8666C5.36 11.8959 5.348 11.9199 5.33336 11.9199C5.31864 11.9199 5.30664 11.9499 5.30664 11.9866C5.30664 12.0233 5.29384 12.0533 5.27808 12.0533C5.23584 12.0533 5.17336 12.1234 5.17336 12.1707C5.17336 12.2155 4.73664 12.6666 4.6932 12.6666C4.67864 12.6666 4.66664 12.6846 4.66664 12.7066C4.66664 12.7288 4.64296 12.7466 4.61336 12.7466C4.584 12.7466 4.56 12.7586 4.56 12.7733C4.56 12.7879 4.53 12.7999 4.49336 12.7999C4.45664 12.7999 4.42664 12.8119 4.42664 12.8266C4.42664 12.8413 4.39664 12.8533 4.36 12.8533C4.31848 12.8533 4.29336 12.8684 4.29336 12.8933C4.29336 12.9212 4.2652 12.9333 4.2 12.9333C4.14864 12.9333 4.10664 12.9453 4.10664 12.9599C4.10664 12.9746 4.06464 12.9866 4.01336 12.9866C3.962 12.9866 3.92 12.9986 3.92 13.0133C3.92 13.0279 3.878 13.0399 3.82664 13.0399C3.76152 13.0399 3.73336 13.052 3.73336 13.0799C3.73336 13.1095 3.70224 13.1199 3.61336 13.1199C3.54736 13.1199 3.49336 13.1319 3.49336 13.1466C3.49336 13.1613 3.43336 13.1733 3.36 13.1733C3.28664 13.1733 3.22664 13.1853 3.22664 13.1999C3.22664 13.2146 3.17264 13.2266 3.10664 13.2266C3.01776 13.2266 2.98664 13.237 2.98664 13.2666C2.98664 13.2962 2.95552 13.3066 2.86664 13.3066C2.80064 13.3066 2.74664 13.3186 2.74664 13.3333C2.74664 13.3479 2.68664 13.3599 2.61336 13.3599C2.54 13.3599 2.48 13.3719 2.48 13.3866C2.48 13.4013 2.438 13.4133 2.38664 13.4133C2.32152 13.4133 2.29336 13.4253 2.29336 13.4533C2.29336 13.4829 2.26224 13.4933 2.17336 13.4933C2.10736 13.4933 2.05336 13.5053 2.05336 13.5199C2.05336 13.5346 2.01136 13.5466 1.96 13.5466C1.8948 13.5466 1.86664 13.5586 1.86664 13.5866C1.86664 13.6146 1.83848 13.6266 1.77336 13.6266C1.722 13.6266 1.68 13.6386 1.68 13.6533C1.68 13.6679 1.638 13.6799 1.58664 13.6799C1.53536 13.6799 1.49336 13.6919 1.49336 13.7066C1.49336 13.7213 1.46336 13.7333 1.42664 13.7333C1.39 13.7333 1.36 13.7461 1.36 13.7618C1.36 13.805 1.28944 13.8666 1.24 13.8666C1.21592 13.8666 1.17944 13.8816 1.15904 13.8999C1.07784 13.9727 1.04152 13.9999 1.02552 13.9999C1.01624 13.9999 0.94424 14.0659 0.86552 14.1466C0.7868 14.2273 0.70984 14.2933 0.69448 14.2933C0.6792 14.2933 0.66664 14.3058 0.66664 14.3211C0.66664 14.3544 0.54536 14.4799 0.5132 14.4799C0.50088 14.4799 0.47552 14.5219 0.45696 14.5733C0.4384 14.6246 0.412 14.6666 0.39824 14.6666C0.38456 14.6666 0.37336 14.6966 0.37336 14.7333C0.37336 14.7699 0.36048 14.7999 0.3448 14.7999C0.29768 14.7999 0.24 14.8723 0.24 14.9314C0.24 14.9618 0.228 14.9866 0.21336 14.9866C0.19864 14.9866 0.18664 15.0286 0.18664 15.0799C0.18664 15.1417 0.17416 15.1733 0.14968 15.1733C0.11384 15.1733 0.09264 15.2395 0.06232 15.4466C0.05432 15.5016 0.03696 15.5466 0.02384 15.5466C0.01008 15.5466 0 16.3271 0 17.3999C0 18.6177 0.00912 19.2533 0.02664 19.2533C0.04136 19.2533 0.05336 19.3133 0.05336 19.3866C0.05336 19.4599 0.06536 19.5199 0.08 19.5199C0.09464 19.5199 0.10664 19.5563 0.10664 19.6007C0.10664 19.648 0.12328 19.688 0.14664 19.697C0.16864 19.7054 0.18664 19.735 0.18664 19.7628C0.18664 19.7906 0.19864 19.8133 0.21336 19.8133C0.228 19.8133 0.24 19.8433 0.24 19.8799C0.24 19.9166 0.252 19.9466 0.26664 19.9466C0.28136 19.9466 0.29336 19.9766 0.29336 20.0133C0.29336 20.0499 0.30616 20.0799 0.32192 20.0799C0.36512 20.0799 0.42664 20.1505 0.42664 20.1999C0.42664 20.2494 0.48824 20.3199 0.53144 20.3199C0.54712 20.3199 0.56 20.3439 0.56 20.3733C0.56 20.4026 0.572 20.4266 0.58664 20.4266C0.60136 20.4266 0.61336 20.4395 0.61336 20.4554C0.61336 20.4847 0.81208 20.6933 0.84008 20.6933C0.85736 20.6933 0.90448 20.7306 1.00008 20.8199C1.03536 20.8529 1.07552 20.8799 1.08928 20.8799C1.10304 20.8799 1.1212 20.8979 1.12968 20.9199C1.13808 20.9419 1.16336 20.9599 1.18584 20.9599C1.20832 20.9599 1.22664 20.9719 1.22664 20.9866C1.22664 21.0013 1.25664 21.0133 1.29336 21.0133C1.33 21.0133 1.36 21.0253 1.36 21.0399C1.36 21.0546 1.39 21.0666 1.42664 21.0666C1.46816 21.0666 1.49336 21.0817 1.49336 21.1066C1.49336 21.1314 1.51848 21.1466 1.56 21.1466C1.59664 21.1466 1.62664 21.1572 1.62664 21.1702C1.62664 21.1938 1.71064 21.2166 1.9 21.2442C1.9608 21.2531 2 21.2734 2 21.2961C2 21.3234 2.03896 21.3333 2.14664 21.3333C2.22736 21.3333 2.29336 21.3453 2.29336 21.3599C2.29336 21.3773 2.70664 21.3866 3.48 21.3866C4.25336 21.3866 4.66664 21.3958 4.66664 21.4133C4.66664 21.4279 4.68464 21.4399 4.70664 21.4399C4.73632 21.4399 4.74664 21.471 4.74664 21.5599C4.74664 21.6259 4.75864 21.6799 4.77336 21.6799C4.788 21.6799 4.8 21.7219 4.8 21.7733C4.8 21.8246 4.812 21.8666 4.82664 21.8666C4.84136 21.8666 4.85336 21.8966 4.85336 21.9333C4.85336 21.9747 4.86848 21.9999 4.89336 21.9999C4.91824 21.9999 4.93336 22.0251 4.93336 22.0666C4.93336 22.1033 4.94536 22.1333 4.96 22.1333C4.97464 22.1333 4.98664 22.1633 4.98664 22.1999C4.98664 22.2366 4.99864 22.2666 5.01336 22.2666C5.028 22.2666 5.04 22.2906 5.04 22.3199C5.04 22.3495 5.05776 22.3733 5.08 22.3733C5.10488 22.3733 5.12 22.3984 5.12 22.4399C5.12 22.4766 5.132 22.5066 5.14664 22.5066C5.16136 22.5066 5.17336 22.5246 5.17336 22.5466C5.17336 22.5686 5.18536 22.5866 5.2 22.5866C5.21464 22.5866 5.22664 22.6106 5.22664 22.6399C5.22664 22.6695 5.24448 22.6933 5.26664 22.6933C5.28864 22.6933 5.30664 22.7058 5.30664 22.7211C5.30664 22.7574 5.42928 22.8799 5.46544 22.8799C5.4808 22.8799 5.49336 22.8935 5.49336 22.9102C5.49336 22.9269 5.52336 22.9682 5.56 23.0022C5.59664 23.0362 5.62664 23.0758 5.62664 23.0902C5.62664 23.1046 5.65064 23.1239 5.68 23.1333C5.70936 23.1426 5.73336 23.1614 5.73336 23.175C5.73336 23.1887 5.74616 23.1999 5.76192 23.1999C5.79296 23.1999 5.86664 23.2656 5.86664 23.2933C5.86664 23.3246 5.9324 23.3751 6.02 23.411C6.06768 23.4305 6.10664 23.463 6.10664 23.4831C6.10664 23.5037 6.1336 23.5199 6.16744 23.5199C6.20088 23.5199 6.24552 23.5439 6.26664 23.5733C6.28784 23.6026 6.33248 23.6266 6.36592 23.6266C6.40216 23.6266 6.42664 23.6427 6.42664 23.6666C6.42664 23.6914 6.45184 23.7066 6.49336 23.7066C6.53 23.7066 6.56 23.7186 6.56 23.7333C6.56 23.7479 6.584 23.7599 6.61336 23.7599C6.64264 23.7599 6.66664 23.7719 6.66664 23.7866C6.66664 23.8013 6.70864 23.8133 6.76 23.8133C6.8252 23.8133 6.85336 23.8253 6.85336 23.8533C6.85336 23.8812 6.88152 23.8933 6.94664 23.8933C6.998 23.8933 7.04 23.9053 7.04 23.9199C7.04 23.9346 7.1 23.9466 7.17336 23.9466C7.24664 23.9466 7.30664 23.9586 7.30664 23.9733C7.30664 23.9895 7.42664 23.9999 7.61336 23.9999C7.86816 23.9999 7.92 24.0067 7.92 24.0399C7.92 24.0666 7.94664 24.0799 8 24.0799C8.05336 24.0799 8.08 24.0666 8.08 24.0399C8.08 24.0067 8.13184 23.9999 8.38664 23.9999C8.57336 23.9999 8.69336 23.9895 8.69336 23.9733C8.69336 23.9586 8.75336 23.9466 8.82664 23.9466C8.9 23.9466 8.96 23.9346 8.96 23.9199C8.96 23.9053 9.002 23.8933 9.05336 23.8933C9.11848 23.8933 9.14664 23.8812 9.14664 23.8533C9.14664 23.8266 9.17336 23.8133 9.22664 23.8133C9.27064 23.8133 9.30664 23.8013 9.30664 23.7866C9.30664 23.7719 9.33664 23.7599 9.37336 23.7599C9.41 23.7599 9.44 23.7479 9.44 23.7333C9.44 23.7186 9.47 23.7066 9.50664 23.7066C9.54816 23.7066 9.57336 23.6914 9.57336 23.6666C9.57336 23.6417 9.59848 23.6266 9.64 23.6266C9.67664 23.6266 9.70664 23.6154 9.70664 23.6017C9.70664 23.5879 9.74864 23.5615 9.8 23.543C9.85136 23.5244 9.89336 23.495 9.89336 23.4778C9.89336 23.4606 9.93232 23.4305 9.98 23.411C10.0676 23.3751 10.1334 23.3246 10.1334 23.2933C10.1334 23.2714 10.2042 23.1999 10.2259 23.1999C10.2478 23.1999 10.3109 23.1473 10.3818 23.0697C10.4138 23.0347 10.455 22.9906 10.4734 22.9716C10.4917 22.9526 10.5066 22.9242 10.5066 22.9085C10.5066 22.8928 10.5192 22.8799 10.5346 22.8799C10.5692 22.8799 10.6934 22.758 10.6934 22.724C10.6934 22.7102 10.7114 22.6921 10.7334 22.6836C10.7554 22.6752 10.7734 22.6499 10.7734 22.6274C10.7734 22.605 10.7854 22.5866 10.8 22.5866C10.8146 22.5866 10.8266 22.5686 10.8266 22.5466C10.8266 22.5246 10.8386 22.5066 10.8534 22.5066C10.868 22.5066 10.88 22.4766 10.88 22.4399C10.88 22.3984 10.8951 22.3733 10.92 22.3733C10.9422 22.3733 10.96 22.3495 10.96 22.3199C10.96 22.2906 10.972 22.2666 10.9866 22.2666C11.0014 22.2666 11.0134 22.2366 11.0134 22.1999C11.0134 22.1633 11.0254 22.1333 11.04 22.1333C11.0546 22.1333 11.0666 22.1033 11.0666 22.0666C11.0666 22.0275 11.082 21.9999 11.1037 21.9999C11.124 21.9999 11.1484 21.961 11.1579 21.9133C11.1996 21.705 11.2074 21.6799 11.2297 21.6799C11.2427 21.6799 11.2534 21.6259 11.2534 21.5599C11.2534 21.471 11.2637 21.4399 11.2934 21.4399C11.3154 21.4399 11.3334 21.4279 11.3334 21.4133C11.3334 21.3956 12.9066 21.3866 16 21.3866C19.0934 21.3866 20.6666 21.3956 20.6666 21.4133C20.6666 21.4279 20.6846 21.4399 20.7066 21.4399C20.7363 21.4399 20.7466 21.471 20.7466 21.5599C20.7466 21.6259 20.7586 21.6799 20.7734 21.6799C20.788 21.6799 20.8 21.7219 20.8 21.7733C20.8 21.8246 20.812 21.8666 20.8266 21.8666C20.8414 21.8666 20.8534 21.8966 20.8534 21.9333C20.8534 21.9747 20.8685 21.9999 20.8934 21.9999C20.9182 21.9999 20.9334 22.0251 20.9334 22.0666C20.9334 22.1033 20.9454 22.1333 20.96 22.1333C20.9746 22.1333 20.9866 22.1633 20.9866 22.1999C20.9866 22.2366 20.9986 22.2666 21.0134 22.2666C21.028 22.2666 21.04 22.2906 21.04 22.3199C21.04 22.3495 21.0578 22.3733 21.08 22.3733C21.1049 22.3733 21.12 22.3984 21.12 22.4399C21.12 22.4766 21.132 22.5066 21.1466 22.5066C21.1614 22.5066 21.1734 22.5246 21.1734 22.5466C21.1734 22.5686 21.1854 22.5866 21.2 22.5866C21.2146 22.5866 21.2266 22.6106 21.2266 22.6399C21.2266 22.6695 21.2445 22.6933 21.2666 22.6933C21.2886 22.6933 21.3066 22.7058 21.3066 22.7211C21.3066 22.7574 21.4293 22.8799 21.4654 22.8799C21.4808 22.8799 21.4934 22.8918 21.4934 22.9064C21.4934 22.9567 21.726 23.1999 21.7741 23.1999C21.7958 23.1999 21.8666 23.2714 21.8666 23.2933C21.8666 23.3246 21.9324 23.3751 22.02 23.411C22.0677 23.4305 22.1066 23.463 22.1066 23.4831C22.1066 23.5037 22.1336 23.5199 22.1674 23.5199C22.2009 23.5199 22.2455 23.5439 22.2666 23.5733C22.2878 23.6026 22.3325 23.6266 22.3659 23.6266C22.4022 23.6266 22.4266 23.6427 22.4266 23.6666C22.4266 23.6914 22.4518 23.7066 22.4934 23.7066C22.53 23.7066 22.56 23.7186 22.56 23.7333C22.56 23.7479 22.584 23.7599 22.6134 23.7599C22.6426 23.7599 22.6666 23.7719 22.6666 23.7866C22.6666 23.8013 22.7086 23.8133 22.76 23.8133C22.8252 23.8133 22.8534 23.8253 22.8534 23.8533C22.8534 23.8812 22.8815 23.8933 22.9466 23.8933C22.998 23.8933 23.04 23.9053 23.04 23.9199C23.04 23.9346 23.1 23.9466 23.1734 23.9466C23.2466 23.9466 23.3066 23.9586 23.3066 23.9733C23.3066 23.9895 23.4266 23.9999 23.6134 23.9999C23.8682 23.9999 23.92 24.0067 23.92 24.0399C23.92 24.0666 23.9466 24.0799 24 24.0799C24.0534 24.0799 24.08 24.0666 24.08 24.0399C24.08 24.0067 24.1318 23.9999 24.3866 23.9999C24.5734 23.9999 24.6934 23.9895 24.6934 23.9733C24.6934 23.9586 24.7534 23.9466 24.8266 23.9466C24.9 23.9466 24.96 23.9346 24.96 23.9199C24.96 23.9053 25.002 23.8933 25.0534 23.8933C25.1185 23.8933 25.1466 23.8812 25.1466 23.8533C25.1466 23.8266 25.1734 23.8133 25.2266 23.8133C25.2706 23.8133 25.3066 23.8013 25.3066 23.7866C25.3066 23.7719 25.3366 23.7599 25.3734 23.7599C25.41 23.7599 25.44 23.7479 25.44 23.7333C25.44 23.7186 25.47 23.7066 25.5066 23.7066C25.5482 23.7066 25.5734 23.6914 25.5734 23.6666C25.5734 23.6417 25.5985 23.6266 25.64 23.6266C25.6766 23.6266 25.7066 23.6154 25.7066 23.6017C25.7066 23.5879 25.7486 23.5615 25.8 23.543C25.8514 23.5244 25.8934 23.495 25.8934 23.4778C25.8934 23.4606 25.9323 23.4305 25.98 23.411C26.0676 23.3751 26.1334 23.3246 26.1334 23.2933C26.1334 23.2656 26.207 23.1999 26.2381 23.1999C26.2538 23.1999 26.2666 23.1887 26.2666 23.175C26.2666 23.1614 26.2906 23.1426 26.32 23.1333C26.3494 23.1239 26.3734 23.1046 26.3734 23.0902C26.3734 23.0758 26.4034 23.0362 26.44 23.0022C26.4766 22.9682 26.5066 22.9269 26.5066 22.9102C26.5066 22.8935 26.5192 22.8799 26.5346 22.8799C26.5692 22.8799 26.6934 22.758 26.6934 22.724C26.6934 22.7102 26.7114 22.6921 26.7334 22.6836C26.7554 22.6752 26.7734 22.6499 26.7734 22.6274C26.7734 22.605 26.7854 22.5866 26.8 22.5866C26.8146 22.5866 26.8266 22.5686 26.8266 22.5466C26.8266 22.5246 26.8386 22.5066 26.8534 22.5066C26.868 22.5066 26.88 22.4766 26.88 22.4399C26.88 22.3984 26.8951 22.3733 26.92 22.3733C26.9422 22.3733 26.96 22.3495 26.96 22.3199C26.96 22.2906 26.972 22.2666 26.9866 22.2666C27.0014 22.2666 27.0134 22.2366 27.0134 22.1999C27.0134 22.1633 27.0254 22.1333 27.04 22.1333C27.0546 22.1333 27.0666 22.1033 27.0666 22.0666C27.0666 22.0275 27.082 21.9999 27.1037 21.9999C27.124 21.9999 27.148 21.9639 27.157 21.9199C27.166 21.8759 27.1807 21.8039 27.1897 21.7599C27.1987 21.7159 27.2167 21.6799 27.2297 21.6799C27.2427 21.6799 27.2534 21.6259 27.2534 21.5599C27.2534 21.471 27.2637 21.4399 27.2934 21.4399C27.3154 21.4399 27.3334 21.4279 27.3334 21.4133C27.3334 21.3958 27.8439 21.3866 28.8118 21.3866C29.7686 21.3866 30.296 21.3772 30.3066 21.3599C30.3158 21.3453 30.3768 21.3333 30.4424 21.3333C30.5238 21.3333 30.5666 21.3206 30.577 21.2933C30.5865 21.2686 30.627 21.2533 30.6829 21.2533C30.7326 21.2533 30.7734 21.2438 30.7734 21.2324C30.7734 21.221 30.8274 21.1956 30.8934 21.1762C30.961 21.1562 31.0134 21.1246 31.0134 21.1037C31.0134 21.0829 31.04 21.0666 31.0741 21.0666C31.1075 21.0666 31.1522 21.0426 31.1734 21.0133C31.1945 20.9839 31.2391 20.9599 31.2726 20.9599C31.306 20.9599 31.3334 20.9474 31.3334 20.9321C31.3334 20.8958 31.4559 20.7733 31.4922 20.7733C31.5074 20.7733 31.52 20.7579 31.52 20.7391C31.52 20.7204 31.544 20.6878 31.5734 20.6666C31.6026 20.6454 31.6266 20.6008 31.6266 20.5674C31.6266 20.5339 31.6395 20.5066 31.6552 20.5066C31.7023 20.5066 31.76 20.4342 31.76 20.3751C31.76 20.3448 31.772 20.3199 31.7866 20.3199C31.8014 20.3199 31.8134 20.2899 31.8134 20.2533C31.8134 20.2118 31.8285 20.1866 31.8534 20.1866C31.8755 20.1866 31.8934 20.1629 31.8934 20.1333C31.8934 20.1039 31.9054 20.0799 31.92 20.0799C31.9346 20.0799 31.9466 20.0199 31.9466 19.9466C31.9466 19.8733 31.9586 19.8133 31.9734 19.8133C31.9908 19.8133 32 19.3154 32 18.3733C32 17.431 31.9908 16.9333 31.9734 16.9333C31.9586 16.9333 31.9466 16.8913 31.9466 16.8399C31.9466 16.7886 31.9346 16.7466 31.92 16.7466C31.9054 16.7466 31.8934 16.7046 31.8934 16.6533C31.8934 16.5881 31.8813 16.5599 31.8534 16.5599C31.8254 16.5599 31.8134 16.5318 31.8134 16.4666C31.8134 16.4153 31.8014 16.3733 31.7866 16.3733C31.772 16.3733 31.76 16.3433 31.76 16.3066C31.76 16.2699 31.748 16.2399 31.7334 16.2399C31.7186 16.2399 31.7066 16.2099 31.7066 16.1733C31.7066 16.1318 31.6915 16.1066 31.6666 16.1066C31.6445 16.1066 31.6266 16.0829 31.6266 16.0533C31.6266 16.0239 31.6146 15.9999 31.6 15.9999C31.5854 15.9999 31.5734 15.9699 31.5734 15.9333C31.5734 15.8966 31.5622 15.8666 31.5485 15.8666C31.5348 15.8666 31.515 15.8396 31.5046 15.8066C31.4942 15.7736 31.4634 15.7272 31.4362 15.7034C31.409 15.6798 31.3866 15.6399 31.3866 15.6149C31.3866 15.5641 31.3257 15.4933 31.2819 15.4933C31.2662 15.4933 31.2534 15.4693 31.2534 15.4399C31.2534 15.4106 31.2414 15.3866 31.2266 15.3866C31.212 15.3866 31.2 15.373 31.2 15.3564C31.2 15.3398 31.1594 15.2879 31.1098 15.2411C31.0602 15.1944 31.0012 15.121 30.9787 15.078C30.9562 15.035 30.9128 14.9822 30.8822 14.9607C30.8517 14.9391 30.8266 14.9113 30.8266 14.8988C30.8266 14.8723 30.7583 14.7999 30.7334 14.7999C30.7057 14.7999 30.64 14.7262 30.64 14.6951C30.64 14.6794 30.622 14.6666 30.6 14.6666C30.578 14.6666 30.56 14.6546 30.56 14.6399C30.56 14.6253 30.5411 14.6133 30.5181 14.6133C30.4702 14.6133 30.4 14.551 30.4 14.5085C30.4 14.4928 30.3846 14.4799 30.3659 14.4799C30.3471 14.4799 30.3145 14.4559 30.2934 14.4266C30.2722 14.3973 30.2275 14.3733 30.1941 14.3733C30.1607 14.3733 30.1334 14.3604 30.1334 14.3447C30.1334 14.3015 30.0628 14.2399 30.0134 14.2399C29.9638 14.2399 29.8934 14.1783 29.8934 14.1351C29.8934 14.1194 29.8634 14.1066 29.8266 14.1066C29.79 14.1066 29.76 14.0946 29.76 14.0799C29.76 14.0653 29.73 14.0533 29.6934 14.0533C29.6566 14.0533 29.6266 14.0413 29.6266 14.0266C29.6266 14.0119 29.6026 13.9999 29.5734 13.9999C29.5437 13.9999 29.52 13.9822 29.52 13.9599C29.52 13.9379 29.502 13.9199 29.48 13.9199C29.458 13.9199 29.44 13.9079 29.44 13.8933C29.44 13.8786 29.41 13.8666 29.3734 13.8666C29.3366 13.8666 29.3066 13.8546 29.3066 13.8399C29.3066 13.8253 29.2706 13.8133 29.2266 13.8133C29.1734 13.8133 29.1466 13.7999 29.1466 13.7733C29.1466 13.7484 29.1215 13.7333 29.08 13.7333C29.0434 13.7333 29.0134 13.7213 29.0134 13.7066C29.0134 13.6919 28.9594 13.6799 28.8934 13.6799C28.8274 13.6799 28.7734 13.6679 28.7734 13.6533C28.7734 13.6386 28.7314 13.6266 28.68 13.6266C28.6148 13.6266 28.5866 13.6146 28.5866 13.5866C28.5866 13.5564 28.5541 13.5466 28.4534 13.5466C28.38 13.5466 28.32 13.5346 28.32 13.5199C28.32 13.5051 28.2489 13.4933 28.16 13.4933C28.0355 13.4933 28 13.4844 28 13.4533C28 13.4226 27.9659 13.4133 27.8534 13.4133C27.7726 13.4133 27.7066 13.4013 27.7066 13.3866C27.7066 13.3718 27.6355 13.3599 27.5466 13.3599C27.4578 13.3599 27.3866 13.3481 27.3866 13.3333C27.3866 13.3186 27.3198 13.3066 27.2381 13.3066C27.1416 13.3066 27.0755 13.2926 27.0495 13.2666C27.023 13.24 26.9564 13.2266 26.8514 13.2266C26.7638 13.2266 26.6934 13.2147 26.6934 13.1999C26.6934 13.1851 26.6222 13.1733 26.5334 13.1733C26.4445 13.1733 26.3734 13.1614 26.3734 13.1466C26.3734 13.1314 26.2934 13.1199 26.1866 13.1199C26.0385 13.1199 26 13.1117 26 13.0799C26 13.0482 25.9615 13.0399 25.8134 13.0399C25.7066 13.0399 25.6266 13.0285 25.6266 13.0133C25.6266 12.9984 25.5555 12.9866 25.4666 12.9866C25.3778 12.9866 25.3066 12.9747 25.3066 12.9599C25.3066 12.945 25.2321 12.9333 25.1362 12.9333C25.0093 12.9333 24.9618 12.923 24.9503 12.8933C24.9391 12.8638 24.8927 12.8533 24.7758 12.8533C24.6882 12.8533 24.609 12.8413 24.6 12.8266C24.591 12.8119 24.5122 12.7999 24.4251 12.7999C24.3373 12.7999 24.2666 12.788 24.2666 12.7733C24.2666 12.758 24.1866 12.7466 24.08 12.7466C23.9318 12.7466 23.8934 12.7383 23.8934 12.7066C23.8934 12.6786 23.8652 12.6666 23.8 12.6666C23.7486 12.6666 23.7066 12.6546 23.7066 12.6399C23.7066 12.6253 23.6938 12.6133 23.6781 12.6133C23.647 12.6133 23.5734 12.5476 23.5734 12.5199C23.5734 12.4977 23.5022 12.4266 23.48 12.4266C23.4578 12.4266 23.3866 12.3555 23.3866 12.3333C23.3866 12.311 23.3156 12.2399 23.2934 12.2399C23.2711 12.2399 23.2 12.1688 23.2 12.1466C23.2 12.1243 23.1289 12.0533 23.1066 12.0533C23.0844 12.0533 23.0134 11.9822 23.0134 11.9599C23.0134 11.9377 22.9422 11.8666 22.92 11.8666C22.8978 11.8666 22.8266 11.7955 22.8266 11.7733C22.8266 11.751 22.7556 11.6799 22.7334 11.6799C22.7111 11.6799 22.64 11.6088 22.64 11.5866C22.64 11.5589 22.5663 11.4933 22.5352 11.4933C22.5195 11.4933 22.5066 11.4804 22.5066 11.4647C22.5066 11.4336 22.441 11.3599 22.4134 11.3599C22.3911 11.3599 22.32 11.2888 22.32 11.2666C22.32 11.2443 22.2489 11.1733 22.2266 11.1733C22.2044 11.1733 22.1334 11.1022 22.1334 11.0799C22.1334 11.0577 22.0622 10.9866 22.04 10.9866C22.0178 10.9866 21.9466 10.9155 21.9466 10.8933C21.9466 10.871 21.8756 10.7999 21.8534 10.7999C21.8311 10.7999 21.76 10.7288 21.76 10.7066C21.76 10.6843 21.6889 10.6133 21.6666 10.6133C21.6444 10.6133 21.5734 10.5422 21.5734 10.5199C21.5734 10.4977 21.5022 10.4266 21.48 10.4266C21.4528 10.4266 21.3866 10.3532 21.3866 10.323C21.3866 10.308 21.3566 10.2657 21.32 10.229C21.2834 10.1923 21.2534 10.155 21.2534 10.1459C21.2534 10.1187 21.1793 10.0533 21.1486 10.0533C21.1329 10.0533 21.12 10.0413 21.12 10.0266C21.12 10.0119 21.096 9.99992 21.0666 9.99992C21.0374 9.99992 21.0134 9.98704 21.0134 9.97136C21.0134 9.94024 20.9477 9.86656 20.92 9.86656C20.8978 9.86656 20.8266 9.79552 20.8266 9.77328C20.8266 9.75104 20.7556 9.67992 20.7334 9.67992C20.7111 9.67992 20.64 9.6088 20.64 9.58656C20.64 9.55888 20.5663 9.49328 20.5352 9.49328C20.5195 9.49328 20.5066 9.48072 20.5066 9.46536C20.5066 9.4292 20.3841 9.30656 20.3478 9.30656C20.3326 9.30656 20.32 9.29376 20.32 9.278C20.32 9.24112 20.2522 9.17328 20.2152 9.17328C20.1995 9.17328 20.1866 9.16128 20.1866 9.14656C20.1866 9.13192 20.1626 9.11992 20.1334 9.11992C20.1037 9.11992 20.08 9.10216 20.08 9.07992C20.08 9.05792 20.0646 9.03992 20.0459 9.03992C20.0271 9.03992 19.9945 9.01592 19.9734 8.98656C19.9522 8.95728 19.925 8.93328 19.913 8.93328C19.8896 8.93328 19.8491 8.90248 19.7466 8.80656C19.7113 8.7736 19.6578 8.74656 19.6278 8.74656C19.5972 8.74656 19.5734 8.72912 19.5734 8.70656C19.5734 8.68456 19.5554 8.66656 19.5334 8.66656C19.5114 8.66656 19.4934 8.65456 19.4934 8.63992C19.4934 8.62528 19.4694 8.61328 19.44 8.61328C19.4106 8.61328 19.3866 8.60128 19.3866 8.58656C19.3866 8.57192 19.3566 8.55992 19.32 8.55992C19.2785 8.55992 19.2534 8.5448 19.2534 8.51992C19.2534 8.49768 19.2296 8.47992 19.2 8.47992C19.1706 8.47992 19.1466 8.46792 19.1466 8.45328C19.1466 8.43856 19.1166 8.42656 19.08 8.42656C19.0434 8.42656 19.0134 8.41456 19.0134 8.39992C19.0134 8.38528 18.9834 8.37328 18.9466 8.37328C18.9052 8.37328 18.88 8.35816 18.88 8.33328C18.88 8.30528 18.8518 8.29328 18.7866 8.29328C18.7354 8.29328 18.6934 8.28128 18.6934 8.26656C18.6934 8.25192 18.6514 8.23992 18.6 8.23992C18.5486 8.23992 18.5066 8.22792 18.5066 8.21328C18.5066 8.19856 18.4526 8.18656 18.3866 8.18656C18.2978 8.18656 18.2666 8.17624 18.2666 8.14656C18.2666 8.1164 18.2341 8.10656 18.1334 8.10656C18.06 8.10656 18 8.09456 18 8.07992C18 8.06472 17.92 8.05328 17.8134 8.05328C17.7066 8.05328 17.6266 8.04184 17.6266 8.02656C17.6266 8.01032 17.5066 7.99992 17.32 7.99992C17.0652 7.99992 17.0134 7.99312 17.0134 7.95992C17.0134 7.92456 16.5854 7.91992 13.3219 7.91992C10.0762 7.91992 9.62568 7.92472 9.59048 7.95992ZM9.54664 9.43992C9.54664 9.46928 9.53464 9.49328 9.52 9.49328C9.50536 9.49328 9.49336 9.52328 9.49336 9.55992C9.49336 9.60144 9.47824 9.62656 9.45336 9.62656C9.42536 9.62656 9.41336 9.65472 9.41336 9.71992C9.41336 9.77128 9.40136 9.81328 9.38664 9.81328C9.372 9.81328 9.36 9.83728 9.36 9.86656C9.36 9.89592 9.348 9.91992 9.33336 9.91992C9.31864 9.91992 9.30664 9.94992 9.30664 9.98656C9.30664 10.0281 9.29152 10.0533 9.26664 10.0533C9.23872 10.0533 9.22664 10.0814 9.22664 10.1466C9.22664 10.1979 9.21464 10.2399 9.2 10.2399C9.18536 10.2399 9.17336 10.2699 9.17336 10.3066C9.17336 10.3433 9.16136 10.3733 9.14664 10.3733C9.132 10.3733 9.12 10.396 9.12 10.4238C9.12 10.4515 9.102 10.4811 9.08 10.4896C9.058 10.498 9.04 10.5293 9.04 10.5591C9.04 10.5889 9.028 10.6133 9.01336 10.6133C8.99864 10.6133 8.98664 10.6553 8.98664 10.7066C8.98664 10.7579 8.97464 10.7999 8.96 10.7999C8.94536 10.7999 8.93336 10.8299 8.93336 10.8666C8.93336 10.9081 8.91824 10.9333 8.89336 10.9333C8.87112 10.9333 8.85336 10.957 8.85336 10.9866C8.85336 11.0159 8.84136 11.0399 8.82664 11.0399C8.812 11.0399 8.8 11.0699 8.8 11.1066C8.8 11.1433 8.788 11.1733 8.77336 11.1733C8.75864 11.1733 8.74664 11.2153 8.74664 11.2666C8.74664 11.3318 8.73464 11.3599 8.70664 11.3599C8.68176 11.3599 8.66664 11.3851 8.66664 11.4266C8.66664 11.4633 8.65464 11.4933 8.64 11.4933C8.62536 11.4933 8.61336 11.5353 8.61336 11.5866C8.61336 11.6379 8.60136 11.6799 8.58664 11.6799C8.572 11.6799 8.56 11.7099 8.56 11.7466C8.56 11.7881 8.54488 11.8133 8.52 11.8133C8.49208 11.8133 8.48 11.8414 8.48 11.9066C8.48 11.9579 8.468 11.9999 8.45336 11.9999C8.43864 11.9999 8.42664 12.0419 8.42664 12.0933C8.42664 12.1446 8.41464 12.1866 8.4 12.1866C8.38536 12.1866 8.37336 12.2406 8.37336 12.3066C8.37336 12.3954 8.36296 12.4266 8.33336 12.4266C8.30024 12.4266 8.29336 12.477 8.29336 12.7199C8.29336 12.9629 8.30024 13.0133 8.33336 13.0133C8.36128 13.0133 8.37336 13.0414 8.37336 13.1066C8.37336 13.1579 8.38536 13.1999 8.4 13.1999C8.41464 13.1999 8.42664 13.2299 8.42664 13.2666C8.42664 13.3033 8.43864 13.3333 8.45336 13.3333C8.468 13.3333 8.48 13.3573 8.48 13.3866C8.48 13.4162 8.49776 13.4399 8.52 13.4399C8.542 13.4399 8.56 13.4525 8.56 13.4678C8.56 13.504 8.68256 13.6266 8.7188 13.6266C8.73416 13.6266 8.74664 13.6391 8.74664 13.6545C8.74664 13.703 8.87536 13.8133 8.93216 13.8133C8.96216 13.8133 8.98664 13.8299 8.98664 13.8503C8.98664 13.8712 9.03904 13.9028 9.10664 13.9228C9.17264 13.9423 9.22664 13.9676 9.22664 13.979C9.22664 13.9906 12.2074 13.9999 15.8505 13.9999C21.7137 13.9999 22.4761 14.0045 22.4897 14.0399C22.5025 14.0733 22.5801 14.0799 22.9592 14.0799C23.2442 14.0799 23.4134 14.0898 23.4134 14.1066C23.4134 14.1227 23.5289 14.1333 23.7066 14.1333C23.8845 14.1333 24 14.1438 24 14.1599C24 14.1751 24.08 14.1866 24.1866 14.1866C24.3348 14.1866 24.3734 14.1949 24.3734 14.2266C24.3734 14.2583 24.4118 14.2666 24.56 14.2666C24.6666 14.2666 24.7466 14.278 24.7466 14.2933C24.7466 14.3079 24.8114 14.3199 24.8905 14.3199C24.9937 14.3199 25.0386 14.3312 25.0497 14.3599C25.0609 14.3893 25.1073 14.3999 25.2242 14.3999C25.3118 14.3999 25.391 14.4119 25.4 14.4266C25.409 14.4413 25.4878 14.4533 25.5749 14.4533C25.6627 14.4533 25.7334 14.4651 25.7334 14.4799C25.7334 14.4947 25.8045 14.5066 25.8934 14.5066C26.0178 14.5066 26.0534 14.5154 26.0534 14.5466C26.0534 14.5777 26.0889 14.5866 26.2134 14.5866C26.3022 14.5866 26.3734 14.5984 26.3734 14.6133C26.3734 14.6285 26.4534 14.6399 26.56 14.6399C26.6666 14.6399 26.7466 14.6514 26.7466 14.6666C26.7466 14.6813 26.8114 14.6933 26.8905 14.6933C26.9937 14.6933 27.0386 14.7046 27.0497 14.7333C27.0607 14.7622 27.106 14.7733 27.2125 14.7733C27.2936 14.7733 27.36 14.7853 27.36 14.7999C27.36 14.8146 27.42 14.8266 27.4934 14.8266C27.6089 14.8266 27.6266 14.8337 27.6266 14.8799C27.6266 14.9095 27.6089 14.9333 27.5866 14.9333C27.5645 14.9333 27.5466 14.957 27.5466 14.9866C27.5466 15.0159 27.5346 15.0399 27.52 15.0399C27.5054 15.0399 27.4934 15.0699 27.4934 15.1066C27.4934 15.1481 27.4782 15.1733 27.4534 15.1733C27.4254 15.1733 27.4134 15.2014 27.4134 15.2666C27.4134 15.3179 27.4014 15.3599 27.3866 15.3599C27.372 15.3599 27.36 15.4139 27.36 15.4799C27.36 15.5459 27.348 15.5999 27.3334 15.5999C27.3167 15.5999 27.3066 15.7554 27.3066 16.0133C27.3066 16.271 27.3167 16.4266 27.3334 16.4266C27.348 16.4266 27.36 16.4746 27.36 16.5333C27.36 16.5919 27.372 16.6399 27.3866 16.6399C27.4014 16.6399 27.4134 16.6819 27.4134 16.7333C27.4134 16.7984 27.4254 16.8266 27.4534 16.8266C27.4782 16.8266 27.4934 16.8518 27.4934 16.8933C27.4934 16.9299 27.5054 16.9599 27.52 16.9599C27.5346 16.9599 27.5466 16.9839 27.5466 17.0133C27.5466 17.0429 27.5645 17.0666 27.5866 17.0666C27.6089 17.0666 27.6266 17.0903 27.6266 17.1199C27.6266 17.1493 27.6386 17.1733 27.6534 17.1733C27.668 17.1733 27.68 17.1913 27.68 17.2133C27.68 17.2353 27.692 17.2533 27.7066 17.2533C27.7214 17.2533 27.7334 17.2713 27.7334 17.2933C27.7334 17.3153 27.7458 17.3333 27.7612 17.3333C27.7974 17.3333 27.92 17.4558 27.92 17.4921C27.92 17.5074 27.935 17.5202 27.9534 17.5205C27.9717 17.5208 28.0226 17.5628 28.0664 17.6138C28.1102 17.6649 28.1673 17.7066 28.193 17.7066C28.2189 17.7066 28.24 17.7186 28.24 17.7333C28.24 17.7479 28.27 17.7599 28.3066 17.7599C28.3434 17.7599 28.3734 17.7719 28.3734 17.7866C28.3734 17.8013 28.3974 17.8133 28.4266 17.8133C28.4563 17.8133 28.48 17.831 28.48 17.8533C28.48 17.8782 28.5052 17.8933 28.5466 17.8933C28.5834 17.8933 28.6134 17.9053 28.6134 17.9199C28.6134 17.9346 28.6554 17.9466 28.7066 17.9466C28.758 17.9466 28.8 17.9586 28.8 17.9733C28.8 17.9905 29.12 17.9999 29.7066 17.9999H30.6134V18.7733C30.6134 19.271 30.6038 19.5466 30.5866 19.5466C30.572 19.5466 30.56 19.5766 30.56 19.6133C30.56 19.6499 30.5471 19.6799 30.5314 19.6799C30.5003 19.6799 30.4266 19.7456 30.4266 19.7733C30.4266 19.8104 30.3475 19.8666 30.2952 19.8666C30.2649 19.8666 30.24 19.8786 30.24 19.8933C30.24 19.9079 30.186 19.9199 30.12 19.9199C30.0311 19.9199 30 19.9303 30 19.9599C30 19.995 29.8341 19.9999 28.6666 19.9999C27.4993 19.9999 27.3334 19.995 27.3334 19.9599C27.3334 19.9379 27.3154 19.9199 27.2934 19.9199C27.2637 19.9199 27.2534 19.8888 27.2534 19.7999C27.2534 19.7339 27.2414 19.6799 27.2266 19.6799C27.212 19.6799 27.2 19.6379 27.2 19.5866C27.2 19.5353 27.188 19.4933 27.1734 19.4933C27.1586 19.4933 27.1466 19.4513 27.1466 19.3999C27.1466 19.3347 27.1346 19.3066 27.1066 19.3066C27.0818 19.3066 27.0666 19.2814 27.0666 19.2399C27.0666 19.2033 27.0546 19.1733 27.04 19.1733C27.0254 19.1733 27.0134 19.1433 27.0134 19.1066C27.0134 19.0699 27.0014 19.0399 26.9866 19.0399C26.972 19.0399 26.96 19.0159 26.96 18.9866C26.96 18.957 26.9422 18.9333 26.92 18.9333C26.898 18.9333 26.88 18.9153 26.88 18.8933C26.88 18.8713 26.868 18.8533 26.8534 18.8533C26.8386 18.8533 26.8266 18.8293 26.8266 18.7999C26.8266 18.7706 26.8146 18.7466 26.8 18.7466C26.7854 18.7466 26.7734 18.7286 26.7734 18.7066C26.7734 18.6846 26.7554 18.6666 26.7334 18.6666C26.7111 18.6666 26.6934 18.6429 26.6934 18.6133C26.6934 18.5839 26.6814 18.5599 26.6666 18.5599C26.652 18.5599 26.64 18.547 26.64 18.5314C26.64 18.5002 26.5743 18.4266 26.5466 18.4266C26.519 18.4266 26.4534 18.3529 26.4534 18.3218C26.4534 18.3061 26.4408 18.2933 26.4254 18.2933C26.3893 18.2933 26.2666 18.1706 26.2666 18.1345C26.2666 18.1191 26.2513 18.1066 26.2326 18.1066C26.2138 18.1066 26.1811 18.0826 26.16 18.0533C26.1389 18.0239 26.0942 17.9999 26.0608 17.9999C26.0274 17.9999 26 17.9874 26 17.9721C26 17.9234 25.8713 17.8133 25.8146 17.8133C25.7838 17.8133 25.76 17.7958 25.76 17.7733C25.76 17.7484 25.7348 17.7333 25.6934 17.7333C25.6566 17.7333 25.6266 17.7213 25.6266 17.7066C25.6266 17.6919 25.6039 17.6799 25.5762 17.6799C25.5484 17.6799 25.5188 17.6619 25.5103 17.6399C25.5019 17.6179 25.4706 17.5999 25.4408 17.5999C25.411 17.5999 25.3866 17.5879 25.3866 17.5733C25.3866 17.5586 25.3566 17.5466 25.32 17.5466C25.2834 17.5466 25.2534 17.5346 25.2534 17.5199C25.2534 17.5053 25.2114 17.4933 25.16 17.4933C25.0948 17.4933 25.0666 17.4812 25.0666 17.4533C25.0666 17.4253 25.0385 17.4133 24.9734 17.4133C24.922 17.4133 24.88 17.4013 24.88 17.3866C24.88 17.3719 24.814 17.3599 24.7334 17.3599C24.6526 17.3599 24.5866 17.3479 24.5866 17.3333C24.5866 17.3163 24.3783 17.3066 24.0149 17.3066C23.6625 17.3066 23.4368 17.3168 23.4266 17.3333C23.4176 17.3479 23.3449 17.3599 23.2651 17.3599C23.1853 17.3599 23.12 17.3719 23.12 17.3866C23.12 17.4013 23.078 17.4133 23.0266 17.4133C22.9615 17.4133 22.9334 17.4253 22.9334 17.4533C22.9334 17.4812 22.9052 17.4933 22.84 17.4933C22.7886 17.4933 22.7466 17.5053 22.7466 17.5199C22.7466 17.5346 22.7166 17.5466 22.68 17.5466C22.6434 17.5466 22.6134 17.5586 22.6134 17.5733C22.6134 17.5879 22.5834 17.5999 22.5466 17.5999C22.5052 17.5999 22.48 17.615 22.48 17.6399C22.48 17.6622 22.4563 17.6799 22.4266 17.6799C22.3974 17.6799 22.3734 17.6919 22.3734 17.7066C22.3734 17.7213 22.3434 17.7333 22.3066 17.7333C22.2652 17.7333 22.24 17.7484 22.24 17.7733C22.24 17.7958 22.2162 17.8133 22.1854 17.8133C22.1287 17.8133 22 17.9234 22 17.9721C22 17.9874 21.9726 17.9999 21.9392 17.9999C21.9058 17.9999 21.8611 18.0239 21.84 18.0533C21.8189 18.0826 21.7862 18.1066 21.7674 18.1066C21.7487 18.1066 21.7334 18.1194 21.7334 18.1351C21.7334 18.1662 21.6677 18.2399 21.64 18.2399C21.6178 18.2399 21.5466 18.311 21.5466 18.3333C21.5466 18.3427 21.5295 18.3675 21.5086 18.3885C21.4876 18.4094 21.4628 18.4266 21.4534 18.4266C21.4257 18.4266 21.36 18.5002 21.36 18.5314C21.36 18.547 21.348 18.5599 21.3334 18.5599C21.3186 18.5599 21.3066 18.5785 21.3066 18.6012C21.3066 18.6239 21.2766 18.6702 21.24 18.7042C21.2034 18.7382 21.1734 18.7857 21.1734 18.8097C21.1734 18.8336 21.1614 18.8533 21.1466 18.8533C21.132 18.8533 21.12 18.8713 21.12 18.8933C21.12 18.9153 21.102 18.9333 21.08 18.9333C21.0578 18.9333 21.04 18.957 21.04 18.9866C21.04 19.0159 21.028 19.0399 21.0134 19.0399C20.9986 19.0399 20.9866 19.0699 20.9866 19.1066C20.9866 19.1433 20.9746 19.1733 20.96 19.1733C20.9454 19.1733 20.9334 19.2033 20.9334 19.2399C20.9334 19.2814 20.9182 19.3066 20.8934 19.3066C20.8654 19.3066 20.8534 19.3347 20.8534 19.3999C20.8534 19.4513 20.8414 19.4933 20.8266 19.4933C20.812 19.4933 20.8 19.5353 20.8 19.5866C20.8 19.6379 20.788 19.6799 20.7734 19.6799C20.7586 19.6799 20.7466 19.7339 20.7466 19.7999C20.7466 19.8888 20.7363 19.9199 20.7066 19.9199C20.6846 19.9199 20.6666 19.9379 20.6666 19.9599C20.6666 19.9954 20.1304 19.9999 16 19.9999C11.8696 19.9999 11.3334 19.9954 11.3334 19.9599C11.3334 19.9379 11.3154 19.9199 11.2934 19.9199C11.2637 19.9199 11.2534 19.8888 11.2534 19.7999C11.2534 19.7339 11.2414 19.6799 11.2266 19.6799C11.212 19.6799 11.2 19.6379 11.2 19.5866C11.2 19.5353 11.188 19.4933 11.1734 19.4933C11.1586 19.4933 11.1466 19.4513 11.1466 19.3999C11.1466 19.3347 11.1346 19.3066 11.1066 19.3066C11.0818 19.3066 11.0666 19.2814 11.0666 19.2399C11.0666 19.2033 11.0546 19.1733 11.04 19.1733C11.0254 19.1733 11.0134 19.1433 11.0134 19.1066C11.0134 19.0699 11.0014 19.0399 10.9866 19.0399C10.972 19.0399 10.96 19.0159 10.96 18.9866C10.96 18.957 10.9422 18.9333 10.92 18.9333C10.898 18.9333 10.88 18.9153 10.88 18.8933C10.88 18.8713 10.868 18.8533 10.8534 18.8533C10.8386 18.8533 10.8266 18.8293 10.8266 18.7999C10.8266 18.7706 10.8146 18.7466 10.8 18.7466C10.7854 18.7466 10.7734 18.7286 10.7734 18.7066C10.7734 18.6846 10.7554 18.6666 10.7334 18.6666C10.7111 18.6666 10.6934 18.6429 10.6934 18.6133C10.6934 18.5839 10.6814 18.5599 10.6666 18.5599C10.652 18.5599 10.64 18.547 10.64 18.5314C10.64 18.5002 10.5743 18.4266 10.5466 18.4266C10.5244 18.4266 10.4534 18.3555 10.4534 18.3333C10.4534 18.311 10.3822 18.2399 10.36 18.2399C10.3323 18.2399 10.2666 18.1662 10.2666 18.1351C10.2666 18.1194 10.2513 18.1066 10.2326 18.1066C10.2138 18.1066 10.1811 18.0826 10.16 18.0533C10.1389 18.0239 10.0942 17.9999 10.0608 17.9999C10.0274 17.9999 10 17.9874 10 17.9721C10 17.9234 9.87128 17.8133 9.81456 17.8133C9.78384 17.8133 9.76 17.7958 9.76 17.7733C9.76 17.7484 9.7348 17.7333 9.69336 17.7333C9.65664 17.7333 9.62664 17.7213 9.62664 17.7066C9.62664 17.6919 9.60392 17.6799 9.57616 17.6799C9.5484 17.6799 9.5188 17.6619 9.51032 17.6399C9.50192 17.6179 9.47064 17.5999 9.4408 17.5999C9.41104 17.5999 9.38664 17.5879 9.38664 17.5733C9.38664 17.5586 9.35664 17.5466 9.32 17.5466C9.28336 17.5466 9.25336 17.5346 9.25336 17.5199C9.25336 17.5053 9.21136 17.4933 9.16 17.4933C9.0948 17.4933 9.06664 17.4812 9.06664 17.4533C9.06664 17.4253 9.03848 17.4133 8.97336 17.4133C8.922 17.4133 8.88 17.4013 8.88 17.3866C8.88 17.3719 8.814 17.3599 8.73336 17.3599C8.65264 17.3599 8.58664 17.3479 8.58664 17.3333C8.58664 17.3163 8.37832 17.3066 8.01488 17.3066C7.66248 17.3066 7.4368 17.3168 7.42664 17.3333C7.4176 17.3479 7.34488 17.3599 7.26512 17.3599C7.18528 17.3599 7.12 17.3719 7.12 17.3866C7.12 17.4013 7.078 17.4133 7.02664 17.4133C6.96152 17.4133 6.93336 17.4253 6.93336 17.4533C6.93336 17.4812 6.9052 17.4933 6.84 17.4933C6.78864 17.4933 6.74664 17.5053 6.74664 17.5199C6.74664 17.5346 6.71664 17.5466 6.68 17.5466C6.64336 17.5466 6.61336 17.5586 6.61336 17.5733C6.61336 17.5879 6.58336 17.5999 6.54664 17.5999C6.5052 17.5999 6.48 17.615 6.48 17.6399C6.48 17.6622 6.45632 17.6799 6.42664 17.6799C6.39736 17.6799 6.37336 17.6919 6.37336 17.7066C6.37336 17.7213 6.34336 17.7333 6.30664 17.7333C6.2652 17.7333 6.24 17.7484 6.24 17.7733C6.24 17.7958 6.21616 17.8133 6.18544 17.8133C6.12872 17.8133 6 17.9234 6 17.9721C6 17.9874 5.97264 17.9999 5.9392 17.9999C5.90576 17.9999 5.86112 18.0239 5.84 18.0533C5.81888 18.0826 5.78624 18.1066 5.76744 18.1066C5.74872 18.1066 5.73336 18.1191 5.73336 18.1345C5.73336 18.1706 5.61072 18.2933 5.57456 18.2933C5.5592 18.2933 5.54664 18.3061 5.54664 18.3218C5.54664 18.3529 5.48104 18.4266 5.45336 18.4266C5.42568 18.4266 5.36 18.5002 5.36 18.5314C5.36 18.547 5.348 18.5599 5.33336 18.5599C5.31864 18.5599 5.30664 18.5785 5.30664 18.6012C5.30664 18.6239 5.27664 18.6702 5.24 18.7042C5.20336 18.7382 5.17336 18.7857 5.17336 18.8097C5.17336 18.8336 5.16136 18.8533 5.14664 18.8533C5.132 18.8533 5.12 18.8713 5.12 18.8933C5.12 18.9153 5.102 18.9333 5.08 18.9333C5.05776 18.9333 5.04 18.957 5.04 18.9866C5.04 19.0159 5.028 19.0399 5.01336 19.0399C4.99864 19.0399 4.98664 19.0699 4.98664 19.1066C4.98664 19.1433 4.97464 19.1733 4.96 19.1733C4.94536 19.1733 4.93336 19.2033 4.93336 19.2399C4.93336 19.2814 4.91824 19.3066 4.89336 19.3066C4.86536 19.3066 4.85336 19.3347 4.85336 19.3999C4.85336 19.4513 4.84136 19.4933 4.82664 19.4933C4.812 19.4933 4.8 19.5353 4.8 19.5866C4.8 19.6379 4.788 19.6799 4.77336 19.6799C4.75864 19.6799 4.74664 19.7339 4.74664 19.7999C4.74664 19.8888 4.73632 19.9199 4.70664 19.9199C4.68464 19.9199 4.66664 19.9379 4.66664 19.9599C4.66664 19.9948 4.53632 19.9999 3.65336 19.9999C2.7704 19.9999 2.64 19.9948 2.64 19.9599C2.64 19.9288 2.60448 19.9199 2.48 19.9199C2.39112 19.9199 2.32 19.9081 2.32 19.8933C2.32 19.8786 2.278 19.8666 2.22664 19.8666C2.17536 19.8666 2.13336 19.8546 2.13336 19.8399C2.13336 19.8253 2.10336 19.8133 2.06664 19.8133C2.03 19.8133 2 19.8004 2 19.7847C2 19.7376 1.9276 19.6799 1.86856 19.6799C1.83816 19.6799 1.81336 19.6674 1.81336 19.6521C1.81336 19.6158 1.69072 19.4933 1.65456 19.4933C1.6392 19.4933 1.62664 19.4659 1.62664 19.4325C1.62664 19.399 1.60264 19.3544 1.57336 19.3333C1.544 19.3121 1.52 19.2674 1.52 19.234C1.52 19.1978 1.50384 19.1733 1.48 19.1733C1.45208 19.1733 1.44 19.1451 1.44 19.0799C1.44 19.0286 1.428 18.9866 1.41336 18.9866C1.39616 18.9866 1.38664 18.7022 1.38664 18.1866V17.3866H1.54664C1.63552 17.3866 1.70664 17.3747 1.70664 17.3599C1.70664 17.3453 1.77264 17.3333 1.85336 17.3333C1.96592 17.3333 2 17.324 2 17.2933C2 17.263 2.03256 17.2533 2.13336 17.2533C2.20664 17.2533 2.26664 17.2413 2.26664 17.2266C2.26664 17.2119 2.29664 17.1999 2.33336 17.1999C2.37 17.1999 2.4 17.1879 2.4 17.1733C2.4 17.1586 2.42312 17.1466 2.45144 17.1466C2.47968 17.1466 2.5192 17.1316 2.53912 17.1133C2.59584 17.0611 2.68864 17.0133 2.73296 17.0133C2.7552 17.0133 2.77336 17.0013 2.77336 16.9866C2.77336 16.9719 2.79736 16.9599 2.82664 16.9599C2.85632 16.9599 2.88 16.9422 2.88 16.9199C2.88 16.8979 2.89536 16.8799 2.91408 16.8799C2.93288 16.8799 2.96552 16.8559 2.98664 16.8266C3.00784 16.7973 3.05248 16.7733 3.08592 16.7733C3.11928 16.7733 3.14664 16.7607 3.14664 16.7454C3.14664 16.7092 3.26928 16.5866 3.30544 16.5866C3.3208 16.5866 3.33336 16.5712 3.33336 16.5525C3.33336 16.5337 3.35736 16.501 3.38664 16.4799C3.416 16.4588 3.44 16.4142 3.44 16.3807C3.44 16.3473 3.45288 16.3199 3.46856 16.3199C3.50552 16.3199 3.57336 16.2521 3.57336 16.2151C3.57336 16.1994 3.58536 16.1866 3.6 16.1866C3.61464 16.1866 3.62664 16.1626 3.62664 16.1333C3.62664 16.1036 3.64448 16.0799 3.66664 16.0799C3.69152 16.0799 3.70664 16.0547 3.70664 16.0133C3.70664 15.9766 3.71864 15.9466 3.73336 15.9466C3.748 15.9466 3.76 15.9166 3.76 15.8799C3.76 15.8433 3.772 15.8133 3.78664 15.8133C3.80136 15.8133 3.81336 15.7893 3.81336 15.7599C3.81336 15.7303 3.83112 15.7066 3.85336 15.7066C3.87984 15.7066 3.89336 15.6801 3.89336 15.6282C3.89336 15.585 3.90536 15.5423 3.92 15.5333C3.93464 15.5242 3.94664 15.4755 3.94664 15.425C3.94664 15.3746 3.95864 15.3333 3.97336 15.3333C3.98904 15.3333 4 15.2399 4 15.1066C4 14.9229 4.0076 14.8799 4.04 14.8799C4.072 14.8799 4.08 14.8397 4.08 14.678C4.08 14.4406 4.10712 14.3999 4.2656 14.3999C4.33824 14.3999 4.38016 14.3865 4.39032 14.3599C4.39984 14.3352 4.44032 14.3199 4.49616 14.3199C4.54592 14.3199 4.58664 14.3079 4.58664 14.2933C4.58664 14.2786 4.62864 14.2666 4.68 14.2666C4.7452 14.2666 4.77336 14.2546 4.77336 14.2266C4.77336 14.1986 4.80152 14.1866 4.86664 14.1866C4.918 14.1866 4.96 14.1746 4.96 14.1599C4.96 14.1453 5.002 14.1333 5.05336 14.1333C5.10464 14.1333 5.14664 14.1213 5.14664 14.1066C5.14664 14.0919 5.17064 14.0799 5.2 14.0799C5.2296 14.0799 5.25336 14.0622 5.25336 14.0399C5.25336 14.015 5.27848 13.9999 5.32 13.9999C5.35664 13.9999 5.38664 13.9879 5.38664 13.9733C5.38664 13.9586 5.41152 13.9466 5.44192 13.9466C5.50096 13.9466 5.57336 13.8889 5.57336 13.8418C5.57336 13.8261 5.59784 13.8133 5.62784 13.8133C5.68464 13.8133 5.81336 13.703 5.81336 13.6545C5.81336 13.6391 5.82584 13.6266 5.8412 13.6266C5.87744 13.6266 6 13.504 6 13.4678C6 13.4525 6.018 13.4399 6.04 13.4399C6.06224 13.4399 6.08 13.4162 6.08 13.3866C6.08 13.3573 6.092 13.3333 6.10664 13.3333C6.12136 13.3333 6.13336 13.3204 6.13336 13.3047C6.13336 13.2678 6.2012 13.1999 6.23808 13.1999C6.25384 13.1999 6.26664 13.1728 6.26664 13.1396C6.26664 13.1063 6.29664 13.0567 6.33336 13.0292C6.37 13.0017 6.4 12.9568 6.4 12.9295C6.4 12.9022 6.412 12.8799 6.42664 12.8799C6.44136 12.8799 6.45336 12.8559 6.45336 12.8266C6.45336 12.7973 6.46536 12.7733 6.48 12.7733C6.49464 12.7733 6.50664 12.7553 6.50664 12.7333C6.50664 12.7113 6.52464 12.6933 6.54664 12.6933C6.56888 12.6933 6.58664 12.6695 6.58664 12.6399C6.58664 12.6106 6.59864 12.5866 6.61336 12.5866C6.628 12.5866 6.64 12.5594 6.64 12.5262C6.64 12.493 6.66992 12.4434 6.70664 12.4158C6.74336 12.3883 6.77336 12.3434 6.77336 12.3162C6.77336 12.2889 6.78536 12.2666 6.8 12.2666C6.81464 12.2666 6.82664 12.2366 6.82664 12.1999C6.82664 12.1633 6.83864 12.1333 6.85336 12.1333C6.868 12.1333 6.88 12.1033 6.88 12.0666C6.88 12.0299 6.89288 11.9999 6.90856 11.9999C6.9556 11.9999 7.01336 11.9275 7.01336 11.8685C7.01336 11.8381 7.02536 11.8133 7.04 11.8133C7.05464 11.8133 7.06664 11.7893 7.06664 11.7599C7.06664 11.7303 7.08448 11.7066 7.10664 11.7066C7.13152 11.7066 7.14664 11.6814 7.14664 11.6399C7.14664 11.6033 7.15864 11.5733 7.17336 11.5733C7.188 11.5733 7.2 11.5553 7.2 11.5333C7.2 11.5113 7.212 11.4933 7.22664 11.4933C7.24136 11.4933 7.25336 11.4693 7.25336 11.4399C7.25336 11.4103 7.27112 11.3866 7.29336 11.3866C7.31824 11.3866 7.33336 11.3614 7.33336 11.3199C7.33336 11.2833 7.34536 11.2533 7.36 11.2533C7.37464 11.2533 7.38664 11.2293 7.38664 11.1999C7.38664 11.1706 7.39864 11.1466 7.41336 11.1466C7.428 11.1466 7.44 11.1166 7.44 11.0799C7.44 11.0433 7.45368 11.0133 7.4704 11.0133C7.51136 11.0133 7.57144 10.9309 7.57248 10.8733C7.57296 10.8476 7.58536 10.8266 7.6 10.8266C7.61464 10.8266 7.62664 10.7966 7.62664 10.7599C7.62664 10.7184 7.64176 10.6933 7.66664 10.6933C7.68888 10.6933 7.70664 10.6695 7.70664 10.6399C7.70664 10.6106 7.71864 10.5866 7.73336 10.5866C7.748 10.5866 7.76 10.5626 7.76 10.5333C7.76 10.5039 7.772 10.4799 7.78664 10.4799C7.80136 10.4799 7.81336 10.4619 7.81336 10.4399C7.81336 10.4179 7.83136 10.3999 7.85336 10.3999C7.87824 10.3999 7.89336 10.3747 7.89336 10.3333C7.89336 10.2966 7.90536 10.2666 7.92 10.2666C7.93464 10.2666 7.94664 10.2366 7.94664 10.1999C7.94664 10.1633 7.95864 10.1333 7.97336 10.1333C7.988 10.1333 8 10.1033 8 10.0666C8 10.0299 8.01288 9.99992 8.02856 9.99992C8.06552 9.99992 8.13336 9.93208 8.13336 9.89512C8.13336 9.87944 8.14536 9.86656 8.16 9.86656C8.17464 9.86656 8.18664 9.84256 8.18664 9.81328C8.18664 9.7836 8.20448 9.75992 8.22664 9.75992C8.24864 9.75992 8.26664 9.74792 8.26664 9.73328C8.26664 9.71856 8.28896 9.70656 8.31624 9.70656C8.34352 9.70656 8.3884 9.67656 8.41592 9.63992C8.44344 9.60328 8.48712 9.57328 8.51296 9.57328C8.53888 9.57328 8.56 9.56256 8.56 9.54944C8.56 9.5364 8.59 9.51816 8.62664 9.50896C8.66336 9.49976 8.69336 9.48048 8.69336 9.46608C8.69336 9.45168 8.72032 9.43976 8.75336 9.43952C8.78632 9.43928 8.83136 9.42744 8.85336 9.41328C8.94008 9.3572 9.54664 9.38048 9.54664 9.43992ZM14.6134 10.9999V12.6133H12.1866C9.77776 12.6133 9.76 12.6129 9.76 12.5599C9.76 12.5306 9.772 12.5066 9.78664 12.5066C9.80136 12.5066 9.81336 12.4826 9.81336 12.4533C9.81336 12.4236 9.83112 12.3999 9.85336 12.3999C9.87824 12.3999 9.89336 12.3747 9.89336 12.3333C9.89336 12.2966 9.90536 12.2666 9.92 12.2666C9.93464 12.2666 9.94664 12.2246 9.94664 12.1733C9.94664 12.1219 9.95864 12.0799 9.97336 12.0799C9.988 12.0799 10 12.0499 10 12.0133C10 11.9718 10.0151 11.9466 10.04 11.9466C10.0649 11.9466 10.08 11.9214 10.08 11.8799C10.08 11.8433 10.092 11.8133 10.1066 11.8133C10.1214 11.8133 10.1334 11.7713 10.1334 11.7199C10.1334 11.6686 10.1454 11.6266 10.16 11.6266C10.1746 11.6266 10.1866 11.6026 10.1866 11.5733C10.1866 11.5436 10.2045 11.5199 10.2266 11.5199C10.2515 11.5199 10.2666 11.4947 10.2666 11.4533C10.2666 11.4166 10.2786 11.3866 10.2934 11.3866C10.308 11.3866 10.32 11.3446 10.32 11.2933C10.32 11.2281 10.3321 11.1999 10.36 11.1999C10.3849 11.1999 10.4 11.1747 10.4 11.1333C10.4 11.0966 10.412 11.0666 10.4266 11.0666C10.4414 11.0666 10.4534 11.0426 10.4534 11.0133C10.4534 10.9839 10.4654 10.9599 10.48 10.9599C10.4946 10.9599 10.5066 10.9192 10.5066 10.8694C10.5066 10.8136 10.522 10.7731 10.5466 10.7636C10.5686 10.7552 10.5866 10.7239 10.5866 10.6941C10.5866 10.6643 10.5986 10.6399 10.6134 10.6399C10.628 10.6399 10.64 10.6099 10.64 10.5733C10.64 10.5366 10.652 10.5066 10.6666 10.5066C10.6814 10.5066 10.6934 10.4646 10.6934 10.4133C10.6934 10.3481 10.7054 10.3199 10.7334 10.3199C10.7582 10.3199 10.7734 10.2947 10.7734 10.2533C10.7734 10.2166 10.7854 10.1866 10.8 10.1866C10.8146 10.1866 10.8266 10.1626 10.8266 10.1333C10.8266 10.1039 10.8386 10.0799 10.8534 10.0799C10.868 10.0799 10.88 10.0379 10.88 9.98656C10.88 9.92144 10.8921 9.89328 10.92 9.89328C10.9449 9.89328 10.96 9.86808 10.96 9.82656C10.96 9.78992 10.972 9.75992 10.9866 9.75992C11.0014 9.75992 11.0134 9.72992 11.0134 9.69328C11.0134 9.65656 11.0254 9.62656 11.04 9.62656C11.0546 9.62656 11.0666 9.58456 11.0666 9.53328C11.0666 9.46808 11.0787 9.43992 11.1066 9.43992C11.1286 9.43992 11.1466 9.42792 11.1466 9.41328C11.1466 9.39576 11.7422 9.38656 12.88 9.38656H14.6134V10.9999ZM17.4934 9.41328C17.4934 9.42848 17.5734 9.43992 17.68 9.43992C17.8282 9.43992 17.8666 9.44816 17.8666 9.47992C17.8666 9.50952 17.8978 9.51992 17.9866 9.51992C18.0526 9.51992 18.1066 9.53192 18.1066 9.54656C18.1066 9.56128 18.1366 9.57328 18.1734 9.57328C18.21 9.57328 18.24 9.58528 18.24 9.59992C18.24 9.61456 18.2649 9.62656 18.2952 9.62656C18.3256 9.62656 18.3672 9.6416 18.3877 9.65992C18.4826 9.74504 18.5081 9.75992 18.5589 9.75992C18.5888 9.75992 18.6134 9.77192 18.6134 9.78656C18.6134 9.80128 18.6434 9.81328 18.68 9.81328C18.7166 9.81328 18.7466 9.82608 18.7466 9.84184C18.7466 9.87872 18.8145 9.94656 18.8514 9.94656C18.8671 9.94656 18.88 9.95856 18.88 9.97328C18.88 9.98792 18.904 9.99992 18.9334 9.99992C18.9626 9.99992 18.9866 10.0128 18.9866 10.0285C18.9866 10.0596 19.0523 10.1333 19.08 10.1333C19.1077 10.1333 19.1734 10.207 19.1734 10.238C19.1734 10.2538 19.1914 10.2666 19.2134 10.2666C19.2354 10.2666 19.2534 10.2786 19.2534 10.2933C19.2534 10.3079 19.2774 10.3199 19.3066 10.3199C19.336 10.3199 19.36 10.3328 19.36 10.3485C19.36 10.3796 19.4257 10.4533 19.4534 10.4533C19.4756 10.4533 19.5466 10.5243 19.5466 10.5466C19.5466 10.5688 19.6178 10.6399 19.64 10.6399C19.6677 10.6399 19.7334 10.7136 19.7334 10.7447C19.7334 10.7604 19.7458 10.7733 19.7612 10.7733C19.7974 10.7733 19.92 10.8958 19.92 10.9321C19.92 10.9474 19.9326 10.9599 19.9478 10.9599C19.9841 10.9599 20.1066 11.0825 20.1066 11.1187C20.1066 11.1341 20.1192 11.1466 20.1346 11.1466C20.1707 11.1466 20.2934 11.2692 20.2934 11.3054C20.2934 11.3207 20.3058 11.3333 20.3212 11.3333C20.3574 11.3333 20.48 11.4558 20.48 11.4921C20.48 11.5074 20.4926 11.5199 20.5078 11.5199C20.5441 11.5199 20.6666 11.6425 20.6666 11.6787C20.6666 11.6941 20.6792 11.7066 20.6946 11.7066C20.7307 11.7066 20.8534 11.8292 20.8534 11.8654C20.8534 11.8807 20.8658 11.8933 20.8812 11.8933C20.9174 11.8933 21.04 12.0158 21.04 12.0521C21.04 12.0674 21.0526 12.0799 21.0678 12.0799C21.1041 12.0799 21.2266 12.2025 21.2266 12.2387C21.2266 12.2541 21.2395 12.2666 21.2552 12.2666C21.2863 12.2666 21.36 12.3322 21.36 12.3599C21.36 12.3822 21.4311 12.4533 21.4534 12.4533C21.4801 12.4533 21.5466 12.5265 21.5466 12.5558C21.5466 12.5703 21.5617 12.5882 21.58 12.5956C21.5983 12.603 20.3503 12.61 18.8066 12.6111L16 12.6133V10.9999V9.38656H16.7466C17.2266 9.38656 17.4934 9.39608 17.4934 9.41328ZM2.61336 14.9333C2.61336 14.9626 2.60136 14.9866 2.58664 14.9866C2.572 14.9866 2.56 15.0286 2.56 15.0799C2.56 15.1451 2.54792 15.1733 2.52 15.1733C2.49616 15.1733 2.48 15.1978 2.48 15.234C2.48 15.2674 2.456 15.3121 2.42664 15.3333C2.39736 15.3544 2.37336 15.399 2.37336 15.4325C2.37336 15.4659 2.3608 15.4933 2.34544 15.4933C2.30928 15.4933 2.18664 15.6158 2.18664 15.6521C2.18664 15.6674 2.16184 15.6799 2.13144 15.6799C2.0724 15.6799 2 15.7376 2 15.7847C2 15.8004 1.97 15.8133 1.93336 15.8133C1.89664 15.8133 1.86664 15.8253 1.86664 15.8399C1.86664 15.8546 1.82464 15.8666 1.77336 15.8666C1.722 15.8666 1.68 15.8786 1.68 15.8933C1.68 15.9079 1.614 15.9199 1.53336 15.9199C1.40448 15.9199 1.38664 15.9134 1.38664 15.8666C1.38664 15.8373 1.39864 15.8133 1.41336 15.8133C1.428 15.8133 1.44 15.7884 1.44 15.758C1.44 15.7276 1.45504 15.6861 1.47336 15.6656C1.55664 15.5727 1.57336 15.5461 1.57336 15.5058C1.57336 15.457 1.6352 15.3866 1.67808 15.3866C1.69384 15.3866 1.70672 15.3776 1.70672 15.3666C1.70672 15.3395 1.82816 15.1999 1.85168 15.1999C1.88072 15.1999 1.94664 15.1271 1.94664 15.0951C1.94664 15.0794 1.97664 15.0666 2.01336 15.0666C2.05 15.0666 2.08 15.0546 2.08 15.0399C2.08 15.0253 2.104 15.0133 2.13336 15.0133C2.16264 15.0133 2.18664 15.0013 2.18664 14.9866C2.18664 14.9719 2.22904 14.9599 2.2808 14.9599C2.33992 14.9599 2.38072 14.945 2.39032 14.9199C2.41576 14.8538 2.61336 14.8656 2.61336 14.9333ZM16.4266 15.3333C16.4266 15.3479 16.3966 15.3599 16.36 15.3599C16.3234 15.3599 16.2934 15.3719 16.2934 15.3866C16.2934 15.4013 16.2694 15.4133 16.24 15.4133C16.2104 15.4133 16.1866 15.431 16.1866 15.4533C16.1866 15.4753 16.1738 15.4933 16.1581 15.4933C16.111 15.4933 16.0534 15.5657 16.0534 15.6247C16.0534 15.655 16.0414 15.6799 16.0266 15.6799C16.0104 15.6799 16 15.8044 16 15.9999C16 16.1954 16.0104 16.3199 16.0266 16.3199C16.0414 16.3199 16.0534 16.3439 16.0534 16.3733C16.0534 16.4026 16.0654 16.4266 16.08 16.4266C16.0946 16.4266 16.1066 16.4446 16.1066 16.4666C16.1066 16.4886 16.1246 16.5066 16.1466 16.5066C16.1686 16.5066 16.1866 16.5246 16.1866 16.5466C16.1866 16.5688 16.2104 16.5866 16.24 16.5866C16.2694 16.5866 16.2934 16.5986 16.2934 16.6133C16.2934 16.6279 16.3234 16.6399 16.36 16.6399C16.3966 16.6399 16.4266 16.6519 16.4266 16.6666C16.4266 16.6838 16.7511 16.6933 17.3466 16.6933C17.9422 16.6933 18.2666 16.6838 18.2666 16.6666C18.2666 16.6519 18.2915 16.6399 18.3219 16.6399C18.3742 16.6399 18.4534 16.5837 18.4534 16.5466C18.4534 16.5243 18.5244 16.4533 18.5466 16.4533C18.5838 16.4533 18.64 16.3741 18.64 16.3218C18.64 16.2914 18.652 16.2666 18.6666 16.2666C18.6826 16.2666 18.6934 16.1599 18.6934 15.9999C18.6934 15.8399 18.6826 15.7333 18.6666 15.7333C18.652 15.7333 18.64 15.7084 18.64 15.678C18.64 15.6258 18.5838 15.5466 18.5466 15.5466C18.5244 15.5466 18.4534 15.4755 18.4534 15.4533C18.4534 15.4162 18.3742 15.3599 18.3219 15.3599C18.2915 15.3599 18.2666 15.3479 18.2666 15.3333C18.2666 15.316 17.9422 15.3066 17.3466 15.3066C16.7511 15.3066 16.4266 15.316 16.4266 15.3333ZM29.1734 15.4133C29.1734 15.4279 29.1858 15.4399 29.2011 15.4399C29.2302 15.4399 29.2664 15.4666 29.3734 15.5666C29.4087 15.5996 29.4502 15.6266 29.4654 15.6266C29.4808 15.6266 29.4934 15.6394 29.4934 15.6551C29.4934 15.6858 29.5588 15.7599 29.586 15.7599C29.6136 15.7599 29.7334 15.889 29.7334 15.9187C29.7334 15.9341 29.7462 15.9466 29.7619 15.9466C29.793 15.9466 29.8666 16.0122 29.8666 16.0399C29.8666 16.0676 29.9403 16.1333 29.9714 16.1333C29.9871 16.1333 30 16.1573 30 16.1866C30 16.2159 30.012 16.2399 30.0266 16.2399C30.0414 16.2399 30.0534 16.2579 30.0534 16.2799C30.0534 16.3019 30.0654 16.3199 30.08 16.3199C30.0946 16.3199 30.1066 16.3379 30.1066 16.3599C30.1066 16.3819 30.1246 16.3999 30.1466 16.3999C30.1689 16.3999 30.1866 16.4236 30.1866 16.4533C30.1866 16.4826 30.1986 16.5066 30.2134 16.5066C30.228 16.5066 30.24 16.5306 30.24 16.5599C30.24 16.6117 30.2222 16.6133 29.6266 16.6133C29.2355 16.6133 29.0134 16.6036 29.0134 16.5866C29.0134 16.5719 28.9834 16.5599 28.9466 16.5599C28.91 16.5599 28.88 16.5474 28.88 16.5321C28.88 16.4958 28.7574 16.3733 28.7212 16.3733C28.7058 16.3733 28.6934 16.3433 28.6934 16.3066C28.6934 16.2699 28.6814 16.2399 28.6666 16.2399C28.6509 16.2399 28.64 16.1422 28.64 15.9999C28.64 15.8577 28.6509 15.7599 28.6666 15.7599C28.6814 15.7599 28.6934 15.7299 28.6934 15.6933C28.6934 15.6566 28.7058 15.6266 28.7212 15.6266C28.7574 15.6266 28.88 15.504 28.88 15.4678C28.88 15.4525 28.91 15.4399 28.9466 15.4399C28.9834 15.4399 29.0134 15.4279 29.0134 15.4133C29.0134 15.3986 29.0494 15.3866 29.0934 15.3866C29.1374 15.3866 29.1734 15.3986 29.1734 15.4133ZM8.24968 18.7333C8.26072 18.7622 8.306 18.7733 8.41248 18.7733C8.4936 18.7733 8.56 18.7853 8.56 18.7999C8.56 18.8146 8.602 18.8266 8.65336 18.8266C8.70464 18.8266 8.74664 18.8386 8.74664 18.8533C8.74664 18.8679 8.76936 18.8799 8.79712 18.8799C8.82488 18.8799 8.85456 18.8979 8.86296 18.9199C8.87144 18.9419 8.90008 18.9599 8.92664 18.9599C8.9532 18.9599 8.99216 18.9839 9.01336 19.0133C9.03448 19.0426 9.07912 19.0666 9.11256 19.0666C9.146 19.0666 9.17336 19.0794 9.17336 19.0951C9.17336 19.1262 9.23896 19.1999 9.26664 19.1999C9.28888 19.1999 9.36 19.271 9.36 19.2933C9.36 19.3155 9.43112 19.3866 9.45336 19.3866C9.48104 19.3866 9.54664 19.4602 9.54664 19.4914C9.54664 19.507 9.56464 19.5199 9.58664 19.5199C9.60888 19.5199 9.62664 19.5436 9.62664 19.5733C9.62664 19.6026 9.63864 19.6266 9.65336 19.6266C9.668 19.6266 9.68 19.6511 9.68 19.681C9.68 19.7318 9.69488 19.7574 9.78 19.8522C9.79832 19.8727 9.81336 19.9143 9.81336 19.9447C9.81336 19.975 9.82536 19.9999 9.84 19.9999C9.85464 19.9999 9.86664 20.0419 9.86664 20.0933C9.86664 20.1446 9.87864 20.1866 9.89336 20.1866C9.91008 20.1866 9.92 20.3599 9.92 20.6533C9.92 20.9466 9.91008 21.1199 9.89336 21.1199C9.87864 21.1199 9.86664 21.1619 9.86664 21.2133C9.86664 21.2646 9.85464 21.3066 9.84 21.3066C9.82536 21.3066 9.81336 21.3486 9.81336 21.3999C9.81336 21.4651 9.80128 21.4933 9.77336 21.4933C9.75112 21.4933 9.73336 21.517 9.73336 21.5466C9.73336 21.5759 9.72136 21.5999 9.70664 21.5999C9.692 21.5999 9.68 21.6179 9.68 21.6399C9.68 21.6619 9.668 21.6799 9.65336 21.6799C9.63864 21.6799 9.62664 21.7099 9.62664 21.7466C9.62664 21.7833 9.61384 21.8133 9.59816 21.8133C9.58248 21.8133 9.46264 21.9213 9.33192 22.0533C9.18904 22.1974 9.07272 22.2933 9.0404 22.2933C9.0104 22.2933 8.98664 22.311 8.98664 22.3333C8.98664 22.3554 8.96296 22.3733 8.93336 22.3733C8.904 22.3733 8.88 22.3853 8.88 22.3999C8.88 22.4146 8.85 22.4266 8.81336 22.4266C8.77664 22.4266 8.74664 22.4386 8.74664 22.4533C8.74664 22.4679 8.71664 22.4799 8.68 22.4799C8.63848 22.4799 8.61336 22.495 8.61336 22.5199C8.61336 22.5495 8.58224 22.5599 8.49336 22.5599C8.42736 22.5599 8.37336 22.5719 8.37336 22.5866C8.37336 22.6031 8.23112 22.6133 8 22.6133C7.76888 22.6133 7.62664 22.6031 7.62664 22.5866C7.62664 22.5719 7.57264 22.5599 7.50664 22.5599C7.41776 22.5599 7.38664 22.5495 7.38664 22.5199C7.38664 22.495 7.36152 22.4799 7.32 22.4799C7.28336 22.4799 7.25336 22.4679 7.25336 22.4533C7.25336 22.4386 7.22336 22.4266 7.18664 22.4266C7.15 22.4266 7.12 22.4146 7.12 22.3999C7.12 22.3853 7.096 22.3733 7.06664 22.3733C7.03704 22.3733 7.01336 22.3554 7.01336 22.3333C7.01336 22.3107 6.98952 22.2933 6.9588 22.2933C6.902 22.2933 6.77336 22.183 6.77336 22.1345C6.77336 22.1191 6.75536 22.1066 6.73336 22.1066C6.71136 22.1066 6.69336 22.0946 6.69336 22.0799C6.69336 22.0653 6.67536 22.0533 6.65336 22.0533C6.63136 22.0533 6.61336 22.0408 6.61336 22.0255C6.61336 22.0103 6.56672 21.9522 6.50976 21.8963C6.4528 21.8405 6.398 21.769 6.388 21.7374C6.37792 21.7058 6.35856 21.6799 6.34488 21.6799C6.3312 21.6799 6.32 21.6619 6.32 21.6399C6.32 21.6179 6.308 21.5999 6.29336 21.5999C6.27864 21.5999 6.26664 21.5759 6.26664 21.5466C6.26664 21.517 6.24888 21.4933 6.22664 21.4933C6.19872 21.4933 6.18664 21.4651 6.18664 21.3999C6.18664 21.3486 6.17464 21.3066 6.16 21.3066C6.14536 21.3066 6.13336 21.2646 6.13336 21.2133C6.13336 21.1619 6.12136 21.1199 6.10664 21.1199C6.08992 21.1199 6.08 20.9466 6.08 20.6533C6.08 20.3599 6.08992 20.1866 6.10664 20.1866C6.12136 20.1866 6.13336 20.1446 6.13336 20.0933C6.13336 20.0419 6.14536 19.9999 6.16 19.9999C6.17464 19.9999 6.18664 19.9754 6.18664 19.9454C6.18664 19.8946 6.20152 19.8691 6.28664 19.7742C6.30504 19.7538 6.32 19.7122 6.32 19.6818C6.32 19.6505 6.33728 19.6266 6.36 19.6266C6.38224 19.6266 6.4 19.6029 6.4 19.5733C6.4 19.5439 6.412 19.5199 6.42664 19.5199C6.44136 19.5199 6.45336 19.507 6.45336 19.4914C6.45336 19.4602 6.51896 19.3866 6.54664 19.3866C6.56888 19.3866 6.64 19.3155 6.64 19.2933C6.64 19.271 6.71112 19.1999 6.73336 19.1999C6.76104 19.1999 6.82664 19.1262 6.82664 19.0951C6.82664 19.0794 6.854 19.0666 6.88744 19.0666C6.92088 19.0666 6.96552 19.0426 6.98664 19.0133C7.00784 18.9839 7.05248 18.9599 7.08592 18.9599C7.12216 18.9599 7.14664 18.9438 7.14664 18.9199C7.14664 18.8977 7.1704 18.8799 7.2 18.8799C7.22936 18.8799 7.25336 18.8679 7.25336 18.8533C7.25336 18.8386 7.29536 18.8266 7.34664 18.8266C7.398 18.8266 7.44 18.8146 7.44 18.7999C7.44 18.7853 7.5064 18.7733 7.58752 18.7733C7.694 18.7733 7.73928 18.7622 7.75032 18.7333C7.7624 18.7019 7.81632 18.6933 8 18.6933C8.18368 18.6933 8.2376 18.7019 8.24968 18.7333ZM24.2497 18.7333C24.2607 18.7622 24.306 18.7733 24.4125 18.7733C24.4936 18.7733 24.56 18.7853 24.56 18.7999C24.56 18.8146 24.602 18.8266 24.6534 18.8266C24.7046 18.8266 24.7466 18.8386 24.7466 18.8533C24.7466 18.8679 24.7694 18.8799 24.7971 18.8799C24.8249 18.8799 24.8546 18.8979 24.863 18.9199C24.8714 18.9419 24.9001 18.9599 24.9266 18.9599C24.9532 18.9599 24.9922 18.9839 25.0134 19.0133C25.0345 19.0426 25.0791 19.0666 25.1126 19.0666C25.146 19.0666 25.1734 19.0794 25.1734 19.0951C25.1734 19.1262 25.239 19.1999 25.2666 19.1999C25.2889 19.1999 25.36 19.271 25.36 19.2933C25.36 19.3155 25.4311 19.3866 25.4534 19.3866C25.481 19.3866 25.5466 19.4602 25.5466 19.4914C25.5466 19.507 25.5586 19.5199 25.5734 19.5199C25.588 19.5199 25.6 19.5439 25.6 19.5733C25.6 19.6029 25.6178 19.6266 25.64 19.6266C25.6625 19.6266 25.68 19.6504 25.68 19.681C25.68 19.7318 25.6949 19.7574 25.78 19.8522C25.7983 19.8727 25.8134 19.9143 25.8134 19.9447C25.8134 19.975 25.8254 19.9999 25.84 19.9999C25.8546 19.9999 25.8666 20.0419 25.8666 20.0933C25.8666 20.1446 25.8786 20.1866 25.8934 20.1866C25.9101 20.1866 25.92 20.3599 25.92 20.6533C25.92 20.9466 25.9101 21.1199 25.8934 21.1199C25.8786 21.1199 25.8666 21.1619 25.8666 21.2133C25.8666 21.2646 25.8546 21.3066 25.84 21.3066C25.8254 21.3066 25.8134 21.3486 25.8134 21.3999C25.8134 21.4651 25.8013 21.4933 25.7734 21.4933C25.7511 21.4933 25.7334 21.517 25.7334 21.5466C25.7334 21.5759 25.7214 21.5999 25.7066 21.5999C25.692 21.5999 25.68 21.6166 25.68 21.637C25.68 21.6575 25.662 21.6811 25.64 21.6896C25.618 21.698 25.6 21.7231 25.6 21.7454C25.6 21.8064 25.102 22.2933 25.0397 22.2933C25.0103 22.2933 24.9866 22.3111 24.9866 22.3333C24.9866 22.3554 24.963 22.3733 24.9334 22.3733C24.904 22.3733 24.88 22.3853 24.88 22.3999C24.88 22.4146 24.85 22.4266 24.8134 22.4266C24.7766 22.4266 24.7466 22.4386 24.7466 22.4533C24.7466 22.4679 24.7166 22.4799 24.68 22.4799C24.6385 22.4799 24.6134 22.495 24.6134 22.5199C24.6134 22.5495 24.5822 22.5599 24.4934 22.5599C24.4274 22.5599 24.3734 22.5719 24.3734 22.5866C24.3734 22.6031 24.2311 22.6133 24 22.6133C23.7689 22.6133 23.6266 22.6031 23.6266 22.5866C23.6266 22.5719 23.5726 22.5599 23.5066 22.5599C23.4178 22.5599 23.3866 22.5495 23.3866 22.5199C23.3866 22.495 23.3615 22.4799 23.32 22.4799C23.2834 22.4799 23.2534 22.4679 23.2534 22.4533C23.2534 22.4386 23.2234 22.4266 23.1866 22.4266C23.15 22.4266 23.12 22.4146 23.12 22.3999C23.12 22.3853 23.096 22.3733 23.0666 22.3733C23.037 22.3733 23.0134 22.3554 23.0134 22.3333C23.0134 22.3107 22.9895 22.2933 22.9588 22.2933C22.902 22.2933 22.7734 22.183 22.7734 22.1345C22.7734 22.1191 22.7554 22.1066 22.7334 22.1066C22.7114 22.1066 22.6934 22.0946 22.6934 22.0799C22.6934 22.0653 22.6754 22.0533 22.6534 22.0533C22.6314 22.0533 22.6134 22.0414 22.6134 22.027C22.6134 21.991 22.4378 21.8133 22.4022 21.8133C22.3863 21.8133 22.3734 21.7833 22.3734 21.7466C22.3734 21.7099 22.3614 21.6799 22.3466 21.6799C22.332 21.6799 22.32 21.6619 22.32 21.6399C22.32 21.6179 22.308 21.5999 22.2934 21.5999C22.2786 21.5999 22.2666 21.5759 22.2666 21.5466C22.2666 21.517 22.2489 21.4933 22.2266 21.4933C22.1987 21.4933 22.1866 21.4651 22.1866 21.3999C22.1866 21.3486 22.1746 21.3066 22.16 21.3066C22.1454 21.3066 22.1334 21.2646 22.1334 21.2133C22.1334 21.1619 22.1214 21.1199 22.1066 21.1199C22.0899 21.1199 22.08 20.9466 22.08 20.6533C22.08 20.3599 22.0899 20.1866 22.1066 20.1866C22.1214 20.1866 22.1334 20.1446 22.1334 20.0933C22.1334 20.0419 22.1454 19.9999 22.16 19.9999C22.1746 19.9999 22.1866 19.9754 22.1866 19.9454C22.1866 19.8946 22.2015 19.8691 22.2866 19.7742C22.305 19.7538 22.32 19.7122 22.32 19.6818C22.32 19.6514 22.332 19.6266 22.3466 19.6266C22.3614 19.6266 22.3734 19.6026 22.3734 19.5733C22.3734 19.5436 22.3911 19.5199 22.4134 19.5199C22.4354 19.5199 22.4534 19.507 22.4534 19.4914C22.4534 19.4602 22.519 19.3866 22.5466 19.3866C22.5689 19.3866 22.64 19.3155 22.64 19.2933C22.64 19.271 22.7111 19.1999 22.7334 19.1999C22.761 19.1999 22.8266 19.1262 22.8266 19.0951C22.8266 19.0794 22.854 19.0666 22.8874 19.0666C22.9209 19.0666 22.9655 19.0426 22.9866 19.0133C23.0078 18.9839 23.0525 18.9599 23.0859 18.9599C23.1222 18.9599 23.1466 18.9438 23.1466 18.9199C23.1466 18.8977 23.1704 18.8799 23.2 18.8799C23.2294 18.8799 23.2534 18.8679 23.2534 18.8533C23.2534 18.8386 23.2954 18.8266 23.3466 18.8266C23.398 18.8266 23.44 18.8146 23.44 18.7999C23.44 18.7853 23.5064 18.7733 23.5875 18.7733C23.694 18.7733 23.7393 18.7622 23.7503 18.7333C23.7624 18.7019 23.8163 18.6933 24 18.6933C24.1837 18.6933 24.2376 18.7019 24.2497 18.7333ZM7.92 19.9599C7.92 19.9895 7.88888 19.9999 7.8 19.9999C7.734 19.9999 7.68 20.0119 7.68 20.0266C7.68 20.0413 7.65512 20.0533 7.6248 20.0533C7.56576 20.0533 7.49336 20.111 7.49336 20.158C7.49336 20.1738 7.47536 20.1866 7.45336 20.1866C7.43112 20.1866 7.41336 20.2103 7.41336 20.2399C7.41336 20.2693 7.40136 20.2933 7.38664 20.2933C7.372 20.2933 7.36 20.3233 7.36 20.3599C7.36 20.3966 7.348 20.4266 7.33336 20.4266C7.31744 20.4266 7.30664 20.5288 7.30664 20.6799C7.30664 20.831 7.31744 20.9333 7.33336 20.9333C7.348 20.9333 7.36 20.9633 7.36 20.9999C7.36 21.0366 7.372 21.0666 7.38664 21.0666C7.40136 21.0666 7.41336 21.0846 7.41336 21.1066C7.41336 21.1286 7.42872 21.1466 7.44744 21.1466C7.46624 21.1466 7.49888 21.1706 7.52 21.1999C7.54112 21.2293 7.58576 21.2533 7.6192 21.2533C7.65544 21.2533 7.68 21.2694 7.68 21.2933C7.68 21.3182 7.7052 21.3333 7.74664 21.3333C7.78336 21.3333 7.81336 21.3453 7.81336 21.3599C7.81336 21.3751 7.89336 21.3866 8 21.3866C8.10664 21.3866 8.18664 21.3751 8.18664 21.3599C8.18664 21.3453 8.21664 21.3333 8.25336 21.3333C8.2948 21.3333 8.32 21.3182 8.32 21.2933C8.32 21.2708 8.34384 21.2533 8.3744 21.2533C8.44568 21.2533 8.64 21.0597 8.64 20.9886C8.64 20.9582 8.652 20.9333 8.66664 20.9333C8.68256 20.9333 8.69336 20.831 8.69336 20.6799C8.69336 20.5288 8.68256 20.4266 8.66664 20.4266C8.652 20.4266 8.64 20.3966 8.64 20.3599C8.64 20.3233 8.628 20.2933 8.61336 20.2933C8.59864 20.2933 8.58664 20.2693 8.58664 20.2399C8.58664 20.2103 8.56888 20.1866 8.54664 20.1866C8.52464 20.1866 8.50664 20.1738 8.50664 20.158C8.50664 20.111 8.43424 20.0533 8.3752 20.0533C8.34488 20.0533 8.32 20.0413 8.32 20.0266C8.32 20.0119 8.266 19.9999 8.2 19.9999C8.11112 19.9999 8.08 19.9895 8.08 19.9599C8.08 19.9333 8.05336 19.9199 8 19.9199C7.94664 19.9199 7.92 19.9333 7.92 19.9599ZM23.92 19.9599C23.92 19.9895 23.8889 19.9999 23.8 19.9999C23.734 19.9999 23.68 20.0119 23.68 20.0266C23.68 20.0413 23.6551 20.0533 23.6248 20.0533C23.5658 20.0533 23.4934 20.111 23.4934 20.158C23.4934 20.1738 23.4773 20.1866 23.4576 20.1866C23.417 20.1866 23.36 20.2964 23.36 20.3745C23.36 20.4031 23.348 20.4266 23.3334 20.4266C23.3174 20.4266 23.3066 20.5283 23.3066 20.6783C23.3066 20.8174 23.3186 20.9375 23.3334 20.9466C23.348 20.9557 23.36 20.9863 23.36 21.0148C23.36 21.0433 23.372 21.0666 23.3866 21.0666C23.4014 21.0666 23.4134 21.0846 23.4134 21.1066C23.4134 21.1286 23.4287 21.1466 23.4474 21.1466C23.4662 21.1466 23.4989 21.1706 23.52 21.1999C23.5411 21.2293 23.5858 21.2533 23.6192 21.2533C23.6554 21.2533 23.68 21.2694 23.68 21.2933C23.68 21.3182 23.7052 21.3333 23.7466 21.3333C23.7834 21.3333 23.8134 21.3453 23.8134 21.3599C23.8134 21.3751 23.8934 21.3866 24 21.3866C24.1066 21.3866 24.1866 21.3751 24.1866 21.3599C24.1866 21.3453 24.2166 21.3333 24.2534 21.3333C24.2948 21.3333 24.32 21.3182 24.32 21.2933C24.32 21.2708 24.3438 21.2533 24.3744 21.2533C24.4457 21.2533 24.64 21.0597 24.64 20.9886C24.64 20.9582 24.652 20.9333 24.6666 20.9333C24.6826 20.9333 24.6934 20.831 24.6934 20.6799C24.6934 20.5288 24.6826 20.4266 24.6666 20.4266C24.652 20.4266 24.64 20.4031 24.64 20.3745C24.64 20.2964 24.583 20.1866 24.5424 20.1866C24.5227 20.1866 24.5066 20.1738 24.5066 20.158C24.5066 20.111 24.4342 20.0533 24.3752 20.0533C24.3449 20.0533 24.32 20.0413 24.32 20.0266C24.32 20.0119 24.266 19.9999 24.2 19.9999C24.1111 19.9999 24.08 19.9895 24.08 19.9599C24.08 19.9333 24.0534 19.9199 24 19.9199C23.9466 19.9199 23.92 19.9333 23.92 19.9599Z" fill="#0C0C0C"/>
</svg>
