<svg width="22" height="22" viewBox="0 0 22 22" fill="none" xmlns="http://www.w3.org/2000/svg">
<path d="M16.5642 7.80059L8.7175 3.87726C3.44666 1.23726 1.28333 3.40059 3.92333 8.67142L4.72083 10.2664C4.95 10.7339 4.95 11.2748 4.72083 11.7423L3.92333 13.3281C1.28333 18.5989 3.4375 20.7623 8.7175 18.1223L16.5642 14.1989C20.0842 12.4389 20.0842 9.56059 16.5642 7.80059ZM13.6033 11.6873H8.65333C8.2775 11.6873 7.96583 11.3756 7.96583 10.9998C7.96583 10.6239 8.2775 10.3123 8.65333 10.3123H13.6033C13.9792 10.3123 14.2908 10.6239 14.2908 10.9998C14.2908 11.3756 13.9792 11.6873 13.6033 11.6873Z" fill="#073D51"/>
</svg>
