<svg width="30" height="30" viewBox="0 0 30 30" fill="none" xmlns="http://www.w3.org/2000/svg">
<path d="M11.25 27.5H18.75C25 27.5 27.5 25 27.5 18.75V11.25C27.5 5 25 2.5 18.75 2.5H11.25C5 2.5 2.5 5 2.5 11.25V18.75C2.5 25 5 27.5 11.25 27.5Z" stroke="#073D51" stroke-width="1.5" stroke-linecap="round" stroke-linejoin="round"/>
<path d="M16.9415 17.986C17.0575 17.986 17.1495 18.02 17.2175 18.088C17.2855 18.156 17.3195 18.244 17.3195 18.352V19H11.5835V18.634C11.5835 18.558 11.5995 18.48 11.6315 18.4C11.6635 18.32 11.7135 18.246 11.7815 18.178L14.5355 15.412C14.7635 15.18 14.9715 14.958 15.1595 14.746C15.3475 14.53 15.5075 14.314 15.6395 14.098C15.7715 13.882 15.8735 13.664 15.9455 13.444C16.0175 13.22 16.0535 12.982 16.0535 12.73C16.0535 12.478 16.0135 12.258 15.9335 12.07C15.8535 11.878 15.7435 11.72 15.6035 11.596C15.4675 11.472 15.3055 11.38 15.1175 11.32C14.9295 11.256 14.7275 11.224 14.5115 11.224C14.2915 11.224 14.0895 11.256 13.9055 11.32C13.7215 11.384 13.5575 11.474 13.4135 11.59C13.2735 11.702 13.1555 11.836 13.0595 11.992C12.9635 12.148 12.8955 12.32 12.8555 12.508C12.8075 12.648 12.7415 12.742 12.6575 12.79C12.5775 12.834 12.4635 12.846 12.3155 12.826L11.7575 12.73C11.8135 12.338 11.9215 11.992 12.0815 11.692C12.2455 11.388 12.4495 11.134 12.6935 10.93C12.9415 10.726 13.2235 10.572 13.5395 10.468C13.8555 10.36 14.1975 10.306 14.5655 10.306C14.9295 10.306 15.2695 10.36 15.5855 10.468C15.9015 10.576 16.1755 10.734 16.4075 10.942C16.6395 11.146 16.8215 11.396 16.9535 11.692C17.0855 11.988 17.1515 12.324 17.1515 12.7C17.1515 13.02 17.1035 13.318 17.0075 13.594C16.9115 13.866 16.7815 14.126 16.6175 14.374C16.4535 14.622 16.2635 14.864 16.0475 15.1C15.8355 15.336 15.6095 15.574 15.3695 15.814L13.1015 18.13C13.2615 18.086 13.4235 18.052 13.5875 18.028C13.7515 18 13.9095 17.986 14.0615 17.986H16.9415Z" fill="#073D51"/>
</svg>
