<svg width="30" height="30" viewBox="0 0 30 30" fill="none" xmlns="http://www.w3.org/2000/svg">
<path d="M11.25 27.5H18.75C25 27.5 27.5 25 27.5 18.75V11.25C27.5 5 25 2.5 18.75 2.5H11.25C5 2.5 2.5 5 2.5 11.25V18.75C2.5 25 5 27.5 11.25 27.5Z" stroke="#073D51" stroke-width="1.5" stroke-linecap="round" stroke-linejoin="round"/>
<path d="M11.7995 12.73C11.8555 12.338 11.9635 11.992 12.1235 11.692C12.2835 11.388 12.4855 11.134 12.7295 10.93C12.9775 10.726 13.2595 10.572 13.5755 10.468C13.8955 10.36 14.2395 10.306 14.6075 10.306C14.9715 10.306 15.3075 10.358 15.6155 10.462C15.9235 10.566 16.1875 10.714 16.4075 10.906C16.6315 11.098 16.8055 11.33 16.9295 11.602C17.0535 11.874 17.1155 12.176 17.1155 12.508C17.1155 12.78 17.0795 13.024 17.0075 13.24C16.9395 13.452 16.8395 13.638 16.7075 13.798C16.5795 13.958 16.4235 14.094 16.2395 14.206C16.0555 14.318 15.8495 14.41 15.6215 14.482C16.1815 14.626 16.6015 14.874 16.8815 15.226C17.1655 15.574 17.3075 16.01 17.3075 16.534C17.3075 16.93 17.2315 17.286 17.0795 17.602C16.9315 17.918 16.7275 18.188 16.4675 18.412C16.2075 18.632 15.9035 18.802 15.5555 18.922C15.2115 19.038 14.8415 19.096 14.4455 19.096C13.9895 19.096 13.5995 19.04 13.2755 18.928C12.9515 18.812 12.6775 18.654 12.4535 18.454C12.2295 18.254 12.0455 18.018 11.9015 17.746C11.7575 17.47 11.6355 17.172 11.5355 16.852L11.9975 16.66C12.1175 16.608 12.2335 16.594 12.3455 16.618C12.4615 16.642 12.5455 16.708 12.5975 16.816C12.6495 16.928 12.7135 17.062 12.7895 17.218C12.8695 17.374 12.9775 17.524 13.1135 17.668C13.2495 17.812 13.4215 17.934 13.6295 18.034C13.8415 18.134 14.1095 18.184 14.4335 18.184C14.7335 18.184 14.9955 18.136 15.2195 18.04C15.4475 17.94 15.6355 17.812 15.7835 17.656C15.9355 17.5 16.0495 17.326 16.1255 17.134C16.2015 16.942 16.2395 16.752 16.2395 16.564C16.2395 16.332 16.2095 16.12 16.1495 15.928C16.0895 15.736 15.9775 15.57 15.8135 15.43C15.6495 15.29 15.4235 15.18 15.1355 15.1C14.8515 15.02 14.4855 14.98 14.0375 14.98V14.206C14.4055 14.202 14.7175 14.162 14.9735 14.086C15.2335 14.01 15.4435 13.906 15.6035 13.774C15.7675 13.642 15.8855 13.484 15.9575 13.3C16.0335 13.116 16.0715 12.912 16.0715 12.688C16.0715 12.44 16.0315 12.224 15.9515 12.04C15.8755 11.856 15.7695 11.704 15.6335 11.584C15.4975 11.464 15.3355 11.374 15.1475 11.314C14.9635 11.254 14.7635 11.224 14.5475 11.224C14.3315 11.224 14.1295 11.256 13.9415 11.32C13.7575 11.384 13.5935 11.474 13.4495 11.59C13.3095 11.702 13.1915 11.836 13.0955 11.992C12.9995 12.148 12.9315 12.32 12.8915 12.508C12.8395 12.648 12.7735 12.742 12.6935 12.79C12.6175 12.834 12.5055 12.846 12.3575 12.826L11.7995 12.73Z" fill="#073D51"/>
</svg>
