<svg width="16" height="16" viewBox="0 0 16 16" fill="none" xmlns="http://www.w3.org/2000/svg">
<path d="M10.26 3.47287L11.2 5.35287C11.3267 5.61287 11.6667 5.85953 11.9533 5.91287L13.6533 6.19287C14.74 6.37287 14.9933 7.15953 14.2133 7.9462L12.8867 9.27287C12.6667 9.49287 12.54 9.9262 12.6133 10.2395L12.9933 11.8795C13.2933 13.1729 12.6 13.6795 11.46 12.9995L9.86667 12.0529C9.58 11.8795 9.1 11.8795 8.81334 12.0529L7.22 12.9995C6.08 13.6729 5.38667 13.1729 5.68667 11.8795L6.06667 10.2395C6.12667 9.91953 6 9.4862 5.78 9.2662L4.45334 7.93953C3.67334 7.15953 3.92667 6.37287 5.01334 6.1862L6.71334 5.9062C7 5.85953 7.34 5.6062 7.46667 5.3462L8.40667 3.4662C8.92 2.45287 9.74667 2.45287 10.26 3.47287Z" fill="#073D51"/>
</svg>
