<svg width="32" height="32" viewBox="0 0 32 32" fill="none" xmlns="http://www.w3.org/2000/svg">
<path d="M0 14.9709V14.1389C0.0750933 13.6645 0.225707 13.2203 0.45184 12.8064C0.890453 12.0043 1.32267 11.206 1.74848 10.4116C1.75868 10.3927 1.76447 10.3717 1.76542 10.3503C1.76637 10.3289 1.76244 10.3075 1.75394 10.2878C1.74544 10.2681 1.73259 10.2505 1.71635 10.2365C1.7001 10.2225 1.68089 10.2123 1.66016 10.2068C0.36352 9.86372 0.05632 8.57092 0.34432 7.41124C0.35456 7.36943 0.3776 7.337 0.41344 7.31396C0.80384 7.05796 2.98496 7.19877 3.56608 7.19877C4.16 7.20004 4.35584 6.90308 4.82816 6.66884C5.62005 6.27546 6.464 6.07877 7.36 6.07877C11.1761 6.07706 14.9922 6.07876 18.8083 6.08388C19.6326 6.08388 20.1754 6.61636 20.6835 7.31652C21.722 8.74586 22.7614 10.1807 23.8016 11.6212C23.8288 11.659 23.8695 11.6851 23.9155 11.6941C25.0121 11.9066 26.103 12.146 27.1885 12.4122C27.9808 12.6068 27.625 13.472 27.0029 13.3376C25.8065 13.0799 24.6298 12.8205 23.4726 12.5594C23.3586 12.533 23.2583 12.4672 23.1898 12.3738C22.0045 10.7439 20.8115 9.09572 19.6109 7.42916C19.4304 7.17828 19.0528 7.04132 18.7187 7.04132C15.1782 7.04047 11.6378 7.03962 8.09728 7.03877C7.08523 7.03877 6.36587 7.10362 5.9392 7.23332C4.55424 7.65188 3.89376 8.47364 3.14624 9.80996C2.16491 11.5653 1.49077 12.8201 1.12384 13.5744C0.87552 14.089 1.02144 14.7021 0.75264 15.2781C0.733867 15.3174 0.703147 15.3408 0.66048 15.3485C0.31488 15.41 0.09472 15.2841 0 14.9709ZM2.8416 8.11396L1.19552 8.13956C1.19138 8.13956 1.18727 8.1404 1.18346 8.14202C1.17965 8.14364 1.1762 8.14602 1.17333 8.14901C1.17046 8.152 1.16823 8.15554 1.16676 8.15942C1.16529 8.16329 1.16463 8.16742 1.1648 8.17156L1.16608 8.19717C1.17084 8.49152 1.26424 8.77237 1.42575 8.97804C1.58727 9.18371 1.8037 9.2974 2.02752 9.29413H2.04544C2.26936 9.29048 2.48224 9.17005 2.63729 8.95931C2.79234 8.74858 2.87688 8.46478 2.87232 8.17029V8.14469C2.87232 8.14065 2.87153 8.13666 2.86998 8.13293C2.86844 8.1292 2.86617 8.12581 2.86332 8.12296C2.86047 8.12011 2.85708 8.11785 2.85336 8.1163C2.84963 8.11476 2.84563 8.11396 2.8416 8.11396Z" fill="#0C0C0C"/>
<path d="M13.6819 8.01925C13.8227 8.11141 13.8944 8.24666 13.897 8.42501C13.9174 9.65466 13.9251 10.8664 13.92 12.0602C13.9193 12.1954 13.8653 12.325 13.7697 12.4206C13.674 12.5162 13.5445 12.5703 13.4093 12.5709C11.4022 12.5803 9.38624 12.5837 7.36128 12.5812C6.24256 12.5799 5.85984 11.6698 6.36928 10.7533C6.71488 10.1321 7.06048 9.5113 7.40608 8.89092C7.77728 8.2266 8.09728 7.88613 8.8512 7.93733C10.3885 8.04101 11.9795 7.96805 13.5104 7.96805C13.5714 7.96807 13.631 7.98586 13.6819 8.01925ZM7.20256 11.6173L12.896 11.6199C12.9204 11.6199 12.9439 11.6126 12.9612 11.5996C12.9784 11.5867 12.9882 11.5691 12.9882 11.5508L12.9843 8.97029C12.9843 8.91141 12.9549 8.88239 12.896 8.88325C11.5742 8.90202 10.2524 8.90543 8.93056 8.89349C8.66688 8.89093 8.50176 8.86532 8.35968 9.1226C7.96373 9.83855 7.53579 10.5967 7.07584 11.3972C7.063 11.4196 7.05625 11.445 7.05625 11.4709C7.05626 11.4967 7.06303 11.5221 7.07588 11.5444C7.08873 11.5668 7.1072 11.5852 7.12944 11.598C7.15168 11.6108 7.1769 11.6175 7.20256 11.6173Z" fill="#0C0C0C"/>
<path d="M18.4768 7.97445C18.6739 7.98085 18.9747 8.17413 19.0925 8.33029C19.9228 9.43706 20.5449 10.2981 20.9587 10.9133C21.3248 11.456 21.1098 12.1805 20.544 12.4455C20.3648 12.5291 20.0546 12.5714 19.6134 12.5722C18.0595 12.576 16.4301 12.6644 14.8851 12.5236C14.8452 12.5194 14.808 12.5028 14.7789 12.4762C14.6594 12.367 14.5988 12.2484 14.5971 12.1204C14.5877 10.9078 14.5873 9.69477 14.5958 8.48133C14.5984 8.07685 14.8224 7.98597 15.1923 7.97573C16.2889 7.94501 17.3837 7.94458 18.4768 7.97445ZM18.304 8.91396C18.2511 8.87386 18.1871 8.85594 18.112 8.86021C17.3099 8.90799 16.5001 8.91226 15.6826 8.87301C15.6657 8.87232 15.6488 8.87502 15.633 8.88095C15.6172 8.88688 15.6027 8.89591 15.5905 8.90751C15.5783 8.91911 15.5686 8.93303 15.562 8.94844C15.5554 8.96385 15.552 8.98042 15.552 8.99717V11.5405C15.552 11.5968 15.5802 11.625 15.6365 11.625L20.0883 11.6135C20.1099 11.6136 20.1313 11.608 20.1502 11.5974C20.169 11.5868 20.1846 11.5716 20.1952 11.5535C20.2058 11.5353 20.211 11.515 20.2102 11.4946C20.2094 11.4742 20.2027 11.4547 20.1907 11.4381L18.5382 9.1418C18.487 9.07013 18.409 8.99418 18.304 8.91396Z" fill="#0C0C0C"/>
<path d="M32 15.0196V19.6199C31.8067 21.472 30.4448 22.2733 28.7155 22.3552C28.6114 22.3604 28.5478 22.4137 28.5248 22.5152C27.6736 26.3501 22.7302 27.1629 20.8051 23.7594C20.6451 23.4765 20.5222 23.0861 20.3699 22.7456C20.3529 22.7072 20.3234 22.688 20.2816 22.688H10.6304C10.5886 22.688 10.5613 22.7077 10.5485 22.7469C10.3206 23.4637 9.99936 24.1856 9.41952 24.7322C6.96064 27.049 3.18848 25.7728 2.41536 22.5524C2.40429 22.5071 2.37909 22.4666 2.34341 22.4367C2.30773 22.4068 2.26343 22.389 2.21696 22.386C0.896853 22.3066 0.157867 21.6163 0 20.3149V16.8551C0.00426667 16.4805 0.206507 16.3269 0.60672 16.3943C1.088 16.4749 0.93184 17.641 0.97024 18.0199C0.973372 18.0505 0.987614 18.0788 1.01026 18.0996C1.03291 18.1203 1.0624 18.1321 1.09312 18.1325C2.14357 18.1436 3.11893 18.1368 4.0192 18.112C4.69376 18.0928 5.12768 17.7344 5.76128 17.6512C7.62581 17.4063 9.06752 18.0664 10.0864 19.6314C10.1103 19.6681 10.144 19.6886 10.1875 19.6928C10.4956 19.7236 10.8011 19.7394 11.104 19.7402C14.2835 19.7428 17.466 19.7445 20.6515 19.7453C20.6904 19.7453 20.7288 19.7357 20.7632 19.7171C20.7976 19.6986 20.8269 19.6718 20.8486 19.6391C21.9247 18.0058 23.4257 17.3551 25.3517 17.6871C25.8163 17.7677 26.3104 18.1338 26.775 18.1248C28.1566 18.0975 29.5407 18.1035 30.9274 18.1428C30.9467 18.1433 30.966 18.1394 30.9837 18.1316C31.0014 18.1237 31.0171 18.112 31.0298 18.0973C31.0424 18.0826 31.0516 18.0652 31.0567 18.0465C31.0618 18.0278 31.0626 18.0082 31.0592 17.9892L31.0323 17.8356C31.0283 17.8118 31.0157 17.7903 30.9969 17.775C30.9781 17.7597 30.9543 17.7517 30.9299 17.7524C30.3373 17.7754 29.2672 17.8586 28.7987 17.5514C28.3008 17.2237 28.3341 16.7732 28.3226 16.2215C28.288 14.674 29.9674 15.008 30.9261 15.008C30.9455 15.0081 30.9647 15.0035 30.9819 14.9944C30.9991 14.9854 31.0139 14.9723 31.0248 14.9563C31.0358 14.9402 31.0427 14.9218 31.0449 14.9024C31.0471 14.8831 31.0445 14.8636 31.0374 14.8455C30.6714 13.92 29.6691 13.8752 28.8294 13.6999C28.4544 13.6218 28.4851 13.0228 28.8013 12.8628C29.1059 12.7092 29.9546 13.0061 30.2912 13.088C31.2845 13.3338 31.8541 13.9776 32 15.0196ZM31.0703 16.1252C31.0703 16.1003 31.0653 16.0757 31.0557 16.0527C31.0462 16.0297 31.0322 16.0089 31.0146 15.9913C30.997 15.9738 30.976 15.9598 30.953 15.9504C30.93 15.9409 30.9054 15.936 30.8805 15.9361L29.4367 15.9386C29.4118 15.9386 29.3872 15.9436 29.3642 15.9531C29.3412 15.9627 29.3204 15.9767 29.3028 15.9943C29.2853 16.0119 29.2714 16.0328 29.2619 16.0558C29.2524 16.0788 29.2475 16.1035 29.2476 16.1284L29.2484 16.6148C29.2485 16.6396 29.2534 16.6643 29.263 16.6872C29.2725 16.7102 29.2865 16.731 29.3041 16.7486C29.3218 16.7662 29.3427 16.7801 29.3657 16.7896C29.3887 16.799 29.4133 16.8039 29.4382 16.8039L30.882 16.8013C30.9069 16.8013 30.9315 16.7964 30.9545 16.7868C30.9775 16.7772 30.9983 16.7633 31.0159 16.7456C31.0335 16.728 31.0474 16.7071 31.0569 16.6841C31.0663 16.6611 31.0712 16.6365 31.0711 16.6116L31.0703 16.1252ZM9.71904 21.7524C9.71904 20.8996 9.38028 20.0818 8.77728 19.4788C8.17429 18.8758 7.35645 18.537 6.50368 18.537C5.65091 18.537 4.83307 18.8758 4.23008 19.4788C3.62708 20.0818 3.28832 20.8996 3.28832 21.7524C3.28832 22.6051 3.62708 23.423 4.23008 24.026C4.83307 24.629 5.65091 24.9677 6.50368 24.9677C7.35645 24.9677 8.17429 24.629 8.77728 24.026C9.38028 23.423 9.71904 22.6051 9.71904 21.7524ZM27.657 21.7524C27.657 20.8996 27.3182 20.0818 26.7152 19.4788C26.1122 18.8758 25.2944 18.537 24.4416 18.537C23.5888 18.537 22.771 18.8758 22.168 19.4788C21.565 20.0818 21.2262 20.8996 21.2262 21.7524C21.2262 22.6051 21.565 23.423 22.168 24.026C22.771 24.629 23.5888 24.9677 24.4416 24.9677C25.2944 24.9677 26.1122 24.629 26.7152 24.026C27.3182 23.423 27.657 22.6051 27.657 21.7524ZM2.34752 21.3696C2.44565 20.5675 2.73579 19.8422 3.21792 19.1936C3.22843 19.1797 3.23475 19.163 3.23615 19.1456C3.23755 19.1282 3.23399 19.1107 3.22586 19.0951C3.21773 19.0795 3.20536 19.0664 3.19015 19.0574C3.17495 19.0483 3.15752 19.0437 3.13984 19.0439L1.01632 19.0823C0.971947 19.0831 0.947627 19.1058 0.94336 19.1501C0.84352 20.1498 0.86656 21.472 2.27712 21.4336C2.31893 21.4328 2.3424 21.4115 2.34752 21.3696ZM30.9312 19.0336L27.7466 19.0656C27.7333 19.0659 27.7203 19.0698 27.7091 19.077C27.6979 19.0842 27.689 19.0944 27.6834 19.1063C27.6778 19.1182 27.6757 19.1314 27.6773 19.1444C27.679 19.1574 27.6844 19.1696 27.6928 19.1796C28.1929 19.7863 28.4796 20.4835 28.553 21.2711C28.5545 21.2891 28.5597 21.3066 28.5682 21.3227C28.5767 21.3387 28.5883 21.3529 28.6023 21.3644C28.6163 21.376 28.6326 21.3846 28.65 21.3899C28.6675 21.3952 28.6858 21.397 28.704 21.3952C30.0915 21.2429 31.1334 20.832 31.0746 19.1706C31.0732 19.1334 31.0574 19.0982 31.0306 19.0725C31.0038 19.0469 30.9681 19.033 30.9312 19.0336ZM20.3315 20.7053C20.3315 20.6962 20.3279 20.6874 20.3214 20.6809C20.3149 20.6744 20.3061 20.6708 20.297 20.6708H10.656C10.6468 20.6708 10.638 20.6744 10.6316 20.6809C10.6251 20.6874 10.6214 20.6962 10.6214 20.7053V21.7165C10.6214 21.7257 10.6251 21.7345 10.6316 21.741C10.638 21.7474 10.6468 21.7511 10.656 21.7511H20.297C20.3061 21.7511 20.3149 21.7474 20.3214 21.741C20.3279 21.7345 20.3315 21.7257 20.3315 21.7165V20.7053Z" fill="#0C0C0C"/>
<path d="M9.44896 13.1879H7.7824C7.53144 13.1879 7.328 13.3913 7.328 13.6423V13.6807C7.328 13.9316 7.53144 14.1351 7.7824 14.1351H9.44896C9.69992 14.1351 9.90336 13.9316 9.90336 13.6807V13.6423C9.90336 13.3913 9.69992 13.1879 9.44896 13.1879Z" fill="#0C0C0C"/>
<path d="M16.7334 13.184H15.0822C14.8306 13.184 14.6266 13.3881 14.6266 13.6397V13.6832C14.6266 13.9349 14.8306 14.1389 15.0822 14.1389H16.7334C16.9851 14.1389 17.1891 13.9349 17.1891 13.6832V13.6397C17.1891 13.3881 16.9851 13.184 16.7334 13.184Z" fill="#0C0C0C"/>
<path d="M8.70528 21.7498C8.70528 22.3334 8.47346 22.893 8.06082 23.3057C7.64818 23.7183 7.08852 23.9501 6.50496 23.9501C5.9214 23.9501 5.36174 23.7183 4.9491 23.3057C4.53646 22.893 4.30464 22.3334 4.30464 21.7498C4.30464 21.1662 4.53646 20.6066 4.9491 20.1939C5.36174 19.7813 5.9214 19.5495 6.50496 19.5495C7.08852 19.5495 7.64818 19.7813 8.06082 20.1939C8.47346 20.6066 8.70528 21.1662 8.70528 21.7498ZM7.7696 21.7536C7.7696 21.4179 7.63623 21.0959 7.39882 20.8585C7.16141 20.6211 6.83942 20.4877 6.50368 20.4877C6.16794 20.4877 5.84595 20.6211 5.60854 20.8585C5.37113 21.0959 5.23776 21.4179 5.23776 21.7536C5.23776 22.0894 5.37113 22.4114 5.60854 22.6488C5.84595 22.8862 6.16794 23.0196 6.50368 23.0196C6.83942 23.0196 7.16141 22.8862 7.39882 22.6488C7.63623 22.4114 7.7696 22.0894 7.7696 21.7536Z" fill="#0C0C0C"/>
<path d="M26.6419 21.7485C26.6419 22.0376 26.585 22.3239 26.4743 22.591C26.3637 22.8582 26.2015 23.1009 25.9971 23.3053C25.7926 23.5097 25.5499 23.6719 25.2828 23.7825C25.0157 23.8932 24.7294 23.9501 24.4403 23.9501C24.1512 23.9501 23.8649 23.8932 23.5978 23.7825C23.3307 23.6719 23.088 23.5097 22.8836 23.3053C22.6791 23.1009 22.5169 22.8582 22.4063 22.591C22.2957 22.3239 22.2387 22.0376 22.2387 21.7485C22.2387 21.1646 22.4707 20.6046 22.8836 20.1918C23.2964 19.7789 23.8564 19.5469 24.4403 19.5469C25.0242 19.5469 25.5842 19.7789 25.9971 20.1918C26.41 20.6046 26.6419 21.1646 26.6419 21.7485ZM25.7088 21.7524C25.7088 21.4159 25.5752 21.0933 25.3373 20.8554C25.0994 20.6175 24.7767 20.4839 24.4403 20.4839C24.1039 20.4839 23.7813 20.6175 23.5434 20.8554C23.3055 21.0933 23.1718 21.4159 23.1718 21.7524C23.1718 22.0888 23.3055 22.4114 23.5434 22.6493C23.7813 22.8872 24.1039 23.0208 24.4403 23.0208C24.7767 23.0208 25.0994 22.8872 25.3373 22.6493C25.5752 22.4114 25.7088 22.0888 25.7088 21.7524Z" fill="#0C0C0C"/>
</svg>
