<svg width="30" height="30" viewBox="0 0 30 30" fill="none" xmlns="http://www.w3.org/2000/svg">
<path d="M20.4562 2H9.55677C4.82241 2 2 4.821 2 9.553V20.434C2 25.179 4.82241 28 9.55677 28H20.4432C25.1775 28 28 25.179 28 20.447V9.553C28.013 4.821 25.1906 2 20.4562 2ZM21.2236 12.01L13.8489 19.381C13.6668 19.563 13.4197 19.667 13.1596 19.667C12.8994 19.667 12.6523 19.563 12.4702 19.381L8.78938 15.702C8.41219 15.325 8.41219 14.701 8.78938 14.324C9.16657 13.947 9.79088 13.947 10.1681 14.324L13.1596 17.314L19.8449 10.632C20.2221 10.255 20.8464 10.255 21.2236 10.632C21.6008 11.009 21.6008 11.62 21.2236 12.01Z" fill="#073D51"/>
</svg>
