<svg width="19" height="19" viewBox="0 0 19 19" fill="none" xmlns="http://www.w3.org/2000/svg">
<path d="M8.54203 12.0093C8.38369 12.0093 8.23328 11.9459 8.12244 11.8351L6.20661 9.91927C5.97703 9.68969 5.97703 9.30969 6.20661 9.0801C6.43619 8.85052 6.81619 8.85052 7.04578 9.0801L8.54203 10.5764L11.9462 7.17219C12.1758 6.9426 12.5558 6.9426 12.7854 7.17219C13.0149 7.40177 13.0149 7.78177 12.7854 8.01135L8.96161 11.8351C8.85078 11.9459 8.70036 12.0093 8.54203 12.0093Z" fill="#F99137"/>
<path d="M9.49999 18.0101C9.00124 18.0101 8.50249 17.8438 8.11457 17.5113L6.86374 16.4347C6.73707 16.3238 6.42041 16.213 6.25416 16.213H4.89249C3.72082 16.213 2.77082 15.263 2.77082 14.0913V12.7376C2.77082 12.5713 2.65999 12.2626 2.54916 12.1359L1.48041 10.8772C0.831239 10.1093 0.831239 8.89801 1.48041 8.13009L2.54916 6.87134C2.65999 6.74467 2.77082 6.43592 2.77082 6.26967V4.90801C2.77082 3.73634 3.72082 2.78634 4.89249 2.78634H6.26207C6.42832 2.78634 6.74499 2.66759 6.87166 2.56467L8.12249 1.48801C8.89832 0.823008 10.1096 0.823008 10.8854 1.48801L12.1362 2.56467C12.2629 2.67551 12.5796 2.78634 12.7458 2.78634H14.0917C15.2633 2.78634 16.2133 3.73634 16.2133 4.90801V6.25384C16.2133 6.42009 16.3321 6.73676 16.4429 6.86342L17.5196 8.11426C18.1846 8.89009 18.1846 10.1013 17.5196 10.8772L16.4429 12.128C16.3321 12.2547 16.2133 12.5713 16.2133 12.7376V14.0834C16.2133 15.2551 15.2633 16.2051 14.0917 16.2051H12.7458C12.5796 16.2051 12.2629 16.3238 12.1362 16.4268L10.8854 17.5034C10.4975 17.8438 9.99874 18.0101 9.49999 18.0101ZM4.89249 3.97384C4.37791 3.97384 3.95832 4.39342 3.95832 4.90801V6.26176C3.95832 6.71301 3.74457 7.29092 3.45166 7.63134L2.38291 8.89009C2.10582 9.21467 2.10582 9.77676 2.38291 10.1013L3.45166 11.3601C3.74457 11.7084 3.95832 12.2784 3.95832 12.7297V14.0834C3.95832 14.598 4.37791 15.0176 4.89249 15.0176H6.26207C6.72124 15.0176 7.29916 15.2313 7.64749 15.5322L8.89832 16.6088C9.22291 16.8859 9.79291 16.8859 10.1175 16.6088L11.3683 15.5322C11.7167 15.2393 12.2946 15.0176 12.7537 15.0176H14.0996C14.6142 15.0176 15.0337 14.598 15.0337 14.0834V12.7376C15.0337 12.2784 15.2475 11.7005 15.5483 11.3522L16.625 10.1013C16.9021 9.77676 16.9021 9.20676 16.625 8.88217L15.5483 7.63134C15.2475 7.28301 15.0337 6.70509 15.0337 6.24592V4.90801C15.0337 4.39342 14.6142 3.97384 14.0996 3.97384H12.7537C12.2946 3.97384 11.7167 3.76009 11.3683 3.45926L10.1175 2.38259C9.79291 2.10551 9.22291 2.10551 8.89832 2.38259L7.64749 3.46717C7.29916 3.76009 6.71332 3.97384 6.26207 3.97384H4.89249Z" fill="#F99137"/>
</svg>
